<svg width="27" height="27" viewBox="0 0 27 27" fill="none" xmlns="http://www.w3.org/2000/svg">
<path d="M25.0847 1.95761C25.6708 2.57076 26 3.40237 26 4.26949V25.1828C26 25.3445 25.9541 25.5026 25.8681 25.6371C25.7822 25.7715 25.6601 25.8762 25.5172 25.938C25.3743 25.9998 25.2172 26.0158 25.0656 25.9841C24.914 25.9524 24.7748 25.8744 24.6656 25.7599L20.2078 21.0959C19.9149 20.7893 19.5175 20.617 19.1031 20.617H4.125C3.2962 20.617 2.50134 20.2725 1.91529 19.6593C1.32924 19.0462 1 18.2146 1 17.3475V4.26949C1 3.40237 1.32924 2.57076 1.91529 1.95761C2.50134 1.34446 3.2962 1 4.125 1H22.875C23.7038 1 24.4987 1.34446 25.0847 1.95761Z" stroke="#3A4771" stroke-width="2"/>
<line x1="6.16797" y1="5.83203" x2="20.8346" y2="5.83203" stroke="#3A4771" stroke-width="2" stroke-linecap="round" stroke-linejoin="round"/>
<line x1="6.16797" y1="10.416" x2="20.8346" y2="10.416" stroke="#3A4771" stroke-width="2" stroke-linecap="round" stroke-linejoin="round"/>
<line x1="6.16797" y1="15" x2="15.8346" y2="15" stroke="#3A4771" stroke-width="2" stroke-linecap="round" stroke-linejoin="round"/>
</svg>
