<svg width="27" height="27" viewBox="0 0 27 27" fill="none" xmlns="http://www.w3.org/2000/svg">
<path d="M25.4826 13.2952L14.1237 1.27378C14.0419 1.187 13.9448 1.11814 13.8379 1.07116C13.7309 1.02418 13.6163 1 13.5005 1C13.3848 1 13.2701 1.02418 13.1631 1.07116C13.0562 1.11814 12.9591 1.187 12.8773 1.27378L1.51844 13.2952C1.18752 13.6457 1 14.1217 1 14.6182C1 15.6492 1.79145 16.4874 2.76491 16.4874H3.96173V25.0654C3.96173 25.5823 4.35608 26 4.84419 26H11.7356V19.4577H14.8242V26H22.1569C22.6449 26 23.0393 25.5823 23.0393 25.0654V16.4874H24.2361C24.7049 16.4874 25.1544 16.2918 25.4853 15.9383C26.172 15.2082 26.172 14.0253 25.4826 13.2952Z" stroke="#3A4771" stroke-width="2" stroke-linejoin="round"/>
</svg>
