<svg width="70" height="88" viewBox="0 0 70 88" fill="none" xmlns="http://www.w3.org/2000/svg">
<path d="M35.1585 61.2505C44.7008 61.2505 52.4608 53.4904 52.4608 43.9482V17.9947C52.4608 8.40491 44.7397 0.601562 35.2494 0.601562C34.9449 0.603392 34.6416 0.639669 34.3453 0.709702C29.904 0.925031 25.7155 2.83942 22.6463 6.05678C19.577 9.27413 17.8621 13.5482 17.8562 17.9947V43.9482C17.8562 53.4904 25.6163 61.2505 35.1585 61.2505Z" fill="#11BEB4"/>
<path d="M30.8318 78.2559V87.2055H39.483V78.2559C56.5214 76.1147 69.762 61.5678 69.762 43.9497H61.1109C61.1109 58.2631 49.4707 69.9032 35.1574 69.9032C20.844 69.9032 9.2039 58.2631 9.2039 43.9497H0.552734C0.552734 61.5635 13.7933 76.1147 30.8318 78.2559Z" fill="#11BEB4"/>
</svg>
