<svg width="362" height="206" viewBox="0 0 362 206" fill="none" xmlns="http://www.w3.org/2000/svg">
<path d="M68.5751 139.816C60.777 138.084 52.7845 152.979 54.7327 160.723C56.6809 168.467 65.0673 173.308 73.0813 173.351C77.4958 173.351 81.9858 172.234 86.2599 173.313C90.534 174.393 94.4088 179.104 92.4283 183.027C91.6943 184.479 90.3074 185.531 89.622 187.01C88.4617 189.519 89.703 192.623 91.8184 194.403C93.9339 196.184 96.7132 196.924 99.4115 197.506C116.762 201.284 134.711 200.744 152.455 200.232L271.23 196.67C275.477 196.54 279.821 196.395 283.766 194.819C287.711 193.243 291.23 189.913 291.813 185.709C292.395 181.505 289.039 176.843 284.808 177.026C297.234 171.546 308.537 163.81 318.143 154.209C319.638 152.714 321.133 151.106 321.769 149.093C322.406 147.08 324.7 141.792 322.908 140.674C321.796 139.978 320.409 139.94 319.093 139.919C302.363 139.665 283.108 139.617 266.362 139.617C200.62 139.617 149.455 139.816 68.5859 139.816" fill="#F5F5F5"/>
<path d="M166.708 74.1281C172.672 74.1281 177.506 69.2934 177.506 63.3294C177.506 57.3655 172.672 52.5308 166.708 52.5308C160.744 52.5308 155.909 57.3655 155.909 63.3294C155.909 69.2934 160.744 74.1281 166.708 74.1281Z" fill="#EBEBEB"/>
<path d="M158.526 25.2617L201.241 25.4398C201.241 25.4398 197.193 16.1846 188.553 16.1792C181.964 16.1792 181.667 20.2806 177.717 21.4517C173.766 22.6228 165.391 15.4507 158.526 25.2617Z" fill="#F5F5F5"/>
<path d="M94.4089 4.80301L116.999 4.90015C116.999 4.90015 114.841 0.00539664 110.286 0C106.8 0 106.649 2.15866 104.555 2.79006C102.461 3.42147 98.0517 -0.383162 94.4089 4.80301Z" fill="#F5F5F5"/>
<path d="M0 94.2739L42.7144 94.452C42.7144 94.452 38.6669 85.2022 30.0269 85.1968C23.4376 85.1968 23.1408 89.2982 19.1905 90.4693C15.2401 91.6404 6.88072 84.4413 0 94.2739Z" fill="#F5F5F5"/>
<path d="M108.877 120.982C108.877 120.982 94.0526 94.873 92.5361 70.696L88.2566 70.2319C88.2566 70.2319 90.6851 100.696 103.95 123.065L108.877 120.982Z" fill="#E0E0E0"/>
<path d="M89.2498 70.4263C86.0603 67.9006 82.2341 65.6179 78.2028 65.9902C75.2185 66.2655 72.5094 67.987 70.491 70.1942C68.4727 72.4014 67.048 75.0944 65.7312 77.7873C68.4922 78.3609 71.3571 78.1744 74.0204 77.2476C76.5461 76.3572 78.8234 74.8191 81.4192 74.1715C84.015 73.5239 86.6756 73.8046 89.3037 74.0798C90.8256 75.2509 90.3831 72.9249 89.2498 70.4479" fill="#EBEBEB"/>
<path d="M89.5248 72.0288C89.7407 68.7207 89.8378 65.1319 87.9436 62.412C85.8983 59.4762 82.0774 58.3699 78.5103 58.0407C74.9431 57.7115 71.268 57.9274 67.8843 56.7617C68.4718 58.8543 69.5676 60.7692 71.074 62.3359C72.5805 63.9027 74.451 65.0726 76.5189 65.7417" fill="#EBEBEB"/>
<path d="M87.0424 72.5361C87.67 71.2149 88.4565 69.9753 89.3846 68.8448C90.3255 67.7063 91.6495 66.9503 93.1082 66.7185C95.0186 66.508 96.8859 67.5496 98.1973 68.9527C99.5087 70.3558 100.691 76.2921 107.345 79.746C108.057 80.1184 97.1773 83.27 93.1838 78.127C91.5648 75.9953 89.4871 74.0633 87.0046 73.0164" fill="#EBEBEB"/>
<path d="M89.0769 72.4174C86.3084 71.2086 82.914 72.7088 81.1654 75.1805C79.4169 77.6522 79.0068 80.82 79.0446 83.8151C79.0823 86.8103 79.5033 89.8702 79.2011 92.8815C81.9382 91.4755 84.3441 89.502 86.2583 87.0927C88.1725 84.6834 89.551 81.8937 90.302 78.9096C90.7498 77.2814 90.8564 75.5782 90.615 73.9069C90.3618 72.2237 89.4783 70.6996 88.1433 69.6436" fill="#EBEBEB"/>
<path d="M86.9668 68.9099C89.1255 64.6951 91.6403 60.1781 95.9792 58.2461C100.318 56.3141 105.493 57.4744 110.124 56.2764C107.291 62.5439 102.157 67.4826 95.7849 70.0702" fill="#EBEBEB"/>
<path d="M89.8002 70.6853C86.5622 68.0356 84.9432 63.864 84.4629 59.7248C83.9826 55.5855 84.6194 51.4032 85.2292 47.3125C87.5417 48.8895 89.3948 51.0514 90.5997 53.5779C91.8046 56.1043 92.3183 58.905 92.0883 61.6946" fill="#EBEBEB"/>
<path d="M166.341 139.605H81.6729C81.6729 139.605 89.1634 108.305 110.896 109.703C132.628 111.1 130.399 122.396 140.318 124.63C150.237 126.864 161.808 124.301 166.341 139.605Z" fill="#EBEBEB"/>
<path d="M334.737 139.735C334.737 139.778 263.286 139.816 175.17 139.816C87.0532 139.816 15.5854 139.778 15.5854 139.735C15.5854 139.692 87.0208 139.649 175.17 139.649C263.318 139.649 334.737 139.687 334.737 139.735Z" fill="#E0E0E0"/>
<path d="M137.9 154.177C137.9 154.225 126.519 154.096 112.488 153.891C98.4563 153.686 87.0693 153.475 87.0693 153.432C87.0693 153.389 98.4509 153.513 112.488 153.718C126.524 153.923 137.9 154.133 137.9 154.177Z" fill="#E0E0E0"/>
<path d="M114.139 161.23C114.139 161.278 111.025 161.143 107.188 160.933C103.351 160.723 100.243 160.517 100.248 160.469C100.253 160.42 103.362 160.555 107.199 160.766C111.036 160.976 114.144 161.192 114.139 161.23Z" fill="#E0E0E0"/>
<path d="M123.988 167.927C123.988 167.976 120.631 168.014 116.492 168.014C112.353 168.014 108.996 167.976 108.996 167.927C108.996 167.879 112.353 167.846 116.492 167.846C120.631 167.846 123.988 167.884 123.988 167.927Z" fill="#E0E0E0"/>
<path d="M327.84 203.826C327.84 203.826 327.565 203.826 327.031 203.853L324.667 203.907L315.563 204.074L282.104 204.614L258.979 204.959C250.669 205.072 241.791 205.223 232.439 205.272C223.102 205.218 213.254 205.396 203.135 204.122C200.576 203.804 198.049 203.271 195.58 202.53L193.739 201.899L192.822 201.586C192.514 201.489 192.196 201.424 191.883 201.343C191.57 201.262 191.257 201.176 190.938 201.111L189.978 200.949C189.336 200.841 188.69 200.766 188.04 200.723C187.393 200.663 186.734 200.669 186.081 200.652C185.428 200.636 184.765 200.652 184.112 200.744C182.795 200.845 181.488 201.039 180.199 201.327C178.898 201.603 177.621 201.98 176.378 202.455C175.752 202.692 175.099 202.87 174.457 203.081C173.815 203.291 173.178 203.507 172.52 203.669C167.323 204.932 161.975 205.457 156.632 205.229C151.37 205.089 146.217 204.484 141.171 203.863C136.125 203.243 131.16 202.617 126.281 202.325C123.842 202.174 121.424 202.131 119.034 202.164C116.643 202.196 114.29 202.385 111.964 202.59C107.312 203.011 102.79 203.588 98.3645 203.923C93.9392 204.257 89.6435 204.36 85.4827 204.398C81.3219 204.436 77.3122 204.398 73.4536 204.371L62.3419 204.365L28.8504 204.155L19.7516 204.085L17.3825 204.058H16.573C16.573 204.058 16.8482 204.058 17.3825 204.058H19.7516H28.8558L62.3419 204.176L73.4374 204.22C77.296 204.22 81.3111 204.268 85.4665 204.22C89.6219 204.171 93.9177 204.069 98.3321 203.734C102.747 203.399 107.264 202.817 111.921 202.39C114.252 202.185 116.616 202.012 119.012 201.958C121.408 201.904 123.837 201.958 126.281 202.12C131.176 202.406 136.136 203.032 141.187 203.653C146.238 204.274 151.376 204.867 156.621 205.013C161.939 205.236 167.261 204.713 172.433 203.459C173.081 203.297 173.712 203.065 174.355 202.87C174.997 202.676 175.634 202.493 176.26 202.25C177.517 201.772 178.808 201.392 180.124 201.111C181.425 200.821 182.745 200.625 184.074 200.523C184.738 200.447 185.402 200.458 186.06 200.431C186.718 200.404 187.387 200.431 188.046 200.501C188.704 200.572 189.363 200.604 190.005 200.733L190.982 200.901C191.3 200.965 191.618 201.052 191.937 201.133C192.255 201.214 192.574 201.284 192.887 201.381L193.815 201.699L195.65 202.325C198.1 203.062 200.607 203.591 203.146 203.907C213.232 205.18 223.075 204.986 232.412 205.072C241.753 205.029 250.642 204.889 258.952 204.786L282.072 204.473L315.558 204.009L324.662 203.89H327.031L327.84 203.826Z" fill="#263238"/>
<path d="M206.88 178.753C207.204 179.33 209.719 190.043 211.494 197.695C211.999 199.871 213.227 201.811 214.976 203.2C216.725 204.589 218.894 205.344 221.127 205.342H237.922C240.186 205.337 242.38 204.555 244.137 203.125C245.894 201.696 247.106 199.706 247.571 197.49L251.516 178.753H206.88Z" fill="#455A64"/>
<path d="M206.88 178.753C206.88 178.753 217.673 184.657 231.073 183.896C244.473 183.135 251.532 178.753 251.532 178.753H206.88Z" fill="#263238"/>
<path d="M236.421 183.659C236.421 183.659 236.491 183.723 236.567 183.869C236.675 184.088 236.76 184.318 236.821 184.555C237.064 185.433 237.105 186.356 236.939 187.253C236.712 188.598 236.082 189.842 235.132 190.82C233.926 192.01 232.298 192.676 230.604 192.671C228.913 192.691 227.276 192.077 226.017 190.95C225.048 190.004 224.338 188.826 223.955 187.528C223.683 186.681 223.502 185.807 223.415 184.922C223.354 184.599 223.354 184.267 223.415 183.945C223.546 184.243 223.628 184.56 223.658 184.884C223.831 185.728 224.067 186.558 224.365 187.366C224.782 188.557 225.48 189.629 226.4 190.491C227.56 191.489 229.046 192.029 230.577 192.007C232.106 192.015 233.58 191.436 234.694 190.388C235.585 189.502 236.202 188.378 236.47 187.15C236.658 186.318 236.687 185.457 236.556 184.614C236.508 184.312 236.459 184.074 236.421 183.918C236.384 183.761 236.4 183.664 236.421 183.659Z" fill="#263238"/>
<path d="M204.872 117.312C204.872 117.312 189.827 159.821 171.365 170.868C171.365 170.868 192.412 181.662 204.872 170.868C215.806 161.376 233.664 128.202 236.346 117.312H204.872Z" fill="#455A64"/>
<path d="M131.84 166.341L167.053 168.111C167.053 168.111 178.893 175.019 192.887 175.591L160.199 175.628C153.235 175.946 146.274 174.93 139.692 172.633C136.4 171.473 134.117 168.208 131.84 166.341Z" fill="#263238"/>
<path d="M153.448 203.772C153.254 203.642 165.52 184.549 180.841 161.138C196.162 137.728 208.747 118.829 208.947 118.958C209.147 119.088 196.875 138.176 181.548 161.592C166.222 185.008 153.669 203.896 153.448 203.772Z" fill="#455A64"/>
<path d="M170.599 202.137C170.442 202.309 161.991 194.759 151.71 185.283C141.43 175.806 133.243 167.976 133.405 167.803C133.567 167.631 142.013 175.18 152.293 184.662C162.574 194.144 170.755 201.964 170.599 202.137Z" fill="#455A64"/>
<path d="M186.303 200.674C186.103 200.55 197.306 182.001 211.321 159.244C225.337 136.486 236.864 118.132 237.058 118.229C237.252 118.327 226.06 136.902 212.039 159.665C198.019 182.428 186.502 200.793 186.303 200.674Z" fill="#455A64"/>
<path d="M202.871 202.773C202.703 202.935 194.349 194.759 184.22 184.506C174.09 174.252 166.001 165.806 166.163 165.644C166.324 165.483 174.678 173.658 184.819 183.912C194.959 194.166 203.032 202.611 202.871 202.773Z" fill="#455A64"/>
<path d="M192.136 192.152C192.136 192.385 185.024 192.757 176.238 192.984C167.452 193.21 160.318 193.205 160.313 192.984C160.307 192.762 167.425 192.379 176.216 192.152C185.008 191.926 192.131 191.92 192.136 192.152Z" fill="#455A64"/>
<path d="M218.812 103.238C219.933 102.065 221.375 101.249 222.957 100.89C224.543 100.62 226.346 101.166 227.215 102.509C227.943 103.637 227.943 105.148 228.785 106.195C229.379 106.945 230.301 107.339 231.089 107.884C231.731 108.304 232.273 108.861 232.676 109.514C233.079 110.166 233.333 110.9 233.421 111.662C233.484 112.428 233.303 113.194 232.904 113.851C232.504 114.507 231.907 115.02 231.197 115.316L224.068 114.161L216.853 108.667L218.812 103.238Z" fill="#263238"/>
<path d="M233.54 105.515C233.552 105.407 233.598 105.305 233.669 105.223C233.769 105.105 233.894 105.011 234.035 104.948C234.176 104.884 234.329 104.853 234.484 104.856C234.709 104.852 234.932 104.91 235.126 105.024C235.359 105.169 235.546 105.376 235.666 105.623C235.928 106.217 235.949 106.891 235.725 107.501C235.471 108.241 234.973 108.873 234.311 109.293C233.934 109.538 233.508 109.698 233.062 109.762C232.617 109.826 232.163 109.793 231.732 109.665C231.256 109.526 230.817 109.285 230.444 108.959C230.071 108.633 229.774 108.229 229.573 107.776C229.152 106.81 229.265 105.715 229.346 104.684C229.515 103.694 229.411 102.677 229.044 101.743C228.639 100.904 227.967 100.225 227.134 99.8106C226.374 99.4374 225.526 99.2823 224.684 99.3627C223.948 99.4257 223.233 99.6349 222.579 99.9779C221.624 100.496 220.808 101.237 220.199 102.137C219.762 102.763 219.584 103.151 219.562 103.14C219.585 103.038 219.623 102.94 219.676 102.849C219.805 102.581 219.951 102.321 220.113 102.072C220.705 101.138 221.521 100.366 222.487 99.8268C223.154 99.46 223.888 99.2323 224.646 99.1576C225.531 99.0646 226.424 99.2197 227.225 99.6055C228.117 100.039 228.838 100.759 229.271 101.651C229.663 102.628 229.778 103.694 229.605 104.732C229.519 105.774 229.422 106.815 229.805 107.695C229.99 108.115 230.265 108.489 230.61 108.791C230.955 109.093 231.362 109.316 231.802 109.444C232.198 109.565 232.616 109.599 233.027 109.544C233.437 109.489 233.831 109.346 234.182 109.125C234.805 108.738 235.28 108.153 235.531 107.463C235.753 106.901 235.753 106.276 235.531 105.715C235.431 105.497 235.275 105.31 235.078 105.175C234.905 105.069 234.708 105.011 234.506 105.008C234.364 104.999 234.222 105.021 234.089 105.071C233.956 105.121 233.835 105.199 233.734 105.299C233.664 105.366 233.599 105.438 233.54 105.515Z" fill="#263238"/>
<path d="M178.03 169.287C174.991 169.827 160.307 164.274 149.735 162.87C147.263 162.541 143.167 165.213 142.293 165.153C138.175 164.867 136.427 155.439 141.424 152.056C146.821 148.413 179.201 155.153 179.201 155.153C179.201 155.153 184.527 157.344 184.02 163.151C183.496 169.384 178.03 169.287 178.03 169.287Z" fill="#EB996E"/>
<path d="M138.996 154.986L127.604 198.968C127.604 198.968 135.45 201.019 135.698 201.473C135.871 201.812 150.949 159.53 150.631 160.431L138.996 154.986Z" fill="#EB996E"/>
<path d="M128.332 197.992C128.332 197.992 120.469 196.319 121.856 197.593C123.243 198.866 135.04 203.48 135.04 203.48L135.688 201.246L128.332 197.992Z" fill="#EB996E"/>
<path d="M217.889 123.869C216.67 121.71 211.451 120.356 211.451 120.356L202.973 117.971L200.275 117.679C198.343 117.253 193.739 117.291 189.206 125.132C180.636 139.951 165.218 123.178 165.218 123.178C164.776 122.361 164.415 121.502 164.139 120.615C163.994 120.175 163.927 119.713 163.939 119.25C163.929 118.674 164 118.1 164.149 117.544C164.338 117.048 163.826 116.578 163.421 116.843C163.016 117.107 162.466 118.462 162.584 120.156C162.703 121.851 160.868 119.897 160.188 119.196C159.508 118.494 157.279 116.4 156.907 116.454C156.367 116.514 156.303 117.123 156.999 117.809C157.695 118.494 159.638 120.701 159.249 121.047C158.861 121.392 155.472 117.76 155.472 117.76C155.472 117.76 154.867 116.864 154.392 117.22C153.561 117.906 157.474 121.495 157.857 121.824C158.121 122.056 157.711 122.444 157.441 122.18C157.172 121.916 154.117 118.483 153.264 119.174C152.606 119.714 156.454 122.153 156.691 123.216C156.929 124.279 153.961 121.057 153.356 121.597C153.129 121.797 152.989 121.975 154.975 123.572C156.416 124.649 157.915 125.645 159.465 126.557C161.197 130.005 167.371 140.048 180.658 139.94C187.781 139.897 192.638 135.558 195.833 130.766L207.452 133.567L212.881 136.53C212.881 136.53 219.109 126.033 217.889 123.869Z" fill="#FFBE9D"/>
<path d="M210.016 118.872L226.621 120.356L213.766 112.148C213.766 112.148 216.017 107.911 216.788 106.724C216.945 106.476 238.202 118.597 240.253 120.356C242.201 122.029 241.365 128.332 235.801 128.521C230.237 128.71 215.294 128.521 215.294 128.521L210.016 118.872Z" fill="#FFBE9D"/>
<path d="M203.135 120.081C203.588 119.266 205.083 113.556 205.083 113.556C205.083 113.556 201.888 112.05 202.833 108.699C203.777 105.348 206.61 97.8248 206.61 97.8248L213.68 96.9722L217.835 104.053L211.84 120.421L203.135 120.081Z" fill="#FFBE9D"/>
<path d="M205.353 103.572C205.324 103.656 205.32 103.746 205.342 103.832C205.365 103.917 205.412 103.995 205.478 104.054C205.544 104.113 205.626 104.151 205.714 104.163C205.801 104.175 205.89 104.161 205.97 104.123C206.05 104.085 206.117 104.024 206.162 103.947C206.207 103.871 206.228 103.783 206.223 103.695C206.218 103.607 206.188 103.522 206.134 103.451C206.081 103.38 206.009 103.326 205.925 103.297C205.869 103.277 205.81 103.269 205.752 103.272C205.693 103.275 205.635 103.29 205.582 103.316C205.529 103.341 205.481 103.377 205.442 103.421C205.403 103.465 205.372 103.517 205.353 103.572Z" fill="#263238"/>
<path d="M205.105 102.973C205.142 103.043 205.547 102.887 206.006 103.022C206.465 103.157 206.734 103.491 206.799 103.448C206.864 103.405 206.799 103.308 206.702 103.157C206.547 102.955 206.331 102.809 206.087 102.741C205.843 102.672 205.584 102.684 205.347 102.773C205.169 102.849 205.088 102.941 205.105 102.973Z" fill="#263238"/>
<path d="M210.231 105.272C210.202 105.356 210.199 105.446 210.221 105.532C210.243 105.618 210.29 105.695 210.356 105.754C210.422 105.813 210.504 105.851 210.592 105.863C210.68 105.876 210.769 105.862 210.849 105.823C210.928 105.785 210.995 105.724 211.04 105.648C211.085 105.571 211.107 105.484 211.102 105.395C211.097 105.307 211.066 105.222 211.013 105.151C210.96 105.08 210.887 105.027 210.803 104.997C210.691 104.959 210.568 104.967 210.461 105.018C210.354 105.069 210.272 105.161 210.231 105.272Z" fill="#263238"/>
<path d="M210.134 104.722C210.167 104.797 210.571 104.641 211.03 104.77C211.489 104.9 211.759 105.24 211.829 105.197C211.899 105.153 211.829 105.062 211.726 104.905C211.57 104.707 211.354 104.563 211.111 104.495C210.868 104.424 210.608 104.435 210.372 104.527C210.194 104.598 210.113 104.689 210.134 104.722Z" fill="#263238"/>
<path d="M207.161 107.981C206.896 107.962 206.637 107.896 206.394 107.787C206.325 107.766 206.258 107.737 206.195 107.701C206.151 107.673 206.114 107.635 206.087 107.59C206.061 107.545 206.046 107.494 206.044 107.442C206.056 107.261 206.13 107.089 206.254 106.956L206.88 106.114C207.385 105.369 207.965 104.678 208.613 104.053C208.189 104.849 207.682 105.597 207.101 106.287L206.465 107.113C206.374 107.199 206.308 107.31 206.276 107.431C206.276 107.496 206.346 107.55 206.465 107.598C206.907 107.803 207.177 107.944 207.161 107.981Z" fill="#263238"/>
<path d="M209.692 107.307C209.573 107.685 210.059 108.154 210.771 108.413C211.483 108.672 212.136 108.629 212.287 108.262C212.439 107.895 211.991 107.334 211.262 107.064C210.534 106.794 209.794 106.929 209.692 107.307Z" fill="#EB996E"/>
<path d="M208.58 108.931C208.623 108.904 206.961 109.244 206.054 108.931C206.139 109.219 206.32 109.47 206.566 109.643C206.812 109.815 207.109 109.899 207.409 109.881C207.69 109.907 207.969 109.822 208.188 109.645C208.407 109.467 208.547 109.211 208.58 108.931Z" fill="white"/>
<path d="M205.083 113.556C206.665 114.03 208.35 114.045 209.94 113.599C209.94 113.599 208.111 115.672 204.856 114.387L205.083 113.556Z" fill="#EB996E"/>
<path d="M212.331 104.603C212.406 104.603 212.369 104.889 212.104 105.013C211.84 105.137 211.608 105.013 211.64 104.938C211.672 104.862 211.823 104.846 211.98 104.76C212.136 104.673 212.261 104.576 212.331 104.603Z" fill="#263238"/>
<path d="M216.065 100.21C214.036 101.862 209.891 102.838 207.296 102.498C207.733 102.169 209.595 101.629 210.032 101.3C208.596 101.84 206.578 102.579 205.099 102.158C204.917 102.127 204.751 102.033 204.63 101.894C204.576 101.783 204.545 101.661 204.541 101.538C204.536 101.414 204.557 101.291 204.603 101.176C204.962 99.9351 205.435 98.7301 206.017 97.5766C206.476 96.6241 207.253 95.861 208.213 95.4179C209.438 94.916 210.847 95.1751 212.109 95.5744C213.191 95.8636 214.192 96.3971 215.034 97.1341C215.452 97.5054 215.77 97.9757 215.959 98.5019C216.147 99.0281 216.201 99.5932 216.114 100.145" fill="#263238"/>
<path d="M214.327 99.5786C214.327 99.5786 211.786 103.766 214.57 107.674C214.57 107.674 213.016 111.581 214.128 114.15C214.128 114.15 216.75 110.097 217.517 108.267C218.283 106.438 222.374 100.172 215.973 98.5532L214.327 99.5786Z" fill="#263238"/>
<path d="M212.811 136.767C212.811 136.767 211.975 130.788 207.414 129.838C204.873 129.298 200.938 131.791 200.938 131.791L199.384 129.476C199.075 129.003 198.656 128.611 198.162 128.335C197.669 128.059 197.116 127.906 196.55 127.89C195.985 127.874 195.424 127.995 194.916 128.243C194.407 128.491 193.967 128.859 193.631 129.314C192.012 131.646 192.914 134.749 192.914 134.749L192.174 143.016L184.236 155.51C186.88 156.173 189.568 156.967 192.201 157.722L191.446 172.104C205.434 174.09 206.751 163.113 206.632 158.041L208.175 146.853L212.811 136.767Z" fill="#FF725E"/>
<g opacity="0.2">
<path opacity="0.2" d="M201.235 145.002C198.316 144.501 195.432 143.814 192.601 142.946C194.068 143.152 195.52 143.449 196.95 143.837C198.402 144.133 199.833 144.522 201.235 145.002Z" fill="black"/>
</g>
<g opacity="0.4">
<path opacity="0.4" d="M212.811 136.578C212.752 136.636 212.677 136.672 212.595 136.681C212.479 136.692 212.362 136.677 212.252 136.638C212.142 136.599 212.042 136.536 211.958 136.454C211.715 136.192 211.531 135.881 211.419 135.542C211.338 135.353 211.214 135.185 211.057 135.051C210.878 134.908 210.664 134.815 210.436 134.781C209.893 134.73 209.345 134.776 208.817 134.916C208.155 135.053 207.465 134.945 206.875 134.614C206.261 134.24 205.68 133.816 205.137 133.346C204.593 132.846 203.894 132.547 203.156 132.498C202.418 132.598 201.71 132.86 201.084 133.265C200.448 133.64 199.718 133.827 198.979 133.804C198.307 133.774 197.658 133.553 197.107 133.168C196.661 132.814 196.249 132.42 195.876 131.991C195.573 131.653 195.206 131.378 194.797 131.182C194.488 131.04 194.149 130.977 193.809 130.998C193.519 131.036 193.244 131.153 193.016 131.338C193.054 131.268 193.108 131.207 193.173 131.16C193.351 131.015 193.566 130.922 193.793 130.89C194.16 130.843 194.532 130.893 194.873 131.036C195.309 131.227 195.702 131.504 196.027 131.851C196.402 132.262 196.812 132.639 197.252 132.979C197.774 133.317 198.379 133.504 199.001 133.518C199.695 133.525 200.377 133.338 200.971 132.979C201.63 132.546 202.379 132.271 203.162 132.175C203.964 132.22 204.726 132.54 205.32 133.081C205.85 133.546 206.414 133.968 207.01 134.344C207.551 134.656 208.188 134.761 208.801 134.641C209.359 134.504 209.937 134.469 210.507 134.538C210.765 134.585 211.007 134.699 211.208 134.868C211.377 135.027 211.509 135.22 211.597 135.434C211.694 135.763 211.857 136.067 212.077 136.33C212.146 136.406 212.229 136.466 212.322 136.509C212.414 136.552 212.515 136.575 212.617 136.578C212.735 136.616 212.806 136.562 212.811 136.578Z" fill="white"/>
</g>
<g opacity="0.4">
<path opacity="0.4" d="M210.955 140.939C210.854 140.682 210.731 140.435 210.588 140.199C210.377 139.895 210.107 139.637 209.793 139.44C209.48 139.243 209.129 139.112 208.764 139.055C208.261 138.988 207.75 139.079 207.301 139.314C206.781 139.617 206.24 139.882 205.682 140.108C205.008 140.305 204.288 140.269 203.637 140.005C203.293 139.868 202.977 139.671 202.703 139.422C202.442 139.161 202.202 138.88 201.985 138.58C201.78 138.293 201.539 138.034 201.268 137.809C201.007 137.604 200.699 137.469 200.372 137.415C199.729 137.341 199.077 137.415 198.467 137.631C197.894 137.83 197.308 137.989 196.713 138.105C196.17 138.202 195.61 138.15 195.094 137.954C194.672 137.778 194.326 137.459 194.117 137.053C193.983 136.763 193.785 136.507 193.54 136.303C193.385 136.185 193.194 136.128 193 136.141C192.865 136.141 192.806 136.206 192.795 136.195C192.784 136.184 192.844 136.125 192.989 136.087C193.097 136.066 193.207 136.065 193.315 136.087C193.422 136.108 193.524 136.15 193.615 136.211C194.155 136.481 194.268 137.458 195.18 137.771C195.661 137.937 196.176 137.974 196.675 137.879C197.258 137.752 197.831 137.586 198.391 137.382C199.04 137.148 199.735 137.067 200.42 137.145C200.792 137.204 201.143 137.356 201.44 137.587C201.73 137.827 201.987 138.103 202.207 138.408C202.414 138.695 202.643 138.966 202.892 139.217C203.251 139.543 203.687 139.772 204.159 139.884C204.631 139.996 205.123 139.988 205.59 139.859C206.147 139.646 206.688 139.393 207.209 139.104C207.701 138.856 208.258 138.771 208.801 138.861C209.188 138.928 209.556 139.077 209.881 139.297C210.206 139.518 210.48 139.805 210.685 140.14C210.795 140.321 210.877 140.517 210.928 140.723C210.944 140.794 210.953 140.866 210.955 140.939Z" fill="white"/>
</g>
<g opacity="0.4">
<path opacity="0.4" d="M208.926 145.666C208.736 145.506 208.515 145.387 208.278 145.315C207.607 145.202 206.917 145.31 206.314 145.623C205.867 145.82 205.391 145.943 204.905 145.985C204.319 145.996 203.748 145.806 203.286 145.445C202.304 144.743 201.721 143.529 200.728 142.709C200.499 142.502 200.231 142.343 199.94 142.241C199.65 142.138 199.341 142.093 199.033 142.11C198.448 142.188 197.877 142.352 197.339 142.595C196.826 142.824 196.279 142.968 195.72 143.022C195.222 143.041 194.728 142.926 194.29 142.687C193.686 142.329 193.153 141.863 192.719 141.311C192.546 141.125 192.395 140.918 192.271 140.696C192.465 140.862 192.645 141.042 192.811 141.235C193.263 141.745 193.798 142.176 194.392 142.509C194.8 142.718 195.257 142.815 195.715 142.79C196.246 142.722 196.765 142.574 197.253 142.353C197.812 142.086 198.409 141.904 199.023 141.813C199.714 141.774 200.392 142.009 200.912 142.466C201.406 142.901 201.851 143.39 202.239 143.923C202.589 144.401 202.999 144.833 203.459 145.207C203.862 145.545 204.368 145.735 204.894 145.747C205.358 145.711 205.813 145.604 206.243 145.429C206.614 145.279 207.002 145.178 207.398 145.126C207.702 145.087 208.011 145.113 208.305 145.202C208.491 145.261 208.661 145.363 208.801 145.499C208.899 145.596 208.931 145.661 208.926 145.666Z" fill="white"/>
</g>
<g opacity="0.4">
<path opacity="0.4" d="M207.566 152.924C207.496 152.938 207.425 152.938 207.355 152.924C207.15 152.913 206.949 152.866 206.762 152.784C206.097 152.436 205.538 151.916 205.143 151.278C204.862 150.867 204.533 150.492 204.16 150.161C203.721 149.814 203.191 149.6 202.633 149.546C201.435 149.379 200.145 149.838 198.737 150.086C198.043 150.232 197.326 150.232 196.632 150.086C195.965 149.95 195.369 149.578 194.954 149.039C194.633 148.543 194.362 148.017 194.144 147.468C193.957 147.012 193.673 146.602 193.313 146.265C192.775 145.787 192.089 145.509 191.37 145.477C190.858 145.45 190.577 145.547 190.572 145.515C190.566 145.482 190.636 145.482 190.771 145.439C190.968 145.395 191.169 145.369 191.37 145.364C192.129 145.363 192.865 145.628 193.448 146.114C193.836 146.464 194.145 146.893 194.355 147.371C194.577 147.899 194.848 148.405 195.164 148.882C195.544 149.369 196.086 149.702 196.691 149.821C197.35 149.954 198.029 149.954 198.688 149.821C199.379 149.697 200.043 149.514 200.706 149.384C201.35 149.246 202.011 149.212 202.665 149.282C203.261 149.353 203.823 149.595 204.284 149.978C204.662 150.329 204.995 150.724 205.277 151.154C205.64 151.781 206.156 152.305 206.778 152.676C207.027 152.798 207.292 152.881 207.566 152.924Z" fill="white"/>
</g>
<g opacity="0.4">
<path opacity="0.4" d="M206.945 156.529C206.697 156.394 206.439 156.278 206.173 156.184C205.431 155.992 204.658 155.954 203.901 156.071C203.415 156.125 202.881 156.216 202.282 156.265C201.654 156.339 201.018 156.299 200.404 156.146C199.733 155.932 199.127 155.549 198.645 155.035C198.105 154.533 197.673 153.955 197.134 153.459C196.626 152.963 195.988 152.622 195.294 152.477C194.636 152.358 193.966 152.337 193.302 152.412C192.157 152.605 190.991 152.634 189.838 152.498C189.045 152.359 188.331 151.935 187.83 151.305C187.701 151.134 187.601 150.943 187.533 150.739C187.506 150.668 187.49 150.593 187.485 150.518C187.604 150.771 187.749 151.011 187.916 151.235C188.422 151.814 189.116 152.196 189.875 152.315C190.825 152.498 191.98 152.315 193.281 152.169C193.969 152.088 194.665 152.106 195.348 152.223C196.092 152.376 196.778 152.74 197.323 153.27C197.862 153.81 198.343 154.349 198.839 154.856C199.279 155.348 199.836 155.719 200.458 155.936C201.039 156.087 201.642 156.132 202.239 156.071C202.811 156.033 203.345 155.952 203.858 155.914C204.641 155.808 205.437 155.878 206.189 156.119C206.389 156.196 206.579 156.295 206.756 156.416C206.896 156.47 206.956 156.519 206.945 156.529Z" fill="white"/>
</g>
<g opacity="0.2">
<path opacity="0.2" d="M206.362 162.034C206.362 162.034 206.362 162.104 206.319 162.191C206.233 162.308 206.106 162.389 205.963 162.417C205.754 162.457 205.538 162.435 205.342 162.353C205.141 162.258 204.934 162.177 204.722 162.11C204.534 162.071 204.341 162.073 204.155 162.115C203.968 162.158 203.793 162.241 203.642 162.358C203.394 162.536 203.286 162.703 203.248 162.682C203.21 162.66 203.248 162.455 203.513 162.207C203.676 162.042 203.879 161.922 204.102 161.857C204.324 161.792 204.56 161.784 204.786 161.835C205.015 161.905 205.235 161.999 205.445 162.115C205.594 162.193 205.762 162.23 205.93 162.223C206.216 162.201 206.324 162.013 206.362 162.034Z" fill="white"/>
</g>
<g opacity="0.2">
<path opacity="0.2" d="M202.325 135.353C202.283 136.376 202.646 137.375 203.335 138.132C203.684 138.545 204.149 138.845 204.669 138.994C205.189 139.142 205.742 139.134 206.257 138.968C206.772 138.803 207.227 138.489 207.563 138.065C207.9 137.642 208.104 137.128 208.148 136.589C207.2 137.292 206.026 137.618 204.851 137.506C203.772 137.415 202.692 136.357 202.325 135.348" fill="black"/>
</g>
<path d="M208.175 136.589C207.974 136.882 207.696 137.113 207.371 137.258C206.607 137.672 205.719 137.794 204.871 137.603C204.024 137.411 203.274 136.919 202.763 136.216C202.531 135.945 202.38 135.614 202.325 135.261C202.369 135.261 202.52 135.617 202.919 136.092C203.434 136.719 204.142 137.156 204.933 137.334C205.723 137.513 206.551 137.424 207.285 137.08C207.825 136.821 208.116 136.551 208.175 136.589Z" fill="#263238"/>
<g opacity="0.2">
<path opacity="0.2" d="M198.418 157.183C200.987 157.792 202.924 158.413 204.225 160.151C205.844 162.282 206.011 164.56 205.401 165.725C204.727 167.01 204.139 169.125 200.739 171.009C203.162 169.39 203.939 165.612 203.356 163.022C203.031 161.737 202.417 160.544 201.562 159.532C200.706 158.52 199.631 157.716 198.418 157.183Z" fill="black"/>
</g>
<path d="M155.148 111.829L158.267 126.832L163.88 125.979L162.045 111.241L155.148 111.829Z" fill="#E0E0E0"/>
<path d="M158.753 125.439L162.903 124.851L161.764 114.241C161.748 114.1 161.687 113.968 161.59 113.864C161.492 113.76 161.364 113.69 161.225 113.664C160.107 113.48 157.447 113.124 156.907 113.567L156.61 113.847C156.524 113.927 156.459 114.027 156.423 114.139C156.387 114.25 156.381 114.369 156.405 114.484L158.753 125.439Z" fill="#FF725E"/>
<g opacity="0.4">
<path opacity="0.4" d="M156.33 114.274C157.026 114.66 157.77 114.954 158.542 115.148C159.321 115.342 160.14 115.301 160.895 115.03C161.155 114.941 161.381 114.775 161.543 114.555C161.621 114.442 161.659 114.307 161.653 114.17C161.646 114.034 161.594 113.903 161.505 113.799C161.351 113.677 161.162 113.605 160.966 113.594L159.061 113.335C158.527 113.231 157.979 113.222 157.442 113.308C157.188 113.348 156.951 113.461 156.76 113.632C156.569 113.804 156.43 114.026 156.362 114.274" fill="white"/>
</g>
<g opacity="0.4">
<path opacity="0.4" d="M162.255 119.352C162.255 119.352 162.077 119.611 161.629 119.811C161.033 120.063 160.362 120.075 159.757 119.843C159.411 119.708 159.12 119.53 158.845 119.417C158.613 119.31 158.36 119.258 158.105 119.266C157.869 119.29 157.643 119.374 157.447 119.509C157.447 119.509 157.447 119.422 157.55 119.32C157.699 119.182 157.887 119.093 158.089 119.066C158.38 119.027 158.676 119.066 158.947 119.179C159.249 119.287 159.546 119.46 159.865 119.584C160.412 119.784 161.009 119.798 161.565 119.622C161.991 119.492 162.228 119.314 162.255 119.352Z" fill="white"/>
</g>
<g opacity="0.4">
<path opacity="0.4" d="M162.493 120.296C162.493 120.296 162.315 120.555 161.867 120.755C161.27 121.006 160.599 121.017 159.994 120.787C159.649 120.653 159.357 120.474 159.082 120.361C158.851 120.254 158.598 120.202 158.343 120.21C158.106 120.234 157.88 120.318 157.684 120.453C157.684 120.453 157.684 120.367 157.787 120.264C157.935 120.124 158.124 120.035 158.327 120.01C158.618 119.971 158.914 120.01 159.185 120.124C159.487 120.232 159.784 120.404 160.102 120.528C160.649 120.729 161.247 120.742 161.802 120.566C162.228 120.431 162.466 120.259 162.493 120.296Z" fill="white"/>
</g>
<path d="M159.735 114.528C159.703 114.398 158.656 108.3 158.656 108.3L162.115 106.335L162.655 107.307L159.859 108.807L160.593 114.625L159.735 114.528Z" fill="#263238"/>
<path d="M158.213 114.538C157.99 114.192 157.809 113.821 157.673 113.432C157.371 112.741 156.972 111.77 156.551 110.696C156.049 109.417 155.623 108.278 155.375 107.566L155.531 107.506C155.641 107.768 155.71 108.044 155.736 108.327C155.581 108.089 155.459 107.831 155.375 107.56L155.531 107.501C155.839 108.192 156.308 109.314 156.81 110.593C157.236 111.673 157.603 112.649 157.857 113.362C158.017 113.74 158.136 114.135 158.213 114.538Z" fill="#263238"/>
<path d="M150.669 111.392L153.653 105.24L160.555 106.767C160.555 106.767 157.722 107.064 157.857 109.293C157.857 109.293 155.089 108.17 154.16 110.669C154.144 110.669 152.649 109.244 150.669 111.392Z" fill="#455A64"/>
<path d="M153.75 105.094C154.081 106.961 154.226 108.855 154.182 110.75C153.969 109.825 153.849 108.881 153.826 107.933C153.709 106.991 153.683 106.041 153.75 105.094Z" fill="#263238"/>
<path d="M158.013 109.336C157.15 108.843 156.361 108.228 155.671 107.512C154.92 106.861 154.264 106.107 153.723 105.272C153.788 105.224 154.684 106.195 155.882 107.312C157.08 108.429 158.062 109.271 158.013 109.336Z" fill="#263238"/>
<path d="M198.321 157.085C198.321 157.085 163.664 149.881 157.906 153.777C156.918 154.462 156.109 155.375 155.547 156.438L128.024 196.249C128.024 196.249 119.519 192.935 120.842 194.63C122.164 196.324 134.576 203.729 134.576 203.729L136.163 201.57C141.71 195.553 158.488 176.659 165.116 169.19C175.774 170.469 193.939 172.741 197.037 172.164C197.037 172.164 202.881 172.272 203.459 165.601C204.025 159.428 198.321 157.085 198.321 157.085Z" fill="#FFBE9D"/>
<path d="M192.827 66.9778L282.32 44.4253L295.477 49.374L345.882 117.598C345.882 117.598 308.817 101.705 295.293 113.022C295.293 113.022 275.234 87.1613 242.007 95.2131C242.007 95.2131 230.496 70.8311 192.827 66.9778Z" fill="#004576"/>
<path d="M251.386 204.036C251.003 203.955 257.096 174.97 264.981 139.314C272.865 103.659 279.551 74.7976 279.951 74.884C280.35 74.9703 274.241 103.945 266.351 139.644C258.461 175.342 251.764 204.123 251.386 204.036Z" fill="#263238"/>
<path d="M266.751 73.5726C267.053 73.3297 271.84 78.9206 277.436 86.0496C277.506 86.1467 277.582 86.2439 277.652 86.3302L276.869 86.0982C285.299 83.2164 292.169 81.1926 292.293 81.5542C292.417 81.9158 285.752 84.5277 277.328 87.4257L276.853 87.5876L276.545 87.1991L276.33 86.9185C270.733 79.7895 266.459 73.81 266.751 73.5726Z" fill="#263238"/>
<path d="M345.881 117.598C314.516 84.6517 301.537 91.4353 301.537 91.4353C283.809 63.0004 250.809 76.9129 250.809 76.9129C235.159 56.8051 192.838 66.9777 192.838 66.9777L281.478 44.3496L295.509 49.3739L345.881 117.598Z" fill="#006AB6"/>
<path d="M302.449 99.2873C302.217 99.3196 300.372 88.1648 298.316 74.3818C296.259 60.5987 294.786 49.3791 295.018 49.3468C295.25 49.3144 297.101 60.4638 299.152 74.2576C301.203 88.0515 302.681 99.2495 302.449 99.2873Z" fill="#263238"/>
<path d="M282.32 44.4253C281.94 44.9906 281.5 45.5134 281.009 45.9849C280.124 46.9455 278.85 48.3271 277.231 50.0216C273.993 53.4107 269.551 58.0734 264.592 63.1948C259.632 68.3162 255.099 72.9088 251.77 76.2061C250.107 77.8251 248.747 79.1635 247.792 80.0593C247.324 80.5526 246.807 80.9973 246.249 81.3869C246.626 80.8206 247.064 80.2976 247.555 79.8272C248.44 78.8612 249.713 77.4851 251.332 75.7906C254.57 72.4015 259.017 67.7388 263.977 62.612C268.936 57.4852 273.469 52.898 276.794 49.6061C278.461 47.9871 279.821 46.6487 280.777 45.7529C281.24 45.254 281.757 44.8087 282.32 44.4253Z" fill="#263238"/>
<path d="M279.951 74.3061C280.328 74.3979 279.411 79.5841 277.895 85.8873C276.378 92.1906 275.153 98.2402 274.775 98.1485C274.398 98.0567 275.315 91.8938 276.81 85.5851C278.305 79.2764 279.573 74.2252 279.951 74.3061Z" fill="#263238"/>
<path d="M83.0813 205.704C79.3036 200.669 74.9863 195.785 69.4763 192.752C64.1121 189.789 57.852 188.742 51.716 188.791C45.58 188.839 39.5142 189.94 33.4753 191.036C36.009 194.187 39.1806 196.768 42.7818 198.607C46.383 200.447 50.3325 201.504 54.3711 201.71L55.8714 199.552C55.7958 201.09 55.7257 202.622 55.6501 204.155C64.7683 205.229 73.9725 205.369 83.119 204.57" fill="#D2EFF7"/>
<path d="M41.5811 194.926C42.1265 194.724 42.6932 194.585 43.2702 194.511C44.8301 194.232 46.4083 194.068 47.9923 194.02C53.2258 193.905 58.4444 194.621 63.4536 196.141C68.4421 197.658 73.3048 199.561 77.9976 201.834C79.8001 202.692 81.2356 203.41 82.2393 203.917C82.7721 204.15 83.2802 204.436 83.7558 204.77C83.1973 204.614 82.6551 204.404 82.1368 204.144L77.8195 202.255C73.0982 200.113 68.2438 198.278 63.2863 196.761C58.3307 195.266 53.1846 194.497 48.0085 194.478C46.4413 194.488 44.8758 194.582 43.3188 194.759C42.745 194.862 42.1639 194.918 41.5811 194.926Z" fill="#263238"/>
<path d="M83.8962 205.817C86.427 201.541 87.8135 196.686 87.9222 191.718C88.0309 186.751 86.8581 181.84 84.5168 177.458C83.3907 179.89 82.2646 182.327 81.1385 184.77C82.5093 176.718 78.4726 168.488 72.5471 162.87C66.6216 157.252 59.0123 153.793 51.5002 150.642C49.9294 162 52.25 173.555 58.0841 183.426C63.8963 193.189 73.2648 201.856 83.9178 205.817" fill="#D0F5F3"/>
<path d="M61.5756 163.631C61.7375 163.545 66.9345 172.806 73.1946 184.306C79.4547 195.806 84.4034 205.207 84.2469 205.294C84.0904 205.38 78.8881 196.119 72.628 184.614C66.3678 173.108 61.4191 163.712 61.5756 163.631Z" fill="#263238"/>
<path d="M301.203 188.337C299.327 187.457 297.218 187.2 295.185 187.603C294.106 187.787 292.951 188.111 292.212 188.931C291.473 189.751 291.327 191.198 292.179 191.904C292.732 192.275 293.395 192.443 294.058 192.379C295.644 192.379 297.414 192.077 298.682 193.038C299.411 193.577 299.891 194.489 300.76 194.759C301.194 194.86 301.649 194.816 302.056 194.635C302.463 194.454 302.8 194.145 303.016 193.756C303.428 192.958 303.519 192.033 303.27 191.171C303.167 190.571 302.927 190.003 302.568 189.512C302.21 189.02 301.742 188.618 301.203 188.337Z" fill="#D0F5F3"/>
<path d="M305.401 180.237C304.279 181.856 302.104 181.316 301.084 180.334C300.064 179.352 299.648 177.943 299.26 176.594C298.375 173.507 297.479 170.274 298.137 167.134C298.298 166.183 298.716 165.295 299.346 164.565C299.666 164.205 300.074 163.935 300.531 163.784C300.988 163.632 301.476 163.604 301.947 163.701C303.027 163.987 303.728 165.067 304.219 166.087C305.675 169.106 306.44 172.411 306.459 175.763C306.459 177.322 306.281 178.958 305.38 180.242" fill="#D2EFF7"/>
<path d="M308.477 182.531C307.902 181.78 307.518 180.899 307.36 179.966C307.202 179.033 307.274 178.076 307.571 177.177C308.184 175.381 309.282 173.79 310.744 172.579C312.4 171.103 314.329 169.964 316.421 169.228C317.231 168.899 318.101 168.75 318.974 168.791C319.412 168.815 319.838 168.947 320.214 169.173C320.591 169.4 320.906 169.715 321.133 170.091C321.732 171.23 321.16 172.611 320.539 173.739C319.446 175.728 318.199 177.628 316.81 179.422C315.693 180.863 314.408 182.282 312.708 182.935C311.008 183.588 309.233 183.513 308.332 182.331" fill="#D0F5F3"/>
<path d="M305.477 204.365C305.418 204.126 305.384 203.882 305.374 203.636C305.326 203.097 305.261 202.444 305.18 201.65C305.082 200.674 304.935 199.703 304.737 198.742C304.469 197.571 304.108 196.423 303.658 195.309C303.224 194.197 302.633 193.152 301.904 192.206C301.311 191.434 300.554 190.803 299.686 190.361C299.098 190.07 298.468 189.874 297.819 189.778C297.575 189.772 297.332 189.737 297.096 189.675C297.341 189.646 297.59 189.646 297.835 189.675C298.508 189.727 299.166 189.899 299.778 190.183C300.693 190.61 301.495 191.246 302.12 192.039C302.879 192.999 303.49 194.067 303.933 195.207C304.385 196.338 304.737 197.506 304.986 198.698C305.174 199.672 305.302 200.656 305.369 201.645C305.434 202.487 305.461 203.167 305.471 203.642C305.5 203.882 305.502 204.124 305.477 204.365Z" fill="#263238"/>
<path d="M305.342 202.838C305.326 202.725 305.326 202.611 305.342 202.498V201.537C305.342 200.701 305.342 199.486 305.299 197.992C305.229 195.002 304.97 190.873 304.473 186.335C303.977 181.796 303.307 177.7 302.703 174.781C302.557 174.047 302.417 173.388 302.277 172.811C302.136 172.233 302.039 171.732 301.931 171.327C301.823 170.922 301.769 170.636 301.71 170.388C301.676 170.279 301.656 170.167 301.651 170.053C301.697 170.156 301.735 170.262 301.764 170.372C301.839 170.614 301.931 170.911 302.045 171.294C302.158 171.678 302.298 172.19 302.444 172.768C302.59 173.345 302.752 174.004 302.908 174.738C303.738 178.556 304.362 182.417 304.775 186.302C305.272 190.846 305.498 194.991 305.52 197.986C305.52 199.486 305.52 200.685 305.466 201.537C305.466 201.931 305.423 202.25 305.407 202.503C305.394 202.616 305.373 202.728 305.342 202.838Z" fill="#263238"/>
<path d="M305.315 194.851C305.289 194.515 305.289 194.178 305.315 193.842C305.353 193.194 305.444 192.261 305.622 191.116C305.843 189.775 306.141 188.447 306.513 187.139C306.955 185.533 307.51 183.96 308.175 182.433C309.32 179.625 310.966 177.049 313.032 174.829C313.39 174.446 313.773 174.086 314.176 173.75C314.354 173.604 314.511 173.453 314.667 173.335L315.115 173.032C315.384 172.831 315.667 172.651 315.962 172.493C314.985 173.259 314.056 174.086 313.183 174.97C311.18 177.2 309.57 179.755 308.423 182.525C307.763 184.04 307.204 185.598 306.75 187.188C306.313 188.65 306.027 189.994 305.806 191.122C305.585 192.25 305.477 193.183 305.407 193.82C305.405 194.166 305.374 194.51 305.315 194.851Z" fill="#263238"/>
</svg>
