<svg width="239" height="175" viewBox="0 0 239 175" fill="none" xmlns="http://www.w3.org/2000/svg">
<path d="M14.4335 99.9628C11.8536 99.2417 9.44738 98.0033 7.36118 96.3229C5.27497 94.6425 3.55241 92.5553 2.29826 90.1882C1.04412 87.8212 0.284601 85.2237 0.065921 82.5538C-0.152759 79.884 0.173965 77.1976 1.02622 74.658C2.35568 70.7147 4.90757 67.2276 6.00044 63.2111C7.2454 58.6481 6.50743 53.8034 5.73567 49.1278C4.96391 44.4521 4.18651 39.6356 5.3526 35.0445C6.5187 30.4533 10.186 26.1551 14.9292 25.834C19.2838 25.5467 23.3229 28.814 25.1537 32.7574C26.9845 36.7007 26.9902 41.32 26.562 45.714C26.1339 50.108 25.3058 54.44 25.5649 58.8171C26.0945 67.6839 31.0631 76.0269 30.4772 84.8881C30.173 89.5018 28.3872 92.4536 25.334 95.9237C22.6976 98.9207 18.3149 100.887 14.4335 99.9685" fill="#D2EFF7"/>
<path d="M15.2728 122.023C15.2052 122.023 15.1545 106.024 15.1545 86.291C15.1545 66.5575 15.2052 50.5532 15.2728 50.5532C15.3404 50.5532 15.3968 66.5575 15.3968 86.2741C15.3968 105.991 15.3404 122.023 15.2728 122.023Z" fill="#E0E0E0"/>
<path d="M23.2159 78.8891C23.2554 78.9398 21.5259 80.365 19.3402 82.0663C17.1545 83.7675 15.3631 85.1026 15.3237 85.0519C15.2842 85.0012 17.0137 83.576 19.1937 81.8747C21.3738 80.1735 23.1709 78.8384 23.2159 78.8891Z" fill="#E0E0E0"/>
<path d="M15.2784 77.8582C14.4254 77.4118 13.6097 76.8975 12.8392 76.3203C12.023 75.8067 11.2522 75.2243 10.5352 74.5796C11.3893 75.0304 12.2051 75.5504 12.9744 76.1344C13.7892 76.6437 14.5599 77.2203 15.2784 77.8582Z" fill="#E0E0E0"/>
<path d="M180.636 72.2619C182.302 65.2066 177.932 58.1373 170.877 56.4722C163.822 54.807 156.752 59.1765 155.087 66.2317C153.422 73.2869 157.791 80.3562 164.847 82.0214C171.902 83.6866 178.971 79.3171 180.636 72.2619Z" fill="#D2EFF7"/>
<path d="M168.212 98.6676C168.2 98.5685 168.2 98.4682 168.212 98.3691C168.212 98.1381 168.212 97.8564 168.183 97.5128C168.183 96.7241 168.15 95.6538 168.127 94.3525C168.088 91.6485 168.026 87.9812 167.964 83.9309C167.902 79.8805 167.874 76.1738 167.891 73.5092C167.891 72.1741 167.891 71.0925 167.924 70.3489C167.924 70.0053 167.924 69.718 167.953 69.4927C167.95 69.3905 167.96 69.2884 167.981 69.1885C168.005 69.2879 168.015 69.3904 168.009 69.4927C168.009 69.718 168.009 70.0053 168.037 70.3489C168.037 71.1376 168.071 72.2079 168.093 73.5092C168.138 76.2132 168.195 79.8805 168.257 83.9309C168.319 87.9812 168.352 91.6823 168.336 94.3525C168.336 95.6876 168.336 96.7636 168.296 97.5128C168.296 97.8564 168.296 98.1381 168.268 98.3691C168.265 98.471 168.246 98.5718 168.212 98.6676Z" fill="#E0E0E0"/>
<path d="M172.893 70.856C171.422 72.789 169.796 74.5995 168.031 76.2696C169.503 74.3365 171.129 72.526 172.893 70.856Z" fill="#E0E0E0"/>
<path d="M218.906 45.5454L209.256 65.0085L212.135 65.1212L203.961 80.5903H208.253L201.555 94.3299H239L230.759 80.5903L234.707 80.4156L226.804 64.9578L229.728 64.7832L218.906 45.5454Z" fill="#D0F5F3"/>
<path d="M219.272 68.0562C219.351 68.0562 219.272 78.1623 219.148 90.6232C219.024 103.084 218.81 113.196 218.731 113.196C218.653 113.196 218.703 103.09 218.855 90.6232C219.007 78.1567 219.188 68.0562 219.272 68.0562Z" fill="#E0E0E0"/>
<path d="M224.838 73.8813C223.076 75.5989 221.179 77.1719 219.165 78.5852C220.931 76.8719 222.827 75.2992 224.838 73.8813Z" fill="#E0E0E0"/>
<path d="M66.7952 0L49.1404 35.6082L54.4132 35.8054L39.4567 64.1015H47.3096L35.0571 89.243H103.558L88.4779 64.1015L95.7054 63.7917L81.2503 35.5068L86.5907 35.1913L66.7952 0Z" fill="#D2EFF7"/>
<path d="M69.7807 41.3032C69.8596 41.3032 69.73 57.5666 69.4934 77.6212C69.2568 97.6758 68.9921 113.934 68.9301 113.934C68.8681 113.934 68.9752 97.6758 69.2174 77.6156C69.4596 57.5553 69.6962 41.3032 69.7807 41.3032Z" fill="#E0E0E0"/>
<path d="M69.4204 73.9261C69.0293 73.794 68.652 73.6242 68.2938 73.4191L65.5841 72.0784L62.8632 70.7658C62.4683 70.6081 62.0907 70.4098 61.7366 70.1743C62.1481 70.2568 62.5475 70.3912 62.9252 70.5743C63.6463 70.8672 64.6152 71.2953 65.6912 71.8136C66.7671 72.3319 67.7023 72.8445 68.3726 73.2332C68.7506 73.4176 69.1028 73.6505 69.4204 73.9261Z" fill="#E0E0E0"/>
<path d="M77.8816 47.0894C77.8195 47.261 77.7321 47.4223 77.6225 47.5682C77.4422 47.8611 77.1662 48.2836 76.8169 48.7962C76.124 49.8215 75.1269 51.2186 73.9664 52.7396C72.806 54.2606 71.7131 55.5562 70.8963 56.497C70.4907 56.9646 70.1527 57.3364 69.9104 57.5842C69.6682 57.8321 69.533 57.9729 69.5161 57.956C69.8895 57.3993 70.2978 56.8668 70.7385 56.3618C71.5103 55.3929 72.5806 54.0578 73.7355 52.5593C74.8903 51.0608 75.9099 49.6919 76.6479 48.7005C77.0231 48.1368 77.4353 47.5986 77.8816 47.0894Z" fill="#E0E0E0"/>
<path d="M186.176 69.0702C197.843 69.0702 207.301 59.6122 207.301 47.9452C207.301 36.2783 197.843 26.8203 186.176 26.8203C174.509 26.8203 165.052 36.2783 165.052 47.9452C165.052 59.6122 174.509 69.0702 186.176 69.0702Z" fill="#D0F5F3"/>
<path d="M186.317 97.6201C186.233 97.6201 186.171 86.4661 186.171 72.7152C186.171 58.9643 186.233 47.8047 186.317 47.8047C186.402 47.8047 186.464 58.953 186.464 72.7152C186.464 86.4774 186.396 97.6201 186.317 97.6201Z" fill="#E0E0E0"/>
<path d="M194.271 50.5195C194.333 50.5702 192.627 52.5701 190.463 54.9755C188.3 57.3809 186.52 59.2906 186.441 59.2399C187.635 57.6895 188.906 56.2004 190.249 54.7783C191.516 53.2906 192.859 51.8691 194.271 50.5195Z" fill="#E0E0E0"/>
<path d="M33.4853 41.6753L22.4496 63.9325L25.7451 64.0565L16.3994 81.7451H21.3061L13.6504 97.4564H56.4636L47.0391 81.7451L51.5513 81.5479L42.5211 63.8706L45.8561 63.6734L33.4853 41.6753Z" fill="#D0F5F3"/>
<path d="M35.35 67.4927C35.4289 67.4927 35.35 76.9228 35.1867 88.5444C35.0233 100.166 34.8149 109.59 34.736 109.59C34.6572 109.59 34.736 100.166 34.8938 88.5387C35.0515 76.9116 35.2712 67.4927 35.35 67.4927Z" fill="#E0E0E0"/>
<path d="M40.6003 73.2163C39.868 74.3977 39.0549 75.5271 38.1668 76.5963C37.3559 77.7303 36.4655 78.8052 35.5022 79.8129C36.2338 78.631 37.047 77.5016 37.9358 76.4329C38.7453 75.2979 39.6358 74.2229 40.6003 73.2163Z" fill="#E0E0E0"/>
<path d="M35.2485 79.3509C34.378 78.8566 33.5574 78.2793 32.798 77.6271C31.9833 77.0527 31.2284 76.3978 30.5447 75.6724C31.4128 76.1676 32.2315 76.7448 32.9895 77.3962C33.8038 77.9733 34.5603 78.628 35.2485 79.3509Z" fill="#E0E0E0"/>
<path d="M34.9557 90.2682C34.005 89.5845 33.0912 88.8512 32.2179 88.0712C30.7194 86.8488 29.4688 85.9024 29.5139 85.8179C30.5535 86.3712 31.5237 87.0463 32.4038 87.829C33.3456 88.5409 34.202 89.3594 34.9557 90.2682Z" fill="#E0E0E0"/>
<path d="M41.0564 83.5195C40.2448 84.7595 39.3528 85.9451 38.3862 87.0685C37.4987 88.2595 36.5313 89.3887 35.4907 90.4485C36.3024 89.2085 37.1944 88.023 38.1609 86.8995C39.0483 85.7084 40.0157 84.5792 41.0564 83.5195Z" fill="#E0E0E0"/>
<path d="M226.331 119.686C226.331 119.686 226.179 119.534 225.897 119.23L224.652 117.866C223.525 116.712 221.869 114.977 219.537 112.965C216.711 110.518 213.684 108.311 210.49 106.369C208.5 105.15 206.445 104.042 204.333 103.051C196.521 99.3589 188.01 97.3805 179.371 97.2485C172.476 97.1496 165.62 98.3123 159.142 100.679C152.286 103.135 145.853 107.394 139.33 111.884C136.068 114.137 132.773 116.458 129.303 118.644C125.804 120.896 122.102 122.814 118.244 124.373C114.368 125.928 110.25 126.794 106.076 126.93C102.024 127.007 97.9855 126.45 94.1056 125.28C90.3763 124.143 86.7365 122.731 83.2164 121.055C79.7575 119.449 76.4564 117.748 73.1665 116.137C66.6544 112.926 60.2775 110.098 53.9175 108.842C53.1288 108.679 52.3345 108.566 51.5515 108.436L50.3798 108.295C49.9914 108.239 49.6002 108.205 49.208 108.194L46.8984 108.07C46.1322 108.07 45.3774 108.104 44.645 108.115C44.2732 108.115 43.8958 108.115 43.5184 108.16L42.3917 108.273C41.665 108.363 40.9383 108.391 40.2285 108.526L38.1329 108.904C37.4344 109.011 36.7697 109.225 36.1049 109.383C31.3073 110.622 26.7084 112.532 22.4441 115.055C19.2126 116.935 16.1263 119.053 13.2111 121.393C10.8226 123.331 9.04812 124.936 7.87076 126.046L6.53566 127.319L6.07373 127.747C6.07373 127.747 6.2202 127.59 6.51313 127.297L7.82569 126.001C8.99742 124.874 10.7606 123.263 13.1379 121.303C16.0493 118.944 19.1338 116.806 22.3653 114.909C26.6363 112.365 31.2446 110.437 36.0542 109.18C36.7246 109.022 37.3893 108.808 38.0879 108.695L40.2004 108.312C40.9102 108.177 41.6425 108.143 42.3748 108.053L43.5015 107.935C43.8733 107.901 44.2507 107.907 44.6281 107.89C45.383 107.89 46.1435 107.828 46.9153 107.839L49.2418 107.957C49.634 107.969 50.0252 108.003 50.4136 108.059L51.5965 108.2C52.3852 108.329 53.1852 108.436 53.9795 108.605C60.3733 109.862 66.7783 112.689 73.3017 115.895C76.569 117.5 79.8927 119.196 83.3459 120.801C86.8533 122.469 90.4799 123.874 94.1957 125.004C98.0526 126.163 102.067 126.714 106.093 126.638C110.234 126.498 114.319 125.638 118.165 124.097C122.011 122.542 125.702 120.63 129.19 118.385C132.654 116.216 135.95 113.878 139.212 111.625C145.712 107.118 152.168 102.865 159.075 100.403C165.582 98.0323 172.469 96.8734 179.394 96.9838C188.065 97.1288 196.604 99.1324 204.434 102.859C206.549 103.859 208.607 104.976 210.597 106.206C213.785 108.163 216.8 110.389 219.61 112.858C221.937 114.881 223.554 116.633 224.68 117.805L225.903 119.185C226.196 119.511 226.331 119.686 226.331 119.686Z" fill="#E0E0E0"/>
<path d="M230.094 174.261H229.328H227.074L218.36 174.29L186.086 174.34H185.934L185.991 174.199C185.991 174.132 186.041 174.053 186.075 173.974C186.379 172.183 186.717 170.194 187.061 168.149L187.236 168.262L182.757 171.439L182.577 171.563V171.343C182.577 166.651 182.577 161.699 182.577 156.533L182.825 156.567L178.104 173.14L178.019 173.433L177.862 173.174L173.631 166.414L173.879 166.324C174.183 168.791 174.515 171.495 174.848 174.211V174.368H174.684C161.097 174.306 146.332 174.368 131.026 174.34H84.8331H63.9391H46.0703L44.9436 174.278H44.8535V174.188C44.5605 172.385 44.2901 170.695 44.0197 169.039L44.2225 169.09L42.1326 171.985L42.0143 172.143L41.9354 171.969C40.7242 169.22 39.575 166.628 38.4765 164.138L38.6737 164.099C38.5948 167.056 38.5272 169.783 38.4597 172.38V172.554L38.3188 172.453L33.4347 169.129L33.5643 169.022L35.8176 174.228L35.8683 174.34H35.7388C28.1112 174.267 22.1005 174.301 17.9994 174.273H13.3125H12.1126H11.707H12.1126H13.3125H17.9994C22.1005 174.273 28.1394 174.216 35.75 174.273L35.6712 174.385C34.9783 172.797 34.2516 171.129 33.4178 169.191L33.2939 168.91L33.5474 169.084L38.4371 172.391L38.285 172.47C38.347 169.873 38.4146 167.146 38.4822 164.189V163.727L38.6681 164.15C39.7947 166.634 40.9214 169.22 42.1438 171.969H41.9523L44.0423 169.073L44.2056 168.848L44.2507 169.118C44.5211 170.78 44.814 172.464 45.0901 174.267L44.983 174.166L46.1097 174.228H63.9617H84.8556H131.049C146.36 174.228 161.119 174.199 174.713 174.267L174.572 174.425C174.239 171.687 173.907 168.983 173.609 166.538L173.535 165.924L173.862 166.448L178.087 173.208L177.845 173.242C179.495 167.484 181.078 161.936 182.582 156.674L182.83 155.818V156.708C182.83 161.874 182.83 166.848 182.83 171.518L182.65 171.422L187.157 168.256L187.376 168.104L187.331 168.363C186.982 170.403 186.638 172.391 186.329 174.188L186.244 174.413L186.086 174.154L218.36 174.199L227.074 174.228H229.328C229.835 174.25 230.094 174.261 230.094 174.261Z" fill="#263238"/>
<path d="M206.817 164.578C204.304 163.226 203.29 161.316 202.699 158.522C202.412 157.119 202.429 155.671 202.75 154.275C203.071 152.88 203.687 151.569 204.558 150.432C206.011 148.551 208.163 147.182 209.16 145.019C210.225 142.715 209.842 139.791 211.459 137.842C212.585 136.501 214.371 135.966 215.796 134.963C216.957 134.146 217.864 133.02 218.9 132.051C219.937 131.082 221.21 130.226 222.63 130.169C224.77 130.085 226.669 131.978 227.012 134.113C227.356 136.248 226.41 138.405 224.939 139.971C223.88 141.098 222.517 142.039 221.897 143.469C220.737 146.151 222.658 149.469 221.385 152.1C220.455 154.021 217.977 155.176 217.858 157.305C217.913 158.087 218.03 158.863 218.208 159.626C218.472 162.071 216.416 164.296 214.067 165.006C211.718 165.715 209.183 165.248 206.817 164.594" fill="#FF725E"/>
<path d="M219.013 139.228C218.952 139.341 218.879 139.447 218.793 139.543C218.619 139.768 218.388 140.05 218.112 140.411C217.836 140.771 217.441 141.233 217.053 141.791C216.664 142.348 216.185 142.951 215.734 143.678L214.997 144.805C214.743 145.193 214.512 145.621 214.259 146.049C213.729 146.906 213.25 147.863 212.732 148.866C211.654 151.063 210.733 153.333 209.977 155.66C209.248 157.995 208.683 160.378 208.287 162.792C208.135 163.918 207.972 164.972 207.91 165.975C207.876 166.47 207.82 166.955 207.797 167.422C207.775 167.89 207.769 168.329 207.752 168.757C207.701 169.608 207.752 170.38 207.752 171.061C207.752 171.743 207.78 172.323 207.814 172.796C207.848 173.27 207.859 173.619 207.876 173.895C207.883 174.024 207.883 174.154 207.876 174.284C207.84 174.159 207.819 174.03 207.814 173.901C207.786 173.625 207.746 173.258 207.701 172.808C207.656 172.357 207.6 171.749 207.589 171.067C207.577 170.385 207.515 169.608 207.549 168.752C207.549 168.324 207.549 167.873 207.577 167.411C207.606 166.949 207.645 166.459 207.673 165.952C207.73 164.944 207.882 163.879 208.022 162.752C208.404 160.318 208.965 157.915 209.701 155.564C210.459 153.224 211.391 150.943 212.49 148.742C213.019 147.739 213.509 146.782 214.044 145.926C214.309 145.497 214.546 145.069 214.805 144.681L215.56 143.554C216.027 142.833 216.518 142.23 216.923 141.689C217.329 141.148 217.706 140.692 218.022 140.332L218.748 139.498C218.828 139.4 218.916 139.309 219.013 139.228Z" fill="#263238"/>
<path d="M51.9233 148.917C52.5995 148.969 53.2581 149.157 53.8594 149.471C54.4606 149.785 54.9921 150.217 55.4216 150.742C56.2773 151.798 56.8787 153.038 57.1792 154.364C57.8383 156.899 57.3933 159.879 56.6497 162.391C53.9232 161.389 52.2557 158.448 51.5065 156.91C50.3235 154.477 49.6588 149.35 51.9233 148.917Z" fill="#FF725E"/>
<path d="M60.5649 165.49C60.1605 164.849 59.9324 164.112 59.9037 163.355C59.875 162.597 60.0467 161.845 60.4015 161.175C60.7666 160.514 61.2586 159.933 61.8493 159.463C62.44 158.993 63.1177 158.644 63.8435 158.437C64.1689 158.309 64.5184 158.253 64.8677 158.273C65.217 158.294 65.5576 158.39 65.8658 158.556C66.1255 158.755 66.3268 159.021 66.4487 159.326C66.5706 159.63 66.6086 159.961 66.5587 160.285C66.4507 160.933 66.1749 161.54 65.7588 162.048C64.4124 163.84 62.7788 165.327 60.5423 165.49" fill="#FF725E"/>
<path d="M60.5873 174.188C60.5197 174.016 60.4742 173.837 60.4521 173.653C60.3845 173.309 60.3001 172.802 60.2099 172.177C59.9444 170.544 59.9008 168.882 60.0804 167.237C60.2738 165.573 60.9143 163.992 61.9337 162.663C62.2472 162.268 62.6087 161.914 63.0097 161.609C63.1497 161.487 63.3097 161.39 63.4829 161.322C62.9834 161.775 62.52 162.267 62.0971 162.792C61.1523 164.125 60.5594 165.675 60.3733 167.299C60.199 168.921 60.2122 170.558 60.4127 172.177C60.5126 172.843 60.5709 173.515 60.5873 174.188Z" fill="#263238"/>
<path d="M52.7739 152.748C52.9342 153.007 53.07 153.28 53.1795 153.564C53.4218 154.094 53.7429 154.866 54.171 155.818C54.9878 157.733 56.0694 160.403 57.1961 163.383C58.3227 166.363 59.2748 169.084 59.9339 171.061C60.2606 172.053 60.4972 172.858 60.6887 173.416C60.7933 173.699 60.8706 173.992 60.9197 174.289C60.783 174.019 60.6681 173.738 60.5761 173.45L59.7367 171.129C59.0325 169.169 58.0467 166.459 56.92 163.485C55.7934 160.51 54.7399 157.851 53.9738 155.891C53.602 154.961 53.2978 154.201 53.0669 153.598C52.9469 153.323 52.849 153.038 52.7739 152.748Z" fill="#263238"/>
<path d="M57.7256 167.958C56.823 166.637 55.6192 165.551 54.2135 164.787C52.8078 164.024 51.2407 163.607 49.6418 163.569C48.8306 163.569 47.8673 163.755 47.5518 164.499C47.2363 165.242 47.7659 166.082 48.3517 166.645C49.5945 167.801 51.1518 168.563 52.8271 168.835C54.5024 169.106 56.2206 168.876 57.765 168.172" fill="#FF725E"/>
<path d="M51.0388 165.586C51.2143 165.559 51.3929 165.559 51.5684 165.586C51.7729 165.597 51.9762 165.623 52.1768 165.665C52.4484 165.702 52.7175 165.757 52.9823 165.828C53.6739 166.003 54.3459 166.249 54.9878 166.56C55.7706 166.948 56.5107 167.416 57.1961 167.957C57.8695 168.518 58.4831 169.146 59.0269 169.833C59.4618 170.401 59.8392 171.01 60.1536 171.653C60.2788 171.895 60.388 172.145 60.4803 172.402C60.5616 172.584 60.6275 172.772 60.6775 172.965C60.7405 173.13 60.7803 173.302 60.7957 173.478C60.7394 173.478 60.531 172.774 59.9676 171.72C59.634 171.108 59.2476 170.525 58.8128 169.98C57.7442 168.64 56.3992 167.547 54.8695 166.774C54.2462 166.459 53.5957 166.201 52.926 166.003C51.7824 165.704 51.0332 165.642 51.0388 165.586Z" fill="#263238"/>
<path d="M89.8693 169.517L91.9761 165.613L84.6866 161.619L81.5432 167.298L81.977 167.574C83.9261 168.79 91.9761 173.612 93.5422 173.939C95.2941 174.305 89.8693 169.517 89.8693 169.517Z" fill="#FF725E"/>
<path d="M84.2191 168.69C84.4442 168.016 84.4162 167.283 84.1402 166.628C83.868 165.98 83.3637 165.458 82.7263 165.163L81.5996 167.197L84.2191 168.69Z" fill="#E6E6E6"/>
<path d="M92.4606 171.968C92.4606 171.968 94.2858 173.782 93.8182 173.99C93.3506 174.199 85.0359 169.636 81.5432 167.298L81.6446 167.14L91.3001 172.554C91.3001 172.554 92.0099 171.754 92.4606 171.968Z" fill="#E6E6E6"/>
<path d="M81.532 167.073L81.6503 167.157L81.9995 167.377L83.2896 168.16C84.3881 168.813 85.9147 169.698 87.6216 170.639C89.3285 171.579 90.8889 172.391 92.0325 172.965C92.562 173.236 93.0183 173.455 93.3845 173.641L93.7563 173.816L93.8858 173.872C93.8858 173.872 93.8464 173.844 93.7619 173.799L93.4014 173.607L92.0607 172.903C90.934 172.34 89.3736 171.489 87.6667 170.549C85.9598 169.608 84.4331 168.735 83.329 168.098L82.0164 167.343L81.6616 167.14L81.532 167.073Z" fill="#263238"/>
<path d="M91.2383 172.661C91.4168 172.475 91.6152 172.308 91.8298 172.165C92.0675 172.051 92.3168 171.962 92.5734 171.9C92.2998 171.861 92.0211 171.923 91.7903 172.075C91.5385 172.193 91.3411 172.403 91.2383 172.661Z" fill="#263238"/>
<path d="M89.6834 170.39C89.6834 170.419 89.8694 170.351 90.0665 170.238C90.2637 170.126 90.4158 170.024 90.4045 169.996C90.2668 170.017 90.1357 170.069 90.0215 170.148C89.8243 170.261 89.6722 170.368 89.6834 170.39Z" fill="#263238"/>
<path d="M89.2665 169.76C89.3839 169.778 89.5041 169.766 89.6158 169.726C89.8073 169.681 89.9538 169.625 89.9481 169.596C89.8289 169.578 89.7069 169.59 89.5932 169.63C89.4073 169.675 89.2609 169.732 89.2665 169.76Z" fill="#263238"/>
<path d="M89.2722 168.864C89.2722 168.864 89.4187 169.005 89.6271 169.123C89.7465 169.208 89.883 169.265 90.0271 169.292C90.0271 169.292 89.8806 169.151 89.6722 169.033C89.5528 168.948 89.4163 168.89 89.2722 168.864Z" fill="#263238"/>
<path d="M89.4075 168.312C89.491 168.462 89.6162 168.586 89.768 168.667C89.9017 168.773 90.0649 168.836 90.2356 168.847C90.2356 168.819 90.044 168.729 89.8187 168.582C89.5934 168.436 89.43 168.289 89.4075 168.312Z" fill="#263238"/>
<path d="M90.2805 169.895C90.4237 170.004 90.5835 170.09 90.7537 170.148C90.9361 170.22 91.1246 170.275 91.3171 170.312C91.4317 170.338 91.5488 170.351 91.6663 170.351C91.7401 170.348 91.8102 170.318 91.8635 170.267C91.8895 170.236 91.9059 170.198 91.9109 170.158C91.9159 170.118 91.9092 170.078 91.8916 170.041C91.8075 169.922 91.6977 169.823 91.5704 169.751C91.443 169.68 91.3012 169.637 91.1554 169.628C91.0095 169.618 90.8634 169.641 90.7276 169.695C90.5919 169.749 90.4699 169.833 90.3707 169.94C90.3087 170.008 90.2805 170.053 90.2862 170.058C90.4146 169.942 90.5611 169.847 90.7199 169.777C90.8993 169.706 91.0958 169.693 91.2833 169.737C91.3955 169.753 91.5033 169.792 91.6001 169.851C91.6969 169.91 91.7808 169.988 91.8466 170.081C91.886 170.177 91.8128 170.25 91.7001 170.25C91.5924 170.252 91.4848 170.242 91.379 170.222C91.1882 170.188 90.9999 170.141 90.8157 170.081C90.4664 169.974 90.32 169.878 90.2805 169.895Z" fill="#263238"/>
<path d="M90.3875 169.985C90.4986 169.916 90.5823 169.81 90.6241 169.686C90.6765 169.556 90.6959 169.415 90.6804 169.275C90.6802 169.184 90.6561 169.094 90.6107 169.015C90.5652 168.936 90.4999 168.871 90.4213 168.825C90.369 168.809 90.3125 168.814 90.264 168.839C90.2156 168.864 90.179 168.908 90.1621 168.96C90.1297 169.04 90.1162 169.127 90.1227 169.213C90.1282 169.351 90.1509 169.487 90.1903 169.619C90.2163 169.741 90.2725 169.856 90.3537 169.951C90.3279 169.833 90.2959 169.717 90.2579 169.602C90.2319 169.474 90.2187 169.344 90.2185 169.213C90.2185 169.078 90.2635 168.875 90.3931 168.92C90.5227 168.965 90.5677 169.151 90.5903 169.286C90.6059 169.413 90.5943 169.542 90.5565 169.664C90.5108 169.776 90.4542 169.884 90.3875 169.985Z" fill="#263238"/>
<path d="M82.7769 165.141C82.7769 165.141 82.9966 165.236 83.3007 165.456C83.7028 165.741 84.0186 166.13 84.2134 166.583C84.3982 167.04 84.4547 167.538 84.3767 168.025C84.3147 168.397 84.2134 168.588 84.2303 168.588C84.2472 168.588 84.2641 168.543 84.3091 168.442C84.3706 168.303 84.4159 168.157 84.4443 168.008C84.5483 167.508 84.4992 166.987 84.3035 166.515C84.0996 166.055 83.767 165.664 83.3458 165.388C83.2165 165.308 83.0808 165.238 82.9402 165.18C82.8887 165.157 82.8333 165.143 82.7769 165.141Z" fill="#263238"/>
<path d="M85.1936 162.543C84.8732 163.015 84.578 163.504 84.3092 164.008C84.0174 164.496 83.7522 165 83.5149 165.517C83.8361 165.048 84.1314 164.56 84.3993 164.058C84.6958 163.57 84.9611 163.064 85.1936 162.543Z" fill="#263238"/>
<path d="M85.5261 168.481C85.8274 168.756 86.1648 168.989 86.5289 169.173C86.8794 169.39 87.2587 169.557 87.6555 169.669C87.6555 169.669 87.1767 169.41 86.5964 169.106C86.0162 168.802 85.543 168.458 85.5261 168.481Z" fill="#263238"/>
<path d="M84.1234 167.698C84.1234 167.698 84.1234 167.816 84.1234 167.951C84.1234 168.086 84.0896 168.199 84.1234 168.21C84.1572 168.221 84.2248 168.12 84.2361 167.962C84.2474 167.805 84.1234 167.686 84.1234 167.698Z" fill="#263238"/>
<path d="M83.9261 166.729C83.8979 166.729 83.9261 166.841 83.9261 166.96C83.9261 167.078 84.0106 167.163 84.0388 167.157C84.0669 167.151 84.0388 167.05 84.0388 166.932C84.0388 166.813 83.9543 166.723 83.9261 166.729Z" fill="#263238"/>
<path d="M83.3235 166.002C83.3235 166.03 83.4136 166.081 83.4981 166.177C83.5826 166.272 83.6333 166.374 83.6615 166.368C83.6896 166.363 83.6615 166.227 83.577 166.109C83.4925 165.991 83.3291 165.974 83.3235 166.002Z" fill="#263238"/>
<path d="M82.8557 165.557C82.8557 165.557 82.8557 165.636 82.9064 165.692C82.9571 165.749 83.0078 165.782 83.0303 165.76C83.0529 165.737 83.0303 165.681 82.9796 165.625C82.9289 165.568 82.8782 165.54 82.8557 165.557Z" fill="#263238"/>
<path d="M81.5828 163.98L92.9902 169.275L113.417 132.822C116.081 123.206 118.65 89.3555 118.65 89.3555L103.863 90.4821C103.863 90.4821 101.581 114.784 98.0039 127.307L81.5828 163.98Z" fill="#263238"/>
<path d="M94.7871 165.704C94.189 165.52 93.6068 165.289 93.0464 165.011C91.993 164.549 90.5396 163.884 88.9397 163.146C87.3399 162.408 85.909 161.721 84.8725 161.208C84.2991 160.959 83.7471 160.663 83.2219 160.324C83.8169 160.511 84.3969 160.742 84.957 161.017C86.016 161.479 87.4694 162.143 89.0637 162.881C90.6579 163.619 92.1057 164.312 93.1366 164.825C93.709 165.074 94.2609 165.368 94.7871 165.704Z" fill="#455A64"/>
<path opacity="0.2" d="M105.265 100.442L114.425 128.231L115.585 122.068L105.265 100.442Z" fill="black"/>
<path d="M149.47 167.168L147.149 163.388L140.034 167.686L143.369 173.258L143.825 173.016C145.859 171.94 154.067 167.382 155.137 166.205C156.309 164.881 149.47 167.168 149.47 167.168Z" fill="#FF725E"/>
<path d="M145.893 171.641C145.424 171.104 144.774 170.759 144.067 170.672C143.372 170.584 142.669 170.759 142.096 171.162L143.296 173.151L145.893 171.641Z" fill="#E6E6E6"/>
<path d="M152.85 166.154C152.85 166.154 155.34 165.489 155.283 165.996C155.227 166.503 147.109 171.404 143.335 173.258L143.25 173.089L152.776 167.455C152.776 167.455 152.461 166.424 152.85 166.154Z" fill="#E6E6E6"/>
<path d="M143.149 173.151L143.279 173.095C143.386 173.033 143.51 172.971 143.645 172.903L144.969 172.176C146.095 171.557 147.616 170.678 149.284 169.675C150.951 168.673 152.444 167.726 153.514 167.028L154.776 166.194L155.114 165.963L155.227 165.878C155.182 165.894 155.14 165.917 155.103 165.946L154.754 166.16L153.475 166.971C152.393 167.653 150.901 168.582 149.233 169.591C147.566 170.599 146.039 171.478 144.935 172.115L143.622 172.869L143.267 173.072L143.149 173.151Z" fill="#263238"/>
<path d="M152.85 167.562C152.67 167.071 152.67 166.533 152.85 166.042C152.679 166.257 152.593 166.527 152.608 166.802C152.593 167.077 152.679 167.347 152.85 167.562Z" fill="#263238"/>
<path d="M150.112 167.765C150.162 167.636 150.181 167.497 150.168 167.359C150.168 167.129 150.168 166.948 150.129 166.948C150.075 167.076 150.054 167.216 150.067 167.354C150.047 167.493 150.063 167.634 150.112 167.765Z" fill="#263238"/>
<path d="M149.351 167.811C149.351 167.811 149.442 167.675 149.498 167.489C149.546 167.38 149.565 167.259 149.554 167.14C149.554 167.14 149.459 167.275 149.402 167.461C149.346 167.647 149.323 167.799 149.351 167.811Z" fill="#263238"/>
<path d="M148.58 167.354C148.58 167.382 148.771 167.303 148.98 167.179C149.188 167.055 149.34 166.943 149.329 166.915C149.184 166.944 149.047 167.006 148.929 167.095C148.721 167.213 148.568 167.331 148.58 167.354Z" fill="#263238"/>
<path d="M148.168 166.96C148.341 166.966 148.512 166.921 148.659 166.83C148.906 166.701 149.07 166.532 149.047 166.515C148.896 166.577 148.751 166.652 148.613 166.74C148.459 166.8 148.31 166.874 148.168 166.96Z" fill="#263238"/>
<path d="M149.977 166.999C150.144 166.935 150.298 166.841 150.433 166.723C150.585 166.6 150.727 166.464 150.856 166.317C150.935 166.231 151.005 166.137 151.064 166.036C151.099 165.972 151.11 165.898 151.092 165.827C151.079 165.789 151.054 165.756 151.022 165.731C150.991 165.706 150.952 165.691 150.912 165.687C150.686 165.706 150.474 165.803 150.312 165.961C150.15 166.119 150.047 166.329 150.022 166.554C150.007 166.686 150.018 166.821 150.056 166.948C150.066 166.997 150.087 167.044 150.118 167.084C150.092 166.912 150.092 166.737 150.118 166.565C150.148 166.383 150.23 166.212 150.354 166.075C150.496 165.908 150.699 165.802 150.918 165.782C151.025 165.782 151.047 165.895 150.996 165.996C150.942 166.091 150.877 166.179 150.805 166.261C150.683 166.406 150.552 166.541 150.411 166.667C150.14 166.881 149.966 166.988 149.977 166.999Z" fill="#263238"/>
<path d="M150.106 166.948C150.106 166.948 150.106 166.796 149.971 166.599C149.883 166.489 149.772 166.4 149.644 166.34C149.564 166.298 149.474 166.275 149.382 166.275C149.291 166.275 149.201 166.298 149.12 166.34C149.083 166.38 149.062 166.432 149.062 166.486C149.062 166.541 149.083 166.593 149.12 166.633C149.174 166.702 149.244 166.756 149.323 166.791C149.441 166.858 149.568 166.907 149.701 166.937C149.822 166.978 149.952 166.988 150.078 166.965C150.078 166.965 149.937 166.937 149.723 166.87C149.599 166.83 149.48 166.778 149.368 166.712C149.244 166.655 149.098 166.503 149.199 166.413C149.264 166.381 149.335 166.365 149.408 166.365C149.48 166.365 149.551 166.381 149.616 166.413C149.735 166.459 149.841 166.533 149.926 166.627C149.996 166.729 150.056 166.836 150.106 166.948Z" fill="#263238"/>
<path d="M142.146 171.117C142.146 171.117 142.338 170.976 142.682 170.819C143.131 170.615 143.628 170.539 144.118 170.599C144.602 170.665 145.059 170.859 145.442 171.162C145.735 171.404 145.87 171.602 145.887 171.59C145.904 171.579 145.887 171.534 145.797 171.444C145.706 171.323 145.602 171.211 145.487 171.111C145.111 170.771 144.64 170.553 144.137 170.487C143.634 170.42 143.122 170.509 142.67 170.74C142.532 170.806 142.402 170.887 142.282 170.982C142.146 171.072 142.113 171.111 142.146 171.117Z" fill="#263238"/>
<path d="M141.071 167.715C141.585 168.731 142.161 169.715 142.794 170.661C142.557 170.143 142.284 169.643 141.978 169.163C141.704 168.662 141.401 168.179 141.071 167.715Z" fill="#263238"/>
<path d="M146.372 170.408C146.758 170.279 147.127 170.103 147.47 169.884C147.828 169.688 148.161 169.45 148.461 169.174C148.461 169.174 147.994 169.455 147.419 169.799C146.845 170.143 146.355 170.379 146.372 170.408Z" fill="#263238"/>
<path d="M144.963 171.246C144.963 171.275 145.059 171.32 145.172 171.399C145.284 171.477 145.369 171.556 145.391 171.539C145.414 171.522 145.357 171.404 145.228 171.314C145.098 171.224 144.963 171.218 144.963 171.246Z" fill="#263238"/>
<path d="M144.051 170.909C144.051 170.937 144.135 170.982 144.253 171.016C144.372 171.049 144.473 171.044 144.484 171.016C144.496 170.987 144.4 170.942 144.282 170.909C144.163 170.875 144.062 170.88 144.051 170.909Z" fill="#263238"/>
<path d="M143.121 171.067C143.121 171.067 143.234 171.027 143.363 170.999C143.493 170.971 143.594 170.999 143.605 170.959C143.617 170.92 143.498 170.869 143.341 170.903C143.183 170.937 143.098 171.05 143.121 171.067Z" fill="#263238"/>
<path d="M142.501 171.247C142.501 171.275 142.569 171.286 142.642 171.275C142.715 171.264 142.766 171.23 142.766 171.202C142.766 171.174 142.699 171.162 142.625 171.174C142.552 171.185 142.496 171.219 142.501 171.247Z" fill="#263238"/>
<path d="M97.1306 75.7339C96.8546 75.7339 93.8295 84.7021 96.7419 90.6453C97.0348 91.2424 99.3163 94.5154 99.3163 94.5154C107.378 104.03 115.546 122.474 117.822 127.318C122.503 137.261 139.741 169.957 139.741 169.957L150.816 163.619L134.626 121.989L119.929 84.4205L97.1306 75.7339Z" fill="#263238"/>
<path d="M117.101 114.192C117.101 114.192 117.884 117.984 118.289 117.758C119.444 117.139 127.37 114.181 127.37 114.181L125.23 111.81L117.101 114.192Z" fill="#455A64"/>
<path d="M119.444 117.139C119.444 117.139 120.926 123.24 122.824 122.902C124.723 122.564 128.722 120.569 128.722 120.569L126.317 114.547L119.444 117.139Z" fill="#455A64"/>
<path opacity="0.2" d="M119.438 117.139L126.328 114.547L126.717 115.516L119.703 118.085L119.438 117.139Z" fill="black"/>
<path d="M104.189 100.075C104.356 100.344 104.503 100.624 104.629 100.915C104.916 101.478 105.288 102.283 105.755 103.224C106.735 105.213 108.042 107.877 109.49 110.824C110.938 113.77 112.262 116.491 113.152 118.468C113.602 119.459 113.952 120.259 114.188 120.823C114.321 121.108 114.434 121.401 114.526 121.702C114.353 121.438 114.204 121.159 114.081 120.868C113.8 120.276 113.422 119.499 112.955 118.558C111.974 116.57 110.668 113.905 109.22 110.953C107.772 108.001 106.454 105.286 105.558 103.309C105.113 102.323 104.758 101.517 104.522 100.96C104.384 100.676 104.272 100.38 104.189 100.075Z" fill="#455A64"/>
<path d="M149.988 161.681C150.022 161.755 147.47 163.112 144.276 164.712C141.082 166.312 138.473 167.529 138.434 167.478C138.395 167.427 140.958 166.053 144.146 164.453C147.335 162.853 149.954 161.608 149.988 161.681Z" fill="#455A64"/>
<path d="M109.744 37.0723C109.744 37.0723 100.167 33.2361 99.3614 33.7768C98.5558 34.3176 93.4238 42.7113 98.1727 43.4042C102.922 44.0971 110.267 38.2497 110.267 38.2497L109.744 37.0723Z" fill="#FF725E"/>
<path d="M109.361 37.3823C109.255 37.4893 109.131 37.577 108.994 37.6415C108.642 37.8396 108.263 37.984 107.868 38.0696C106.535 38.328 105.154 38.1564 103.924 37.5795C102.713 36.997 101.603 36.2249 100.635 35.2924C100.207 34.942 99.8198 34.5452 99.4797 34.1094C99.9344 34.4188 100.366 34.7615 100.77 35.1346C101.758 36.0032 102.859 36.7346 104.043 37.3091C105.227 37.8663 106.55 38.0622 107.845 37.8724C108.363 37.7503 108.87 37.5864 109.361 37.3823Z" fill="#263238"/>
<path d="M139.234 56.0565L140.051 54.3665C140.618 53.4763 141.097 52.533 141.482 51.5499C141.679 51.0579 141.792 50.536 141.814 50.0063C141.871 49.3511 141.835 48.6911 141.707 48.0459C141.533 47.4826 142.152 46.9756 142.592 47.308C143.031 47.6403 143.555 49.2177 143.29 51.1499C143.025 53.0821 146.848 51.3178 147.688 50.5686L150.467 55.7297L142.98 60.9237L139.234 56.0565Z" fill="#E6BBAC"/>
<path d="M117.827 38.1147C117.219 38.1147 116.498 42.5144 115.89 50.4123C115.197 59.3749 115.253 68.4389 117.737 74.1116C117.968 74.7197 118.317 75.276 118.764 75.7488C119.21 76.2215 119.746 76.6013 120.34 76.8663C126.756 79.514 144.456 60.5297 144.456 60.5297L140.102 52.8853L127.635 62.952C127.635 62.952 126.39 52.767 126.632 48.0745C126.813 44.5198 123.252 38.1542 117.827 38.1147Z" fill="#FF725E"/>
<g opacity="0.2">
<path opacity="0.2" d="M117.827 38.1143C117.219 38.1143 116.498 42.5139 115.89 50.4118C115.197 59.3744 115.253 68.4384 117.737 74.1112C117.968 74.7192 118.317 75.2755 118.764 75.7483C119.21 76.221 119.746 76.6008 120.34 76.8658C126.756 79.5135 144.456 60.5292 144.456 60.5292L140.102 52.8848L127.635 62.9516C127.635 62.9516 126.39 52.7665 126.632 48.074C126.813 44.5193 123.252 38.1537 117.827 38.1143Z" fill="black"/>
</g>
<path d="M125.765 98.791L131.455 96.8981L123.455 42.7563L120.289 86.1272L125.765 98.791Z" fill="#FF725E"/>
<path opacity="0.2" d="M125.765 98.791L131.455 96.8981L123.455 42.7563L120.289 86.1272L125.765 98.791Z" fill="black"/>
<path d="M129.505 83.6883C129.417 83.4016 129.355 83.1075 129.319 82.8095C129.218 82.2462 129.089 81.4181 128.931 80.3928C128.627 78.3535 128.255 75.5256 127.939 72.3879C127.624 69.2501 127.432 66.4053 127.32 64.3435C127.269 63.3126 127.235 62.4789 127.218 61.8986C127.19 61.6007 127.19 61.3008 127.218 61.0029C127.277 61.2965 127.312 61.594 127.325 61.893C127.376 62.5183 127.444 63.3408 127.522 64.3266C127.686 66.3884 127.911 69.2276 128.227 72.3597C128.542 75.4918 128.88 78.3198 129.134 80.3646C129.252 81.3505 129.353 82.1673 129.427 82.7926C129.477 83.0885 129.504 83.3881 129.505 83.6883Z" fill="#263238"/>
<path d="M142.406 62.6706C142.094 62.352 141.82 61.9985 141.589 61.6171C141.116 60.9355 140.496 59.9835 139.848 58.9019C139.2 57.8203 138.648 56.8232 138.271 56.0852C138.034 55.7022 137.845 55.2917 137.708 54.8628C137.985 55.2147 138.228 55.5919 138.434 55.9895C138.913 56.795 139.471 57.7245 140.079 58.7554L141.769 61.5101C142.02 61.8746 142.233 62.2634 142.406 62.6706Z" fill="#263238"/>
<path d="M123.365 47.3137C122.722 47.3871 122.074 47.4078 121.427 47.3756H121.23L121.314 47.1954C121.45 46.8856 121.602 46.5701 121.748 46.2377L121.855 46.0124L122.002 46.2208L122.362 46.7391L122.441 46.8518H122.188L122.909 45.404L123.089 45.0435L123.151 45.4378C123.274 46.0504 123.345 46.6722 123.365 47.2968C123.175 46.7014 123.019 46.0958 122.897 45.4829L123.14 45.5167L122.452 46.9813L122.34 47.2066L122.199 46.9982L122.12 46.8912C122.002 46.7109 121.878 46.5363 121.765 46.3673H122.013C121.85 46.694 121.698 47.0095 121.545 47.3081L121.433 47.1222C122.08 47.1535 122.725 47.2174 123.365 47.3137Z" fill="#263238"/>
<path d="M123.607 47.7756C123.607 47.8545 123.117 47.9221 122.514 47.9221C121.912 47.9221 121.427 47.8545 121.427 47.7756C121.427 47.6968 121.917 47.6235 122.514 47.6235C123.112 47.6235 123.607 47.6911 123.607 47.7756Z" fill="#263238"/>
<path d="M105.997 39.2415C105.997 39.2415 100.336 41.8328 97.5474 46.086C94.7589 50.3392 96.1898 88.2345 96.1898 88.2345L123.078 89.0907C123.078 89.0907 120.824 39.1908 119.45 38.65C115.997 37.2642 111.726 37.2642 105.997 39.2415Z" fill="#F0F0F0"/>
<path d="M95.052 52.8908C95.0239 54.1752 92.9902 100.442 92.9902 100.442L114.78 100.408L109.051 38.1709C109.051 38.1709 95.3337 40.3961 95.052 52.8908Z" fill="#FF725E"/>
<path d="M109.124 89.2541C107.322 89.4159 105.513 89.4817 103.705 89.4513C101.896 89.5193 100.085 89.4873 98.2798 89.3555C100.081 89.1936 101.89 89.1278 103.699 89.1584C105.508 89.0938 107.319 89.1258 109.124 89.2541Z" fill="#263238"/>
<path d="M111.997 100.272C111.954 99.9814 111.931 99.6877 111.929 99.3936C111.929 98.7739 111.879 97.9627 111.845 96.9881C111.772 94.9601 111.659 92.1548 111.479 89.0621C111.298 85.9694 111.079 83.1752 110.915 81.1472C110.836 80.1783 110.769 79.3728 110.724 78.7531C110.683 78.4601 110.67 78.164 110.684 77.8687C110.761 78.1545 110.812 78.4468 110.836 78.7418C110.915 79.3052 111.011 80.122 111.118 81.1303C111.338 83.1527 111.586 85.9468 111.772 89.0452C111.957 92.1435 112.031 94.9489 112.048 96.9825C112.048 98.0021 112.048 98.8246 112.048 99.3879C112.059 99.6837 112.042 99.9799 111.997 100.272Z" fill="#263238"/>
<path d="M112.543 90.9831C112.504 90.9831 112.673 90.7634 112.994 90.8817C113.103 90.9145 113.199 90.9815 113.266 91.0728C113.334 91.1642 113.371 91.2749 113.371 91.3887C113.371 91.5024 113.334 91.6132 113.266 91.7045C113.199 91.7958 113.103 91.8628 112.994 91.8957C112.88 91.9486 112.751 91.9619 112.629 91.9333C112.506 91.9047 112.397 91.8359 112.318 91.7379C112.259 91.6583 112.22 91.5652 112.205 91.4669C112.19 91.3686 112.2 91.2682 112.234 91.1746C112.335 90.8648 112.577 90.831 112.577 90.8648C112.577 90.8986 112.453 91 112.436 91.2197C112.42 91.2795 112.421 91.3428 112.44 91.4021C112.458 91.4613 112.493 91.5141 112.54 91.5543C112.587 91.5945 112.645 91.6204 112.707 91.629C112.768 91.6375 112.831 91.6284 112.887 91.6027C112.947 91.585 113 91.5488 113.039 91.4993C113.077 91.4497 113.099 91.3894 113.101 91.3267C113.094 91.27 113.074 91.2158 113.043 91.1679C113.012 91.1201 112.97 91.08 112.921 91.0507C112.718 90.9436 112.566 91.0225 112.543 90.9831Z" fill="#263238"/>
<path d="M111.924 80.0265C111.924 80.0659 111.817 80.1279 111.794 80.3025C111.772 80.4772 111.873 80.6856 112.11 80.6067C112.154 80.5942 112.193 80.5697 112.224 80.536C112.255 80.5023 112.276 80.4607 112.285 80.4158C112.294 80.3709 112.29 80.3244 112.274 80.2815C112.258 80.2387 112.23 80.2011 112.194 80.173C112.07 80.049 111.935 80.0659 111.924 80.0265C111.912 79.9871 112.07 79.8688 112.312 80.0265C112.398 80.0715 112.467 80.1415 112.511 80.2269C112.555 80.3124 112.573 80.4094 112.56 80.5049C112.548 80.6004 112.507 80.6899 112.443 80.7615C112.378 80.833 112.293 80.8832 112.2 80.9053C112.11 80.9426 112.011 80.9515 111.917 80.9308C111.822 80.9101 111.736 80.8607 111.67 80.7894C111.604 80.718 111.562 80.6282 111.549 80.5321C111.536 80.4359 111.553 80.3381 111.597 80.2518C111.727 79.9814 111.929 79.9871 111.924 80.0265Z" fill="#263238"/>
<path d="M109.71 65.1994C109.687 65.111 109.674 65.0203 109.671 64.929C109.671 64.7206 109.625 64.4671 109.597 64.1629C109.547 63.4475 109.473 62.4729 109.383 61.3463C109.209 58.9521 108.949 55.651 108.623 52.0006C108.296 48.3502 107.964 45.0603 107.71 42.6718C107.592 41.5452 107.49 40.5593 107.417 39.8552C107.417 39.551 107.366 39.2918 107.35 39.0834C107.337 38.9937 107.337 38.9027 107.35 38.813C107.385 38.8972 107.406 38.9867 107.412 39.0778C107.445 39.2862 107.49 39.5341 107.535 39.8383C107.637 40.503 107.772 41.4663 107.924 42.6549C108.228 45.0378 108.595 48.3333 108.921 51.9837C109.248 55.6341 109.485 58.9408 109.597 61.335C109.659 62.5349 109.699 63.5038 109.716 64.1798C109.716 64.484 109.716 64.7431 109.716 64.9516C109.726 65.034 109.724 65.1175 109.71 65.1994Z" fill="#263238"/>
<path d="M109.18 37.8271C108.647 38.0706 108.095 38.2721 107.53 38.4299C106.187 38.8581 104.87 39.3641 103.587 39.9453C102.309 40.5329 101.117 41.2909 100.043 42.1986C99.232 42.9084 98.8151 43.4379 98.7757 43.4041C98.7362 43.3703 98.8489 43.2464 99.0348 43.0042C99.2985 42.661 99.5905 42.3406 99.908 42.0465C100.956 41.0725 102.155 40.2736 103.457 39.6805C104.753 39.0903 106.094 38.6062 107.468 38.2327C108.025 38.0455 108.598 37.9098 109.18 37.8271Z" fill="#263238"/>
<path d="M124.976 51.9783L134.868 40.0244L135.708 40.8244L125.922 52.8684L124.976 51.9783Z" fill="#263238"/>
<path d="M125.765 51.3471C125.765 51.3471 127.325 46.9306 127.674 45.9842C128.024 45.0378 128.621 43.4041 128.857 43.3647C129.094 43.3253 129.984 43.4323 128.914 46.249C127.843 49.0656 130.294 47.2911 130.294 47.2911L132.446 44.8294C132.446 44.8294 134.603 50.5754 133.572 52.3217C132.698 53.7147 131.711 55.0336 130.621 56.265L125.765 51.3471Z" fill="#E6BBAC"/>
<path d="M130.936 55.916L127.855 59.2678L123.483 53.6796L125.765 51.3643L130.936 55.916Z" fill="#E6BBAC"/>
<path d="M100.139 42.796C99.4967 42.9537 95.3111 47.0041 95.2492 55.6625C95.1985 62.5408 95.728 77.824 100.426 80.0942C102.556 81.1251 105.783 81.1025 108.589 79.2942C116.475 74.1792 130.497 57.713 130.497 57.713L124.233 51.0375C124.233 51.0375 107.958 67.5938 107.265 66.9854C106.217 66.0728 106.381 57.4764 105.491 49.6574C104.86 44.1029 104.116 41.8045 100.139 42.796Z" fill="#FF725E"/>
<path d="M112.757 76.0944C112.688 76.1927 112.609 76.2834 112.521 76.3648C112.284 76.6183 112.034 76.8589 111.772 77.0859C110.807 77.9238 109.737 78.632 108.589 79.1928C107.79 79.5747 106.954 79.8712 106.093 80.0772C105.097 80.3276 104.06 80.3736 103.046 80.2124C101.929 79.9881 100.889 79.4798 100.026 78.7365C99.1063 77.942 98.3505 76.9757 97.8009 75.8916C96.7776 73.8016 96.1601 71.5364 95.9814 69.2162C95.7053 67.1093 95.5082 65.1996 95.418 63.5828C95.3279 61.9661 95.2603 60.6817 95.249 59.7804C95.249 59.3297 95.249 58.9804 95.249 58.7438C95.2357 58.624 95.2357 58.5031 95.249 58.3833C95.2751 58.5017 95.2883 58.6226 95.2885 58.7438C95.2885 59.0067 95.3054 59.3504 95.3392 59.7747C95.3842 60.6761 95.4518 61.9717 95.5983 63.566C95.7448 65.1602 95.9588 67.0642 96.2461 69.1655C96.3729 70.2642 96.561 71.355 96.8095 72.4328C97.0906 73.5827 97.5085 74.6948 98.0544 75.7452C98.5881 76.7947 99.3187 77.7319 100.206 78.5055C101.028 79.2225 102.022 79.7136 103.091 79.9307C104.068 80.0962 105.068 80.0617 106.031 79.8293C106.877 79.6306 107.698 79.3417 108.482 78.9674C109.626 78.4321 110.701 77.7586 111.681 76.962C112.391 76.4381 112.735 76.0719 112.757 76.0944Z" fill="#263238"/>
<path d="M124.233 51.0376C124.143 51.1626 124.045 51.2812 123.94 51.3925C123.737 51.6122 123.444 51.9558 123.05 52.367C122.272 53.2064 121.117 54.395 119.67 55.8541C118.222 57.3131 116.442 59.0256 114.447 60.924L111.287 63.8759C110.161 64.8843 109.034 65.949 107.778 66.9742L107.564 67.1489V66.8616C107.524 66.2532 107.485 65.6053 107.451 64.9519C107.254 61.5324 107.068 58.2764 106.888 55.3076C106.786 53.8261 106.769 52.4121 106.623 51.1108C106.513 49.9016 106.191 48.7211 105.671 47.6238C105.239 46.7238 104.586 45.9483 103.772 45.3705C103.147 44.9484 102.427 44.6872 101.677 44.61C101.033 44.5497 100.384 44.6444 99.7839 44.886C99.9274 44.7939 100.083 44.7218 100.246 44.6719C100.709 44.5151 101.2 44.4556 101.688 44.4973C102.463 44.5563 103.211 44.8102 103.862 45.2353C104.714 45.8167 105.401 46.6084 105.857 47.5336C106.402 48.6488 106.744 49.8527 106.865 51.0883C107.023 52.4065 107.051 53.8204 107.152 55.302C107.333 58.2651 107.524 61.4986 107.716 64.9462C107.749 65.5997 107.789 66.2475 107.823 66.8559L107.592 66.7433C110.031 64.7096 112.239 62.5971 114.256 60.7381C116.273 58.8791 118.042 57.161 119.517 55.7245C120.993 54.288 122.171 53.1219 122.971 52.3051L123.895 51.3474C123.999 51.2355 124.112 51.1319 124.233 51.0376Z" fill="#263238"/>
<path d="M127.731 60.4787C127.373 60.197 127.048 59.8757 126.762 59.5211C126.199 58.907 125.421 58.0451 124.582 57.0818C123.743 56.1185 122.993 55.2341 122.464 54.5807C122.152 54.2489 121.88 53.8822 121.653 53.4878C122.007 53.7696 122.33 54.0887 122.616 54.4398C123.179 55.0595 123.962 55.9214 124.802 56.8903C125.641 57.8592 126.39 58.738 126.92 59.3915C127.229 59.7233 127.501 60.0879 127.731 60.4787Z" fill="#263238"/>
<path d="M106.189 70.7261C106.383 69.3054 106.893 67.9463 107.682 66.749C107.513 67.4393 107.281 68.1125 106.989 68.7601C106.784 69.439 106.516 70.0972 106.189 70.7261Z" fill="#263238"/>
<path d="M104.781 69.622C105.695 68.5255 106.754 67.5589 107.93 66.749C107.512 67.3296 107.015 67.8491 106.454 68.2926C105.958 68.8085 105.395 69.2557 104.781 69.622Z" fill="#263238"/>
<path d="M130.316 58.1072C129.992 57.7957 129.698 57.4543 129.438 57.0875C128.914 56.4397 128.187 55.5609 127.348 54.6145C126.508 53.6681 125.714 52.8457 125.134 52.2542C124.799 51.9528 124.494 51.6209 124.221 51.2627C124.609 51.4958 124.965 51.7779 125.28 52.1021C126.08 52.8356 126.842 53.6103 127.562 54.423C128.287 55.2307 128.967 56.0769 129.601 56.958C129.888 57.3087 130.128 57.695 130.316 58.1072Z" fill="#263238"/>
<path d="M149.479 48.584C149.479 48.584 146.921 52.4484 147.918 52.6287C148.916 52.8089 150.42 49.5754 150.318 49.0628C150.217 48.5502 149.479 48.584 149.479 48.584Z" fill="#E6BBAC"/>
<path d="M150.048 50.2796C150.048 50.2796 147.496 54.144 148.493 54.3299C149.49 54.5158 150.989 51.2767 150.893 50.764C150.797 50.2514 150.048 50.2796 150.048 50.2796Z" fill="#E6BBAC"/>
<path d="M150.803 52.6342C150.803 52.6342 148.245 56.4987 149.242 56.679C150.24 56.8592 151.744 53.6257 151.642 53.1131C151.541 52.6005 150.803 52.6342 150.803 52.6342Z" fill="#E6BBAC"/>
<path d="M106.583 22.2568C107.006 24.9383 106.983 27.2874 105.676 29.0168C105.391 29.3526 105.128 29.7064 104.888 30.0759C104.77 30.2624 104.691 30.4709 104.656 30.6888C104.621 30.9067 104.631 31.1294 104.685 31.3434C104.748 31.5311 104.86 31.6989 105.008 31.8298C105.157 31.9606 105.338 32.05 105.532 32.0888C105.726 32.1277 105.927 32.1147 106.115 32.051C106.302 31.9874 106.47 31.8754 106.6 31.7264C106.557 32.0299 106.606 32.3392 106.739 32.6151C106.872 32.891 107.085 33.1209 107.35 33.2756C107.484 33.3393 107.632 33.3712 107.781 33.3688C107.931 33.3664 108.077 33.3298 108.21 33.2617C108.343 33.1937 108.458 33.0961 108.547 32.9764C108.637 32.8567 108.697 32.7182 108.724 32.5714C108.724 32.5714 108.375 33.9234 109.93 33.6981L108.837 24.3806L106.583 22.2568Z" fill="#263238"/>
<path d="M113.591 42.8463C114.201 42.848 114.804 42.7215 115.361 42.4749C115.918 42.2283 116.417 41.8672 116.826 41.4151C117.234 40.9629 117.543 40.4298 117.732 39.8505C117.921 39.2711 117.986 38.6585 117.923 38.0524C117.777 36.661 117.653 35.5287 117.653 35.5287C117.653 35.5287 121.084 34.9935 121.123 31.5853C121.162 28.1772 120.56 20.2793 120.56 20.2793C118.61 19.4407 116.472 19.138 114.367 19.4024C112.261 19.6669 110.265 20.4888 108.583 21.7834L108.071 22.1777L109.265 38.841C109.349 39.931 109.841 40.9491 110.643 41.6917C111.445 42.4343 112.498 42.8467 113.591 42.8463Z" fill="#E6BBAC"/>
<path d="M119.653 26.4536C119.581 26.3874 119.53 26.3014 119.506 26.2064C119.483 26.1114 119.489 26.0116 119.522 25.9197C119.555 25.8277 119.615 25.7476 119.694 25.6896C119.772 25.6315 119.866 25.598 119.964 25.5933C120.062 25.5887 120.159 25.613 120.243 25.6632C120.327 25.7135 120.394 25.7875 120.436 25.8758C120.478 25.9642 120.493 26.0629 120.479 26.1597C120.464 26.2565 120.422 26.347 120.357 26.4198C120.267 26.517 120.143 26.575 120.012 26.5813C119.88 26.5877 119.751 26.5418 119.653 26.4536Z" fill="#263238"/>
<path d="M120.605 25.3663C120.548 25.4282 120.21 25.1691 119.743 25.1691C119.275 25.1691 118.926 25.4113 118.87 25.3494C118.813 25.2874 118.898 25.2142 119.05 25.1015C119.25 24.9538 119.491 24.874 119.74 24.874C119.988 24.874 120.23 24.9538 120.43 25.1015C120.576 25.2367 120.627 25.3437 120.605 25.3663Z" fill="#263238"/>
<path d="M115.157 26.0821C115.241 26.1333 115.307 26.2082 115.348 26.2973C115.389 26.3864 115.403 26.4856 115.388 26.5824C115.372 26.6793 115.329 26.7694 115.262 26.8414C115.195 26.9133 115.109 26.964 115.014 26.9868C114.918 27.0097 114.818 27.0037 114.726 26.9697C114.634 26.9358 114.554 26.8753 114.497 26.7959C114.439 26.7166 114.407 26.6219 114.403 26.5239C114.399 26.4259 114.424 26.329 114.476 26.2455C114.509 26.1894 114.553 26.1406 114.606 26.102C114.659 26.0633 114.718 26.0356 114.782 26.0203C114.845 26.0051 114.911 26.0027 114.976 26.0133C115.04 26.024 115.102 26.0473 115.157 26.0821Z" fill="#263238"/>
<path d="M115.473 25.7836C115.416 25.8455 115.078 25.5864 114.611 25.5808C114.143 25.5751 113.794 25.823 113.743 25.7667C113.693 25.7103 113.743 25.6315 113.918 25.5188C114.118 25.371 114.362 25.2938 114.611 25.2991C114.86 25.2999 115.101 25.3831 115.298 25.5357C115.445 25.6484 115.495 25.761 115.473 25.7836Z" fill="#263238"/>
<path d="M117.36 29.6819C117.604 29.5856 117.863 29.5304 118.126 29.5185C118.25 29.5185 118.346 29.4791 118.351 29.4115C118.356 29.2895 118.327 29.1685 118.267 29.0622L117.889 28.0989C117.535 27.2874 117.265 26.4418 117.084 25.5752C117.516 26.3474 117.871 27.1608 118.143 28.0032C118.267 28.3412 118.379 28.6566 118.498 28.9721C118.576 29.1308 118.6 29.3111 118.565 29.4847C118.548 29.5321 118.519 29.5747 118.482 29.6089C118.445 29.6432 118.4 29.6682 118.351 29.6819C118.284 29.7036 118.213 29.7132 118.143 29.71C117.882 29.7465 117.617 29.7369 117.36 29.6819Z" fill="#263238"/>
<path d="M115.833 30.2056C115.337 29.9126 117.185 30.9266 118.148 30.8759C117.988 31.1245 117.748 31.3114 117.468 31.4065C117.188 31.5016 116.884 31.4993 116.605 31.3998C115.58 31.0224 115.833 30.2056 115.833 30.2056Z" fill="white"/>
<path d="M117.647 35.4782C116.063 35.5068 114.506 35.0637 113.174 34.2051C113.174 34.2051 114.228 36.6781 117.653 36.3683L117.647 35.4782Z" fill="#D88876"/>
<path d="M108.065 25.4733C107.992 25.4733 105.507 25.2818 105.919 28.1717C106.33 31.0616 109.118 29.6927 109.107 29.6082C109.096 29.5237 108.065 25.4733 108.065 25.4733Z" fill="#E6BBAC"/>
<path d="M108.082 28.7185C108.082 28.7185 108.031 28.7636 107.952 28.8143C107.841 28.8831 107.708 28.9053 107.58 28.8762C107.377 28.7838 107.202 28.6393 107.072 28.4573C106.942 28.2752 106.863 28.0622 106.842 27.8397C106.8 27.592 106.814 27.3379 106.882 27.0961C106.897 27.0027 106.934 26.9141 106.989 26.8377C107.045 26.7613 107.119 26.6993 107.203 26.6567C107.26 26.6342 107.322 26.6315 107.38 26.6489C107.438 26.6662 107.489 26.7027 107.524 26.7525C107.575 26.8313 107.564 26.8877 107.58 26.8933C107.597 26.8989 107.631 26.837 107.58 26.7187C107.556 26.6483 107.506 26.5899 107.44 26.5553C107.397 26.5298 107.349 26.5136 107.3 26.5078C107.25 26.502 107.2 26.5066 107.152 26.5215C107.037 26.5616 106.933 26.6309 106.852 26.7227C106.772 26.8145 106.716 26.9257 106.69 27.0454C106.601 27.312 106.58 27.5966 106.628 27.8735C106.654 28.1297 106.755 28.3728 106.917 28.5729C107.079 28.773 107.296 28.9215 107.541 29.0002C107.622 29.0107 107.704 29.0036 107.782 28.9792C107.86 28.9549 107.931 28.914 107.992 28.8593C108.082 28.8143 108.087 28.7241 108.082 28.7185Z" fill="#D88876"/>
<path d="M121.455 19.9247C121.404 19.6338 121.241 19.3747 121.001 19.2029C120.761 19.0312 120.462 18.9606 120.171 19.0064C120.366 18.9874 120.554 18.9241 120.721 18.8212C120.887 18.7183 121.028 18.5786 121.133 18.4129C121.237 18.2471 121.302 18.0597 121.323 17.8649C121.344 17.67 121.32 17.473 121.253 17.2889C121.186 17.1048 121.078 16.9384 120.937 16.8026C120.796 16.6667 120.625 16.565 120.439 16.5051C120.252 16.4452 120.054 16.4288 119.86 16.4572C119.667 16.4855 119.482 16.5578 119.32 16.6686C119.706 16.3053 120.013 15.8661 120.221 15.3786C120.321 15.1323 120.343 14.8613 120.283 14.6023C120.224 14.3434 120.086 14.1089 119.889 13.9308C119.666 13.7956 119.41 13.7241 119.148 13.7241C118.887 13.7241 118.631 13.7956 118.408 13.9308C117.698 14.2801 117.163 14.9335 116.436 15.2377C115.709 15.5419 114.864 15.4631 114.07 15.5476C113.181 15.6215 112.338 15.9722 111.659 16.5503C111.326 16.8428 111.066 17.2091 110.9 17.6199C110.734 18.0306 110.666 18.4746 110.701 18.9163C109.62 18.8487 108.448 18.9163 107.597 19.5867C107.659 19.1512 107.605 18.707 107.44 18.2993C107.275 17.8916 107.004 17.535 106.656 17.2657C106.212 16.9554 105.695 16.7645 105.155 16.7112C104.616 16.6579 104.072 16.7441 103.575 16.9615C103.338 17.0438 103.122 17.1744 102.938 17.3451C102.755 17.5158 102.609 17.7228 102.51 17.953C102.443 18.2952 102.475 18.6494 102.603 18.9739C102.731 19.2984 102.949 19.5794 103.231 19.7838C103.723 20.1999 104.305 20.4951 104.931 20.6457C105.557 20.7964 106.21 20.7983 106.837 20.6513C106.637 21.1617 106.552 21.7099 106.589 22.2568C106.645 23.2032 107.406 24.1834 107.716 25.0735L107.789 25.6368L108.352 28.0592L109.867 27.9352L109.456 22.8652C109.456 22.8652 109.169 20.7302 111.034 20.8035C112.898 20.8767 115.54 22.8089 119.106 22.0597C119.691 21.9974 120.255 21.805 120.757 21.4963C121.006 21.3234 121.203 21.0854 121.326 20.8083C121.449 20.5311 121.494 20.2255 121.455 19.9247Z" fill="#263238"/>
<path d="M101.474 22.1607C101.474 22.1157 101.863 22.2959 102.499 22.3917C103.32 22.5201 104.161 22.3963 104.91 22.0368C105.653 21.6621 106.268 21.0735 106.673 20.3468C106.983 19.7835 107.068 19.3835 107.113 19.3948C107.126 19.7596 107.036 20.1208 106.854 20.4369C106.483 21.2485 105.843 21.9069 105.042 22.3001C104.241 22.6934 103.329 22.7974 102.46 22.5945C102.098 22.5422 101.757 22.3923 101.474 22.1607Z" fill="#263238"/>
<path d="M105.113 24.9887C105.079 24.9887 104.961 24.7014 105.012 24.2057C105.1 23.5733 105.329 22.9688 105.682 22.4368C106.065 21.8115 106.448 21.3102 106.668 20.8764C106.771 20.642 106.895 20.4176 107.04 20.2061C107.079 20.2061 107.04 20.5159 106.854 20.9666C106.587 21.5298 106.278 22.0721 105.93 22.5889C105.599 23.0942 105.357 23.6525 105.215 24.2395C105.119 24.6845 105.158 24.9831 105.113 24.9887Z" fill="#263238"/>
<path d="M107.856 19.2373C107.93 19.2373 107.817 19.7725 107.406 20.2569C106.995 20.7414 106.504 20.9329 106.471 20.8653C106.437 20.7977 106.814 20.5048 107.18 20.0654C107.547 19.626 107.783 19.2373 107.856 19.2373Z" fill="#FF725E"/>
</svg>
