<svg width="170" height="138" viewBox="0 0 170 138" fill="none" xmlns="http://www.w3.org/2000/svg">
<path d="M169.713 23.2109H0.285156V48.8926H169.713V23.2109Z" fill="white"/>
<path d="M170.002 49.1757H0V22.9258H170.002V49.1757ZM0.57402 48.6017H169.428V23.4998H0.57402V48.6017Z" fill="#DBDBDB"/>
<path d="M15.2457 30.168C15.5753 31.1204 15.8005 32.1059 15.9173 33.1069C16.166 35.0603 16.166 37.0373 15.9173 38.9906C15.7979 39.9918 15.5708 40.9772 15.2399 41.9296C14.9064 40.978 14.6793 39.9923 14.5626 38.9906C14.3177 37.0371 14.3177 35.0605 14.5626 33.1069C14.686 32.1059 14.915 31.1208 15.2457 30.168Z" fill="#37474F"/>
<path d="M21.1249 36.0449C20.1741 36.3836 19.1883 36.6146 18.186 36.7337C17.2113 36.8578 16.2296 36.9191 15.247 36.9174C14.2643 36.9222 13.2824 36.8608 12.308 36.7337C11.3044 36.6177 10.3167 36.3905 9.36328 36.0564C10.3183 35.7276 11.3053 35.5006 12.308 35.379C13.2827 35.2548 14.2644 35.1934 15.247 35.1954C16.2296 35.1984 17.2111 35.2617 18.186 35.3848C19.1867 35.4972 20.1722 35.7186 21.1249 36.0449Z" fill="#37474F"/>
<path d="M19.3996 31.8945C18.9591 32.8011 18.4221 33.6575 17.7981 34.4489C17.1986 35.2275 16.5486 35.9657 15.8521 36.6589C15.1579 37.3559 14.4197 38.0078 13.6422 38.6106C12.8487 39.2347 11.9904 39.7716 11.082 40.2121C11.5225 39.3037 12.0594 38.4454 12.6836 37.6519C13.2863 36.8744 13.9382 36.1362 14.6352 35.442C15.331 34.7484 16.0691 34.0985 16.8452 33.4961C17.6375 32.8732 18.4938 32.3363 19.3996 31.8945Z" fill="#37474F"/>
<path d="M19.3993 40.2118C18.4935 39.77 17.6372 39.2332 16.8449 38.6103C16.0674 38.0076 15.3292 37.3557 14.635 36.6587C13.9323 35.9644 13.2764 35.2242 12.6718 34.4429C12.0477 33.6495 11.5108 32.7912 11.0703 31.8828C11.9798 32.3212 12.8383 32.8583 13.6304 33.4843C15.1881 34.688 16.5848 36.0866 17.7863 37.646C18.4151 38.4405 18.9559 39.3008 19.3993 40.2118Z" fill="#37474F"/>
<path d="M38.1738 30.168C38.5034 31.1204 38.7286 32.1059 38.8454 33.1069C38.9683 34.0818 39.0316 35.0633 39.0348 36.0459C39.0365 37.0304 38.9752 38.014 38.8511 38.9906C38.7289 39.9913 38.5019 40.9764 38.1738 41.9296C37.8403 40.978 37.6131 39.9923 37.4964 38.9906C37.3695 38.0143 37.3081 37.0305 37.3127 36.0459C37.3112 35.0634 37.3725 34.0817 37.4964 33.1069C37.6152 32.1057 37.8423 31.1202 38.1738 30.168Z" fill="#37474F"/>
<path d="M44.0507 36.0486C43.0992 36.3827 42.1135 36.6098 41.1117 36.7259C40.137 36.8498 39.1553 36.9111 38.1728 36.9096C37.1882 36.9142 36.2044 36.8528 35.228 36.7259C34.2264 36.6092 33.2407 36.3821 32.2891 36.0486C33.2423 35.7205 34.2274 35.4934 35.228 35.3712C36.2047 35.2472 37.1883 35.1858 38.1728 35.1875C39.1554 35.1907 40.1369 35.254 41.1117 35.377C42.1128 35.4938 43.0983 35.719 44.0507 36.0486Z" fill="#37474F"/>
<path d="M42.3293 31.8945C41.8888 32.8011 41.3518 33.6575 40.7277 34.4489C40.1283 35.2275 39.4783 35.9657 38.7818 36.6589C38.0876 37.3559 37.3494 38.0078 36.5718 38.6106C35.7784 39.2347 34.9201 39.7716 34.0117 40.2121C34.4522 39.3037 34.9891 38.4454 35.6132 37.6519C36.216 36.8744 36.8678 36.1362 37.5649 35.442C38.258 34.7455 38.9963 34.0955 39.7749 33.4961C40.5663 32.872 41.4227 32.335 42.3293 31.8945Z" fill="#37474F"/>
<path d="M42.3297 40.2118C41.4232 39.7714 40.5668 39.2344 39.7754 38.6103C38.9954 38.0105 38.257 37.3585 37.5654 36.6587C36.8745 35.9633 36.2302 35.2231 35.6367 34.4429C35.0125 33.6495 34.4756 32.7912 34.0352 31.8828C34.9446 32.3212 35.8032 32.8583 36.5953 33.4843C38.153 34.688 39.5497 36.0866 40.7512 37.646C41.368 38.4421 41.8972 39.3024 42.3297 40.2118Z" fill="#37474F"/>
<path d="M61.0915 30.168C61.4256 31.1195 61.6528 32.1052 61.7688 33.1069C61.8927 34.0817 61.9541 35.0634 61.9525 36.0459C61.9571 37.0305 61.8957 38.0143 61.7688 38.9906C61.6522 39.9923 61.425 40.978 61.0915 41.9296C60.7625 40.977 60.5373 39.9916 60.4199 38.9906C60.2939 38.0141 60.2307 37.0305 60.2305 36.0459C60.2337 35.0633 60.2969 34.0818 60.4199 33.1069C60.5367 32.1059 60.7619 31.1204 61.0915 30.168Z" fill="#37474F"/>
<path d="M66.9765 36.0486C66.0248 36.3821 65.0392 36.6092 64.0375 36.7259C63.0609 36.85 62.0773 36.9113 61.0928 36.9096C60.1102 36.914 59.1283 36.8526 58.1538 36.7259C57.1521 36.6098 56.1663 36.3827 55.2148 36.0486C56.1679 35.7198 57.153 35.4928 58.1538 35.3712C59.1286 35.2473 60.1102 35.186 61.0928 35.1875C62.0773 35.1906 63.0607 35.2538 64.0375 35.377C65.0385 35.4944 66.0239 35.7196 66.9765 36.0486Z" fill="#37474F"/>
<path d="M65.2551 31.8945C64.8146 32.8011 64.2776 33.6575 63.6535 34.4489C63.0541 35.2275 62.4041 35.9657 61.7076 36.6589C61.0134 37.3559 60.2752 38.0078 59.4976 38.6106C58.7042 39.2347 57.8459 39.7716 56.9375 40.2121C57.3759 39.3026 57.913 38.4441 58.539 37.6519C59.1414 36.8758 59.7913 36.1378 60.485 35.442C61.1814 34.7469 61.9215 34.097 62.7007 33.4961C63.4921 32.872 64.3485 32.335 65.2551 31.8945Z" fill="#37474F"/>
<path d="M65.2551 40.2118C64.3485 39.7714 63.4921 39.2344 62.7007 38.6103C61.9201 38.0091 61.1799 37.3571 60.485 36.6587C59.7896 35.9624 59.1396 35.2223 58.539 34.4429C57.913 33.6508 57.3759 32.7923 56.9375 31.8828C57.847 32.3212 58.7055 32.8583 59.4976 33.4843C61.0553 34.688 62.452 36.0866 63.6535 37.646C64.2783 38.441 64.8153 39.3013 65.2551 40.2118Z" fill="#37474F"/>
<path d="M84.0173 30.168C84.3487 31.1202 84.5759 32.1057 84.6947 33.1069C84.9396 35.0605 84.9396 37.0371 84.6947 38.9906C84.578 39.9923 84.3508 40.978 84.0173 41.9296C83.6865 40.9772 83.4594 39.9918 83.34 38.9906C83.2159 38.014 83.1546 37.0304 83.1563 36.0459C83.1595 35.0633 83.2227 34.0818 83.3457 33.1069C83.4625 32.1059 83.6877 31.1204 84.0173 30.168Z" fill="#37474F"/>
<path d="M89.9023 36.0486C88.9506 36.3821 87.965 36.6092 86.9633 36.7259C85.9867 36.85 85.0031 36.9113 84.0186 36.9096C83.0359 36.914 82.0541 36.8526 81.0796 36.7259C80.0779 36.6098 79.0921 36.3827 78.1406 36.0486C79.0937 35.7198 80.0788 35.4928 81.0796 35.3712C82.0544 35.2473 83.036 35.186 84.0186 35.1875C85.0031 35.1906 85.9865 35.2538 86.9633 35.377C87.9643 35.4944 88.9497 35.7196 89.9023 36.0486Z" fill="#37474F"/>
<path d="M88.1808 31.8945C87.7403 32.8011 87.2034 33.6575 86.5793 34.4489C85.9779 35.2275 85.3259 35.9658 84.6277 36.6589C83.936 37.3587 83.1977 38.0108 82.4177 38.6106C81.6262 39.2346 80.7698 39.7716 79.8633 40.2121C80.2994 39.3014 80.8367 38.4426 81.4648 37.6519C82.0656 36.8745 82.7155 36.1363 83.4107 35.442C84.1065 34.7484 84.8446 34.0985 85.6207 33.4961C86.415 32.8732 87.2732 32.3363 88.1808 31.8945Z" fill="#37474F"/>
<path d="M88.1808 40.2121C87.2732 39.7703 86.415 39.2334 85.6207 38.6106C84.8432 38.0078 84.105 37.3559 83.4107 36.6589C82.7142 35.9678 82.0641 35.2315 81.4648 34.4547C80.8367 33.664 80.2994 32.8053 79.8633 31.8945C80.771 32.3329 81.6277 32.87 82.4177 33.4961C83.1976 34.0939 83.9359 34.744 84.6277 35.442C85.3246 36.1384 85.9764 36.8785 86.5793 37.6577C87.2034 38.4491 87.7403 39.3055 88.1808 40.2121Z" fill="#37474F"/>
<path d="M106.946 30.168C107.275 31.121 107.502 32.1062 107.623 33.1069C107.868 35.0605 107.868 37.0371 107.623 38.9906C107.507 39.9923 107.279 40.978 106.946 41.9296C106.615 40.9772 106.388 39.9918 106.269 38.9906C106.02 37.0373 106.02 35.0603 106.269 33.1069C106.387 32.1056 106.614 31.1202 106.946 30.168Z" fill="#37474F"/>
<path d="M112.83 36.0486C111.877 36.3827 110.889 36.6099 109.885 36.7259C108.911 36.8501 107.929 36.9115 106.946 36.9096C105.964 36.9142 104.982 36.8528 104.007 36.7259C103.008 36.6101 102.024 36.3829 101.074 36.0486C102.027 35.7192 103.012 35.4922 104.013 35.3712C104.988 35.2472 105.97 35.1858 106.952 35.1875C107.935 35.1904 108.916 35.2537 109.891 35.377C110.892 35.4942 111.878 35.7193 112.83 36.0486Z" fill="#37474F"/>
<path d="M111.107 31.8945C110.666 32.8024 110.127 33.6591 109.499 34.4489C108.294 36.0046 106.898 37.4028 105.343 38.6106C104.552 39.2346 103.696 39.7716 102.789 40.2121C103.225 39.3014 103.762 38.4426 104.391 37.6519C104.991 36.8745 105.641 36.1363 106.337 35.442C107.032 34.7484 107.77 34.0985 108.546 33.4961C109.34 32.8719 110.198 32.335 111.107 31.8945Z" fill="#37474F"/>
<path d="M111.107 40.2121C110.198 39.7716 109.34 39.2347 108.546 38.6106C107.769 38.0078 107.031 37.3559 106.337 36.6589C105.64 35.9678 104.99 35.2315 104.391 34.4547C103.762 33.664 103.225 32.8053 102.789 31.8945C103.697 32.3329 104.553 32.87 105.343 33.4961C106.123 34.0939 106.862 34.744 107.553 35.442C108.25 36.137 108.9 36.8772 109.499 37.6577C110.127 38.4475 110.666 39.3042 111.107 40.2121Z" fill="#37474F"/>
<path d="M129.875 30.168C130.204 31.1204 130.429 32.1059 130.546 33.1069C130.795 35.0603 130.795 37.0373 130.546 38.9906C130.427 39.9918 130.2 40.9772 129.869 41.9296C129.535 40.978 129.308 39.9923 129.191 38.9906C128.947 37.0371 128.947 35.0605 129.191 33.1069C129.315 32.1059 129.544 31.1208 129.875 30.168Z" fill="#37474F"/>
<path d="M135.75 36.0486C134.799 36.3833 133.813 36.6105 132.811 36.7259C131.836 36.85 130.855 36.9113 129.872 36.9096C128.889 36.9144 127.907 36.853 126.933 36.7259C125.929 36.6099 124.942 36.3827 123.988 36.0486C124.943 35.7198 125.93 35.4927 126.933 35.3712C127.908 35.247 128.889 35.1856 129.872 35.1875C130.855 35.1906 131.836 35.2539 132.811 35.377C133.812 35.4932 134.798 35.7184 135.75 36.0486Z" fill="#37474F"/>
<path d="M134.027 31.8945C133.59 32.8034 133.053 33.6603 132.425 34.4489C131.827 35.2288 131.177 35.9672 130.479 36.6589C129.785 37.3559 129.047 38.0078 128.269 38.6106C127.477 39.2334 126.621 39.7703 125.715 40.2121C126.151 39.3027 126.686 38.4442 127.311 37.6519C128.518 36.0979 129.917 34.7017 131.472 33.4961C132.265 32.8732 133.121 32.3363 134.027 31.8945Z" fill="#37474F"/>
<path d="M134.027 40.2121C133.121 39.7703 132.265 39.2334 131.472 38.6106C129.92 37.4009 128.522 36.0051 127.311 34.4547C126.686 33.6624 126.151 32.8039 125.715 31.8945C126.622 32.3342 127.478 32.8712 128.269 33.4961C129.047 34.0968 129.785 34.7468 130.479 35.442C131.176 36.137 131.826 36.8772 132.425 37.6577C133.053 38.4463 133.59 39.3032 134.027 40.2121Z" fill="#37474F"/>
<path d="M113.969 30.8593V62.1204H105.135V30.8593C105.135 18.9713 96.1054 9.30486 84.9981 9.30486C73.8908 9.30486 64.8615 18.9713 64.8615 30.8593V62.1204H56.0273V30.8593C56.0273 13.8339 69.0232 0 84.9981 0C100.973 0 113.969 13.8339 113.969 30.8593Z" fill="#455A64"/>
<path d="M56.0273 38.9883L64.8615 39.3442V62.1213H56.0273V38.9883Z" fill="#263238"/>
<path d="M113.975 41.3499V62.1237H105.141V40.9883L113.975 41.3499Z" fill="#263238"/>
<path d="M125.298 44.3164H44.7109V117.429H125.298V44.3164Z" fill="#36B8B0"/>
<path opacity="0.1" d="M125.29 44.3164H85V117.429H125.29V44.3164Z" fill="black"/>
<path d="M88.4114 83.5534L91.7809 99.5513H77.4648L80.8401 83.5534C79.5203 82.7309 78.5042 81.501 77.9455 80.0497C77.3869 78.5984 77.3161 77.0047 77.7438 75.5096C78.1715 74.0145 79.0745 72.6993 80.3162 71.763C81.5578 70.8267 83.0706 70.3203 84.6257 70.3203C86.1808 70.3203 87.6937 70.8267 88.9353 71.763C90.177 72.6993 91.08 74.0145 91.5077 75.5096C91.9354 77.0047 91.8646 78.5984 91.306 80.0497C90.7473 81.501 89.7312 82.7309 88.4114 83.5534Z" fill="#263238"/>
<path d="M61.5955 83.528C61.5955 83.528 57.3822 117.257 50.4595 124.857C42.1477 133.961 36.109 132.63 32.7567 137.325C29.4045 132.624 23.3715 133.961 15.0482 124.852C8.12553 117.257 3.91797 83.5223 3.91797 83.5223C22.1603 74.6709 32.7682 64.7461 32.7682 64.7461C33.0839 65.0561 43.6344 74.8144 61.5955 83.528Z" fill="#EBEBEB"/>
<path d="M32.7684 64.7518V137.319C29.4162 132.618 23.3832 133.956 15.0599 124.846C8.13725 117.252 3.92969 83.5165 3.92969 83.5165C22.1606 74.6709 32.7684 64.7461 32.7684 64.7461V64.7518Z" fill="#DBDBDB"/>
<path d="M57.121 86.2505C57.121 86.2505 53.5621 114.739 47.7128 121.157C40.6811 128.86 35.5838 127.729 32.7481 131.696C29.9125 127.729 24.8152 128.86 17.7892 121.157C11.9399 114.739 8.38672 86.2505 8.38672 86.2505C23.7992 78.7883 32.7481 70.3789 32.7481 70.3789C32.7481 70.3789 41.7086 78.7653 57.121 86.2505Z" fill="#DBDBDB"/>
<path d="M8.39453 86.2469C8.39453 86.2469 11.9535 114.735 17.8027 121.153C24.823 128.851 29.8973 127.726 32.7674 131.681V70.3867C32.4861 70.6393 23.5831 78.8765 8.39453 86.2469Z" fill="#C7C7C7"/>
<path d="M40.7452 109.027C45.1568 104.615 45.1568 97.4627 40.7452 93.0511C36.3336 88.6395 29.1809 88.6394 24.7692 93.0511C20.3576 97.4627 20.3576 104.615 24.7692 109.027C29.1809 113.439 36.3336 113.439 40.7452 109.027Z" fill="#2281E3"/>
<path d="M31.4716 108.38L26.4375 103.145L28.3031 101.348L31.0756 104.235L37.0569 95.0625L39.2267 96.4746L31.4716 108.38Z" fill="white"/>
</svg>
