<svg width="42" height="34" viewBox="0 0 42 34" fill="none" xmlns="http://www.w3.org/2000/svg">
<path d="M23.8861 32.5208C23.8861 32.5208 22.4713 24.3215 23.8861 22.7245C24.9579 21.5563 29.2451 17.6549 31.5173 15.6614C31.8782 15.3415 32.3506 15.1768 32.8321 15.2029C33.3136 15.229 33.7654 15.4437 34.0897 15.8007L34.9042 16.7117" stroke="#3A4771" stroke-width="1.2" stroke-linecap="round" stroke-linejoin="round"/>
<path d="M29.1045 22.5746C29.1045 22.5746 36.3606 16.5832 36.7143 15.565C36.9929 14.7933 37.4753 9.60581 37.6896 7.25857C37.7211 6.88941 37.89 6.54552 38.1629 6.29492C38.4358 6.04433 38.7928 5.90527 39.1633 5.90527C39.5338 5.90527 39.8909 6.04433 40.1638 6.29492C40.4367 6.54552 40.6056 6.88941 40.6371 7.25857C40.8086 10.8062 40.9908 18.9626 39.1151 20.5167C37.4217 21.9208 34.6671 24.2895 33.1881 25.5542C32.8878 25.8126 32.6698 26.1534 32.5613 26.5344C32.4527 26.9154 32.4582 27.3199 32.5771 27.6978L34.0455 32.4673" stroke="#3A4771" stroke-width="1.2" stroke-linecap="round" stroke-linejoin="round"/>
<path d="M20.873 19.5738C20.873 19.5738 31.5911 15.501 31.5911 8.11629C31.5911 0.731586 24.2599 -1.43345 20.873 4.13991" stroke="#3A4771" stroke-width="1.2" stroke-linecap="round" stroke-linejoin="round"/>
<path d="M17.8291 32.5208C17.8291 32.5208 19.2439 24.3215 17.8291 22.7245C16.7573 21.5563 12.4701 17.6549 10.1979 15.6614C9.83705 15.3415 9.36466 15.1768 8.88315 15.2029C8.40165 15.229 7.94982 15.4437 7.62561 15.8007L6.81104 16.7117" stroke="#3A4771" stroke-width="1.2" stroke-linecap="round" stroke-linejoin="round"/>
<path d="M12.6428 22.5744C12.6428 22.5744 5.37601 16.583 5.02232 15.5648C4.74365 14.7931 4.26134 9.60562 4.0577 7.25838C4.0577 6.8661 3.90186 6.48989 3.62448 6.21251C3.3471 5.93513 2.97089 5.7793 2.57861 5.7793C2.18633 5.7793 1.81012 5.93513 1.53274 6.21251C1.25536 6.48989 1.09953 6.8661 1.09953 7.25838C0.928041 10.806 0.756551 18.9624 2.62148 20.5165C4.31493 21.9206 7.06946 24.2893 8.54854 25.554C8.84883 25.8124 9.06676 26.1532 9.17534 26.5342C9.28393 26.9152 9.27841 27.3197 9.15947 27.6976L7.6911 32.4671" stroke="#3A4771" stroke-width="1.2" stroke-linecap="round" stroke-linejoin="round"/>
<path d="M20.8733 19.5738C20.8733 19.5738 10.1553 15.501 10.1553 8.11629C10.1553 0.731586 17.4864 -1.43345 20.8733 4.13991" stroke="#3A4771" stroke-width="1.2" stroke-linecap="round" stroke-linejoin="round"/>
</svg>
