<svg width="38" height="31" viewBox="0 0 38 31" fill="none" xmlns="http://www.w3.org/2000/svg">
<path d="M33.622 1H3.89702C2.29704 1 1 2.29704 1 3.89702V27.3173C1 28.9173 2.29704 30.2143 3.89702 30.2143H33.622C35.2219 30.2143 36.519 28.9173 36.519 27.3173V3.89702C36.519 2.29704 35.2219 1 33.622 1Z" stroke="#3A4771" stroke-linecap="round" stroke-linejoin="round"/>
<path d="M1 6.48438H36.5301" stroke="#3A4771" stroke-linecap="round" stroke-linejoin="round"/>
<path d="M26.3494 3.62007C26.3494 3.85983 26.2782 4.09418 26.1447 4.29337C26.0113 4.49257 25.8217 4.64763 25.6 4.73886C25.3782 4.8301 25.1344 4.8534 24.8994 4.80581C24.6644 4.75822 24.4489 4.64189 24.2801 4.47157C24.1114 4.30126 23.997 4.08464 23.9516 3.84922C23.9062 3.61381 23.9317 3.37021 24.025 3.14934C24.1183 2.92847 24.2751 2.74029 24.4755 2.60869C24.6759 2.47709 24.9109 2.40801 25.1507 2.41021C25.309 2.4102 25.4658 2.44157 25.612 2.5025C25.7582 2.56344 25.8908 2.65274 26.0023 2.76524C26.1137 2.87773 26.2018 3.01119 26.2614 3.15792C26.321 3.30464 26.3509 3.46171 26.3494 3.62007V3.62007Z" stroke="#3A4771" stroke-linecap="round" stroke-linejoin="round"/>
<path d="M30.5604 3.62002C30.5604 3.8593 30.4894 4.09322 30.3565 4.29218C30.2235 4.49115 30.0346 4.64622 29.8135 4.73779C29.5924 4.82936 29.3492 4.85332 29.1145 4.80664C28.8798 4.75996 28.6642 4.64473 28.495 4.47552C28.3258 4.30632 28.2106 4.09075 28.1639 3.85605C28.1172 3.62136 28.1411 3.3781 28.2327 3.15702C28.3243 2.93595 28.4794 2.747 28.6783 2.61406C28.8773 2.48112 29.1112 2.41016 29.3505 2.41016C29.6714 2.41016 29.9791 2.53762 30.206 2.76452C30.4329 2.99141 30.5604 3.29914 30.5604 3.62002Z" stroke="#3A4771" stroke-linecap="round" stroke-linejoin="round"/>
<path d="M34.7557 3.62002C34.7557 3.8593 34.6847 4.09322 34.5518 4.29218C34.4189 4.49115 34.2299 4.64622 34.0088 4.73779C33.7877 4.82936 33.5445 4.85332 33.3098 4.80664C33.0751 4.75996 32.8595 4.64473 32.6903 4.47552C32.5211 4.30632 32.4059 4.09075 32.3592 3.85605C32.3125 3.62136 32.3365 3.3781 32.428 3.15702C32.5196 2.93595 32.6747 2.747 32.8736 2.61406C33.0726 2.48112 33.3065 2.41016 33.5458 2.41016C33.8667 2.41016 34.1744 2.53762 34.4013 2.76452C34.6282 2.99141 34.7557 3.29914 34.7557 3.62002V3.62002Z" stroke="#3A4771" stroke-linecap="round" stroke-linejoin="round"/>
<path d="M12.4102 10.957V26.2524L27.206 18.6047L12.4102 10.957Z" stroke="#3A4771" stroke-linecap="round" stroke-linejoin="round"/>
</svg>
