<svg width="42" height="34" viewBox="0 0 42 34" fill="none" xmlns="http://www.w3.org/2000/svg">
<path d="M5.20421 4.375H35.5627L31.4776 32.9827H1L5.20421 4.375Z" stroke="#36477E" stroke-width="1.2" stroke-linecap="round" stroke-linejoin="round"/>
<path d="M35.5736 4.375L41.0403 32.9827H31.4766" stroke="#36477E" stroke-width="1.2" stroke-linecap="round" stroke-linejoin="round"/>
<path d="M4.65625 8.09375H34.8004" stroke="#36477E" stroke-width="1.2" stroke-linecap="round" stroke-linejoin="round"/>
<path d="M9.24071 13.1055H12.909L10.6342 27.8143H6.65625L9.24071 13.1055Z" stroke="#36477E" stroke-width="1.2" stroke-linecap="round" stroke-linejoin="round"/>
<path d="M16.1375 13.1055L14.3867 24.2651H20.5204L19.8891 27.8143H23.5574L24.141 24.2651H27.4043L27.845 20.6683H24.8913L26.0109 13.1055H22.4379L21.3183 20.4658H18.6386L19.6747 13.1055H16.1375Z" stroke="#36477E" stroke-width="1.2" stroke-linecap="round" stroke-linejoin="round"/>
<path d="M9.76806 6.12581C9.41881 5.7773 9.16085 5.34807 9.01704 4.8761C8.87323 4.40413 8.84799 3.90399 8.94356 3.41994C9.03914 2.93589 9.25258 2.48288 9.56498 2.10099C9.87738 1.71909 10.2791 1.42011 10.7346 1.23049C11.1901 1.04088 11.6853 0.966478 12.1765 1.01389C12.6676 1.0613 13.1394 1.22904 13.5502 1.50229C13.961 1.77554 14.2982 2.14587 14.5317 2.58047C14.7653 3.01507 14.8881 3.50055 14.8894 3.99394C14.9016 4.1167 14.9016 4.24038 14.8894 4.36314" stroke="#36477E" stroke-width="1.2" stroke-linecap="round" stroke-linejoin="round"/>
<path d="M18.1155 6.12551C17.769 5.77591 17.5139 5.34649 17.3726 4.87506C17.2312 4.40363 17.2079 3.90467 17.3048 3.42213C17.4017 2.9396 17.6158 2.48829 17.9282 2.10798C18.2406 1.72767 18.6417 1.43002 19.0962 1.24125C19.5508 1.05248 20.0448 0.978393 20.5347 1.0255C21.0246 1.0726 21.4954 1.23946 21.9056 1.51138C22.3158 1.78329 22.6529 2.15192 22.8871 2.58479C23.1213 3.01766 23.2455 3.50149 23.2487 3.99364C23.255 4.11663 23.255 4.23986 23.2487 4.36285" stroke="#36477E" stroke-width="1.2" stroke-linecap="round" stroke-linejoin="round"/>
<path d="M26.3459 6.12551C25.9995 5.77591 25.7444 5.34649 25.603 4.87506C25.4617 4.40363 25.4384 3.90467 25.5353 3.42213C25.6322 2.9396 25.8463 2.48829 26.1587 2.10798C26.4711 1.72767 26.8722 1.43002 27.3267 1.24125C27.7812 1.05248 28.2752 0.978393 28.7651 1.0255C29.255 1.0726 29.7258 1.23946 30.1361 1.51138C30.5463 1.78329 30.8834 2.15192 31.1176 2.58479C31.3518 3.01766 31.4759 3.50149 31.4791 3.99364C31.4855 4.11663 31.4855 4.23986 31.4791 4.36285" stroke="#36477E" stroke-width="1.2" stroke-linecap="round" stroke-linejoin="round"/>
</svg>
