<svg width="35" height="31" viewBox="0 0 35 31" fill="none" xmlns="http://www.w3.org/2000/svg">
<path d="M17.478 27.3811C17.478 27.3811 17.478 24.1899 13.6115 24.1899H2.99219V1.02344H13.6115C17.4889 1.02344 17.478 4.21467 17.478 4.21467V27.3811Z" stroke="#3A4771" stroke-width="1.2" stroke-linecap="round" stroke-linejoin="round"/>
<path d="M17.479 30.0904C16.6723 29.9576 15.9058 29.6449 15.2364 29.1754C14.5671 28.7059 14.012 28.0917 13.6125 27.3784H1V4.63672H3.03672" stroke="#3A4771" stroke-width="1.2" stroke-linecap="round" stroke-linejoin="round"/>
<path d="M6.26953 5.72656H14.1768" stroke="#3A4771" stroke-width="1.2" stroke-linecap="round" stroke-linejoin="round"/>
<path d="M6.26953 9.15625H14.1768" stroke="#3A4771" stroke-width="1.2" stroke-linecap="round" stroke-linejoin="round"/>
<path d="M6.26953 12.5898H14.1768" stroke="#3A4771" stroke-width="1.2" stroke-linecap="round" stroke-linejoin="round"/>
<path d="M6.26953 16.0195H14.1768" stroke="#3A4771" stroke-width="1.2" stroke-linecap="round" stroke-linejoin="round"/>
<path d="M6.26953 19.4492H14.1768" stroke="#3A4771" stroke-width="1.2" stroke-linecap="round" stroke-linejoin="round"/>
<path d="M17.4766 27.3468C17.4766 27.3468 17.4765 24.1556 21.3431 24.1556H31.9624V1H21.3431C17.4657 1 17.4766 4.18036 17.4766 4.18036V27.3468Z" stroke="#3A4771" stroke-width="1.2" stroke-linecap="round" stroke-linejoin="round"/>
<path d="M17.4766 30.0709C18.2843 29.9369 19.0514 29.6224 19.7208 29.151C20.3902 28.6796 20.9447 28.0633 21.3431 27.348H33.9991V4.61719H31.9624" stroke="#3A4771" stroke-width="1.2" stroke-linecap="round" stroke-linejoin="round"/>
<path d="M28.6846 5.69531H20.7773" stroke="#3A4771" stroke-width="1.2" stroke-linecap="round" stroke-linejoin="round"/>
<path d="M28.6846 9.125H20.7773" stroke="#3A4771" stroke-width="1.2" stroke-linecap="round" stroke-linejoin="round"/>
<path d="M28.6846 12.5547H20.7773" stroke="#3A4771" stroke-width="1.2" stroke-linecap="round" stroke-linejoin="round"/>
<path d="M28.6846 15.9883H20.7773" stroke="#3A4771" stroke-width="1.2" stroke-linecap="round" stroke-linejoin="round"/>
<path d="M28.6846 19.418H20.7773" stroke="#3A4771" stroke-width="1.2" stroke-linecap="round" stroke-linejoin="round"/>
</svg>
