<svg width="42" height="34" viewBox="0 0 42 34" fill="none" xmlns="http://www.w3.org/2000/svg">
<path d="M23.8866 32.5198C23.8866 32.5198 22.4718 24.3205 23.8866 22.7236C24.9584 21.5553 29.2456 17.6539 31.5178 15.6604C31.8787 15.3405 32.3511 15.1758 32.8326 15.2019C33.3141 15.228 33.7659 15.4428 34.0901 15.7997L34.9047 16.7108" stroke="#3A4771" stroke-width="1.2" stroke-linecap="round" stroke-linejoin="round"/>
<path d="M29.1055 22.5756C29.1055 22.5756 36.3616 16.5842 36.7153 15.566C36.9939 14.7943 37.4762 9.60678 37.6906 7.25954C37.7221 6.89038 37.891 6.5465 38.1639 6.2959C38.4368 6.04531 38.7938 5.90625 39.1643 5.90625C39.5348 5.90625 39.8918 6.04531 40.1647 6.2959C40.4376 6.5465 40.6065 6.89038 40.638 7.25954C40.8095 10.8072 40.9917 18.9636 39.1161 20.5177C37.4226 21.9218 34.6681 24.2905 33.189 25.5552C32.8887 25.8136 32.6708 26.1544 32.5622 26.5354C32.4536 26.9164 32.4592 27.3209 32.5781 27.6988L34.0465 32.4683" stroke="#3A4771" stroke-width="1.2" stroke-linecap="round" stroke-linejoin="round"/>
<path d="M20.875 19.5738C20.875 19.5738 31.593 15.501 31.593 8.11629C31.593 0.731586 24.2619 -1.43345 20.875 4.13991" stroke="#3A4771" stroke-width="1.2" stroke-linecap="round" stroke-linejoin="round"/>
<path d="M17.8306 32.5198C17.8306 32.5198 19.2454 24.3205 17.8306 22.7236C16.7588 21.5553 12.4716 17.6539 10.1994 15.6604C9.83851 15.3405 9.36613 15.1758 8.88462 15.2019C8.40311 15.228 7.95129 15.4428 7.62707 15.7997L6.8125 16.7108" stroke="#3A4771" stroke-width="1.2" stroke-linecap="round" stroke-linejoin="round"/>
<path d="M12.6428 22.5764C12.6428 22.5764 5.37601 16.585 5.02232 15.5668C4.74365 14.7951 4.26134 9.60757 4.0577 7.26033C4.0577 6.86805 3.90186 6.49184 3.62448 6.21446C3.3471 5.93708 2.97089 5.78125 2.57861 5.78125C2.18633 5.78125 1.81012 5.93708 1.53274 6.21446C1.25536 6.49184 1.09953 6.86805 1.09953 7.26033C0.928041 10.808 0.756551 18.9644 2.62148 20.5185C4.31493 21.9225 7.06946 24.2912 8.54854 25.556C8.84883 25.8144 9.06676 26.1552 9.17534 26.5362C9.28393 26.9172 9.27841 27.3217 9.15947 27.6996L7.6911 32.4691" stroke="#3A4771" stroke-width="1.2" stroke-linecap="round" stroke-linejoin="round"/>
<path d="M20.8743 19.5738C20.8743 19.5738 10.1562 15.501 10.1562 8.11629C10.1562 0.731586 17.4874 -1.43345 20.8743 4.13991" stroke="#3A4771" stroke-width="1.2" stroke-linecap="round" stroke-linejoin="round"/>
</svg>
