<svg width="344" height="200" viewBox="0 0 344 200" fill="none" xmlns="http://www.w3.org/2000/svg">
<path d="M168.348 147.827L311.665 149.777L303.891 98.2852L168.348 147.827Z" fill="#F5F5F5"/>
<path d="M303.927 99.3227L167.027 103.434L168.392 148.871L305.292 144.76L303.927 99.3227Z" fill="#EBEBEB"/>
<path d="M286.369 115.002C286.369 115.123 263.443 115.904 235.152 116.75C206.86 117.596 183.926 118.192 183.918 118.079C183.91 117.966 206.844 117.177 235.144 116.331C263.443 115.485 286.369 114.889 286.369 115.002Z" fill="#E0E0E0"/>
<path d="M287.455 126.779C287.455 126.9 264.521 127.682 236.238 128.528C207.954 129.373 185.004 129.969 185.004 129.857C185.004 129.744 207.93 128.963 236.221 128.109C264.513 127.255 287.447 126.667 287.455 126.779Z" fill="#E0E0E0"/>
<path d="M206.86 95.7708L259.906 94.1758L257.401 96.8341L261.364 99.5569L257.304 102.006L261.526 104.986L205.926 106.654L209.035 103.351L206.973 100.427L209.752 98.5903L206.86 95.7708Z" fill="#F5F5F5"/>
<path d="M90.4062 14.5423L100.645 53.3542C105.527 55.0218 110.513 56.4234 116.643 54.8284L145.644 46.225L131.345 1.75L90.4062 14.5423Z" fill="#FAFAFA"/>
<path d="M87.8008 13.1298L98.0395 51.9337L114.038 53.4159L143.07 44.8125L131.18 1.19141L87.8008 13.1298Z" fill="#F5F5F5"/>
<path d="M102.059 47.5781L98.0312 51.9443C100.068 53.1692 102.336 53.9591 104.693 54.2643C107.828 54.5885 110.996 54.3152 114.03 53.4587C114.03 53.4587 106.764 53.4265 102.059 47.5781Z" fill="#E0E0E0"/>
<path d="M87.5042 22.6996L102.931 7.94977L99.8534 4.69531L84 19.3162L87.5042 22.6996Z" fill="#EBEBEB"/>
<path d="M139.067 9.11089L119.766 0L117.824 4.04391L137.166 13.5979L139.067 9.11089Z" fill="#EBEBEB"/>
<path d="M130.136 16.2977C130.136 16.4105 122.814 18.5372 113.711 21.0425C104.608 23.5478 97.2289 25.4972 97.1645 25.3603C97.1 25.2233 104.487 23.1208 113.598 20.6075C122.709 18.0941 130.104 16.1849 130.136 16.2977Z" fill="#E0E0E0"/>
<path d="M131.632 22.2809C131.632 22.3937 124.302 24.5204 115.199 27.0338C106.096 29.5471 98.6847 31.4885 98.6524 31.3757C98.6202 31.263 105.983 29.1363 115.086 26.6229C124.189 24.1096 131.6 22.1359 131.632 22.2809Z" fill="#E0E0E0"/>
<path d="M133.269 27.5007C133.269 27.6135 125.946 29.7401 116.835 32.2535C107.724 34.7668 100.329 36.7082 100.297 36.6357C100.265 36.5632 107.62 34.3963 116.73 31.8829C125.841 29.3696 133.236 27.3879 133.269 27.5007Z" fill="#E0E0E0"/>
<path d="M134.628 32.6076C134.628 32.7123 127.305 34.839 118.203 37.3523C109.1 39.8657 101.689 41.8071 101.656 41.6943C101.624 41.5815 108.979 39.4548 118.09 36.9495C127.201 34.4442 134.604 32.4787 134.628 32.6076Z" fill="#E0E0E0"/>
<path d="M297.461 154.465C296.277 154.586 295.13 154.945 294.088 155.519C293.046 156.094 292.13 156.872 291.395 157.808C289.934 159.702 288.928 161.907 288.455 164.252C287.4 168.723 288.294 173.919 289.687 178.309C294.44 176.449 297.244 171.237 298.5 168.506C300.49 164.188 301.457 155.174 297.461 154.497" fill="#EBEBEB"/>
<path d="M282.943 183.87C283.631 182.73 284.005 181.428 284.026 180.096C284.047 178.765 283.715 177.451 283.064 176.29C282.396 175.14 281.506 174.136 280.445 173.335C279.384 172.534 278.174 171.953 276.886 171.625C276.31 171.413 275.694 171.328 275.082 171.377C274.47 171.425 273.876 171.606 273.341 171.907C272.895 172.269 272.553 172.744 272.352 173.282C272.151 173.82 272.098 174.403 272.197 174.969C272.409 176.102 272.917 177.158 273.671 178.03C276.088 181.123 279.02 183.669 282.943 183.87Z" fill="#EBEBEB"/>
<path d="M282.872 198.7C282.96 198.397 283.022 198.087 283.057 197.773C283.162 197.113 283.307 196.259 283.476 195.228C284.022 192.428 284.112 189.558 283.742 186.729C283.32 183.883 282.15 181.2 280.35 178.955C279.798 178.29 279.168 177.692 278.474 177.175C278.286 177.031 278.089 176.9 277.885 176.78C277.749 176.692 277.676 176.651 277.668 176.668C278.583 177.383 279.42 178.193 280.165 179.084C281.871 181.33 282.98 183.971 283.387 186.761C283.745 189.558 283.688 192.392 283.218 195.171C283.073 196.251 282.969 197.129 282.904 197.733C282.858 198.053 282.847 198.377 282.872 198.7Z" fill="#E0E0E0"/>
<path d="M296.117 161.266C296.043 161.382 295.984 161.506 295.939 161.636L295.472 162.716C295.078 163.658 294.522 165.036 293.861 166.743C292.516 170.143 290.727 174.872 288.867 180.14C287.006 185.408 285.435 190.209 284.339 193.698C283.8 195.446 283.365 196.863 283.083 197.846C282.954 198.313 282.841 198.652 282.76 198.982C282.717 199.11 282.687 199.242 282.672 199.377C282.738 199.257 282.79 199.13 282.825 198.998L283.204 197.886L284.565 193.77C285.717 190.298 287.32 185.513 289.181 180.245C291.042 174.976 292.79 170.248 294.079 166.832C294.715 165.148 295.231 163.771 295.601 162.804L296.012 161.701C296.07 161.562 296.105 161.415 296.117 161.266Z" fill="#E0E0E0"/>
<path d="M288.271 188.725C289.636 186.28 291.564 184.195 293.895 182.642C296.226 181.09 298.893 180.116 301.676 179.799C303.094 179.654 304.81 179.799 305.478 181.096C306.147 182.393 305.349 183.892 304.415 184.963C302.424 187.177 299.823 188.751 296.938 189.488C294.054 190.225 291.016 190.091 288.207 189.103" fill="#EBEBEB"/>
<path d="M299.65 183.667C299.354 183.657 299.057 183.676 298.764 183.723C298.418 183.755 298.073 183.806 297.733 183.876C297.338 183.965 296.871 184.021 296.379 184.174C295.833 184.31 295.295 184.477 294.768 184.674C294.16 184.884 293.566 185.132 292.988 185.415C290.308 186.688 287.982 188.599 286.213 190.981C285.828 191.497 285.473 192.035 285.15 192.592C284.85 193.071 284.581 193.569 284.344 194.083C284.142 194.499 283.965 194.926 283.813 195.363C283.688 195.688 283.58 196.019 283.49 196.354C283.394 196.634 283.326 196.923 283.289 197.216C283.362 197.216 283.66 196.008 284.554 194.179C284.795 193.681 285.064 193.197 285.359 192.729C285.683 192.186 286.038 191.661 286.423 191.158C288.19 188.839 290.474 186.963 293.093 185.681C294.158 185.159 295.266 184.728 296.404 184.392C298.393 183.844 299.666 183.739 299.65 183.667Z" fill="#E0E0E0"/>
<path d="M343.008 198.866C343.008 198.978 266.222 199.075 171.512 199.075C76.8022 199.075 0 198.978 0 198.866C0 198.753 76.77 198.656 171.512 198.656C266.254 198.656 343.008 198.745 343.008 198.866Z" fill="#263238"/>
<path d="M225.336 198.281C244.783 191.837 231.451 166.115 231.451 166.115L146.448 174.114C144.826 174.103 143.218 174.412 141.716 175.025C140.215 175.637 138.849 176.541 137.698 177.683C136.547 178.826 135.634 180.185 135.011 181.682C134.387 183.18 134.066 184.786 134.066 186.407C134.066 189.67 135.362 192.799 137.669 195.105C139.976 197.412 143.105 198.708 146.367 198.708L225.312 198.281" fill="#263238"/>
<path d="M245.233 198.257C264.188 191.861 251.122 166.115 251.122 166.115L168.262 173.921C160.206 174.026 156.219 177.949 156.219 186.19C156.219 192.981 158.74 198.708 168.238 198.515L245.233 198.257Z" fill="#263238"/>
<path d="M225.998 170.457H225.764H225.072L222.421 170.57L212.674 171.053L180.516 172.817C178.905 172.89 177.399 173.027 175.868 173.043C174.337 173.059 172.823 173.131 171.341 173.22C169.859 173.309 168.4 173.421 166.983 173.575C165.568 173.674 164.173 173.961 162.834 174.428C161.545 174.92 160.372 175.671 159.386 176.636C158.457 177.589 157.745 178.732 157.3 179.987C156.882 181.16 156.596 182.376 156.446 183.612C156.293 184.749 156.218 185.896 156.22 187.044C156.191 189.021 156.563 190.983 157.316 192.811C157.888 194.168 158.771 195.371 159.894 196.324C160.579 196.916 161.376 197.365 162.238 197.645C162.826 197.83 162.834 197.774 162.238 197.564C161.407 197.245 160.64 196.779 159.974 196.187C158.898 195.23 158.055 194.039 157.509 192.707C156.797 190.914 156.451 188.996 156.494 187.068C156.507 185.936 156.593 184.805 156.752 183.684C156.904 182.477 157.191 181.291 157.606 180.148C158.038 178.942 158.725 177.843 159.62 176.926C160.574 176.005 161.706 175.289 162.947 174.823C164.247 174.376 165.602 174.105 166.975 174.018C168.384 173.873 169.834 173.768 171.317 173.679C172.799 173.591 174.297 173.534 175.828 173.51C177.358 173.486 178.913 173.349 180.484 173.276L212.642 171.383L222.381 170.755L225.031 170.562L225.716 170.505C225.812 170.506 225.908 170.49 225.998 170.457Z" fill="#455A64"/>
<path d="M244.712 178.569C244.511 178.722 244.285 178.837 244.043 178.908C243.396 179.144 242.717 179.282 242.029 179.318C240.882 179.407 239.729 179.242 238.652 178.837C237.576 178.431 236.601 177.794 235.797 176.97C234.994 176.147 234.381 175.157 234.002 174.07C233.622 172.984 233.486 171.828 233.603 170.683C233.658 169.995 233.813 169.32 234.062 168.677C234.247 168.226 234.392 168 234.417 168.016C234.166 168.892 234.001 169.791 233.925 170.699C233.853 171.787 234.011 172.877 234.387 173.9C234.763 174.923 235.35 175.856 236.109 176.638C236.868 177.42 237.783 178.034 238.795 178.44C239.806 178.846 240.892 179.036 241.981 178.996C242.903 178.944 243.818 178.801 244.712 178.569Z" fill="#455A64"/>
<path d="M219.752 96.3048C209.207 97.489 207.5 104.65 202.586 111.699L195.473 124.822L208.547 132.837L208.096 152.976L202.747 170.795L251.991 168.016L246.505 151.099L253.062 125.241C253.562 121.712 254.915 115.163 253.997 111.691C251.129 100.856 239.867 97.6904 232.118 95.6765C230.507 95.2656 222.805 95.2898 221.468 95.612" fill="#FF725E"/>
<path d="M214.197 151.412C214.824 151.295 215.473 151.431 216.001 151.791C216.606 152.141 217.094 152.662 217.403 153.289C217.779 154.071 217.842 154.967 217.58 155.794C217.34 156.627 216.797 157.34 216.057 157.792C215.453 158.144 214.757 158.306 214.06 158.259C213.422 158.272 212.805 158.031 212.344 157.591C212.895 157.807 213.477 157.935 214.068 157.969C214.699 157.964 215.316 157.789 215.856 157.462C216.505 157.045 216.983 156.41 217.203 155.671C217.423 154.932 217.371 154.138 217.056 153.434C216.789 152.865 216.371 152.38 215.848 152.032C215.334 151.738 214.777 151.529 214.197 151.412Z" fill="#FAFAFA"/>
<path d="M225.949 129.663C225.949 129.744 230.976 131.492 237.227 133.562C243.478 135.632 248.585 137.251 248.618 137.171C248.65 137.09 243.591 135.342 237.34 133.264C231.089 131.186 225.949 129.583 225.949 129.663Z" fill="#263238"/>
<g opacity="0.3">
<path opacity="0.3" d="M246.186 140.472C245.256 144.756 244.042 148.973 242.552 153.095C241.609 155.714 240.27 158.173 238.581 160.386C236.083 163.264 232.753 165.296 229.051 166.202C225.361 167.096 221.534 167.284 217.773 166.758L236.503 156.181L241.481 138.869L246.186 140.472Z" fill="black"/>
</g>
<path d="M208.106 152.427C208.186 151.964 208.226 151.496 208.227 151.026C208.275 150.027 208.339 148.714 208.412 147.127C208.557 143.832 208.718 139.273 208.871 134.238C209.024 129.203 209.137 124.644 209.193 121.349C209.193 119.738 209.193 118.441 209.242 117.442C209.266 116.961 209.25 116.478 209.193 116C209.112 116.474 209.069 116.953 209.064 117.434C209.016 118.433 208.952 119.746 208.871 121.333C208.734 124.628 208.565 129.187 208.42 134.222C208.275 139.257 208.154 143.808 208.09 147.111C208.09 148.722 208.09 150.011 208.049 151.018C208.032 151.488 208.051 151.96 208.106 152.427Z" fill="#263238"/>
<path d="M197.391 121.334C199.148 122.626 200.992 123.797 202.909 124.838C204.753 126.006 206.675 127.047 208.66 127.956C206.906 126.656 205.062 125.482 203.142 124.443C201.302 123.271 199.38 122.231 197.391 121.334Z" fill="#263238"/>
<path d="M222.002 113.164C221.653 113.701 221.106 114.078 220.479 114.212C219.9 114.377 219.287 114.389 218.701 114.248C218.114 114.107 217.574 113.818 217.133 113.407C216.692 112.996 216.364 112.479 216.181 111.904C215.998 111.33 215.966 110.718 216.089 110.127C216.237 109.443 216.585 108.818 217.088 108.331C217.299 108.094 217.555 107.9 217.842 107.762C218.128 107.624 218.438 107.543 218.756 107.525C218.22 107.776 217.728 108.111 217.297 108.516C216.869 108.965 216.571 109.522 216.436 110.127C216.296 110.88 216.433 111.659 216.822 112.318C217.192 112.992 217.797 113.505 218.522 113.76C219.12 113.955 219.76 113.986 220.375 113.849C220.95 113.708 221.499 113.477 222.002 113.164Z" fill="#FAFAFA"/>
<path d="M211.636 127.037C211.258 126.52 211.102 125.874 211.201 125.241C211.252 124.64 211.457 124.062 211.798 123.563C212.138 123.065 212.602 122.663 213.144 122.397C213.685 122.131 214.287 122.01 214.889 122.045C215.492 122.08 216.075 122.271 216.582 122.599C217.161 122.997 217.609 123.558 217.871 124.21C218.157 124.78 218.206 125.44 218.008 126.047C217.965 125.456 217.826 124.877 217.597 124.331C217.323 123.764 216.899 123.282 216.372 122.937C215.714 122.547 214.941 122.399 214.185 122.518C213.429 122.637 212.738 123.016 212.232 123.59C211.835 124.078 211.578 124.666 211.491 125.289C211.442 125.876 211.491 126.467 211.636 127.037Z" fill="#FAFAFA"/>
<path d="M211.636 144.817C211.258 144.299 211.102 143.653 211.201 143.02C211.252 142.419 211.457 141.841 211.798 141.342C212.138 140.844 212.602 140.442 213.144 140.176C213.685 139.91 214.287 139.789 214.889 139.824C215.492 139.86 216.075 140.05 216.582 140.378C217.161 140.776 217.609 141.337 217.871 141.989C218.157 142.559 218.206 143.22 218.008 143.826C217.965 143.235 217.826 142.656 217.597 142.11C217.323 141.543 216.899 141.061 216.372 140.716C215.718 140.332 214.95 140.185 214.199 140.303C213.449 140.42 212.762 140.794 212.256 141.361C211.859 141.849 211.603 142.437 211.515 143.061C211.457 143.649 211.498 144.242 211.636 144.817Z" fill="#FAFAFA"/>
<path d="M227.182 122.646C226.544 122.665 225.924 122.431 225.458 121.994C224.911 121.561 224.504 120.975 224.29 120.31C224.041 119.479 224.113 118.585 224.492 117.805C224.858 117.018 225.504 116.395 226.304 116.057C226.956 115.806 227.667 115.75 228.35 115.896C228.666 115.935 228.971 116.037 229.247 116.194C229.524 116.352 229.767 116.563 229.961 116.814C229.459 116.526 228.916 116.314 228.35 116.186C227.726 116.091 227.087 116.172 226.506 116.419C225.807 116.734 225.243 117.287 224.916 117.979C224.588 118.672 224.518 119.458 224.717 120.198C224.898 120.802 225.241 121.345 225.708 121.768C226.149 122.138 226.647 122.435 227.182 122.646Z" fill="#FAFAFA"/>
<path d="M220.872 129.752C221.422 130.08 221.819 130.613 221.976 131.234C222.229 131.976 222.224 132.781 221.96 133.519C221.696 134.257 221.191 134.883 220.525 135.297C219.859 135.71 219.073 135.885 218.295 135.794C217.517 135.703 216.793 135.351 216.24 134.795C215.759 134.388 215.456 133.81 215.395 133.184C215.663 133.713 216.017 134.195 216.442 134.609C216.915 135.028 217.495 135.307 218.117 135.415C218.874 135.522 219.645 135.359 220.294 134.956C220.943 134.552 221.43 133.934 221.67 133.208C221.839 132.599 221.839 131.956 221.67 131.347C221.498 130.773 221.228 130.234 220.872 129.752Z" fill="#FAFAFA"/>
<path d="M208.079 105.618C208.39 105.557 208.71 105.56 209.02 105.625C209.33 105.69 209.624 105.816 209.884 105.997C210.489 106.345 210.98 106.863 211.294 107.487C211.558 108.034 211.675 108.64 211.632 109.246C211.589 109.852 211.388 110.436 211.049 110.94C210.71 111.444 210.245 111.85 209.699 112.117C209.154 112.385 208.548 112.505 207.942 112.465C207.305 112.478 206.688 112.237 206.227 111.797C206.779 112.008 207.36 112.133 207.95 112.167C208.581 112.169 209.2 111.996 209.739 111.668C210.38 111.249 210.852 110.615 211.068 109.88C211.291 109.147 211.245 108.359 210.939 107.656C210.674 107.086 210.256 106.6 209.731 106.255C209.22 105.95 208.662 105.735 208.079 105.618Z" fill="#FAFAFA"/>
<path d="M230.282 126.971C229.96 126.419 229.87 125.761 230.032 125.142C230.157 124.456 230.479 123.821 230.958 123.314C231.575 122.704 232.396 122.342 233.262 122.299C234.044 122.246 234.819 122.464 235.459 122.915C236.099 123.367 236.563 124.026 236.774 124.78C237.003 125.377 236.986 126.04 236.726 126.625C236.743 126.031 236.664 125.438 236.493 124.869C236.278 124.277 235.904 123.756 235.413 123.362C234.8 122.905 234.046 122.677 233.282 122.718C232.518 122.759 231.793 123.067 231.232 123.588C230.788 124.032 230.473 124.589 230.322 125.199C230.217 125.784 230.204 126.382 230.282 126.971Z" fill="#FAFAFA"/>
<path d="M222.306 140.029C222.934 139.912 223.583 140.048 224.11 140.408C224.716 140.759 225.206 141.28 225.52 141.906C225.884 142.693 225.947 143.585 225.698 144.415C225.448 145.244 224.904 145.954 224.167 146.409C223.564 146.757 222.872 146.92 222.177 146.877C221.536 146.891 220.916 146.651 220.453 146.208C221.008 146.42 221.592 146.545 222.185 146.579C222.813 146.579 223.429 146.406 223.965 146.079C224.614 145.662 225.092 145.027 225.313 144.288C225.533 143.549 225.481 142.755 225.166 142.051C224.898 141.482 224.481 140.998 223.957 140.65C223.446 140.35 222.888 140.14 222.306 140.029Z" fill="#FAFAFA"/>
<path d="M235.156 163.295C235.157 162.655 235.412 162.04 235.865 161.588C236.261 161.132 236.768 160.786 237.337 160.584C237.906 160.382 238.517 160.331 239.112 160.436C239.706 160.54 240.264 160.797 240.729 161.181C241.195 161.565 241.554 162.063 241.77 162.627C242.005 163.284 242.042 163.995 241.875 164.673C241.767 165.303 241.417 165.867 240.9 166.244C241.212 165.746 241.443 165.203 241.585 164.633C241.693 164.013 241.632 163.376 241.407 162.788C241.108 162.085 240.571 161.509 239.892 161.161C239.212 160.812 238.431 160.712 237.686 160.879C237.074 161.038 236.517 161.361 236.075 161.813C235.697 162.259 235.387 162.759 235.156 163.295Z" fill="#FAFAFA"/>
<path d="M244.477 150.494C244.793 150.534 245.098 150.635 245.374 150.793C245.651 150.95 245.894 151.161 246.088 151.412C246.622 151.987 246.941 152.728 246.991 153.51C247.041 154.293 246.819 155.069 246.362 155.706C245.877 156.426 245.138 156.936 244.292 157.132C243.612 157.282 242.902 157.226 242.254 156.971C241.643 156.785 241.13 156.365 240.828 155.803C241.285 156.178 241.799 156.477 242.351 156.689C242.95 156.881 243.591 156.906 244.203 156.761C244.939 156.554 245.58 156.096 246.014 155.466C246.448 154.837 246.648 154.075 246.58 153.314C246.506 152.688 246.258 152.096 245.863 151.606C245.466 151.161 244.998 150.785 244.477 150.494Z" fill="#FAFAFA"/>
<path d="M244.478 125.852C245.114 125.94 245.692 126.272 246.089 126.778C246.556 127.296 246.862 127.941 246.967 128.631C247.07 129.491 246.856 130.359 246.363 131.071C245.87 131.784 245.134 132.291 244.292 132.497C243.609 132.643 242.898 132.587 242.246 132.336C241.634 132.149 241.121 131.726 240.82 131.16C241.277 131.542 241.794 131.844 242.351 132.054C242.95 132.248 243.592 132.271 244.204 132.119C244.944 131.922 245.59 131.467 246.025 130.837C246.461 130.206 246.658 129.441 246.58 128.679C246.503 128.055 246.255 127.464 245.863 126.971C245.463 126.528 244.995 126.15 244.478 125.852Z" fill="#FAFAFA"/>
<path d="M249.786 121.325C249.149 121.369 248.519 121.164 248.03 120.753C247.468 120.349 247.037 119.789 246.79 119.142C246.511 118.322 246.543 117.428 246.878 116.63C247.214 115.831 247.83 115.183 248.61 114.808C249.249 114.522 249.958 114.433 250.648 114.55C251.276 114.614 251.855 114.92 252.259 115.404C251.736 115.124 251.17 114.933 250.584 114.84C249.957 114.778 249.325 114.887 248.755 115.154C248.077 115.507 247.545 116.087 247.25 116.792C246.956 117.497 246.918 118.283 247.144 119.013C247.349 119.608 247.714 120.135 248.199 120.536C248.683 120.882 249.219 121.149 249.786 121.325Z" fill="#FAFAFA"/>
<path d="M240.817 107.743C240.182 107.791 239.554 107.585 239.069 107.171C238.507 106.767 238.076 106.207 237.829 105.56C237.55 104.74 237.582 103.847 237.917 103.048C238.253 102.25 238.869 101.602 239.649 101.226C240.288 100.94 240.998 100.85 241.687 100.969C242.315 101.032 242.894 101.338 243.299 101.822C242.772 101.552 242.207 101.364 241.623 101.267C240.997 101.197 240.364 101.303 239.794 101.573C239.116 101.925 238.584 102.505 238.289 103.21C237.995 103.915 237.957 104.701 238.183 105.431C238.39 106.028 238.754 106.557 239.238 106.962C239.722 107.302 240.254 107.565 240.817 107.743Z" fill="#FAFAFA"/>
<path d="M205.006 123.394C204.37 123.439 203.741 123.231 203.258 122.814C202.618 122.363 202.155 121.704 201.945 120.949C201.735 120.195 201.792 119.391 202.106 118.674C202.434 117.871 203.053 117.221 203.838 116.853C204.477 116.567 205.186 116.477 205.876 116.596C206.188 116.624 206.491 116.714 206.767 116.861C207.044 117.007 207.289 117.207 207.487 117.449C206.964 117.169 206.398 116.979 205.812 116.886C205.185 116.824 204.553 116.932 203.983 117.2C203.305 117.552 202.772 118.132 202.478 118.837C202.184 119.542 202.146 120.328 202.372 121.058C202.579 121.652 202.943 122.179 203.427 122.581C203.908 122.933 204.44 123.208 205.006 123.394Z" fill="#FAFAFA"/>
<path d="M240.923 110.852C241.239 110.892 241.544 110.995 241.821 111.154C242.097 111.313 242.34 111.525 242.534 111.778C243.005 112.294 243.31 112.939 243.412 113.631C243.514 114.489 243.3 115.356 242.809 116.068C242.318 116.779 241.584 117.288 240.745 117.497C240.062 117.643 239.351 117.587 238.699 117.336C238.087 117.149 237.574 116.726 237.273 116.16C237.73 116.542 238.247 116.844 238.804 117.054C239.403 117.248 240.045 117.271 240.657 117.119C241.397 116.922 242.04 116.464 242.469 115.83C242.907 115.203 243.106 114.44 243.033 113.679C242.953 113.054 242.702 112.463 242.308 111.971C241.907 111.528 241.44 111.151 240.923 110.852Z" fill="#FAFAFA"/>
<path d="M252.227 125.062C252.185 125.153 252.15 125.247 252.122 125.344C252.058 125.545 251.961 125.819 251.848 126.149C251.607 126.899 251.268 127.962 250.841 129.323L247.257 140.819L247.426 140.738L225.531 132.683L224.983 132.457L225.08 132.634C226.404 127.708 228.117 122.894 230.203 118.239C231.825 114.412 234.02 110.853 236.712 107.686C237.767 106.499 239.01 105.494 240.393 104.713C241.431 104.114 242.596 103.768 243.793 103.707C244.023 103.691 244.255 103.691 244.486 103.707L245.098 103.771C245.283 103.771 245.46 103.771 245.613 103.835L246.04 103.948L246.612 104.093L246.806 104.133L246.62 104.069L246.056 103.884L245.629 103.763C245.476 103.723 245.299 103.715 245.106 103.682L244.494 103.602C244.258 103.586 244.021 103.586 243.785 103.602C242.566 103.642 241.375 103.977 240.313 104.577C238.899 105.35 237.627 106.358 236.551 107.557C233.816 110.723 231.588 114.294 229.945 118.142C227.835 122.807 226.106 127.635 224.773 132.578V132.707L224.894 132.755L225.45 132.981C233.651 136.05 241.255 138.781 247.369 141.036L247.49 141.085L247.531 140.956L251.011 129.428C251.413 128.059 251.728 127.011 251.953 126.206C252.05 125.843 252.13 125.569 252.187 125.36C252.212 125.263 252.225 125.163 252.227 125.062Z" fill="#263238"/>
<path d="M210.902 138.266L206.665 151.534C205.855 154.233 204.316 156.657 202.216 158.538C200.117 160.418 197.539 161.682 194.767 162.191L166.451 167.508L158.742 167.258L166.451 157.72L187.734 150.47C188.755 150.251 189.696 149.754 190.453 149.035C191.211 148.316 191.756 147.402 192.028 146.394L200.502 127.963L211.241 134.544L210.902 138.266Z" fill="#FFBE9D"/>
<path d="M244.041 139.514L239.426 154.618C238.629 157.333 237.101 159.777 235.008 161.681C232.915 163.585 230.338 164.876 227.56 165.413L199.244 170.794L191.543 170.544L194.161 163.971L220.535 153.539C221.56 153.308 222.503 152.801 223.26 152.073C224.017 151.344 224.56 150.422 224.829 149.406L228.768 134.205L244.041 139.514Z" fill="#FFBE9D"/>
<path d="M218.948 170.995L218.706 169.159L196.956 168.305L186.274 141.383L145.602 144.138L159.328 174.024L218.948 170.995Z" fill="#455A64"/>
<path d="M170.267 158.848C170.493 159.205 170.819 159.488 171.205 159.659C171.591 159.831 172.02 159.884 172.436 159.813C172.852 159.741 173.238 159.547 173.544 159.256C173.85 158.965 174.063 158.589 174.156 158.177C174.249 157.765 174.217 157.334 174.065 156.94C173.912 156.546 173.647 156.206 173.301 155.963C172.955 155.72 172.545 155.585 172.123 155.575C171.7 155.565 171.285 155.681 170.928 155.907C170.453 156.212 170.117 156.691 169.994 157.242C169.87 157.792 169.968 158.369 170.267 158.848Z" fill="white"/>
<path d="M231.469 49.5254C234.66 49.7395 237.719 50.876 240.276 52.7966C242.833 54.7172 244.777 57.3393 245.872 60.3441C246.259 61.4719 246.525 62.6399 247.016 63.7274C247.463 64.8468 248.298 65.7677 249.368 66.3213C250.174 66.6838 251.076 66.7241 251.898 67.0302C252.589 67.3029 253.203 67.7381 253.69 68.2991C254.177 68.86 254.521 69.5301 254.693 70.2525C254.854 70.9777 254.87 71.7274 254.74 72.4587C254.61 73.19 254.336 73.8885 253.936 74.5139C253.455 75.0824 253.128 75.7647 252.985 76.4956C253.018 76.9982 253.118 77.4941 253.283 77.9697C253.486 78.8064 253.416 79.6861 253.082 80.4798C252.749 81.2736 252.17 81.9395 251.43 82.3801C250.691 82.8207 249.829 83.0126 248.972 82.9278C248.116 82.843 247.309 82.486 246.67 81.909C246.246 83.182 245.391 84.2673 244.253 84.9781C243.045 85.5501 241.264 85.0345 241.031 83.7215C240.71 84.3336 240.201 84.8263 239.578 85.127C238.956 85.4276 238.254 85.5202 237.575 85.3911C236.896 85.262 236.276 84.918 235.808 84.41C235.339 83.9019 235.047 83.2567 234.973 82.5695" fill="#263238"/>
<path d="M212.159 69.3421C209.533 66.2729 209.493 61.4557 211.353 57.8629C213.214 54.2701 216.751 51.797 220.472 50.3309C225.596 48.317 231.71 48.1075 236.318 51.1364C238.331 52.4929 239.946 54.3615 240.997 56.5499C242.048 58.7383 242.496 61.1672 242.296 63.5865C242.096 66.0058 241.254 68.328 239.858 70.3139C238.462 72.2997 236.561 73.8774 234.352 74.8844" fill="#FF725E"/>
<path d="M242.489 61.8571C241.872 62.0066 241.239 62.0796 240.604 62.0746C239.981 62.2017 239.346 62.2531 238.711 62.2276C239.283 61.9141 239.913 61.7196 240.562 61.6559C241.211 61.5922 241.867 61.6606 242.489 61.8571Z" fill="#FAFAFA"/>
<path d="M240.024 55.1643C239.476 55.3566 238.909 55.4863 238.332 55.551C237.414 55.7524 236.721 56.0504 236.641 55.9376C237.069 55.4914 237.638 55.2069 238.252 55.1321C238.828 54.9351 239.455 54.9465 240.024 55.1643Z" fill="#FAFAFA"/>
<path d="M235.213 50.6524C235.213 50.7732 234.118 50.9182 232.797 51.3532C232.038 51.6775 231.264 51.9625 230.477 52.2071C231.074 51.5906 231.834 51.155 232.668 50.9504C233.469 50.6066 234.354 50.5031 235.213 50.6524Z" fill="#FAFAFA"/>
<path d="M227.198 48.873C227.198 48.9858 226.199 49.3161 225.152 50.0895C224.104 50.8628 223.468 51.7006 223.363 51.6522C223.644 50.8572 224.191 50.183 224.91 49.743C225.546 49.193 226.357 48.885 227.198 48.873Z" fill="#FAFAFA"/>
<path d="M217.966 51.8293C218.03 51.926 217.7 52.2483 217.41 52.7074C217.209 53.0216 217.08 53.3277 216.975 53.513L216.79 53.7949V53.521C216.79 53.4324 216.79 53.376 216.838 53.3599C216.887 53.3438 216.927 53.3599 216.983 53.4566H216.79C216.779 53.1189 216.875 52.7863 217.064 52.506C217.402 51.9421 217.893 51.7327 217.966 51.8293Z" fill="#FAFAFA"/>
<path d="M240.795 68.8996C240.795 69.0123 240.07 69.0768 239.224 68.819C238.378 68.5612 237.823 68.094 237.879 68.0135C237.935 67.9329 238.564 68.1826 239.345 68.4243C240.126 68.666 240.803 68.7868 240.795 68.8996Z" fill="#FAFAFA"/>
<path d="M253.5 62.4146C253.5 62.4146 253.355 62.9462 252.517 63.2201C252.265 63.2967 252 63.3211 251.738 63.2921C251.477 63.263 251.223 63.181 250.994 63.051C250.695 62.8651 250.446 62.6084 250.269 62.3036C250.092 61.9988 249.992 61.6551 249.979 61.3029C249.964 60.8736 250.064 60.4481 250.268 60.07C250.471 59.692 250.772 59.3751 251.139 59.1521C251.558 58.8942 252.035 58.7477 252.525 58.7265C253.016 58.7054 253.504 58.8103 253.943 59.0312C254.43 59.2623 254.855 59.6054 255.184 60.0324C255.513 60.4595 255.737 60.9583 255.836 61.4882C255.934 62.0517 255.913 62.6297 255.775 63.1847C255.636 63.7397 255.382 64.2595 255.03 64.7104C254.659 65.1533 254.19 65.504 253.66 65.7346C253.131 65.9653 252.554 66.0697 251.977 66.0396C250.922 66.0057 249.898 65.6763 249.021 65.089C247.626 64.0509 246.439 62.758 245.525 61.2787C244.893 60.317 244.193 59.4018 243.43 58.5398C242.874 57.9518 242.52 57.6698 242.544 57.6456C242.568 57.6215 242.649 57.6859 242.826 57.8148C243.079 58.0055 243.321 58.2099 243.551 58.427C244.368 59.2537 245.109 60.1515 245.766 61.1096C246.694 62.5252 247.867 63.7637 249.23 64.7668C250.053 65.3001 251.006 65.5981 251.985 65.6287C252.498 65.6573 253.01 65.5658 253.482 65.3617C253.953 65.1575 254.37 64.8462 254.7 64.4526C255.014 64.0455 255.24 63.5774 255.364 63.0781C255.487 62.5788 255.505 62.0593 255.417 61.5526C255.333 61.0824 255.139 60.6388 254.85 60.258C254.562 59.8772 254.187 59.57 253.758 59.3615C253.381 59.1709 252.962 59.0776 252.54 59.0903C252.118 59.103 251.706 59.2211 251.341 59.434C251.016 59.6164 250.747 59.8837 250.563 60.2073C250.378 60.5308 250.285 60.8983 250.294 61.2707C250.294 61.5764 250.368 61.8776 250.508 62.1494C250.648 62.4211 250.85 62.6556 251.099 62.8334C251.3 62.9556 251.523 63.0369 251.755 63.0728C251.987 63.1088 252.224 63.0986 252.453 63.0429C252.86 62.9516 253.227 62.7312 253.5 62.4146Z" fill="#263238"/>
<path d="M234.986 58.1604C235.694 58.2349 236.349 58.5726 236.82 59.1066C237.291 59.6406 237.545 60.3321 237.531 61.0443L235.92 99.4937C235.856 104.037 227.623 109.402 222.757 109.305C217.851 109.201 219.293 103.989 219.221 99.6387C219.1 92.3887 219.108 89.7142 219.1 89.7545C219.092 89.7948 212.897 88.7234 211.616 80.6275C210.972 76.5997 211.173 70.0021 211.52 64.6049C211.818 59.7715 215.04 53.7942 219.873 54.3017L234.986 58.1604Z" fill="#FFBE9D"/>
<path d="M213.625 69.8832C213.621 70.1539 213.723 70.4156 213.91 70.6115C214.097 70.8075 214.353 70.922 214.624 70.9304C214.756 70.9414 214.889 70.9257 215.015 70.8844C215.141 70.843 215.257 70.7768 215.357 70.6897C215.457 70.6026 215.539 70.4963 215.597 70.3771C215.655 70.258 215.688 70.1284 215.695 69.996C215.698 69.721 215.592 69.4562 215.4 69.2587C215.209 69.0613 214.947 68.947 214.672 68.9407C214.409 68.9275 214.15 69.0193 213.954 69.1959C213.758 69.3725 213.64 69.6196 213.625 69.8832Z" fill="#263238"/>
<path d="M212.946 68.0524C213.075 68.1893 213.865 67.6093 214.984 67.6093C216.104 67.6093 216.918 68.1732 217.039 68.0363C217.159 67.8993 216.966 67.7302 216.612 67.4724C216.126 67.1389 215.55 66.9618 214.96 66.9649C214.381 66.9659 213.818 67.1491 213.349 67.4885C213.003 67.7704 212.882 68.0524 212.946 68.0524Z" fill="#263238"/>
<path d="M224.539 69.8822C224.537 70.1523 224.64 70.4128 224.826 70.6083C225.013 70.8038 225.268 70.919 225.538 70.9294C225.67 70.9404 225.803 70.9247 225.929 70.8834C226.055 70.842 226.171 70.7758 226.271 70.6887C226.371 70.6016 226.453 70.4953 226.511 70.3761C226.569 70.257 226.602 70.1273 226.609 69.995C226.614 69.7234 226.512 69.461 226.325 69.2637C226.138 69.0665 225.882 68.9502 225.61 68.9397C225.478 68.931 225.345 68.9484 225.22 68.9911C225.094 69.0338 224.979 69.1008 224.879 69.1884C224.779 69.276 224.698 69.3823 224.64 69.5014C224.582 69.6205 224.547 69.7499 224.539 69.8822Z" fill="#263238"/>
<path d="M223.927 68.279C224.056 68.4159 224.845 67.8359 225.965 67.8359C227.085 67.8359 227.898 68.3998 228.019 68.2629C228.14 68.1259 227.947 67.9567 227.592 67.699C227.106 67.3655 226.53 67.1884 225.941 67.1914C225.361 67.1885 224.796 67.3721 224.33 67.7151C223.983 67.9728 223.862 68.2226 223.927 68.279Z" fill="#263238"/>
<path d="M219.877 76.5681C219.289 76.3821 218.68 76.2711 218.064 76.2379C217.774 76.2379 217.508 76.1492 217.46 75.9559C217.436 75.6608 217.503 75.3653 217.653 75.1101L218.459 72.9431C219.635 69.8498 220.481 67.3042 220.352 67.2559C219.427 69.0308 218.643 70.8759 218.008 72.7739L217.202 74.957C217.023 75.3138 216.983 75.7243 217.09 76.109C217.131 76.2105 217.196 76.3011 217.278 76.3738C217.361 76.4464 217.459 76.4991 217.565 76.5279C217.722 76.5709 217.885 76.5926 218.048 76.5923C218.656 76.6615 219.271 76.6534 219.877 76.5681Z" fill="#263238"/>
<path d="M219.102 89.8026C222.926 89.8588 226.691 88.8521 229.977 86.8945C229.977 86.8945 227.342 92.4529 219.247 91.7279L219.102 89.8026Z" fill="#EB996E"/>
<path d="M220.349 79.2576C220.562 78.9905 220.84 78.7817 221.155 78.6506C221.471 78.5196 221.814 78.4707 222.154 78.5085C222.4 78.5321 222.638 78.6049 222.856 78.7225C223.073 78.8401 223.264 79.0002 223.419 79.1932C223.568 79.3788 223.657 79.606 223.673 79.8438C223.688 80.0816 223.631 80.3186 223.507 80.5224C223.329 80.7249 223.093 80.8687 222.831 80.9348C222.57 81.0009 222.294 80.9863 222.041 80.8929C221.515 80.7035 221.031 80.4135 220.615 80.039C220.489 79.9518 220.382 79.8394 220.301 79.7088C220.258 79.6475 220.234 79.5743 220.234 79.4993C220.234 79.4243 220.258 79.3511 220.301 79.2899" fill="#EB996E"/>
<path d="M223.162 77.34C222.985 77.34 222.977 78.5403 221.938 79.4022C220.899 80.2642 219.61 80.1273 219.602 80.2964C219.594 80.4656 219.892 80.53 220.407 80.5461C221.116 80.5544 221.805 80.3151 222.357 79.8695C222.885 79.4376 223.224 78.8158 223.299 78.1375C223.38 77.63 223.243 77.3319 223.162 77.34Z" fill="#263238"/>
<path d="M223.428 66.3293C223.541 66.6274 224.652 66.4824 225.965 66.6435C227.279 66.8046 228.334 67.1591 228.511 66.8852C228.584 66.7563 228.398 66.4744 227.971 66.1763C227.404 65.8102 226.758 65.5838 226.086 65.5157C225.417 65.4335 224.737 65.5136 224.105 65.7494C223.621 65.9427 223.38 66.1843 223.428 66.3293Z" fill="#263238"/>
<path d="M213.357 64.8298C213.559 65.0876 214.324 64.8298 215.25 64.8298C216.177 64.8298 216.958 65.0071 217.143 64.7412C217.216 64.6123 217.095 64.3545 216.757 64.1129C216.294 63.828 215.758 63.6854 215.216 63.7026C214.673 63.7197 214.147 63.8961 213.704 64.2096C213.381 64.4512 213.269 64.717 213.357 64.8298Z" fill="#263238"/>
<path d="M236.636 71.1077C236.965 70.9272 237.337 70.8414 237.711 70.8599C238.085 70.8784 238.446 71.0004 238.755 71.2124C239.504 71.6481 240.08 72.3296 240.384 73.1413C240.688 73.9531 240.701 74.845 240.422 75.6656C240.143 76.4862 239.589 77.1851 238.854 77.6435C238.118 78.1019 237.246 78.2916 236.387 78.1805" fill="#FFBE9D"/>
<path d="M223.911 51.6431C221.158 51.7815 218.484 52.6127 216.138 54.0597C213.487 55.437 211.491 57.8098 210.587 60.6573C210.473 60.9491 210.42 61.2611 210.431 61.5742C210.442 61.8873 210.517 62.1948 210.652 62.4778C210.906 62.8046 211.267 63.0318 211.672 63.1201C212.077 63.2084 212.499 63.1522 212.867 62.9612C213.592 62.553 214.211 61.9788 214.671 61.2856C214.868 62.032 215.307 62.6915 215.921 63.1594C216.535 63.6273 217.287 63.8769 218.059 63.8686C218.831 63.8603 219.577 63.5945 220.181 63.1134C220.784 62.6323 221.21 61.9635 221.39 61.2131C221.452 61.9887 221.81 62.7105 222.391 63.2282C222.972 63.746 223.73 64.0196 224.507 63.9923C225.283 63.9216 226.021 63.6275 226.633 63.1457C227.245 62.6639 227.704 62.015 227.955 61.2776C228.15 62.6771 228.633 64.0211 229.373 65.2248C229.758 65.8183 230.316 66.2799 230.971 66.5477C231.626 66.8155 232.347 66.8767 233.038 66.7232C232.751 67.9142 232.77 69.1586 233.095 70.3401C233.522 71.484 234.794 72.4104 235.946 72.0157C237.098 71.621 237.501 70.2998 237.767 69.1398C238.345 66.9253 238.637 64.6458 238.637 62.357C238.71 60.0011 237.945 57.6957 236.477 55.8516C235.009 54.0074 232.934 52.7444 230.622 52.2875C228.312 51.7545 225.941 51.5377 223.573 51.6431" fill="#263238"/>
<path d="M237.225 75.7635C237.225 75.7071 237.539 75.836 237.934 75.6507C238.171 75.514 238.364 75.3106 238.487 75.0658C238.61 74.821 238.658 74.5454 238.627 74.2732C238.623 73.997 238.54 73.7276 238.387 73.4975C238.234 73.2674 238.018 73.0864 237.765 72.9762C237.354 72.8071 237.056 72.8876 237.04 72.8232C237.024 72.7588 237.314 72.5735 237.845 72.6943C238.161 72.7631 238.445 72.9362 238.651 73.1857C238.895 73.4883 239.036 73.8608 239.054 74.249C239.094 74.6023 239.016 74.9591 238.833 75.2636C238.649 75.5681 238.37 75.8034 238.039 75.9327C237.459 76.1099 237.161 75.7957 237.225 75.7635Z" fill="#EB996E"/>
<path d="M240.28 76.1816C240.393 76.201 240.504 76.2334 240.61 76.2783C240.924 76.3795 241.227 76.5145 241.512 76.6811C242.605 77.2523 243.519 78.1135 244.154 79.1703C244.592 79.9038 244.841 80.7339 244.879 81.5869C244.903 82.5747 244.669 83.5517 244.203 84.4225C243.694 85.3916 242.955 86.2214 242.052 86.8392C241.08 87.5116 239.931 87.8815 238.749 87.9026C237.615 87.8818 236.507 87.5529 235.545 86.9513C234.583 86.3497 233.803 85.4979 233.287 84.487C232.831 83.6035 232.631 82.6104 232.707 81.6192C232.802 80.7657 233.076 79.942 233.513 79.2025C234.129 78.1338 235.069 77.2878 236.196 76.7858C236.496 76.6481 236.813 76.548 237.138 76.4878C237.253 76.4699 237.37 76.4699 237.484 76.4878C237.484 76.5361 237.017 76.5925 236.26 76.963C235.372 77.4188 234.614 78.0924 234.058 78.9209C233.501 79.7493 233.164 80.7055 233.078 81.6997C233.022 82.6214 233.22 83.5408 233.65 84.3581C234.142 85.2973 234.876 86.0874 235.778 86.6457C236.679 87.204 237.713 87.5101 238.773 87.532C239.833 87.4891 240.863 87.169 241.761 86.6036C242.659 86.0382 243.392 85.2472 243.889 84.3097C244.312 83.5528 244.534 82.7 244.534 81.8327C244.534 80.9654 244.312 80.1125 243.889 79.3556C243.294 78.3263 242.445 77.4665 241.424 76.8583C240.715 76.383 240.264 76.2219 240.28 76.1816Z" fill="#FF725E"/>
<path d="M87.3396 180.554C87.3735 180.455 87.4139 180.358 87.4604 180.264C87.5651 180.054 87.694 179.772 87.8632 179.418C88.3423 178.324 88.7303 177.192 89.0232 176.035C89.9639 171.727 89.9391 167.265 88.9507 162.968C88.3334 159.996 87.5261 157.065 86.534 154.196C85.511 151.086 84.3187 147.751 83.3118 144.207C82.1981 140.481 81.6549 136.608 81.7006 132.72C81.8456 128.692 83.0459 124.599 84.3671 120.564C85.6882 116.528 87.0576 112.572 87.4685 108.593C87.9211 104.769 87.1512 100.9 85.2693 97.5407C83.5212 94.3184 81.314 91.5553 79.6304 88.6795C78.0899 86.0278 76.9549 83.1604 76.2631 80.1728C75.2674 75.8491 75.1933 71.3641 76.0456 67.0099C76.3801 65.4327 76.8684 63.8921 77.5037 62.4102C77.4858 62.517 77.4589 62.6221 77.4231 62.7243C77.3506 62.9418 77.262 63.2399 77.1412 63.6104C76.7961 64.7548 76.5111 65.9164 76.2873 67.0905C75.5065 71.4155 75.6244 75.855 76.6337 80.1325C77.3359 83.0825 78.4735 85.9115 80.009 88.5265C81.6201 91.3459 83.8676 94.0929 85.6479 97.3876C87.5751 100.813 88.3675 104.761 87.9115 108.665C87.5007 112.693 86.1232 116.681 84.8101 120.749C83.497 124.817 82.2968 128.804 82.1518 132.784C82.0911 136.628 82.607 140.459 83.6823 144.15C84.6409 147.711 85.8171 151.014 86.8321 154.139C87.8308 157.023 88.6381 159.97 89.2488 162.96C90.2379 167.292 90.2379 171.791 89.2488 176.123C88.9369 177.284 88.519 178.414 88.0001 179.498L87.5651 180.304C87.5023 180.398 87.4263 180.482 87.3396 180.554Z" fill="#263238"/>
<path d="M81.9511 91.5149C81.9511 91.5149 78.6 80.8171 84.6095 74.5498C84.6557 74.4994 84.715 74.4628 84.7807 74.444C84.8465 74.4252 84.9161 74.4249 84.982 74.4433C85.0479 74.4616 85.1074 74.4978 85.154 74.5479C85.2006 74.598 85.2324 74.66 85.2459 74.7271C85.56 76.4993 85.9628 81.8804 81.9511 91.5149Z" fill="#FF725E"/>
<path d="M83.9552 78.1113C83.9459 78.7777 83.8703 79.4416 83.7297 80.093C83.5041 81.4464 83.2463 83.0494 82.9241 84.8136C82.6019 86.5778 82.3925 88.1728 82.175 89.5342C82.1138 90.1931 81.9952 90.8454 81.8205 91.4836C81.7589 90.8206 81.7779 90.1524 81.8769 89.4939C81.9897 88.2695 82.2072 86.5939 82.5052 84.7411C82.8033 82.8883 83.1336 81.2369 83.3914 80.0366C83.5081 79.3761 83.6972 78.7305 83.9552 78.1113Z" fill="#263238"/>
<path d="M85.8828 116.77C85.8828 116.77 87.9289 105.741 96.202 103.011C96.2667 102.988 96.3363 102.984 96.4032 102.999C96.47 103.014 96.5314 103.047 96.5806 103.094C96.6298 103.142 96.6649 103.202 96.682 103.268C96.6991 103.335 96.6974 103.404 96.6773 103.47C96.0973 105.178 93.9384 110.124 85.8828 116.77Z" fill="#FF725E"/>
<path d="M93.9243 105.854C93.6066 106.427 93.2314 106.967 92.8045 107.465L89.9206 111.307C88.8492 112.741 87.8745 114.03 87.0448 115.134C86.687 115.692 86.277 116.215 85.8203 116.696C86.075 116.081 86.4051 115.499 86.8031 114.964C87.4717 113.933 88.4142 112.548 89.5823 111.057C90.7503 109.567 91.7815 108.246 92.5709 107.312C92.9649 106.776 93.419 106.286 93.9243 105.854Z" fill="#263238"/>
<path d="M83.6498 144.433C83.6498 144.433 82.4092 133.3 89.4982 128.274C89.5539 128.233 89.6198 128.209 89.6884 128.204C89.7571 128.199 89.8258 128.213 89.8868 128.245C89.9479 128.277 89.9989 128.325 90.0341 128.384C90.0693 128.443 90.0874 128.511 90.0862 128.58C90.0701 130.376 89.4337 135.717 83.6498 144.433Z" fill="#FF725E"/>
<path d="M88.1447 131.688C88.0098 132.337 87.8101 132.971 87.5486 133.581C87.0733 134.869 86.5175 136.392 85.9374 138.068C85.3574 139.743 84.7774 141.29 84.3263 142.563C84.1427 143.198 83.9028 143.815 83.6094 144.407C83.6742 143.745 83.8203 143.093 84.0444 142.466C84.3827 141.29 84.9224 139.679 85.5669 137.923C86.2113 136.166 86.8477 134.596 87.3391 133.468C87.5442 132.848 87.8143 132.251 88.1447 131.688Z" fill="#263238"/>
<path d="M89.8626 172.257C89.8626 172.257 89.057 161.068 96.3071 156.323C96.3639 156.284 96.4305 156.261 96.4993 156.258C96.5682 156.255 96.6366 156.271 96.6968 156.304C96.7571 156.338 96.8068 156.388 96.8404 156.448C96.874 156.508 96.8902 156.576 96.8871 156.645C96.7743 158.442 95.9446 163.774 89.8626 172.257Z" fill="#FF725E"/>
<path d="M94.8409 159.648C94.685 160.293 94.4608 160.92 94.1723 161.517C93.6567 162.798 93.0445 164.297 92.3678 165.948C91.6912 167.599 91.087 169.098 90.5634 170.354C90.3515 170.985 90.0818 171.594 89.7578 172.175C89.8533 171.516 90.0236 170.87 90.2653 170.25C90.652 169.082 91.24 167.495 91.957 165.763C92.6739 164.031 93.3506 162.484 93.8823 161.38C94.1381 160.77 94.4596 160.189 94.8409 159.648Z" fill="#263238"/>
<path d="M77.1341 82.1141C77.1341 82.1141 67.2015 76.9102 67.0001 68.2424C66.9985 68.1742 67.0158 68.1069 67.05 68.0479C67.0843 67.9889 67.1341 67.9405 67.1941 67.908C67.254 67.8755 67.3218 67.8602 67.3899 67.8638C67.458 67.8674 67.5238 67.8897 67.5801 67.9282C69.0623 68.9432 73.1546 72.4635 77.1341 82.1141Z" fill="#FF725E"/>
<path d="M69.0625 71.2227C69.5265 71.6985 69.9421 72.2193 70.3031 72.7774L73.1064 76.6521L75.9178 80.5188C76.345 81.0199 76.7252 81.5593 77.0537 82.13C76.5414 81.7025 76.0817 81.2158 75.6842 80.6799C74.8787 79.7374 73.8636 78.3921 72.7681 76.8777C71.6725 75.3632 70.722 73.9535 70.0614 72.9224C69.6655 72.3952 69.3304 71.825 69.0625 71.2227Z" fill="#263238"/>
<path d="M87.8169 105.106C87.8169 105.106 77.5782 100.523 76.8693 91.8789C76.8619 91.8099 76.874 91.7402 76.9043 91.6777C76.9346 91.6152 76.9818 91.5625 77.0405 91.5256C77.0993 91.4886 77.1673 91.4689 77.2367 91.4688C77.3061 91.4686 77.3742 91.4879 77.4332 91.5245C78.9477 92.4509 83.2494 95.7134 87.8169 105.106Z" fill="#FF725E"/>
<path d="M79.0898 94.7227C79.5848 95.1847 80.0327 95.6947 80.4271 96.2452L83.456 99.9427L86.5332 103.592C86.9895 104.07 87.3995 104.591 87.7577 105.147C87.22 104.754 86.7329 104.297 86.3077 103.785C85.4618 102.891 84.3502 101.618 83.166 100.168C81.9818 98.7182 80.9426 97.373 80.2257 96.3821C79.7872 95.8724 79.4063 95.3159 79.0898 94.7227Z" fill="#263238"/>
<path d="M81.9177 130.746C81.9177 130.746 74.8932 122.022 78.188 113.966C78.2134 113.902 78.2561 113.847 78.3114 113.806C78.3667 113.764 78.4323 113.74 78.5008 113.734C78.5694 113.728 78.6383 113.741 78.6997 113.772C78.7611 113.803 78.8127 113.851 78.8485 113.91C79.7911 115.44 82.1352 120.306 81.9177 130.746Z" fill="#FF725E"/>
<path d="M78.8907 117.535C79.1235 118.156 79.2935 118.798 79.3982 119.452C79.6962 120.806 80.0345 122.385 80.4132 124.133C80.7918 125.881 81.1462 127.452 81.4443 128.797C81.6321 129.434 81.7615 130.086 81.831 130.746C81.5261 130.152 81.2987 129.521 81.1543 128.869C80.8159 127.693 80.3971 126.05 80.0023 124.221C79.6076 122.393 79.3015 120.725 79.1082 119.509C78.9619 118.861 78.889 118.199 78.8907 117.535Z" fill="#263238"/>
<path d="M88.8879 160.924C88.8879 160.924 78.7297 156.171 78.1497 147.511C78.144 147.443 78.1573 147.374 78.1883 147.313C78.2192 147.252 78.2666 147.2 78.325 147.164C78.3835 147.128 78.4508 147.109 78.5194 147.109C78.588 147.109 78.6553 147.129 78.7136 147.165C80.2361 148.123 84.4815 151.458 88.8879 160.924Z" fill="#FF725E"/>
<path d="M80.3398 150.402C80.8288 150.852 81.2665 151.355 81.6449 151.901L84.6174 155.647L87.598 159.384C88.0477 159.883 88.4495 160.422 88.7982 160.995C88.2558 160.585 87.7661 160.108 87.3402 159.578C86.5346 158.667 85.4149 157.378 84.2549 155.904C83.0949 154.43 82.0879 153.077 81.379 152.078C80.9737 151.558 80.6253 150.996 80.3398 150.402Z" fill="#263238"/>
<path d="M109.089 116.824C109.102 116.907 109.102 116.991 109.089 117.074V117.791C109.089 118.46 109.025 119.402 108.968 120.506C108.839 122.922 108.654 126.233 108.437 130.221C107.712 134.249 105.641 138.776 102.87 143.11C100.832 146.332 98.6973 149.248 96.8526 151.971C95.1811 154.348 93.6764 156.837 92.3495 159.422C91.4775 161.176 90.7709 163.007 90.2389 164.892C90.0617 165.561 89.9248 166.084 89.8523 166.439C89.8216 166.624 89.7702 166.805 89.6992 166.978C89.7008 166.791 89.7224 166.605 89.7637 166.423C89.8201 166.06 89.9248 165.528 90.0778 164.852C90.5535 162.935 91.2257 161.072 92.0837 159.293C93.3783 156.672 94.8674 154.152 96.5384 151.753C98.3671 149.014 100.486 146.114 102.516 142.892C105.279 138.55 107.349 134.12 108.082 130.124C108.364 126.137 108.598 122.81 108.759 120.457C108.855 119.321 108.928 118.411 108.984 117.743C108.984 117.453 109.033 117.219 109.057 117.026C109.059 116.957 109.07 116.89 109.089 116.824Z" fill="#263238"/>
<path d="M103.074 142.331C103.074 142.331 107.376 131.98 101.962 125.189C101.92 125.134 101.864 125.091 101.799 125.067C101.734 125.042 101.664 125.037 101.596 125.05C101.528 125.063 101.465 125.096 101.415 125.143C101.364 125.19 101.328 125.251 101.31 125.318C100.834 127.05 99.9484 132.374 103.074 142.331Z" fill="#FF725E"/>
<path d="M102.293 128.805C102.477 129.443 102.59 130.099 102.632 130.762C102.785 131.979 102.954 133.662 103.091 135.531C103.228 137.4 103.284 139.092 103.284 140.316C103.327 140.982 103.286 141.65 103.163 142.306C103.046 141.655 102.987 140.994 102.986 140.332C102.897 138.955 102.785 137.344 102.672 135.563C102.559 133.783 102.43 132.164 102.334 130.786C102.254 130.129 102.24 129.465 102.293 128.805Z" fill="#263238"/>
<g opacity="0.3">
<path opacity="0.3" d="M103.074 142.329C103.074 142.329 107.376 131.978 101.962 125.187C101.92 125.132 101.864 125.09 101.799 125.065C101.734 125.041 101.664 125.035 101.596 125.048C101.528 125.061 101.465 125.094 101.415 125.141C101.364 125.188 101.328 125.249 101.31 125.316C100.834 127.048 99.9484 132.372 103.074 142.329Z" fill="black"/>
</g>
<path d="M89.7576 167.293C89.7576 167.293 93.2054 156.62 87.2604 150.296C87.2132 150.246 87.1533 150.21 87.0872 150.192C87.0211 150.173 86.9512 150.173 86.885 150.191C86.8187 150.209 86.7587 150.245 86.7113 150.295C86.664 150.345 86.631 150.406 86.6159 150.473C86.2776 152.238 85.8265 157.619 89.7576 167.293Z" fill="#FF725E"/>
<path d="M87.8657 153.865C88.1029 154.487 88.2704 155.132 88.3651 155.791C88.6149 156.991 88.921 158.658 89.1707 160.511C89.4204 162.364 89.654 164.048 89.7507 165.264C89.832 165.927 89.832 166.598 89.7507 167.262C89.5848 166.62 89.4743 165.965 89.4204 165.304C89.219 163.943 88.9774 162.34 88.7115 160.576C88.4457 158.811 88.204 157.208 87.9946 155.847C87.8851 155.192 87.842 154.528 87.8657 153.865Z" fill="#263238"/>
<g opacity="0.3">
<path opacity="0.3" d="M89.7576 167.295C89.7576 167.295 93.2054 156.622 87.2604 150.298C87.2132 150.248 87.1533 150.212 87.0872 150.194C87.0211 150.175 86.9512 150.175 86.885 150.193C86.8187 150.211 86.7587 150.247 86.7113 150.297C86.664 150.347 86.631 150.408 86.6159 150.475C86.2776 152.24 85.8265 157.621 89.7576 167.295Z" fill="black"/>
</g>
<path d="M108.551 129.675C108.551 129.675 117.742 123.23 116.816 114.611C116.807 114.543 116.781 114.479 116.739 114.425C116.697 114.371 116.641 114.33 116.578 114.305C116.514 114.28 116.445 114.273 116.378 114.284C116.311 114.296 116.248 114.325 116.196 114.369C114.866 115.577 111.257 119.605 108.551 129.675Z" fill="#FF725E"/>
<g opacity="0.3">
<path opacity="0.3" d="M108.551 129.677C108.551 129.677 117.742 123.232 116.816 114.613C116.807 114.545 116.781 114.481 116.739 114.427C116.697 114.373 116.641 114.332 116.578 114.307C116.514 114.282 116.445 114.275 116.378 114.286C116.311 114.298 116.248 114.327 116.196 114.371C114.866 115.579 111.257 119.607 108.551 129.677Z" fill="black"/>
</g>
<path d="M115.15 117.832C114.973 118.473 114.719 119.09 114.393 119.669C113.861 120.78 113.104 122.295 112.218 123.938C111.331 125.582 110.469 127.056 109.801 128.087C109.482 128.671 109.089 129.213 108.633 129.698C108.887 129.084 109.194 128.494 109.551 127.934L111.839 123.745C112.693 122.134 113.45 120.748 114.119 119.54C114.405 118.938 114.75 118.366 115.15 117.832Z" fill="#263238"/>
<path d="M93.4492 156.71C93.4492 156.71 104.534 154.986 107.506 146.826C107.53 146.762 107.535 146.692 107.521 146.625C107.508 146.558 107.476 146.496 107.429 146.446C107.382 146.396 107.323 146.36 107.257 146.341C107.191 146.323 107.121 146.324 107.055 146.343C105.331 146.834 100.321 148.856 93.4492 156.71Z" fill="#FF725E"/>
<g opacity="0.3">
<path opacity="0.3" d="M93.4492 156.708C93.4492 156.708 104.534 154.984 107.506 146.824C107.53 146.76 107.535 146.69 107.521 146.623C107.508 146.556 107.476 146.494 107.429 146.444C107.382 146.394 107.323 146.358 107.257 146.339C107.191 146.321 107.121 146.322 107.055 146.341C105.331 146.832 100.321 148.854 93.4492 156.708Z" fill="black"/>
</g>
<path d="M104.585 148.99C104.14 149.481 103.64 149.918 103.095 150.295C102.136 151.061 100.783 152.092 99.2605 153.171C97.738 154.251 96.3202 155.201 95.2327 155.838C94.6888 156.221 94.0988 156.535 93.4766 156.772C93.9772 156.332 94.5165 155.939 95.0877 155.596L98.9947 152.833L102.894 150.062C103.419 149.647 103.986 149.287 104.585 148.99Z" fill="#263238"/>
<path d="M82.8787 177.105L79.6484 198.864H99.7955L97.1774 177.105H82.8787Z" fill="#455A64"/>
<path d="M97.9823 183.849C95.2809 184.056 92.5707 184.126 89.8622 184.058C87.1538 184.126 84.4436 184.056 81.7422 183.849C84.4433 183.636 87.1538 183.566 89.8622 183.639C92.5707 183.566 95.2812 183.636 97.9823 183.849Z" fill="#263238"/>
<path d="M98.3853 185.579C98.3853 185.692 94.6314 185.789 89.9994 185.789C85.3674 185.789 81.6055 185.692 81.6055 185.579C84.3981 185.367 87.1997 185.297 89.9994 185.37C92.7965 185.297 95.5954 185.367 98.3853 185.579Z" fill="#263238"/>
</svg>
