<svg width="70" height="70" viewBox="0 0 70 70" fill="none" xmlns="http://www.w3.org/2000/svg">
<path d="M70 35C70 54.33 54.33 70 35 70C15.67 70 0 54.33 0 35C0 15.67 15.67 0 35 0C54.33 0 70 15.67 70 35Z" fill="white"/>
<path d="M70 35C70 54.33 54.33 70 35 70C15.67 70 0 54.33 0 35C0 15.67 15.67 0 35 0C54.33 0 70 15.67 70 35Z" fill="#236192" fill-opacity="0.2"/>
<path d="M29.8287 30.6243C29.8287 33.2602 27.6918 35.397 25.0559 35.397C22.42 35.397 20.2832 33.2602 20.2832 30.6243C20.2832 27.9884 22.42 25.8516 25.0559 25.8516C27.6918 25.8516 29.8287 27.9884 29.8287 30.6243Z" fill="#006AB6"/>
<path d="M48.9205 30.6243C48.9205 33.2602 46.7836 35.397 44.1477 35.397C41.5118 35.397 39.375 33.2602 39.375 30.6243C39.375 27.9884 41.5118 25.8516 44.1477 25.8516C46.7836 25.8516 48.9205 27.9884 48.9205 30.6243Z" fill="#006AB6"/>
<path fill-rule="evenodd" clip-rule="evenodd" d="M14.9744 53.2208C16.032 53.5169 17.1295 52.8996 17.4256 51.842C18.0634 49.564 22.3283 43.3512 34.9993 43.3512C47.6702 43.3512 51.9351 49.564 52.5729 51.842C52.869 52.8996 53.9665 53.5169 55.0241 53.2208C56.0817 52.9246 56.699 51.8272 56.4029 50.7696C55.1846 46.4187 49.0556 39.374 34.9993 39.374C20.943 39.374 14.8139 46.4187 13.5956 50.7696C13.2995 51.8272 13.9168 52.9246 14.9744 53.2208Z" fill="#006AB6"/>
</svg>
