<svg width="70" height="70" viewBox="0 0 70 70" fill="none" xmlns="http://www.w3.org/2000/svg">
<path d="M70 35C70 54.33 54.33 70 35 70C15.67 70 0 54.33 0 35C0 15.67 15.67 0 35 0C54.33 0 70 15.67 70 35Z" fill="white"/>
<path d="M70 35C70 54.33 54.33 70 35 70C15.67 70 0 54.33 0 35C0 15.67 15.67 0 35 0C54.33 0 70 15.67 70 35Z" fill="#23922E" fill-opacity="0.2"/>
<path d="M29.8287 30.6243C29.8287 33.2602 27.6918 35.397 25.0559 35.397C22.42 35.397 20.2832 33.2602 20.2832 30.6243C20.2832 27.9884 22.42 25.8516 25.0559 25.8516C27.6918 25.8516 29.8287 27.9884 29.8287 30.6243Z" fill="#23922E"/>
<path d="M48.9205 30.6243C48.9205 33.2602 46.7836 35.397 44.1477 35.397C41.5118 35.397 39.375 33.2602 39.375 30.6243C39.375 27.9884 41.5118 25.8516 44.1477 25.8516C46.7836 25.8516 48.9205 27.9884 48.9205 30.6243Z" fill="#23922E"/>
<path fill-rule="evenodd" clip-rule="evenodd" d="M14.9744 39.4472C16.032 39.1511 17.1295 39.7684 17.4256 40.826C18.0634 43.1039 22.3283 49.3167 34.9993 49.3167C47.6702 49.3167 51.9351 43.1039 52.5729 40.826C52.869 39.7684 53.9665 39.1511 55.0241 39.4472C56.0817 39.7433 56.699 40.8408 56.4029 41.8984C55.1846 46.2492 49.0556 53.294 34.9993 53.294C20.943 53.294 14.8139 46.2492 13.5956 41.8984C13.2995 40.8408 13.9168 39.7433 14.9744 39.4472Z" fill="#23922E"/>
</svg>
