<svg width="259" height="170" viewBox="0 0 259 170" fill="none" xmlns="http://www.w3.org/2000/svg">
<path d="M46.8629 143.717C51.5045 140.479 53.0659 136.488 53.5964 130.854C53.8424 128.026 53.4789 125.179 52.5306 122.503C51.5823 119.828 50.0712 117.387 48.0993 115.346C44.801 111.975 40.2621 109.759 37.8023 105.729C35.1842 101.451 35.274 95.5863 31.6378 92.1126C29.1394 89.7298 25.4861 89.0924 22.4488 87.4411C19.9718 86.0936 17.9355 84.0829 15.6682 82.406C13.4009 80.729 10.7101 79.3387 7.89949 79.5483C3.66006 79.8692 0.357491 84.0316 0.156428 88.2796C-0.0446354 92.5276 2.32534 96.5916 5.56801 99.3423C7.92088 101.34 10.817 102.867 12.3571 105.541C15.249 110.559 12.2288 117.519 15.3517 122.422C17.619 125.994 22.7653 127.701 23.4797 131.872C23.7407 133.408 23.3043 134.969 23.3172 136.526C23.3557 141.39 27.9031 145.313 32.6944 146.173C37.4857 147.033 42.3668 145.535 46.88 143.717" fill="#F5F5F5"/>
<path d="M17.0898 96.6484C17.2384 96.856 17.4091 97.0468 17.5989 97.2174L19.139 98.766C19.8192 99.4248 20.6405 100.242 21.5303 101.252C22.4202 102.261 23.511 103.335 24.5634 104.674C25.1067 105.324 25.6757 106.004 26.2746 106.714C26.8735 107.425 27.4168 108.212 28.02 108.999C29.252 110.56 30.4113 112.344 31.6691 114.192C34.2865 118.272 36.6124 122.532 38.6292 126.94C40.5871 131.382 42.2282 135.957 43.5403 140.63C44.0879 142.799 44.6526 144.848 45.0034 146.807C45.1916 147.783 45.4312 148.715 45.5552 149.631C45.6793 150.546 45.8247 151.415 45.9488 152.253C46.2397 153.921 46.3381 155.449 46.4878 156.788C46.6375 158.127 46.7145 159.277 46.7573 160.21C46.8001 161.143 46.8557 161.831 46.8899 162.387C46.8927 162.644 46.9228 162.899 46.9798 163.149C47.0137 162.897 47.0237 162.642 47.0097 162.387C47.0097 161.827 47.0097 161.104 46.9841 160.201C46.9584 159.299 46.9413 158.088 46.8129 156.745C46.6846 155.402 46.6247 153.866 46.3595 152.185C46.2426 151.329 46.1213 150.448 45.9959 149.541C45.8675 148.625 45.6536 147.68 45.4739 146.7C45.1445 144.724 44.6184 142.662 44.058 140.476C42.7647 135.769 41.1232 131.164 39.1469 126.701C37.1167 122.257 34.7633 117.967 32.1054 113.867C30.822 112.019 29.6499 110.235 28.3922 108.678C27.7761 107.891 27.2114 107.108 26.6125 106.402L24.8757 104.374C23.7976 103.061 22.6939 101.987 21.7656 101.008C20.8373 100.028 20.0031 99.2238 19.2973 98.5863L17.6802 97.1147C17.4975 96.9423 17.2999 96.7862 17.0898 96.6484Z" fill="#E0E0E0"/>
<path d="M254.912 60.4849C254.912 60.4849 250.831 57.7855 245.856 67.5477C240.881 77.31 239.011 82.9483 239.011 82.9483C239.011 82.9483 237.694 84.9932 236.29 83.6542C234.887 82.3152 232.962 78.5206 230.575 79.2094C228.098 79.9153 227.281 82.6788 227.752 86.7428C228.222 90.8069 228.932 99.7392 228.996 100.548C229.061 101.356 228.599 102.511 227.499 101.754C226.4 100.997 220.051 93.9298 216.877 97.1425C213.703 100.355 216.877 111.452 217.202 112.671C217.527 113.891 217.288 114.413 216.706 114.716C216.124 115.02 214.22 112.44 212.334 110.502C210.447 108.565 207.919 106.652 206.242 108.659C204.565 110.665 204.03 118.994 211.957 132.521L216.039 138.549L223.341 138.142C238.913 136.324 245.236 130.87 245.83 128.337C246.425 125.805 243.37 124.915 240.697 124.585C238.023 124.256 234.81 124.269 234.708 123.627C234.605 122.986 234.87 122.476 236.038 122.002C237.206 121.527 247.982 117.377 248.632 112.911C249.282 108.445 239.824 107.632 238.558 107.208C237.291 106.785 237.946 105.715 238.618 105.288C239.289 104.86 246.857 100.03 250.386 97.9639C253.915 95.8976 255.627 93.579 254.703 91.1748C253.809 88.8561 249.62 89.6048 247.708 89.2882C245.796 88.9716 246.634 86.6915 246.634 86.6915C246.634 86.6915 249.971 81.7804 254.767 71.9412C259.562 62.1019 254.827 60.4378 254.827 60.4378" fill="#EBEBEB"/>
<path d="M250.446 69.2207C250.446 69.2207 250.42 69.2934 250.356 69.4303C250.292 69.5672 250.194 69.7768 250.074 70.0421C249.813 70.5854 249.436 71.3682 248.957 72.3778C247.982 74.4098 246.557 77.3359 244.782 80.9337C241.227 88.1548 236.226 98.0882 230.695 109.04C225.163 119.991 220.133 129.916 216.548 137.12L212.308 145.65C211.808 146.651 211.423 147.434 211.153 147.973C211.021 148.23 210.922 148.427 210.85 148.572L210.738 148.773C210.738 148.773 210.764 148.7 210.828 148.564L211.11 147.952C211.371 147.409 211.748 146.621 212.227 145.612C213.198 143.584 214.627 140.658 216.402 137.056C219.957 129.835 224.958 119.901 230.494 108.946C236.029 97.9898 241.047 88.0736 244.637 80.8738L248.876 72.3393L250.031 70.0207C250.164 69.764 250.262 69.5629 250.335 69.4218C250.408 69.2806 250.446 69.2207 250.446 69.2207Z" fill="#E0E0E0"/>
<path d="M233.035 84.6133C233.115 84.7713 233.176 84.9378 233.219 85.1095C233.326 85.4304 233.463 85.9009 233.647 86.4827C233.976 87.6463 234.391 89.2634 234.815 91.0601C235.238 92.8569 235.602 94.4311 235.884 95.6589L236.218 97.0492C236.273 97.2169 236.308 97.3907 236.321 97.5669C236.241 97.4088 236.179 97.2424 236.137 97.0706C236.03 96.7498 235.893 96.2792 235.73 95.6974C235.414 94.5295 235.02 92.9039 234.597 91.1115C234.173 89.319 233.784 87.7447 233.493 86.5212C233.356 85.9694 233.241 85.5074 233.151 85.1309C233.092 84.9635 233.053 84.7898 233.035 84.6133Z" fill="#E0E0E0"/>
<path d="M236.977 97.6949C236.977 97.635 240.258 96.634 244.347 95.4575C248.437 94.2811 251.761 93.3785 251.778 93.4384C251.795 93.4983 248.497 94.4993 244.407 95.6757C240.318 96.8522 236.994 97.7548 236.977 97.6949Z" fill="#E0E0E0"/>
<path d="M227.703 114.131C227.882 114.107 228.062 114.098 228.242 114.106H229.701C230.937 114.106 232.64 114.106 234.518 114.029C236.396 113.952 238.094 113.841 239.326 113.742L240.781 113.627C240.96 113.609 241.141 113.609 241.32 113.627C241.149 113.681 240.972 113.717 240.794 113.734C240.451 113.785 239.938 113.849 239.339 113.918C238.111 114.059 236.413 114.204 234.526 114.273C232.64 114.341 230.933 114.324 229.701 114.273C229.081 114.247 228.584 114.221 228.238 114.196C228.058 114.195 227.878 114.173 227.703 114.131Z" fill="#E0E0E0"/>
<path d="M221.516 103.086C221.627 103.209 221.721 103.346 221.798 103.492L222.504 104.647C223.09 105.623 223.886 106.983 224.754 108.498C225.622 110.012 226.397 111.381 226.949 112.378L227.59 113.567C227.678 113.707 227.747 113.858 227.796 114.016C227.686 113.892 227.592 113.755 227.513 113.61L226.807 112.459C226.221 111.479 225.426 110.119 224.557 108.609C223.689 107.099 222.915 105.73 222.367 104.729C222.115 104.262 221.896 103.873 221.725 103.539C221.637 103.398 221.566 103.245 221.516 103.086Z" fill="#E0E0E0"/>
<path d="M211.504 116.559C211.64 116.722 211.76 116.899 211.863 117.085L212.77 118.556C213.527 119.806 214.563 121.551 215.692 123.463C216.821 125.375 217.831 127.134 218.558 128.4C218.9 129.012 219.183 129.521 219.414 129.91C219.527 130.091 219.621 130.283 219.696 130.483C219.561 130.319 219.441 130.142 219.337 129.957L218.43 128.481C217.673 127.232 216.637 125.487 215.508 123.579C214.379 121.671 213.369 119.908 212.642 118.638L211.786 117.128C211.674 116.948 211.579 116.757 211.504 116.559Z" fill="#E0E0E0"/>
<path d="M219.586 130.093C219.811 130.056 220.038 130.04 220.266 130.046L222.118 129.982C223.684 129.931 225.845 129.85 228.223 129.696C230.602 129.542 232.758 129.345 234.315 129.191L236.163 129.011C236.388 128.978 236.616 128.965 236.843 128.973C236.623 129.035 236.399 129.078 236.172 129.101C235.744 129.169 235.111 129.255 234.336 129.353C232.779 129.546 230.627 129.781 228.24 129.918C225.853 130.055 223.688 130.132 222.123 130.145C221.34 130.145 220.707 130.145 220.266 130.145C220.038 130.149 219.811 130.132 219.586 130.093Z" fill="#E0E0E0"/>
<path d="M166.961 11.3711H196.329C196.943 11.3711 197.532 11.6149 197.966 12.049C198.4 12.483 198.644 13.0716 198.644 13.6855V33.1458C198.644 33.7596 198.4 34.3483 197.966 34.7823C197.532 35.2163 196.943 35.4601 196.329 35.4601H180.877L173.524 42.8139V35.4601H166.961C166.507 35.4601 166.072 35.2799 165.751 34.959C165.43 34.6381 165.25 34.2028 165.25 33.749V13.0865C165.249 12.8615 165.293 12.6385 165.379 12.4304C165.465 12.2223 165.591 12.0331 165.75 11.8738C165.909 11.7144 166.097 11.588 166.305 11.5018C166.513 11.4155 166.736 11.3711 166.961 11.3711Z" fill="#E0E0E0"/>
<path d="M176.708 23.8245C176.708 24.1629 176.607 24.4937 176.419 24.7751C176.231 25.0565 175.964 25.2759 175.651 25.4054C175.338 25.5349 174.994 25.5688 174.662 25.5028C174.331 25.4367 174.026 25.2738 173.786 25.0344C173.547 24.7951 173.384 24.4902 173.318 24.1583C173.252 23.8264 173.286 23.4823 173.415 23.1696C173.545 22.8569 173.764 22.5897 174.046 22.4017C174.327 22.2136 174.658 22.1133 174.996 22.1133C175.45 22.1133 175.885 22.2936 176.206 22.6145C176.527 22.9354 176.708 23.3706 176.708 23.8245Z" fill="#FAFAFA"/>
<path d="M183.543 23.8245C183.543 24.1629 183.443 24.4937 183.255 24.7751C183.067 25.0565 182.8 25.2759 182.487 25.4054C182.174 25.5349 181.83 25.5688 181.498 25.5028C181.167 25.4367 180.862 25.2738 180.622 25.0344C180.383 24.7951 180.22 24.4902 180.154 24.1583C180.088 23.8264 180.122 23.4823 180.251 23.1696C180.381 22.8569 180.6 22.5897 180.882 22.4017C181.163 22.2136 181.494 22.1133 181.832 22.1133C182.286 22.1133 182.721 22.2936 183.042 22.6145C183.363 22.9354 183.543 23.3706 183.543 23.8245Z" fill="#FAFAFA"/>
<path d="M190.375 23.8245C190.375 24.1629 190.275 24.4937 190.087 24.7751C189.899 25.0565 189.632 25.2759 189.319 25.4054C189.006 25.5349 188.662 25.5688 188.33 25.5028C187.999 25.4367 187.694 25.2738 187.454 25.0344C187.215 24.7951 187.052 24.4902 186.986 24.1583C186.92 23.8264 186.954 23.4823 187.083 23.1696C187.213 22.8569 187.432 22.5897 187.714 22.4017C187.995 22.2136 188.326 22.1133 188.664 22.1133C189.118 22.1133 189.553 22.2936 189.874 22.6145C190.195 22.9354 190.375 23.3706 190.375 23.8245Z" fill="#FAFAFA"/>
<path d="M214.675 158.305C207.325 151.157 207.197 140.098 209.114 130.498C209.43 128.894 209.541 127.166 210.53 125.874C211.518 124.582 213.477 123.906 214.808 124.822C215.916 125.583 216.211 127.063 216.694 128.325C217.34 130.008 218.448 131.475 219.89 132.556C220.831 133.253 222.029 133.788 223.154 133.412C224.668 132.868 225.147 130.973 225.4 129.369C225.865 126.374 226.332 123.38 226.803 120.385C227.055 118.781 227.32 117.138 228.065 115.68C228.809 114.221 230.148 113.006 231.744 112.826C233.34 112.647 235.085 113.836 235.166 115.457C235.196 116.133 234.952 116.792 234.888 117.464C234.824 118.135 235.012 118.927 235.615 119.213C236.219 119.5 236.942 119.158 237.498 118.764C239.418 117.412 240.882 115.509 242.272 113.605C243.662 111.701 245.027 109.755 246.815 108.219C248.603 106.683 250.913 105.652 253.232 105.879C255.551 106.106 257.771 107.941 257.985 110.294C258.199 112.647 256.505 114.73 254.768 116.326C252.196 118.696 249.294 120.682 246.152 122.221C245.587 122.499 244.976 122.798 244.685 123.359C244.163 124.372 245.005 125.6 246.002 126.122C247.136 126.717 248.453 126.802 249.681 127.157C250.909 127.512 252.171 128.278 252.453 129.54C252.843 131.286 251.191 132.783 249.656 133.69C246.585 135.505 243.225 136.777 239.722 137.45C238.473 137.69 237.155 137.878 236.082 138.541C235.008 139.204 234.182 140.564 234.576 141.788C234.969 143.011 236.381 143.615 237.656 143.589C238.931 143.563 240.146 143.067 241.395 142.815C243.739 142.344 246.563 142.96 247.662 145.095C248.389 146.498 248.184 148.256 247.47 149.676C246.755 151.097 245.596 152.222 244.394 153.244C240.184 156.816 235.115 159.417 229.708 160.354C224.3 161.291 219.483 161.004 214.705 158.318" fill="#699DEE"/>
<path d="M213.391 165.449C214.57 161.04 216.17 156.754 218.169 152.65C220.631 147.647 223.379 142.791 226.4 138.105L228.753 134.4C229.527 133.185 230.297 131.983 231.123 130.854C232.708 128.684 234.414 126.605 236.231 124.625C237.942 122.721 239.653 120.98 241.261 119.363C242.87 117.746 244.397 116.275 245.847 114.987C248.121 112.944 250.553 111.085 253.12 109.426C254.031 108.84 254.75 108.407 255.259 108.142L255.819 107.817C255.882 107.779 255.948 107.746 256.016 107.719C255.959 107.765 255.899 107.808 255.836 107.847L255.289 108.194C254.81 108.493 254.099 108.942 253.201 109.541C250.661 111.228 248.25 113.103 245.989 115.15C244.551 116.433 243.037 117.926 241.441 119.547C239.845 121.169 238.151 122.914 236.44 124.818C234.634 126.791 232.937 128.862 231.358 131.021C230.541 132.146 229.779 133.344 229.001 134.559C228.222 135.773 227.448 137.01 226.652 138.25C223.64 142.931 220.891 147.775 218.417 152.761C216.415 156.846 214.801 161.11 213.596 165.497" fill="#263238"/>
<path d="M231.214 130.848C231.173 130.614 231.157 130.376 231.167 130.138C231.167 129.68 231.167 129.022 231.167 128.2C231.197 126.566 231.321 124.312 231.466 121.826C231.612 119.341 231.706 117.086 231.714 115.456C231.714 114.639 231.714 113.98 231.714 113.523C231.695 113.286 231.704 113.047 231.74 112.812C231.796 113.044 231.826 113.28 231.83 113.518C231.873 113.972 231.907 114.635 231.928 115.452C231.975 117.086 231.928 119.349 231.77 121.839C231.612 124.329 231.483 126.515 231.381 128.209C231.338 128.975 231.304 129.621 231.278 130.142C231.281 130.379 231.26 130.616 231.214 130.848Z" fill="#263238"/>
<path d="M252.471 130.356C252.186 130.37 251.899 130.357 251.616 130.318C251.077 130.279 250.298 130.219 249.34 130.176C247.415 130.07 244.754 130.022 241.815 130.095C238.876 130.168 236.219 130.356 234.299 130.544C233.34 130.63 232.588 130.724 232.031 130.784C231.749 130.832 231.462 130.854 231.176 130.848C231.443 130.76 231.718 130.699 231.997 130.664C232.528 130.57 233.281 130.446 234.26 130.33C236.181 130.087 238.842 129.868 241.794 129.791C244.309 129.72 246.826 129.777 249.336 129.963C250.298 130.035 251.077 130.125 251.611 130.202C251.903 130.223 252.191 130.275 252.471 130.356Z" fill="#263238"/>
<path d="M218.487 152.31C218.487 152.31 218.44 152.22 218.384 152.036C218.328 151.852 218.247 151.553 218.153 151.232C217.956 150.535 217.695 149.521 217.392 148.238C216.78 145.714 216.048 142.197 215.291 138.309C214.534 134.42 213.837 130.899 213.28 128.362C213.007 127.13 212.78 126.116 212.609 125.368C212.54 125.038 212.48 124.769 212.433 124.551C212.407 124.456 212.392 124.358 212.391 124.26C212.391 124.26 212.438 124.35 212.493 124.534C212.549 124.718 212.63 125.017 212.724 125.338C212.921 126.035 213.182 127.049 213.486 128.332C214.093 130.856 214.829 134.373 215.586 138.266C216.343 142.159 217.041 145.671 217.597 148.208L218.264 151.202C218.337 151.527 218.397 151.801 218.444 152.019C218.471 152.114 218.485 152.212 218.487 152.31Z" fill="#263238"/>
<path d="M247.348 147.944C247.254 147.979 247.156 148.002 247.057 148.013L246.201 148.15L243.108 148.62C240.499 149.022 236.901 149.617 232.927 150.276C228.952 150.935 225.372 151.512 222.741 151.846C221.432 152.021 220.371 152.15 219.635 152.222L218.78 152.304C218.682 152.32 218.582 152.32 218.484 152.304C218.578 152.268 218.676 152.245 218.775 152.235L219.631 152.098L222.72 151.628C225.329 151.226 228.931 150.631 232.905 149.972C236.879 149.313 240.486 148.749 243.108 148.402C244.417 148.227 245.478 148.098 246.214 148.026L247.07 147.944C247.162 147.933 247.255 147.933 247.348 147.944Z" fill="#263238"/>
<path d="M17.2983 124.56C19.6127 123.939 22.1452 124.525 24.1815 125.783C26.1888 127.117 27.8632 128.894 29.0755 130.977C31.5353 134.908 32.378 140.174 32.4593 144.811C27.3258 144.572 22.9452 140.504 20.8575 138.3C17.5593 134.818 13.7048 126.523 17.2983 124.577" fill="#699DEE"/>
<path d="M40.7199 147.934C38.6151 146.283 37.6868 143.374 38.1531 140.738C38.4195 139.423 38.9453 138.174 39.6996 137.064C40.4539 135.955 41.4217 135.006 42.5466 134.274C43.569 133.577 44.8395 133.03 46.0245 133.389C46.5712 133.59 47.0537 133.935 47.4217 134.386C47.7897 134.838 48.0297 135.38 48.1164 135.956C48.2797 137.114 48.132 138.295 47.6887 139.378C46.3668 143.121 44.4032 146.501 40.7199 147.968" fill="#699DEE"/>
<path d="M45.392 162.605C45.183 162.354 45.0102 162.075 44.8786 161.775C44.5834 161.228 44.1642 160.423 43.6808 159.418C42.3652 156.799 41.407 154.015 40.8317 151.14C40.2242 147.718 40.6691 144.527 41.5247 142.435C41.8414 141.6 42.2641 140.809 42.7824 140.082C42.9538 139.803 43.169 139.553 43.4198 139.342C43.5097 139.397 42.5942 140.475 41.8669 142.563C40.9831 145.304 40.8036 148.222 41.345 151.051C41.9184 153.881 42.814 156.637 44.0145 159.264C44.9 161.309 45.4604 162.571 45.392 162.605Z" fill="#263238"/>
<path d="M20.7891 130.617C21.1948 130.968 21.5684 131.355 21.9056 131.772C22.5986 132.538 23.5826 133.663 24.7847 135.066C27.1846 137.868 30.4401 141.8 33.9309 146.227C37.4217 150.655 40.4718 154.74 42.6365 157.735C43.7188 159.232 44.5829 160.452 45.1647 161.307C45.4882 161.732 45.7745 162.185 46.0203 162.659C45.6468 162.275 45.3049 161.862 44.9979 161.423L42.337 157.953C40.0997 155.019 36.9982 150.972 33.5159 146.548C30.0337 142.125 26.8252 138.163 24.498 135.302L21.7388 131.901C21.3877 131.499 21.0701 131.07 20.7891 130.617Z" fill="#263238"/>
<path d="M37.2478 153.651C35.0221 151.903 32.4118 150.71 29.6331 150.171C26.8545 149.633 23.9875 149.764 21.2697 150.554C19.8965 150.982 18.3692 151.808 18.2323 153.236C18.0954 154.665 19.4344 155.803 20.7264 156.432C23.4412 157.72 26.4767 158.176 29.4503 157.743C32.4239 157.309 35.2026 156.004 37.436 153.994" fill="#699DEE"/>
<path d="M24.6875 153.172C24.971 153.039 25.2721 152.949 25.5816 152.902C25.936 152.812 26.2962 152.746 26.6596 152.706C27.137 152.629 27.6183 152.579 28.1013 152.556C29.3628 152.484 30.6284 152.54 31.8787 152.723C34.9554 153.171 37.885 154.331 40.4346 156.111C41.4702 156.834 42.4305 157.66 43.3008 158.575C43.6408 158.92 43.9594 159.286 44.2548 159.67C44.4924 159.948 44.7098 160.242 44.905 160.551C45.0982 160.796 45.2552 161.067 45.3713 161.356C45.29 161.416 44.5542 160.308 43.0398 158.832C42.152 157.973 41.19 157.194 40.1651 156.504C38.8998 155.675 37.5575 154.971 36.1566 154.4C34.7466 153.857 33.2865 153.454 31.7974 153.198C30.5774 152.997 29.3419 152.905 28.1056 152.924C26.0179 152.967 24.7089 153.27 24.6875 153.172Z" fill="#263238"/>
<path d="M95.0549 14.2606L91.4657 17.2552L89.7204 16.4766L89.361 14.9964C89.361 14.9964 93.2111 12.1516 93.07 12.0019C92.7103 11.6564 92.2445 11.4424 91.7481 11.3944C90.8231 11.2749 89.8883 11.5255 89.1471 12.0917L88.4712 12.6008C87.8516 13.0557 87.3703 13.6737 87.081 14.386C86.7918 15.0982 86.7058 15.8767 86.8328 16.6349C86.839 16.6795 86.8475 16.7238 86.8584 16.7675L76.2192 25.61C75.5021 25.372 74.7263 25.378 74.0129 25.627C73.2996 25.8761 72.6887 26.3543 72.2756 26.9869C71.8625 27.6196 71.6703 28.3712 71.7291 29.1245C71.788 29.8778 72.0944 30.5905 72.6007 31.1514C73.1071 31.7122 73.7848 32.0898 74.5281 32.2251C75.2715 32.3604 76.0388 32.2459 76.7103 31.8995C77.3818 31.553 77.9197 30.9941 78.2403 30.3099C78.5608 29.6256 78.6459 28.8545 78.4822 28.1169L89.0017 19.2872C89.4195 19.6511 89.9578 19.8463 90.5118 19.8348C91.0407 19.8448 91.5662 19.7477 92.0566 19.5492C92.547 19.3507 92.9921 19.0549 93.3652 18.6797L94.255 17.8241C94.6966 17.3571 95.004 16.7795 95.1448 16.1524C95.2856 15.5252 95.2546 14.8716 95.0549 14.2606ZM74.5208 30.29C74.2369 30.1637 73.9969 29.956 73.8311 29.6932C73.6654 29.4303 73.5813 29.1242 73.5896 28.8136C73.598 28.503 73.6983 28.2018 73.8779 27.9482C74.0575 27.6946 74.3083 27.5 74.5985 27.3891C74.8888 27.2782 75.2054 27.2558 75.5084 27.325C75.8113 27.3941 76.087 27.5516 76.3004 27.7775C76.5137 28.0034 76.6553 28.2875 76.7071 28.5939C76.7589 28.9003 76.7186 29.2151 76.5914 29.4986C76.5072 29.6884 76.3862 29.8597 76.2354 30.0024C76.0845 30.1451 75.9069 30.2565 75.7128 30.3301C75.5186 30.4037 75.3118 30.4381 75.1042 30.4312C74.8967 30.4243 74.6926 30.3763 74.5037 30.29H74.5208Z" fill="#FF725E"/>
<path d="M111.146 34.6668L99.6899 35.625L99.7284 35.6036C97.7742 37.9425 95.3406 39.8346 92.5922 41.152C89.8438 42.4694 86.8446 43.1813 83.7973 43.2397C81.2728 43.2745 78.761 42.8766 76.3708 42.0633C73.786 41.1777 71.3975 39.799 69.3379 38.0035C67.0842 36.0471 65.2649 33.6406 63.997 30.9389C62.729 28.2372 62.0405 25.3001 61.9756 22.3164C61.9456 21.9262 61.9456 21.5343 61.9756 21.1442C61.9756 20.7549 62.0184 20.3613 62.0355 19.9678C62.0598 19.5742 62.1098 19.1827 62.1852 18.7956L62.3777 17.6106C62.459 17.2213 62.5702 16.8363 62.6643 16.4513C62.7584 16.0663 62.8483 15.6684 62.9809 15.292C63.1135 14.9155 63.2547 14.5391 63.4087 14.1626L63.614 13.5936C63.6825 13.4054 63.7851 13.2257 63.8664 13.0418C65.1437 10.2371 67.0029 7.73619 69.3208 5.70513C71.491 3.78841 74.0314 2.33741 76.7849 1.44191C79.5384 0.5464 82.4463 0.22544 85.3288 0.498885C89.0238 0.842255 92.5662 2.13929 95.6093 4.26301C98.6524 6.38672 101.092 9.2643 102.689 12.614C102.935 13.0827 103.147 13.5689 103.322 14.0685C103.497 14.5605 103.681 15.0396 103.844 15.523C104.12 16.4664 104.336 17.4267 104.49 18.3978C104.554 18.8683 104.644 19.3261 104.682 19.7838C104.721 20.2416 104.725 20.695 104.746 21.1356C104.746 21.3581 104.746 21.5634 104.781 21.7944C104.815 22.0255 104.759 22.2222 104.751 22.4404C104.751 22.8682 104.712 23.296 104.691 23.6896V23.6511C108.751 30.5471 110.937 34.2561 111.172 34.6625L104.584 23.7195C104.601 23.3145 104.618 22.8996 104.635 22.4746C104.635 22.2607 104.657 22.0468 104.661 21.833C104.665 21.6191 104.639 21.4052 104.627 21.1784C104.605 20.7506 104.58 20.2929 104.558 19.8352C104.537 19.3774 104.421 18.9282 104.357 18.4577C104.203 17.495 103.988 16.5433 103.711 15.6086C103.549 15.1294 103.365 14.6546 103.185 14.1669C103.009 13.6722 102.799 13.1905 102.556 12.7252C101.154 9.76487 99.0841 7.17035 96.509 5.14595C93.9339 3.12154 90.9241 1.72251 87.7164 1.059C84.5088 0.395494 81.1909 0.485621 78.024 1.32229C74.8571 2.15895 71.9276 3.71931 69.4662 5.88053C67.1753 7.89613 65.3381 10.3749 64.076 13.153C63.9905 13.337 63.8921 13.5081 63.8236 13.6963L63.6183 14.261L63.1905 15.3775C63.0579 15.754 62.9852 16.1433 62.8782 16.524C62.7713 16.9048 62.6729 17.2855 62.5916 17.6705C62.5103 18.0555 62.4761 18.4491 62.4162 18.8341C62.3443 19.2187 62.2958 19.6073 62.2708 19.9977C62.2494 20.387 62.228 20.772 62.2109 21.1613C62.1831 21.5473 62.1831 21.9347 62.2109 22.3206C62.3081 26.6481 63.7254 30.8425 66.273 34.3419C68.8205 37.8414 72.3766 40.4788 76.4649 41.9007C78.833 42.7079 81.3213 43.1057 83.823 43.0772C86.8458 43.0243 89.8223 42.3251 92.5524 41.0264C95.2825 39.7277 97.7031 37.8598 99.6514 35.548H99.677L111.146 34.6668Z" fill="#263238"/>
<path d="M210.917 52.0449H48.8306C45.3882 52.0449 42.5977 54.8355 42.5977 58.2779V161.244C42.5977 164.686 45.3882 167.476 48.8306 167.476H210.917C214.36 167.476 217.15 164.686 217.15 161.244V58.2779C217.15 54.8355 214.36 52.0449 210.917 52.0449Z" fill="#455A64"/>
<path d="M35.543 158.938H224.658V161.423C224.658 163.443 223.855 165.379 222.427 166.807C220.999 168.235 219.062 169.038 217.043 169.038H43.1577C42.1577 169.038 41.1675 168.841 40.2437 168.458C39.3198 168.075 38.4804 167.515 37.7733 166.807C37.0662 166.1 36.5053 165.261 36.1226 164.337C35.7399 163.413 35.543 162.423 35.543 161.423V158.938Z" fill="#455A64"/>
<path d="M212.219 56.6309H47.5273V154.108H212.219V56.6309Z" fill="#F5F5F5"/>
<path d="M112.91 158.937H113.646H115.785L123.763 158.903L150.445 158.848H150.642L150.543 159.019C150.209 159.592 149.846 160.208 149.487 160.833C149.127 161.457 148.725 162.116 148.366 162.749L148.331 162.805H148.267L115.246 162.745H115.216V162.719L113.505 159.909L113.077 159.194L112.936 158.959L113.103 159.207C113.21 159.378 113.364 159.613 113.565 159.921C113.967 160.55 114.561 161.47 115.327 162.668L115.284 162.642L148.306 162.582L148.207 162.638L149.328 160.717C149.692 160.097 150.051 159.477 150.389 158.903L150.483 159.074L123.913 159.015L115.858 158.963H113.672H113.103L112.91 158.937Z" fill="#263238"/>
<path fill-rule="evenodd" clip-rule="evenodd" d="M107.793 74.7653C108.093 74.3651 108.446 74.0069 108.841 73.7001L108.593 72.3354L110.702 71.4328L111.515 72.5579C112.01 72.4915 112.512 72.4915 113.008 72.5579L113.795 71.4199L115.934 72.2755L115.716 73.6444C116.115 73.946 116.473 74.2983 116.781 74.6925L118.146 74.4444L119.048 76.5534L117.923 77.3662C117.99 77.8617 117.99 78.3638 117.923 78.8593L119.061 79.6507L118.205 81.7896L116.841 81.5715C116.539 81.9719 116.187 82.3314 115.793 82.6409L116.041 84.0013L113.932 84.904L113.119 83.7789C112.622 83.8452 112.119 83.8452 111.622 83.7789L110.835 84.9211L108.696 84.0655L108.914 82.6966C108.512 82.3962 108.153 82.0438 107.844 81.6485L106.484 81.8966L105.59 79.7705L106.715 78.9576C106.646 78.4623 106.646 77.96 106.715 77.4646L105.59 76.6732L106.445 74.5343L107.814 74.7524L107.793 74.7653ZM110.077 77.1352C109.893 77.5853 109.847 78.0799 109.943 78.5564C110.04 79.033 110.276 79.4702 110.621 79.8127C110.967 80.1552 111.405 80.3878 111.883 80.481C112.36 80.5741 112.854 80.5237 113.303 80.3361C113.752 80.1486 114.135 79.8322 114.403 79.427C114.672 79.0219 114.815 78.5461 114.814 78.0598C114.812 77.5735 114.667 77.0985 114.396 76.6949C114.125 76.2912 113.74 75.977 113.29 75.792C112.991 75.6689 112.671 75.606 112.347 75.6069C112.024 75.6078 111.704 75.6725 111.405 75.7973C111.107 75.922 110.836 76.1044 110.608 76.334C110.38 76.5636 110.2 76.8359 110.077 77.1352Z" fill="#E0E0E0"/>
<path fill-rule="evenodd" clip-rule="evenodd" d="M99.2394 118.998C100.11 117.837 101.13 116.795 102.272 115.901L101.55 111.948L107.663 109.343L110.02 112.598C111.456 112.388 112.913 112.371 114.353 112.547L116.634 109.244L122.802 111.725L122.165 115.687C123.327 116.556 124.369 117.576 125.262 118.72L129.215 118.001L131.82 124.131L128.565 126.484C128.775 127.92 128.791 129.378 128.612 130.818L131.919 133.102L129.437 139.267L125.476 138.629C124.607 139.791 123.587 140.833 122.443 141.727L123.162 145.679L117.048 148.289L114.696 145.033C113.26 145.242 111.802 145.257 110.362 145.08L108.082 148.383L101.913 145.906L102.551 141.94C101.387 141.072 100.346 140.052 99.4533 138.907L95.5005 139.63L92.891 133.517L96.1465 131.16C95.9382 129.725 95.9223 128.269 96.0994 126.831L92.7969 124.559L95.2738 118.39L99.2394 119.028V118.998ZM105.853 125.868C105.327 127.177 105.201 128.612 105.49 129.993C105.78 131.373 106.472 132.637 107.48 133.624C108.488 134.611 109.766 135.277 111.152 135.537C112.538 135.798 113.971 135.641 115.268 135.088C116.566 134.534 117.67 133.608 118.441 132.427C119.212 131.246 119.616 129.863 119.601 128.452C119.586 127.042 119.153 125.668 118.356 124.503C117.56 123.339 116.437 122.437 115.128 121.911C114.258 121.562 113.329 121.388 112.392 121.399C111.456 121.409 110.53 121.604 109.669 121.973C108.808 122.341 108.027 122.875 107.373 123.545C106.718 124.215 106.202 125.007 105.853 125.877V125.868Z" fill="#F5F5F5"/>
<path d="M72.0087 131.041C72.1036 130.734 72.2481 130.445 72.4365 130.185C72.9507 129.443 73.7067 128.901 74.5754 128.654C75.224 128.466 75.9098 128.445 76.5683 128.595C77.2269 128.745 77.8365 129.059 78.34 129.51C78.6353 129.766 78.8893 130.066 79.0929 130.399C79.3089 130.744 79.4692 131.121 79.5678 131.516C79.787 132.351 79.7314 133.235 79.4094 134.036C79.0873 134.837 78.5159 135.514 77.7796 135.965C77.0999 136.389 76.3085 136.599 75.508 136.568C74.7837 136.542 74.08 136.321 73.4717 135.926C72.8288 135.509 72.3195 134.916 72.0047 134.218C71.6899 133.519 71.5829 132.744 71.6964 131.986C71.7407 131.662 71.8375 131.347 71.983 131.054C71.8996 131.365 71.8325 131.681 71.782 131.999C71.6816 132.871 71.8742 133.752 72.3295 134.502C72.6626 135.053 73.1284 135.511 73.6844 135.836C74.2404 136.16 74.8689 136.34 75.5123 136.359C76.2671 136.38 77.0115 136.178 77.6513 135.777C78.3492 135.351 78.8922 134.713 79.2003 133.956C79.5083 133.199 79.5652 132.363 79.3625 131.572C79.1776 130.831 78.7771 130.163 78.2117 129.651C77.6993 129.192 77.0752 128.876 76.4021 128.735C75.8141 128.615 75.2061 128.634 74.6268 128.791C73.7739 129.014 73.0206 129.517 72.4878 130.22C72.1499 130.72 72.0344 131.054 72.0087 131.041Z" fill="#263238"/>
<path d="M68.3689 127.242H68.232L67.8043 127.186L66.1615 126.942L66.2 126.917L64.8482 130.339L64.8268 130.271L66.662 131.524L66.692 131.55V131.588C66.5991 132.379 66.6106 133.179 66.7262 133.967V134.009L66.6877 134.039L64.891 135.344L64.9166 135.25L66.3711 138.625L66.2728 138.574L68.4588 138.172H68.5144L68.5486 138.219C69.0423 138.845 69.6179 139.402 70.2598 139.874L70.3111 139.909V139.969C70.2042 140.649 70.0844 141.397 69.9646 142.163L69.9004 142.052L73.3228 143.421L73.1987 143.459L74.4607 141.628L74.495 141.577H74.5591C75.347 141.672 76.1439 141.661 76.9291 141.547H76.9933L77.0318 141.599L78.3365 143.4L78.2039 143.365L81.5878 141.919L81.5193 142.043C81.391 141.35 81.2584 140.606 81.1215 139.857V139.789L81.1728 139.746C81.7976 139.259 82.3544 138.691 82.8284 138.056L82.8711 138.001H82.9396L85.1342 138.356L85.0101 138.424C85.4721 137.283 85.9299 136.143 86.3833 135.002L86.4218 135.135L84.5952 133.851L84.5395 133.813V133.749C84.6357 132.961 84.6271 132.164 84.5139 131.379V131.314L84.5695 131.276L86.3705 129.992L86.332 130.121L84.8946 126.737L85.0101 126.801L82.8198 127.195H82.7599L82.7214 127.143C82.2273 126.517 81.6518 125.958 81.0102 125.484L80.9632 125.449V125.389C81.0872 124.636 81.2027 123.909 81.3183 123.195L81.3781 123.297L77.9558 121.92L78.0585 121.89L76.7751 123.712L76.7451 123.755H76.6981C75.9087 123.65 75.1089 123.65 74.3196 123.755H74.2768L74.2511 123.721C73.7805 123.066 73.3527 122.476 72.9677 121.916L73.0447 121.937L69.6523 123.387L69.6823 123.332C69.8363 124.187 69.9646 124.923 70.0673 125.522V125.543C69.5924 125.913 69.1527 126.325 68.754 126.775L68.4673 127.118L68.3689 127.229C68.3924 127.185 68.4196 127.144 68.4502 127.105C68.5101 127.024 68.6 126.904 68.724 126.75C69.1076 126.286 69.5377 125.864 70.0074 125.488V125.522C69.8919 124.927 69.7593 124.209 69.5796 123.336V123.297H69.6181L72.9934 121.839H73.0447L73.0747 121.882L74.3837 123.678L74.311 123.648C75.1115 123.529 75.9244 123.518 76.728 123.614L76.6553 123.648C77.0532 123.066 77.4681 122.459 77.913 121.817L77.9515 121.762L78.0157 121.787L81.438 123.152L81.5108 123.178V123.25C81.3953 123.965 81.2798 124.692 81.16 125.445L81.1215 125.351C81.7731 125.843 82.3571 126.418 82.8583 127.062L82.7599 127.028L84.9459 126.626H85.0272L85.0614 126.703C85.5263 127.804 86.0083 128.93 86.5074 130.082L86.5416 130.164L86.4689 130.215L84.6722 131.498L84.7149 131.396C84.8326 132.199 84.8413 133.015 84.7406 133.821L84.6935 133.719L86.5245 134.981L86.5972 135.032L86.563 135.113L85.1941 138.536L85.1598 138.617H85.07L82.8754 138.266L82.9867 138.219C82.4944 138.869 81.9191 139.451 81.2755 139.952L81.314 139.84C81.4509 140.593 81.5878 141.338 81.7161 142.026V142.116L81.6305 142.099L78.2467 143.541L78.1654 143.575L78.1141 143.506L76.8307 141.701L76.9334 141.748C76.1293 141.862 75.3137 141.869 74.5078 141.77L74.6105 141.727L73.3271 143.554L73.28 143.622L73.203 143.592L69.7807 142.215L69.7037 142.185V142.103C69.8277 141.342 69.9518 140.593 70.0587 139.913L70.0972 140.007C69.4538 139.515 68.8784 138.939 68.3861 138.296L68.4759 138.33L66.2899 138.724H66.2214L66.1915 138.66C65.6867 137.47 65.209 136.341 64.7584 135.271L64.7327 135.216L64.784 135.177L66.5893 133.894L66.5594 133.967C66.4457 133.165 66.4385 132.353 66.538 131.55L66.5679 131.614L64.7455 130.33L64.707 130.305V130.262C65.276 128.876 65.7423 127.729 66.0974 126.84V126.814H66.123L67.7486 127.092L68.1764 127.169L68.3689 127.242Z" fill="#263238"/>
<path fill-rule="evenodd" clip-rule="evenodd" d="M59.9973 82.0951C60.6936 80.2154 61.6404 78.4382 62.8121 76.8118L60.301 71.8708L67.3553 66.0186L71.7488 69.3982C73.5633 68.5564 75.4827 67.9622 77.4555 67.6314L79.1667 62.3652L88.2915 63.2208L89.0102 68.7137C90.8834 69.4082 92.6558 70.349 94.2806 71.5115L99.2216 69.0046L105.07 76.0589L101.694 80.4481C102.529 82.2615 103.121 84.1775 103.453 86.1463L108.714 87.8574L107.859 96.9823L102.366 97.6967C101.686 99.5764 100.756 101.356 99.6024 102.989L102.109 107.93L95.0549 113.782L90.6615 110.406C88.8432 111.242 86.9209 111.829 84.9462 112.152L83.235 117.418L74.1102 116.562L73.3915 111.074C71.5122 110.389 69.7326 109.457 68.0997 108.302L63.1629 110.809L57.3107 103.754L60.6732 99.3651C59.8346 97.5493 59.2404 95.6303 58.9064 93.6583L53.6445 91.9472L54.5001 82.8223L59.9887 82.1036L59.9973 82.0951ZM71.4407 88.5719C71.2584 90.5103 71.6553 92.4592 72.5811 94.172C73.5069 95.8848 74.9201 97.2844 76.6417 98.1936C78.3634 99.1029 80.316 99.481 82.2526 99.2799C84.1892 99.0789 86.0226 98.3079 87.5208 97.0644C89.019 95.8209 90.1145 94.1609 90.6688 92.2945C91.2231 90.4281 91.2113 88.4392 90.6347 86.5795C90.0581 84.7198 88.9428 83.0731 87.4298 81.8476C85.9169 80.6221 84.0744 79.873 82.1356 79.6952C79.5409 79.4571 76.9577 80.258 74.9527 81.9221C72.9478 83.5863 71.6847 85.9777 71.4407 88.5719Z" fill="#E0E0E0"/>
<path d="M217.149 158.939C217.149 158.998 178.07 159.046 129.879 159.046C81.6883 159.046 42.6094 158.998 42.6094 158.939C42.6094 158.879 81.6798 158.836 129.879 158.836C178.079 158.836 217.149 158.883 217.149 158.939Z" fill="#263238"/>
<path d="M123.264 27.791C120.573 28.9717 119.007 31.8764 118.421 34.7555C117.835 37.6345 118.023 40.612 117.771 43.5424C117.518 46.4728 116.714 49.5315 114.575 51.5464C112.582 53.4287 109.651 54.1944 107.953 56.3462C107.319 57.1474 106.9 58.0963 106.733 59.104C106.567 60.1117 106.659 61.1452 107.001 62.1077C107.343 63.0701 107.923 63.9299 108.689 64.6064C109.454 65.283 110.378 65.7542 111.375 65.9759C110.032 68.1148 110.704 71.0709 112.423 72.9061C114.143 74.7414 116.663 75.6183 119.148 75.9948C123.52 76.6621 128.183 75.9263 131.875 73.4922C135.567 71.058 138.151 66.8315 138.142 62.4123" fill="#263238"/>
<path d="M111.602 71.2452C111.395 70.954 111.235 70.6321 111.128 70.2913C110.826 69.3604 110.767 68.3679 110.956 67.4079C111.081 66.7446 111.288 66.0993 111.573 65.4871C111.915 64.7952 112.329 64.1414 112.809 63.5364C113.95 62.2004 115.186 60.9494 116.509 59.7932C117.793 58.6072 118.995 57.3351 120.107 55.9858C121.017 54.8862 121.791 53.6811 122.413 52.3967C122.827 51.5299 123.14 50.6184 123.345 49.6802C123.427 49.3508 123.448 49.0855 123.487 48.9101C123.496 48.8182 123.516 48.7277 123.546 48.6406C123.556 48.7316 123.556 48.8234 123.546 48.9144C123.521 49.0941 123.512 49.3636 123.444 49.6973C123.268 50.6519 122.972 51.5805 122.563 52.4608C121.956 53.7664 121.189 54.9909 120.278 56.1056C119.171 57.4731 117.967 58.7597 116.676 59.9558C115.357 61.1041 114.122 62.345 112.98 63.669C112.502 64.2569 112.091 64.8952 111.752 65.5727C111.464 66.1666 111.253 66.7948 111.123 67.4422C110.923 68.3815 110.958 69.356 111.226 70.2784C111.332 70.6078 111.458 70.9306 111.602 71.2452Z" fill="#455A64"/>
<path d="M155.444 37.4551C155.444 41.4079 157.266 45.0313 158.904 46.366C161.227 48.2483 164.633 49.1595 166.874 49.7884C170.142 50.6996 172.863 53.5615 173.291 56.9325C173.719 60.3035 171.494 63.9013 168.209 64.7483C170.275 66.8573 169.659 70.485 167.961 72.8764C164.739 77.4495 158.31 79.2077 152.988 77.5137C147.666 75.8196 143.577 71.0968 141.977 65.7365" fill="#263238"/>
<path d="M163.57 76.392C164.022 76.2941 164.45 76.1064 164.828 75.8401C165.264 75.5212 165.624 75.109 165.881 74.6337C166.23 74.0102 166.423 73.3117 166.445 72.5974C166.44 71.7326 166.212 70.8838 165.782 70.1333C165.288 69.269 164.636 68.5044 163.861 67.8789C162.24 66.5142 160.037 65.6629 157.906 64.4565C156.857 63.8661 155.904 63.1172 155.083 62.2363C154.693 61.8111 154.361 61.3365 154.095 60.8245C153.842 60.3334 153.655 59.8114 153.539 59.2717C153.348 58.2738 153.302 57.2538 153.402 56.2429C153.474 55.2975 153.594 54.429 153.676 53.6291C153.86 52.3793 153.84 51.1078 153.616 49.8645C153.56 49.6506 153.509 49.4624 153.462 49.2912C153.415 49.1201 153.346 48.9961 153.308 48.8848C153.26 48.7747 153.218 48.6618 153.184 48.5469C153.248 48.6481 153.303 48.7556 153.346 48.8677C153.393 48.9789 153.466 49.1073 153.522 49.2698L153.697 49.8474C153.957 51.097 154 52.3819 153.825 53.6462C153.753 54.4461 153.641 55.3188 153.577 56.2557C153.485 57.2561 153.537 58.2645 153.731 59.2503C153.966 60.3237 154.487 61.3138 155.237 62.1165C156.045 62.9802 156.982 63.7146 158.013 64.294C160.122 65.5046 162.338 66.3688 164.002 67.7676C164.793 68.411 165.455 69.1976 165.953 70.0863C166.395 70.8689 166.622 71.7544 166.612 72.653C166.583 73.3901 166.373 74.1087 166 74.745C165.726 75.2272 165.347 75.6423 164.892 75.9599C164.603 76.154 164.284 76.2986 163.947 76.3877C163.822 76.4016 163.696 76.4031 163.57 76.392Z" fill="#455A64"/>
<path d="M171.274 63.2048C171.511 62.8843 171.65 62.5027 171.676 62.1053C171.691 61.6413 171.585 61.1815 171.368 60.7706C171.094 60.2223 170.676 59.7593 170.158 59.4316C169.506 59.0654 168.79 58.8259 168.049 58.7258C167.253 58.5846 166.385 58.5333 165.482 58.3921C163.501 58.0754 161.613 57.3293 159.951 56.2061C158.284 55.0847 156.887 53.6076 155.861 51.8811C155.034 50.4701 154.467 48.9229 154.184 47.3122C153.985 46.2305 153.926 45.1278 154.009 44.0311C154.028 43.7343 154.062 43.4388 154.111 43.1455C154.119 43.0422 154.139 42.9403 154.171 42.8418C154.193 42.8418 154.12 43.2696 154.09 44.0396C153.975 46.7536 154.648 49.4427 156.028 51.7827C157.049 53.4755 158.427 54.9251 160.066 56.0307C161.706 57.1342 163.563 57.8738 165.512 58.1996C166.41 58.345 167.283 58.4049 168.079 58.5504C168.834 58.6624 169.56 58.9195 170.218 59.3076C170.756 59.6521 171.186 60.1414 171.458 60.7193C171.674 61.1495 171.771 61.6293 171.741 62.1096C171.715 62.4131 171.619 62.7063 171.458 62.9652C171.403 63.0465 171.347 63.1064 171.313 63.1492L171.274 63.2048Z" fill="#455A64"/>
<path d="M125.187 83.7978C125.752 77.89 126.235 71.6613 126.235 71.6613C126.235 71.6613 118.753 69.6507 118.154 59.5676C117.581 49.9551 121.29 28.2489 121.29 28.2489C132.682 24.8607 145.362 29.1044 152.305 38.64L146.94 86.5528C146.32 92.1142 141.041 96.0071 135.09 95.2927C129.084 94.5697 124.652 89.4276 125.187 83.7978Z" fill="#B78876"/>
<path d="M122.425 45.5985C122.391 45.9293 122.486 46.2604 122.691 46.5221C122.896 46.7838 123.195 46.9558 123.524 47.0017C123.685 47.031 123.85 47.0277 124.009 46.9921C124.169 46.9564 124.319 46.8891 124.452 46.7942C124.585 46.6992 124.697 46.5785 124.783 46.4393C124.868 46.3 124.924 46.145 124.949 45.9835C124.983 45.6528 124.888 45.3217 124.682 45.0599C124.477 44.7982 124.179 44.6263 123.849 44.5804C123.689 44.551 123.524 44.5543 123.364 44.5899C123.205 44.6256 123.054 44.6929 122.922 44.7878C122.789 44.8828 122.676 45.0035 122.591 45.1428C122.506 45.282 122.449 45.437 122.425 45.5985Z" fill="#263238"/>
<path d="M120.499 43.9691C120.64 44.153 121.675 43.5413 123.044 43.6696C124.413 43.798 125.35 44.5937 125.517 44.4397C125.598 44.3712 125.466 44.0589 125.059 43.6953C124.507 43.2258 123.822 42.9389 123.1 42.8739C122.39 42.7999 121.675 42.9495 121.055 43.3017C120.602 43.6012 120.43 43.8878 120.499 43.9691Z" fill="#263238"/>
<path d="M136.425 47.2196C136.391 47.551 136.487 47.8827 136.693 48.1446C136.899 48.4064 137.198 48.5779 137.528 48.6228C137.689 48.6521 137.854 48.6489 138.013 48.6132C138.173 48.5776 138.323 48.5103 138.456 48.4153C138.589 48.3203 138.702 48.1997 138.787 48.0604C138.872 47.9211 138.929 47.7662 138.953 47.6047C138.987 47.2739 138.892 46.9428 138.687 46.681C138.482 46.4193 138.183 46.2474 137.854 46.2015C137.693 46.1721 137.527 46.1754 137.368 46.211C137.208 46.2466 137.057 46.3138 136.924 46.4087C136.791 46.5037 136.678 46.6243 136.592 46.7636C136.506 46.9029 136.45 47.058 136.425 47.2196Z" fill="#263238"/>
<path d="M134.745 45.8734C134.886 46.0573 135.921 45.4456 137.29 45.5782C138.659 45.7108 139.596 46.498 139.763 46.344C139.84 46.2798 139.712 45.9632 139.305 45.5996C138.752 45.1308 138.068 44.844 137.346 44.7782C136.636 44.7042 135.922 44.8538 135.301 45.206C134.848 45.5055 134.677 45.7921 134.745 45.8734Z" fill="#263238"/>
<path d="M128.773 55.5455C128.773 55.4685 127.952 55.2375 126.587 54.9252C126.241 54.8525 125.92 54.7498 125.881 54.4974C125.889 54.1332 126.007 53.7798 126.219 53.4836L127.503 50.9168C129.312 47.2677 130.66 44.2518 130.497 44.1791C130.335 44.1063 128.765 47.0111 126.955 50.6601C126.527 51.5628 126.1 52.4184 125.697 53.2269C125.438 53.6269 125.326 54.105 125.381 54.5787C125.418 54.7083 125.484 54.8273 125.576 54.9262C125.667 55.0251 125.781 55.101 125.907 55.1477C126.096 55.2197 126.293 55.2671 126.493 55.2889C127.901 55.5327 128.76 55.6225 128.773 55.5455Z" fill="#263238"/>
<path d="M126.228 71.6612C130.895 72.1943 135.619 71.4197 139.871 69.4238C139.871 69.4238 135.956 75.9263 126.117 74.0183L126.228 71.6612Z" fill="#AA6550"/>
<path d="M129.033 58.9047C129.326 58.6021 129.691 58.379 130.093 58.2563C130.496 58.1335 130.923 58.1152 131.335 58.2031C131.634 58.2614 131.919 58.3788 132.172 58.5485C132.426 58.7182 132.643 58.9367 132.811 59.1913C132.971 59.4384 133.052 59.729 133.042 60.0236C133.032 60.3182 132.932 60.6026 132.755 60.8383C132.511 61.0629 132.205 61.2091 131.877 61.2579C131.549 61.3067 131.214 61.2559 130.915 61.1121C130.291 60.8207 129.731 60.4076 129.268 59.8972C129.126 59.7772 129.008 59.6322 128.918 59.4694C128.875 59.3891 128.856 59.2977 128.866 59.207C128.875 59.1163 128.911 59.0304 128.969 58.9603" fill="#AA6550"/>
<path d="M132.713 56.8893C132.49 56.855 132.341 58.3395 130.963 59.2721C129.586 60.2047 128.02 59.8838 127.99 60.0891C127.96 60.179 128.315 60.4143 128.983 60.5169C129.852 60.6154 130.727 60.4033 131.455 59.918C132.156 59.4538 132.647 58.7336 132.824 57.9117C132.965 57.2743 132.816 56.8893 132.713 56.8893Z" fill="#263238"/>
<path d="M147.583 49.2311C148.669 49.1081 149.767 49.2872 150.757 49.7487C151.251 49.9806 151.695 50.3079 152.062 50.7116C152.429 51.1154 152.712 51.5878 152.896 52.1016C153.209 53.1571 153.108 54.2921 152.614 55.2758C152.117 56.2505 151.41 57.1024 150.543 57.7698C149.954 58.2891 149.251 58.6615 148.49 58.8564C148.109 58.9514 147.71 58.9499 147.33 58.852C146.95 58.7542 146.6 58.5631 146.312 58.296" fill="#B78876"/>
<path d="M147.53 55.7253C147.406 55.7509 147.804 56.4397 148.813 56.2729C149.346 56.1428 149.806 55.8096 150.097 55.3445C150.441 54.8257 150.681 54.2444 150.802 53.6334C150.941 52.9846 150.847 52.3078 150.537 51.7211C150.405 51.4724 150.218 51.2568 149.99 51.0901C149.763 50.9235 149.501 50.8102 149.224 50.7586C148.227 50.6388 147.846 51.3019 147.94 51.3318C148.035 51.3618 148.437 51.1008 149.074 51.3318C149.712 51.5629 150.221 52.4313 149.981 53.4708C149.741 54.5104 149.237 55.5071 148.629 55.6996C148.022 55.8921 147.607 55.644 147.53 55.7253Z" fill="#AA6550"/>
<path d="M126.087 32.4929C125.339 34.1922 124.212 35.6977 122.792 36.8938C121.372 38.0899 119.697 38.9449 117.895 39.3932C117.685 36.9419 117.54 34.4607 117.942 32.0309C118.344 29.601 119.328 27.2096 121.099 25.5027C122.87 23.7959 125.492 22.8761 127.871 23.5092" fill="#263238"/>
<path d="M126.768 27.9919C126.148 29.553 125.941 31.2478 126.167 32.9122C126.394 34.5767 127.046 36.1545 128.061 37.4932C129.075 38.8318 130.418 39.886 131.96 40.5537C133.501 41.2215 135.189 41.4802 136.859 41.3048C137.51 41.2364 138.194 41.108 138.802 41.3433C139.409 41.5786 139.884 42.1989 140.273 42.7893C141.856 45.155 143.529 47.6148 146.023 48.9837C148.517 50.3526 152.085 50.2158 153.753 47.9099C154.561 46.7891 154.801 45.3646 154.989 43.9956C155.622 39.3883 155.883 34.4387 153.685 30.3405C152.055 27.2903 149.188 25.0273 146.018 23.6541C142.849 22.2808 139.375 21.7333 135.923 21.5151C133.92 21.391 131.846 21.3867 129.985 22.1482C128.124 22.9097 126.52 24.5952 126.413 26.6015" fill="#263238"/>
<path d="M154.549 45.2956C154.501 45.1859 154.461 45.073 154.429 44.9577C154.361 44.7352 154.245 44.4058 154.096 43.9909C153.651 42.8128 153.085 41.6845 152.406 40.6241C151.396 39.0577 150.144 37.6614 148.697 36.4874C146.885 35.0957 144.884 33.9692 142.755 33.142C140.513 32.2009 138.319 31.4308 136.398 30.5282C134.682 29.7584 133.07 28.7737 131.602 27.5978C130.618 26.7982 129.761 25.8534 129.061 24.7958C128.873 24.5074 128.703 24.2073 128.552 23.8974C128.491 23.7945 128.441 23.6856 128.402 23.5723C128.471 23.6711 128.534 23.774 128.591 23.8803C128.756 24.1744 128.936 24.46 129.13 24.7359C129.848 25.7668 130.713 26.6876 131.696 27.4695C133.163 28.6209 134.768 29.5838 136.475 30.3357C138.387 31.2212 140.582 31.9912 142.832 32.9324C144.98 33.7695 146.997 34.9105 148.821 36.3205C150.279 37.5147 151.533 38.9379 152.534 40.5343C153.205 41.6111 153.754 42.7589 154.173 43.9566C154.314 44.3844 154.416 44.7138 154.468 44.9448C154.505 45.0593 154.532 45.1766 154.549 45.2956Z" fill="#455A64"/>
<path d="M151.465 44.7522C151.4 44.664 151.344 44.5694 151.298 44.4699C151.187 44.286 151.024 44.0122 150.785 43.6828C150.1 42.7621 149.269 41.96 148.325 41.3085C146.907 40.3601 145.392 39.5642 143.807 38.9343C142.922 38.5535 141.985 38.16 141.035 37.7065C140.085 37.253 139.114 36.7482 138.156 36.175C136.341 35.1063 134.668 33.8127 133.177 32.3248C131.96 31.1085 130.913 29.7344 130.062 28.2394C129.493 27.2307 129.034 26.1637 128.693 25.0566C128.582 24.6631 128.501 24.3551 128.462 24.1454C128.432 24.0392 128.412 23.9304 128.402 23.8203C128.445 23.9209 128.478 24.0255 128.501 24.1326C128.556 24.3422 128.65 24.6417 128.775 25.031C129.141 26.1199 129.617 27.1691 130.195 28.1624C131.054 29.6347 132.102 30.9881 133.313 32.188C134.802 33.6595 136.466 34.9425 138.267 36.0081C139.217 36.5771 140.179 37.0819 141.125 37.5396C142.07 37.9974 142.999 38.3952 143.884 38.7717C145.478 39.4122 146.996 40.2271 148.41 41.2016C149.36 41.8716 150.186 42.701 150.853 43.6528C151.031 43.9125 151.191 44.1841 151.332 44.4656C151.383 44.5578 151.428 44.6536 151.465 44.7522Z" fill="#455A64"/>
<path d="M117.93 43.3339C117.892 43.2597 117.86 43.1824 117.836 43.1029C117.78 42.9532 117.694 42.7265 117.6 42.4313C117.362 41.5945 117.218 40.7335 117.172 39.8645C117.042 36.9451 117.952 34.074 119.739 31.7621C120.242 31.1074 120.816 30.5105 121.45 29.9825C122.071 29.4777 122.708 29.0499 123.316 28.6478C124.418 27.9851 125.452 27.2156 126.404 26.3505C127.036 25.7594 127.55 25.054 127.919 24.2715C128.167 23.711 128.222 23.3688 128.244 23.3731C128.243 23.4572 128.23 23.5407 128.205 23.6212C128.152 23.8528 128.082 24.0802 127.996 24.3014C127.646 25.105 127.142 25.8318 126.511 26.4404C125.566 27.3283 124.533 28.1167 123.427 28.7932C122.79 29.207 122.175 29.6525 121.583 30.1279C120.96 30.6474 120.395 31.2326 119.898 31.8733C118.934 33.1149 118.219 34.5313 117.793 36.0443C117.438 37.2782 117.278 38.5599 117.318 39.8431C117.351 40.7086 117.472 41.5685 117.677 42.4099C117.754 42.6951 117.818 42.9218 117.87 43.0901C117.9 43.1686 117.92 43.2505 117.93 43.3339Z" fill="#455A64"/>
<path d="M142.443 63.1282C140.11 63.1533 137.849 62.324 136.086 60.7967L136.36 60.493C137.868 61.8525 139.792 62.6624 141.819 62.7912C143.846 62.92 145.857 62.3603 147.526 61.2027C149.195 60.0451 150.423 58.3576 151.012 56.4141C151.602 54.4705 151.517 52.3848 150.772 50.4954L151.153 50.3457C151.872 52.327 151.93 54.4879 151.317 56.5047C150.705 58.5215 149.455 60.2856 147.756 61.5325C146.187 62.5898 144.335 63.1462 142.443 63.1282Z" fill="#FF725E"/>
<path d="M137.167 63.3564C138.257 63.3564 139.14 62.4734 139.14 61.3842C139.14 60.2951 138.257 59.4121 137.167 59.4121C136.078 59.4121 135.195 60.2951 135.195 61.3842C135.195 62.4734 136.078 63.3564 137.167 63.3564Z" fill="#FF725E"/>
<path d="M158.819 52.4175C159.4 48.8185 156.954 45.43 153.355 44.849C149.756 44.2681 146.367 46.7146 145.786 50.3136C145.205 53.9125 147.652 57.301 151.251 57.882C154.85 58.463 158.238 56.0164 158.819 52.4175Z" fill="#FF725E"/>
<path d="M151.238 50.4455C151.191 49.8883 151.202 49.3277 151.272 48.7729L151.349 46.8179C151.349 46.0564 151.383 45.188 151.349 44.2297C151.349 43.7506 151.315 43.2501 151.289 42.7324C151.263 42.2148 151.208 41.6715 151.156 41.1111C151.105 40.5507 151.007 39.9817 150.934 39.3999C150.878 39.109 150.823 38.8096 150.767 38.5101C150.711 38.2106 150.651 37.9026 150.57 37.5989C150.001 34.9384 148.817 32.448 147.114 30.3264C145.346 28.2574 143.082 26.6707 140.534 25.7148C138.445 24.9253 136.272 24.3798 134.057 24.0892C132.158 23.8239 130.605 23.7427 129.536 23.6614C128.976 23.6727 128.417 23.6268 127.867 23.5245C128.42 23.4332 128.98 23.3974 129.54 23.4175C131.067 23.4042 132.594 23.477 134.113 23.6357C136.38 23.8687 138.609 24.3832 140.748 25.1672C143.403 26.1297 145.762 27.7661 147.593 29.9157C149.359 32.1151 150.572 34.7058 151.131 37.4706C151.208 37.7829 151.267 38.0951 151.319 38.4074C151.37 38.7197 151.422 39.0192 151.473 39.3186C151.541 39.9261 151.635 40.5079 151.67 41.0769C151.704 41.6458 151.759 42.1977 151.764 42.7239C151.768 43.2501 151.798 43.7591 151.764 44.2425C151.764 45.2136 151.708 46.0863 151.665 46.8521C151.623 47.6178 151.546 48.2723 151.481 48.8114C151.453 49.3627 151.371 49.9099 151.238 50.4455Z" fill="#FF725E"/>
<g opacity="0.4">
<path opacity="0.4" d="M154.232 55.5702C156.548 54.6035 157.641 51.9428 156.674 49.6274C155.708 47.312 153.047 46.2186 150.732 47.1852C148.416 48.1519 147.323 50.8126 148.289 53.128C149.256 55.4434 151.917 56.5368 154.232 55.5702Z" fill="black"/>
</g>
<path d="M150.99 47.1296C151.054 47.0875 151.123 47.0531 151.195 47.0269C151.398 46.9418 151.609 46.8787 151.824 46.8387C152.633 46.7004 153.465 46.8422 154.182 47.2408C154.681 47.514 155.099 47.9157 155.392 48.4044C155.722 48.968 155.89 49.6122 155.876 50.2653C155.865 50.8344 155.712 51.3919 155.432 51.8873C155.152 52.3827 154.752 52.8003 154.269 53.1023C153.787 53.4043 153.237 53.5812 152.669 53.6169C152.1 53.6526 151.532 53.5461 151.016 53.3069C150.362 52.9872 149.83 52.463 149.501 51.8139C149.196 51.2345 149.061 50.5803 149.112 49.9273C149.171 49.3627 149.363 48.8202 149.673 48.3445C150.095 47.6383 150.766 47.1162 151.555 46.8814C151.768 46.8224 151.989 46.7965 152.209 46.8044C152.286 46.8068 152.362 46.8183 152.436 46.8387C152.147 46.8394 151.859 46.8797 151.581 46.9584C150.831 47.2176 150.201 47.7387 149.805 48.4258C149.487 48.9125 149.308 49.4763 149.285 50.0572C149.262 50.638 149.398 51.2141 149.677 51.7241C149.991 52.3303 150.492 52.8193 151.106 53.1187C151.776 53.4145 152.526 53.481 153.238 53.3077C153.95 53.1345 154.586 52.7312 155.046 52.1604C155.452 51.6096 155.677 50.9455 155.687 50.261C155.71 49.6439 155.562 49.0325 155.26 48.4942C154.989 48.026 154.597 47.6389 154.126 47.3734C153.441 46.9751 152.644 46.8155 151.859 46.9199C151.565 46.9714 151.275 47.0414 150.99 47.1296Z" fill="#263238"/>
<path d="M152.444 55.8416C152.289 55.5059 152.218 55.1372 152.239 54.7679C152.19 54.403 152.23 54.0319 152.355 53.6855C152.436 54.0372 152.468 54.3987 152.449 54.7593C152.5 55.1184 152.498 55.483 152.444 55.8416Z" fill="#263238"/>
<path d="M154.951 54.9595C154.575 54.3784 154.321 53.7261 154.207 53.043C154.584 53.624 154.837 54.2764 154.951 54.9595Z" fill="#263238"/>
<path d="M156.64 52.9828C156.601 53.0255 156.289 52.8074 155.943 52.4951C155.596 52.1828 155.352 51.8919 155.391 51.8491C155.429 51.8063 155.741 52.0245 156.088 52.3368C156.435 52.6491 156.678 52.94 156.64 52.9828Z" fill="#263238"/>
<path d="M156.759 50.2252C156.738 50.2808 156.515 50.2509 156.254 50.1568C155.993 50.0627 155.801 49.9429 155.827 49.8873C155.852 49.8317 156.07 49.8616 156.331 49.9557C156.592 50.0498 156.78 50.1696 156.759 50.2252Z" fill="#263238"/>
<path d="M149.48 54.8317C149.598 54.1006 149.944 53.4254 150.469 52.9023C150.359 53.2485 150.205 53.5792 150.011 53.8863C149.874 54.2222 149.696 54.5398 149.48 54.8317Z" fill="#263238"/>
<path d="M148.126 52.5084C148.083 52.4656 148.344 52.1447 148.703 51.794C149.063 51.4432 149.388 51.1865 149.43 51.2293C149.473 51.2721 149.212 51.5929 148.853 51.9437C148.494 52.2945 148.168 52.5512 148.126 52.5084Z" fill="#263238"/>
<path d="M149.184 49.3598C149.184 49.4154 149.013 49.5138 148.756 49.578C148.499 49.6421 148.303 49.6507 148.29 49.578C148.277 49.5052 148.457 49.4197 148.718 49.3555C148.978 49.2913 149.167 49.3042 149.184 49.3598Z" fill="#263238"/>
<path d="M183.708 85.475C183.281 83.0579 182.335 81.7446 181.629 81.0559C181.004 80.3782 180.302 79.7752 179.537 79.2591C178.579 78.6731 177.274 77.9501 176.44 77.7661C175.409 77.5437 175.157 76.2047 176.012 75.8197C176.868 75.4347 179.734 75.9865 182.485 78.0057C185.236 80.0249 183.841 74.9085 183.37 73.0347C182.9 71.161 181.732 65.3002 182.16 64.7099C182.84 63.8543 183.914 64.4361 184.346 66.3184C184.778 68.2007 186.459 73.762 187.439 73.4882C188.418 73.2144 185.869 63.7088 185.869 63.7088C185.869 63.7088 185.013 61.7581 186.121 61.4073C188.149 60.7699 190.1 71.0626 190.262 72.0465C190.373 72.7267 191.451 72.4743 191.293 71.7428C191.135 71.0113 188.538 62.31 190.596 61.6426C192.174 61.1335 192.281 70.0958 193.821 71.6273C195.362 73.1588 193.043 64.8211 194.574 64.3933C195.143 64.235 195.593 64.1965 196.23 69.1589C196.576 71.8241 196.354 75.4988 197.394 80.5853" fill="#B78876"/>
<path d="M178.581 104.606L187.933 118.026L183.445 83.4173L196.814 78.1426C196.814 78.1426 213.686 142.825 191.06 143.732C191.06 143.732 175.398 143.304 163.711 116.199L178.581 104.606Z" fill="#B78876"/>
<path d="M193.58 77.8887C193.605 77.9229 193.289 78.1325 192.874 78.5945C192.332 79.2021 191.955 79.9385 191.779 80.7335L191.727 80.9859L191.544 80.7977C191.328 80.5792 191.097 80.3775 190.85 80.1945C190.016 79.5854 189.037 79.2049 188.01 79.0908C187.219 79.0052 186.727 79.0908 186.727 79.0437C187.145 78.8909 187.593 78.8382 188.036 78.8897C189.451 78.9549 190.786 79.5686 191.757 80.6009L191.518 80.6651C191.706 79.8187 192.137 79.0456 192.758 78.4405C192.984 78.1939 193.266 78.0047 193.58 77.8887Z" fill="#AA6550"/>
<path d="M171.865 132.583L160.55 118.231L157.607 132.913C156.416 138.859 157.03 145.025 159.369 150.619L160.828 154.114H108.432L109.741 149.447C110.481 143.732 109.493 137.768 109.664 129.58L108.209 120.353L100.282 154.114H76.9805C76.9805 154.114 89.7587 101.714 97.7841 91.344C107.884 78.275 125.535 79.999 125.535 79.999L136.345 96.9481L146.908 81.6631C146.908 81.6631 165.055 77.8129 179.223 102.197L186.804 115.189L183.283 88.4393L199.702 84.6576C199.702 84.6576 205.627 110.937 205.237 125.011C204.891 137.58 199.539 144.172 192.125 144.822C180.451 145.841 171.865 132.583 171.865 132.583Z" fill="#FFC246"/>
<path d="M125.534 79.9981L125.718 77.8848C125.718 77.8848 133.726 79.6644 136.413 93.649C136.413 93.649 139.108 80.7424 147.732 79.4462L149.186 83.1637L143.89 96.9515L134.59 99.6723L125.538 96.9515L121.414 88.7764L125.534 79.9981Z" fill="#FFC246"/>
<path d="M103.212 85.5605C103.236 85.679 103.25 85.7992 103.255 85.9199C103.255 86.1766 103.298 86.5231 103.332 86.9637C103.387 87.8664 103.482 89.1711 103.61 90.7882C103.871 94.0137 104.311 98.4671 105.009 103.357C105.706 108.246 106.536 112.648 107.191 115.818C107.52 117.406 107.794 118.685 107.995 119.57C108.085 119.998 108.157 120.34 108.213 120.588C108.243 120.706 108.264 120.826 108.273 120.948C108.23 120.835 108.196 120.719 108.17 120.601C108.105 120.353 108.019 120.015 107.914 119.587C107.691 118.71 107.392 117.448 107.058 115.853C106.365 112.687 105.518 108.285 104.812 103.387C104.106 98.4885 103.695 94.0309 103.477 90.7967C103.366 89.1797 103.293 87.8706 103.259 86.968C103.259 86.5402 103.233 86.1809 103.225 85.9242C103.216 85.6675 103.208 85.5605 103.212 85.5605Z" fill="#263238"/>
<path d="M148.992 81.166C148.961 81.2369 148.922 81.3043 148.877 81.3671L148.517 81.9232L147.183 83.9595C146.062 85.6707 144.552 88.0877 142.977 90.8042C142.917 90.9112 142.853 91.0138 142.798 91.1165L142.695 91.2919L142.609 91.1079C142.336 90.4284 141.947 89.8016 141.459 89.2556C141.235 89.0111 140.957 88.8231 140.647 88.7071C140.337 88.5911 140.004 88.5504 139.675 88.5882C139.081 88.7171 138.557 89.0616 138.203 89.5551C137.877 89.9774 137.628 90.4538 137.467 90.9625C137.168 91.9036 136.993 92.695 136.766 93.2084C136.686 93.407 136.594 93.6 136.488 93.7859C136.411 93.9114 136.368 93.9713 136.359 93.9656C136.359 93.9656 136.505 93.6961 136.693 93.1785C136.881 92.6608 137.04 91.8951 137.33 90.9197C137.484 90.3883 137.733 89.8895 138.066 89.4481C138.44 88.9102 139.004 88.5353 139.645 88.4C140.004 88.3534 140.369 88.3936 140.709 88.5172C141.049 88.6407 141.355 88.8441 141.6 89.1101C142.111 89.6691 142.519 90.3153 142.802 91.0181H142.614L142.793 90.7058C144.368 87.985 145.903 85.5723 147.071 83.8868C147.649 83.0312 148.128 82.351 148.462 81.8847C148.624 81.6708 148.753 81.4911 148.855 81.35C148.894 81.284 148.94 81.2224 148.992 81.166Z" fill="#263238"/>
<path d="M141.365 89.0846C141.365 89.0846 141.344 89.1488 141.28 89.2643L140.997 89.7606L139.924 91.5658L138.307 94.2224L137.344 95.7924C137.173 96.062 137.002 96.34 136.826 96.6224C136.773 96.703 136.705 96.7726 136.625 96.8277C136.578 96.8586 136.524 96.8785 136.468 96.8859C136.411 96.8933 136.354 96.888 136.3 96.8705C136.115 96.7976 135.962 96.659 135.872 96.4812C134.371 94.2224 133.25 92.0364 132.373 90.4921C131.945 89.7178 131.582 89.0975 131.333 88.6697C131.193 88.4545 131.067 88.2301 130.957 87.998C130.957 87.998 131.008 88.0494 131.081 88.1563C131.154 88.2633 131.269 88.4173 131.402 88.6269C131.676 89.0547 132.052 89.6536 132.501 90.4194C133.413 91.938 134.555 94.1112 136.052 96.3571C136.142 96.5026 136.227 96.6266 136.343 96.6609C136.458 96.6951 136.548 96.6181 136.638 96.494L137.151 95.6727L138.123 94.1112L139.778 91.476L140.908 89.7092C141.036 89.521 141.139 89.3627 141.228 89.2344C141.267 89.1789 141.313 89.1285 141.365 89.0846Z" fill="#263238"/>
<path d="M170.376 90.3398C170.341 90.4352 170.299 90.5281 170.252 90.6179C170.158 90.8147 170.029 91.0757 169.867 91.4008C169.525 92.0767 169.045 93.0606 168.472 94.2841C167.899 95.5076 167.249 96.9835 166.564 98.6348C165.88 100.286 165.183 102.126 164.507 104.076C163.831 106.027 163.266 107.926 162.795 109.638C162.325 111.349 161.94 112.923 161.628 114.241C161.315 115.558 161.097 116.632 160.952 117.372C160.879 117.727 160.819 118.01 160.776 118.228C160.76 118.328 160.735 118.427 160.699 118.523C160.7 118.421 160.711 118.319 160.733 118.219C160.768 118.001 160.815 117.714 160.87 117.364C160.99 116.615 161.2 115.537 161.482 114.211C161.764 112.885 162.141 111.319 162.607 109.586C163.073 107.854 163.655 105.976 164.318 104.025C164.981 102.074 165.709 100.235 166.393 98.5792C167.078 96.9236 167.758 95.4562 168.352 94.237C168.947 93.0178 169.443 92.0425 169.807 91.3794L170.235 90.6179C170.272 90.5204 170.319 90.4272 170.376 90.3398Z" fill="#263238"/>
<path d="M146.408 143.49C146.3 143.496 146.192 143.496 146.083 143.49L145.146 143.417C144.719 143.383 144.244 143.34 143.671 143.267C143.097 143.195 142.439 143.13 141.72 143.019C140.274 142.822 138.563 142.523 136.676 142.134C134.79 141.744 132.732 141.222 130.597 140.594C128.463 139.965 126.465 139.25 124.664 138.562C122.863 137.873 121.276 137.171 119.958 136.547C119.291 136.247 118.705 135.944 118.187 135.691C117.669 135.439 117.224 135.203 116.869 135.007L116.044 134.557C115.947 134.509 115.854 134.453 115.766 134.391C115.869 134.423 115.97 134.466 116.065 134.519L116.921 134.947C117.284 135.131 117.729 135.375 118.251 135.597C118.773 135.819 119.363 136.136 120.031 136.423C121.357 137.03 122.953 137.706 124.736 138.39C126.52 139.075 128.531 139.764 130.657 140.401C132.783 141.039 134.841 141.539 136.715 141.954C138.588 142.369 140.3 142.668 141.741 142.882C142.456 143.006 143.11 143.083 143.683 143.16C144.257 143.237 144.749 143.302 145.155 143.344L146.088 143.46C146.195 143.46 146.303 143.47 146.408 143.49Z" fill="#263238"/>
<path d="M144.092 144.403C144.022 144.43 143.949 144.449 143.874 144.459L143.249 144.579C142.706 144.677 141.915 144.801 140.935 144.938C135.832 145.625 130.673 145.805 125.534 145.473C124.546 145.404 123.75 145.336 123.203 145.272L122.57 145.199C122.496 145.192 122.423 145.179 122.352 145.16C122.425 145.15 122.5 145.15 122.574 145.16L123.207 145.195C123.759 145.233 124.555 145.28 125.543 145.327C127.511 145.421 130.249 145.486 133.243 145.383C136.238 145.28 138.967 145.023 140.943 144.792C141.923 144.677 142.715 144.574 143.262 144.502L143.895 144.42C143.96 144.406 144.026 144.4 144.092 144.403Z" fill="#263238"/>
<path d="M162.633 120.874C162.642 120.77 162.662 120.667 162.693 120.566L162.911 119.711L163.724 116.506C164.412 113.803 165.324 110.06 166.449 105.953C167.013 103.899 167.591 101.953 168.16 100.195C168.729 98.4365 169.276 96.8708 169.781 95.5703C170.021 94.9115 170.269 94.3297 170.474 93.8163C170.68 93.303 170.872 92.8666 171.035 92.5115L171.407 91.6945C171.447 91.5963 171.496 91.5019 171.552 91.4121C171.525 91.5147 171.489 91.6148 171.445 91.7116C171.364 91.9169 171.253 92.195 171.112 92.5415C170.971 92.888 170.782 93.3457 170.585 93.8634C170.389 94.381 170.158 94.9628 169.922 95.6216C169.435 96.9264 168.904 98.5006 168.348 100.255C167.792 102.009 167.223 103.959 166.658 106.008C165.538 110.111 164.605 113.85 163.878 116.545C163.518 117.893 163.219 118.983 163.001 119.732L162.744 120.588C162.718 120.687 162.68 120.783 162.633 120.874Z" fill="#263238"/>
<path d="M107.935 120.172C107.855 120.091 107.781 120.005 107.713 119.915C107.576 119.735 107.357 119.487 107.118 119.141C106.413 118.169 105.788 117.142 105.248 116.069C104.447 114.477 103.789 112.816 103.285 111.107C102.673 109.015 102.218 106.88 101.924 104.72C101.3 100.125 101.197 95.9243 101.009 92.9041C100.923 91.3897 100.842 90.1662 100.782 89.3192C100.752 88.9128 100.727 88.5877 100.71 88.3481C100.701 88.2342 100.701 88.1198 100.71 88.0059C100.738 88.1167 100.756 88.2298 100.765 88.3438C100.791 88.562 100.834 88.8914 100.876 89.3149C100.966 90.1705 101.069 91.3812 101.172 92.8913C101.398 95.9158 101.522 100.112 102.147 104.69C102.438 106.84 102.886 108.966 103.486 111.051C103.972 112.754 104.607 114.412 105.381 116.005C105.907 117.077 106.509 118.111 107.182 119.098C107.413 119.453 107.61 119.705 107.747 119.894C107.818 119.98 107.881 120.073 107.935 120.172Z" fill="#263238"/>
<path d="M105.948 110.752C105.948 110.816 105.34 110.949 104.665 111.342C103.989 111.736 103.582 112.198 103.535 112.155C103.792 111.745 104.143 111.403 104.561 111.159C104.978 110.915 105.448 110.775 105.931 110.752H105.948Z" fill="#263238"/>
<path d="M105.548 105.261C105.001 105.411 104.466 105.603 103.948 105.834C103.465 106.131 103.005 106.463 102.57 106.827C102.888 106.325 103.331 105.916 103.857 105.642C104.383 105.367 104.972 105.235 105.565 105.261H105.548Z" fill="#263238"/>
<path d="M104.348 100.238C103.912 100.355 103.484 100.498 103.065 100.666C102.681 100.894 102.312 101.144 101.957 101.415C102.195 101.009 102.547 100.681 102.969 100.472C103.39 100.263 103.864 100.182 104.331 100.238H104.348Z" fill="#263238"/>
<path d="M103.759 95.0442C103.759 95.1041 103.224 95.2111 102.608 95.472C101.992 95.733 101.539 96.0538 101.5 96.0068C101.76 95.666 102.116 95.4112 102.522 95.2752C102.903 95.0778 103.333 94.9974 103.759 95.0442Z" fill="#263238"/>
<path d="M103.421 90.8615C103.421 90.9214 102.882 91.0241 102.266 91.315C101.65 91.6059 101.222 91.9609 101.184 91.9139C101.421 91.5509 101.769 91.2735 102.176 91.1225C102.553 90.9062 102.989 90.8148 103.421 90.8615Z" fill="#263238"/>
<path d="M163.734 114.467C163.682 114.505 163.404 114.129 162.878 113.928C162.558 113.833 162.23 113.766 161.898 113.727C162.062 113.642 162.243 113.598 162.427 113.598C162.611 113.598 162.792 113.642 162.955 113.727C163.554 113.966 163.789 114.45 163.734 114.467Z" fill="#263238"/>
<path d="M165.322 110.184C165.102 109.765 164.778 109.409 164.381 109.152C163.984 108.895 163.527 108.745 163.055 108.716C163.055 108.691 163.213 108.635 163.482 108.643C163.842 108.664 164.19 108.777 164.492 108.973C164.796 109.168 165.042 109.439 165.206 109.76C165.331 110.017 165.348 110.175 165.322 110.184Z" fill="#263238"/>
<path d="M166.516 105.474C166.218 105.143 165.848 104.885 165.433 104.721C165.019 104.557 164.573 104.491 164.129 104.529C164.129 104.507 164.266 104.43 164.522 104.396C164.859 104.354 165.2 104.399 165.515 104.524C165.829 104.649 166.107 104.851 166.323 105.111C166.486 105.312 166.537 105.466 166.516 105.474Z" fill="#263238"/>
<path d="M167.929 100.953C167.873 100.983 167.651 100.56 167.154 100.307C166.843 100.181 166.519 100.089 166.188 100.033C166.188 100.008 166.299 99.9564 166.5 99.9436C166.762 99.939 167.021 100.001 167.253 100.124C167.485 100.246 167.682 100.426 167.826 100.645C167.929 100.816 167.95 100.94 167.929 100.953Z" fill="#263238"/>
<path d="M169.571 96.7977C169.336 96.499 169.045 96.2491 168.715 96.0619C168.355 95.9289 167.973 95.865 167.59 95.8737C167.59 95.8523 167.701 95.771 167.928 95.7325C168.226 95.6963 168.529 95.7439 168.802 95.8701C169.074 95.9963 169.307 96.1961 169.472 96.4469C169.575 96.6437 169.592 96.7891 169.571 96.7977Z" fill="#263238"/>
<path d="M142.679 90.8596C142.655 90.9288 142.624 90.9949 142.584 91.0564L142.285 91.6039C142.02 92.0745 141.626 92.7547 141.13 93.5889C140.634 94.4231 140.035 95.407 139.35 96.4894C139.004 97.0284 138.64 97.5931 138.247 98.1706C137.853 98.7753 137.424 99.3567 136.963 99.9117C136.842 100.064 136.697 100.197 136.535 100.305C136.479 100.339 136.412 100.352 136.347 100.344C136.291 100.334 136.236 100.317 136.185 100.292C136.099 100.244 136.017 100.188 135.941 100.126C135.669 99.8873 135.418 99.6253 135.192 99.3427C134.764 98.8037 134.337 98.2561 133.981 97.7342C133.246 96.6819 132.621 95.7108 132.103 94.8894C131.586 94.068 131.184 93.4007 130.91 92.9301L130.602 92.3868C130.56 92.3266 130.529 92.2602 130.508 92.19C130.555 92.2448 130.598 92.3034 130.636 92.3654L130.978 92.8873C131.291 93.3665 131.714 94.0167 132.228 94.8124C132.741 95.6081 133.4 96.5792 134.14 97.6187C134.512 98.1406 134.91 98.6797 135.35 99.2101C135.57 99.4805 135.812 99.7324 136.073 99.963C136.202 100.066 136.364 100.177 136.446 100.113C136.585 100.017 136.71 99.9014 136.818 99.7705C137.276 99.2239 137.705 98.6527 138.101 98.0593C138.495 97.4861 138.863 96.9257 139.209 96.3867C139.902 95.3129 140.514 94.3376 141.027 93.5119C141.541 92.6863 141.938 92.0531 142.238 91.5654L142.576 91.0393C142.627 90.9152 142.67 90.8553 142.679 90.8596Z" fill="#263238"/>
<path d="M133.559 96.9479C133.534 96.9479 133.487 96.8025 133.504 96.5543C133.536 96.2322 133.661 95.9262 133.863 95.6731C134.061 95.4162 134.33 95.2229 134.637 95.117C134.873 95.0442 135.027 95.0571 135.031 95.0827C134.652 95.2539 134.311 95.4998 134.03 95.8057C133.795 96.1496 133.635 96.5386 133.559 96.9479Z" fill="#263238"/>
<path d="M136.385 100.318C136.12 99.2112 136.111 98.0582 136.36 96.9473C136.413 97.5075 136.423 98.071 136.39 98.6328C136.431 99.1939 136.429 99.7573 136.385 100.318Z" fill="#263238"/>
<path d="M139.565 96.0248C139.505 96.0248 139.372 95.567 138.928 95.2034C138.642 95.006 138.333 94.8451 138.008 94.7243C138.008 94.6986 138.136 94.6687 138.341 94.7029C138.608 94.751 138.857 94.8675 139.064 95.0408C139.273 95.2131 139.432 95.4374 139.526 95.6911C139.595 95.9007 139.591 96.0162 139.565 96.0248Z" fill="#263238"/>
<path d="M141.643 92.5369C141.505 92.2211 141.329 91.9236 141.117 91.6514C140.856 91.4227 140.569 91.226 140.262 91.0653C140.262 91.0396 140.394 91.0268 140.591 91.0653C140.848 91.1475 141.08 91.2949 141.263 91.4931C141.448 91.6883 141.577 91.9288 141.639 92.1904C141.691 92.4043 141.669 92.5326 141.643 92.5369Z" fill="#263238"/>
<path d="M131.435 93.7612C131.409 93.7612 131.341 93.6029 131.332 93.3334C131.326 92.9576 131.415 92.5864 131.593 92.2554C131.77 91.9234 132.028 91.641 132.342 91.434C132.586 91.2843 132.77 91.25 132.77 91.2714C132.353 91.5423 132.012 91.9142 131.778 92.3525C131.544 92.7909 131.424 93.2814 131.431 93.7783L131.435 93.7612Z" fill="#263238"/>
<g opacity="0.4">
<path opacity="0.4" d="M125.422 79.9642C126.338 83.4807 127.869 89.2089 129.525 93.6879C129.586 93.8989 129.694 94.0934 129.841 94.2568C130.269 94.6547 130.983 94.4108 131.381 93.9873C131.718 93.5514 132.02 93.0894 132.284 92.6055C132.419 92.3652 132.608 92.1593 132.836 92.0042C133.063 91.8491 133.324 91.7489 133.597 91.7115C133.822 91.7171 134.043 91.7721 134.244 91.8727C134.445 91.9732 134.621 92.1168 134.761 92.2933C135.037 92.6489 135.276 93.0315 135.475 93.4355C135.521 93.547 135.589 93.6478 135.676 93.7311C135.763 93.8144 135.867 93.8784 135.98 93.9189C136.037 93.9362 136.098 93.9364 136.155 93.9195C136.212 93.9025 136.263 93.8692 136.301 93.8236C136.339 93.7781 136.363 93.7223 136.37 93.6631C136.377 93.604 136.366 93.5442 136.339 93.4911L134.876 89.6923C134.876 89.6923 134.205 86.9073 131.882 87.3394C129.281 87.8228 130.462 92.1007 130.462 92.1007C130.462 92.1007 125.384 79.8145 125.422 79.9642Z" fill="black"/>
</g>
<path d="M136.414 93.6504C136.362 93.5737 136.32 93.4903 136.29 93.4023C136.213 93.2355 136.106 92.9745 135.973 92.6708C135.712 92.0034 135.344 91.0794 134.895 89.9457C134.78 89.6591 134.656 89.3597 134.523 89.0516C134.398 88.7364 134.217 88.4465 133.988 88.1961C133.726 87.9298 133.408 87.7241 133.058 87.5933C132.708 87.4625 132.333 87.4098 131.961 87.4389C131.564 87.4883 131.192 87.6552 130.891 87.918C130.614 88.2363 130.416 88.6161 130.314 89.026C130.195 89.443 130.165 89.88 130.224 90.3094C130.276 90.7675 130.358 91.2219 130.468 91.6697C130.506 91.8366 130.549 92.0034 130.587 92.1574L130.382 92.2173C129.783 90.5062 129.099 88.8976 128.466 87.456C127.832 86.0143 127.255 84.7138 126.801 83.6058C126.348 82.4979 126.014 81.6038 125.813 80.9706C125.706 80.6583 125.642 80.4102 125.595 80.2391C125.565 80.1563 125.545 80.0701 125.535 79.9824C125.575 80.0609 125.608 80.1424 125.634 80.2263C125.693 80.3931 125.77 80.6541 125.89 80.945C126.113 81.5653 126.468 82.4593 126.938 83.5459C127.409 84.6325 127.995 85.9245 128.649 87.3661C129.304 88.8078 129.988 90.4077 130.592 92.1403L130.391 92.2045C130.352 92.0462 130.309 91.8794 130.267 91.7125C130.156 91.2547 130.074 90.7903 130.023 90.3222C129.958 89.8581 129.993 89.3856 130.125 88.9361C130.239 88.495 130.456 88.0874 130.759 87.7469C131.092 87.4542 131.507 87.2706 131.948 87.2207C132.35 87.1888 132.753 87.2468 133.13 87.3903C133.507 87.5339 133.847 87.7594 134.125 88.0506C134.364 88.3217 134.552 88.6332 134.681 88.9704C134.814 89.2826 134.929 89.5864 135.045 89.873C135.473 91.0152 135.811 91.9478 136.059 92.6237C136.174 92.9317 136.264 93.1798 136.337 93.3681C136.371 93.4596 136.397 93.5541 136.414 93.6504Z" fill="#263238"/>
<g opacity="0.4">
<path opacity="0.4" d="M136.626 93.5459C136.54 93.6058 136.604 93.7641 136.707 93.7855C136.761 93.7908 136.815 93.7844 136.866 93.7666C136.917 93.7489 136.963 93.7203 137.002 93.6828C137.497 93.2071 137.913 92.6554 138.234 92.0486C138.619 91.4754 139.18 90.9278 139.868 90.9278C140.557 90.9278 141.19 91.5353 141.55 92.1727C141.909 92.8101 142.157 93.5288 142.679 94.0422C145.303 90.195 147.392 86.0084 148.886 81.5977C148.031 82.1923 147.462 83.1206 146.927 84.0147C145.538 86.3333 144.149 88.6505 142.76 90.9663C142.5 90.2742 142.1 89.6435 141.584 89.114C141.325 88.8504 141.006 88.6535 140.654 88.5403C140.303 88.427 139.929 88.4008 139.565 88.4637C138.756 88.6562 138.191 89.3878 137.798 90.1236C137.215 91.1981 136.836 92.3716 136.681 93.5844" fill="black"/>
</g>
<path d="M191.255 127.817C191.146 127.672 191.052 127.516 190.977 127.351C190.81 127.043 190.579 126.589 190.309 126.029C189.608 124.557 188.982 123.051 188.431 121.516C187.882 119.982 187.411 118.422 187.02 116.84C186.87 116.233 186.763 115.741 186.695 115.394C186.652 115.219 186.624 115.04 186.613 114.859C186.685 115.026 186.74 115.199 186.776 115.377C186.879 115.753 187.011 116.233 187.165 116.802C187.499 118.004 187.991 119.655 188.632 121.447C189.274 123.24 189.942 124.827 190.446 125.965C190.69 126.504 190.874 126.957 191.05 127.312C191.135 127.473 191.204 127.642 191.255 127.817Z" fill="#263238"/>
<path d="M187.183 127.015C187.111 126.865 187.053 126.709 187.012 126.548C186.914 126.24 186.79 125.795 186.653 125.239C185.953 122.328 185.716 119.326 185.951 116.341C185.998 115.772 186.05 115.31 186.101 114.994C186.112 114.827 186.145 114.663 186.199 114.506C186.217 114.671 186.217 114.837 186.199 115.002C186.174 115.319 186.148 115.781 186.118 116.35C185.97 119.319 186.204 122.295 186.815 125.205C186.935 125.765 187.034 126.215 187.111 126.527C187.156 126.686 187.18 126.85 187.183 127.015Z" fill="#263238"/>
<path d="M200.259 89.5645C200.371 89.5933 200.481 89.6349 200.584 89.6885L200.648 89.7185L200.584 89.7441C197.92 90.6369 195.195 91.3346 192.43 91.8318C190.043 92.2595 187.857 92.5248 186.274 92.6531C185.483 92.7173 184.841 92.7558 184.396 92.7686C184.166 92.7891 183.934 92.7891 183.703 92.7686C183.929 92.7241 184.158 92.6955 184.388 92.6831L186.261 92.4991C187.836 92.3323 190.013 92.0713 192.392 91.6179C196.362 90.8949 199.626 89.9324 200.58 89.6842V89.7356C200.466 89.6917 200.358 89.6343 200.259 89.5645Z" fill="#263238"/>
<path d="M196.574 87.7061C196.574 87.7061 196.613 87.6376 196.745 87.5991C196.841 87.5793 196.939 87.5801 197.035 87.6015C197.13 87.6229 197.219 87.6644 197.297 87.7232C197.422 87.8038 197.521 87.9182 197.583 88.053C197.645 88.1878 197.668 88.3375 197.648 88.4846C197.631 88.5746 197.594 88.6596 197.54 88.7335C197.486 88.8075 197.416 88.8686 197.336 88.9124C197.17 89.0068 196.977 89.0429 196.788 89.0151C196.6 88.9905 196.423 88.9083 196.283 88.7798C196.218 88.7156 196.167 88.639 196.132 88.5544C196.098 88.4699 196.081 88.3792 196.082 88.2878C196.092 88.1415 196.139 88.0001 196.219 87.8772C196.299 87.7543 196.41 87.6542 196.54 87.5863C196.707 87.4898 196.903 87.4578 197.092 87.4964C197.224 87.5307 197.276 87.5906 197.271 87.5991C197.046 87.5516 196.812 87.593 196.617 87.7146C196.518 87.7756 196.436 87.8596 196.377 87.9595C196.318 88.0594 196.285 88.172 196.279 88.2878C196.288 88.4245 196.348 88.5528 196.447 88.6477C196.546 88.7426 196.677 88.7973 196.814 88.8012C196.946 88.8337 197.086 88.8147 197.205 88.748C197.324 88.6813 197.414 88.5719 197.455 88.4419C197.463 88.3457 197.451 88.2489 197.42 88.1576C197.388 88.0663 197.339 87.9824 197.274 87.9111C197.209 87.8397 197.13 87.7824 197.042 87.7427C196.954 87.7031 196.859 87.6818 196.762 87.6804C196.643 87.6889 196.583 87.7274 196.574 87.7061Z" fill="#263238"/>
<path d="M133.003 96.7559C132.929 96.8293 132.85 96.8979 132.767 96.9612C132.605 97.081 132.382 97.2863 132.061 97.5002C131.171 98.1363 130.218 98.6795 129.217 99.1216C127.729 99.78 126.157 100.226 124.545 100.448C123.594 100.576 122.634 100.628 121.675 100.602C120.644 100.565 119.619 100.438 118.612 100.221C116.541 99.7547 114.676 98.9932 112.918 98.5098C112.093 98.2733 111.25 98.1073 110.398 98.0136C109.651 97.9395 108.897 97.9481 108.152 98.0392C107.074 98.1498 106.037 98.5149 105.128 99.1044C104.806 99.3382 104.496 99.588 104.199 99.8531C104.452 99.5397 104.749 99.2645 105.08 99.036C105.989 98.4094 107.038 98.0157 108.135 97.8895C108.887 97.7912 109.647 97.7754 110.402 97.8425C111.27 97.928 112.129 98.0898 112.969 98.3259C114.744 98.7879 116.609 99.5451 118.654 100.007C119.651 100.22 120.665 100.347 121.683 100.388C122.631 100.413 123.579 100.366 124.519 100.247C126.117 100.035 127.677 99.6027 129.157 98.9633C130.157 98.5404 131.114 98.0218 132.014 97.4147C132.344 97.2136 132.57 97.0211 132.742 96.9099C132.823 96.8489 132.91 96.7973 133.003 96.7559Z" fill="#FAFAFA"/>
<path d="M160.186 114.355C160.141 114.341 160.098 114.32 160.057 114.296L159.685 114.103C159.522 114.022 159.313 113.936 159.069 113.825C158.825 113.714 158.534 113.615 158.213 113.53C156.31 113.037 154.321 112.965 152.387 113.32C151.048 113.539 149.724 113.839 148.421 114.219C147.009 114.604 145.504 115.053 143.887 115.382C142.189 115.755 140.445 115.862 138.715 115.699C136.868 115.476 135.053 115.046 133.303 114.415C131.493 113.808 129.765 113.132 128.067 112.563C126.446 111.993 124.774 111.582 123.074 111.335C120.184 110.953 117.248 111.113 114.416 111.806C113.331 112.08 112.265 112.424 111.225 112.837C110.775 113.034 110.348 113.209 109.967 113.393C109.586 113.577 109.24 113.744 108.936 113.915L108.127 114.364L107.55 114.723L107.195 114.937C107.156 114.967 107.113 114.99 107.066 115.006L107.182 114.92L107.528 114.685C107.678 114.586 107.866 114.454 108.093 114.313L108.893 113.842C109.197 113.667 109.548 113.5 109.924 113.303C110.301 113.106 110.728 112.931 111.182 112.726C112.222 112.3 113.29 111.944 114.377 111.66C117.227 110.941 120.186 110.765 123.1 111.143C124.814 111.385 126.501 111.795 128.135 112.366C129.846 112.931 131.558 113.607 133.367 114.214C135.103 114.841 136.904 115.271 138.736 115.498C140.445 115.666 142.17 115.565 143.848 115.198C145.457 114.877 146.958 114.437 148.374 114.056C149.685 113.682 151.018 113.389 152.365 113.179C154.307 112.832 156.302 112.921 158.205 113.44C158.543 113.534 158.829 113.662 159.082 113.757C159.334 113.851 159.531 113.962 159.694 114.052L160.053 114.266C160.147 114.326 160.19 114.351 160.186 114.355Z" fill="#FAFAFA"/>
<path d="M138.629 96.4361C138.989 96.5373 139.355 96.6173 139.724 96.6756C140.735 96.7895 141.759 96.7082 142.74 96.4361C144.187 95.9929 145.606 95.4614 146.988 94.8447C147.825 94.5048 148.693 94.2469 149.58 94.0747C150.536 93.9043 151.508 93.8482 152.477 93.9078C154.345 94.0295 156.18 94.4633 157.905 95.1912C159.308 95.7833 160.661 96.4856 161.952 97.2917C163.06 97.9676 163.929 98.575 164.519 98.9643C164.806 99.1611 165.032 99.3194 165.203 99.4435C165.286 99.4948 165.363 99.5535 165.434 99.6189C165.345 99.5812 165.261 99.5338 165.182 99.4777L164.476 99.0499C163.86 98.6649 162.983 98.0959 161.867 97.4371C160.571 96.657 159.219 95.9722 157.824 95.388C156.116 94.6703 154.303 94.2367 152.455 94.1046C151.503 94.0488 150.547 94.1019 149.606 94.2629C148.729 94.4325 147.869 94.6846 147.039 95.0158C145.448 95.6318 144.045 96.2992 142.761 96.5687C141.763 96.8345 140.721 96.8942 139.698 96.7441C139.329 96.6947 138.968 96.5909 138.629 96.4361Z" fill="#FAFAFA"/>
<path d="M163.635 85.7047C163.438 85.7817 163.235 85.8431 163.028 85.8887C162.827 85.9443 162.6 86.0042 162.301 86.0598C162.001 86.1154 161.693 86.1924 161.329 86.2437C160.48 86.3863 159.623 86.4792 158.763 86.5218C157.722 86.5744 156.679 86.563 155.64 86.4876C154.593 86.3932 153.553 86.2332 152.525 86.0084C151.687 85.8219 150.86 85.5877 150.049 85.3068C149.702 85.1956 149.398 85.063 149.125 84.9603C148.851 84.8577 148.624 84.755 148.44 84.6694C148.243 84.5903 148.052 84.4944 147.871 84.3828C148.076 84.4356 148.277 84.5058 148.47 84.5924C148.663 84.6694 148.898 84.7593 149.167 84.8491C149.437 84.939 149.749 85.063 150.096 85.1657C150.789 85.3881 151.627 85.6149 152.564 85.8202C154.606 86.2543 156.694 86.4311 158.78 86.3464C159.738 86.3036 160.602 86.2223 161.321 86.1197C161.685 86.0769 162.005 86.0127 162.292 85.9657C162.579 85.9186 162.822 85.8715 163.019 85.8288C163.22 85.767 163.426 85.7255 163.635 85.7047Z" fill="#FAFAFA"/>
<path d="M103.391 88.4513C103.447 88.3917 103.508 88.3373 103.575 88.2887C103.703 88.1861 103.891 88.0321 104.139 87.8609C104.631 87.4845 105.35 86.954 106.278 86.338C108.661 84.6939 111.271 83.4056 114.026 82.5135C116.797 81.632 119.74 81.4266 122.607 81.9146C123.47 82.0731 124.315 82.3152 125.131 82.6376C125.422 82.7445 125.636 82.86 125.786 82.9242C125.862 82.9548 125.935 82.9935 126.004 83.0397C126.004 83.0397 125.683 82.9242 125.105 82.7146C124.286 82.4218 123.441 82.2042 122.581 82.0644C119.737 81.6248 116.83 81.8473 114.085 82.7146C111.36 83.6077 108.77 84.8685 106.385 86.4621C105.457 87.061 104.721 87.5743 104.216 87.9294L103.63 88.3572C103.555 88.3997 103.475 88.4314 103.391 88.4513Z" fill="#FAFAFA"/>
<path d="M157.231 133.315C157.194 133.332 157.153 133.344 157.112 133.349L156.752 133.426C156.558 133.47 156.361 133.5 156.162 133.516L155.785 133.558H155.358C154.13 133.61 152.363 133.293 150.28 132.626C149.236 132.301 148.107 131.899 146.879 131.535C145.574 131.147 144.234 130.888 142.879 130.761C140.008 130.487 136.834 130.833 133.566 131.428C130.298 132.023 127.192 132.763 124.317 133.105C121.772 133.462 119.191 133.478 116.642 133.152C114.924 132.927 113.253 132.423 111.697 131.659L110.978 131.283L110.465 130.979L110.157 130.778L110.059 130.705C110.098 130.718 110.136 130.736 110.17 130.761L110.486 130.94L111 131.244L111.723 131.603C113.283 132.331 114.947 132.81 116.655 133.024C119.191 133.323 121.755 133.292 124.283 132.93C127.145 132.574 130.233 131.83 133.519 131.218C136.804 130.607 139.991 130.277 142.887 130.568C144.254 130.701 145.604 130.969 146.917 131.368C148.149 131.74 149.279 132.147 150.314 132.48C151.929 133.079 153.628 133.415 155.349 133.477H155.777L156.153 133.443C156.352 133.435 156.549 133.412 156.744 133.374L157.103 133.319L157.231 133.315Z" fill="#FAFAFA"/>
<g opacity="0.3">
<path opacity="0.3" d="M119.544 136.26C121.482 141.098 125.234 144.533 130.397 145.243C135.561 145.954 140.784 144.773 145.798 143.404C136.656 142.121 128.566 140.859 119.531 136.26" fill="black"/>
</g>
<path d="M158.538 149.565L158.414 149.518L158.05 149.364L156.669 148.748C155.462 148.222 153.738 147.409 151.586 146.477C150.416 145.965 149.204 145.554 147.963 145.249C146.54 144.909 145.065 144.841 143.617 145.048C142.834 145.163 142.062 145.339 141.306 145.574C140.521 145.82 139.749 146.105 138.992 146.43C137.448 147.106 135.912 147.944 134.329 148.791C132.798 149.641 131.208 150.382 129.572 151.007C128.042 151.595 126.424 151.923 124.785 151.978C123.297 151.996 121.821 151.704 120.452 151.123C119.274 150.616 118.131 150.033 117.029 149.377C116.007 148.791 115.087 148.261 114.253 147.854C113.541 147.496 112.801 147.195 112.041 146.956C111.761 146.864 111.475 146.788 111.186 146.729C110.98 146.675 110.772 146.635 110.561 146.609L110.172 146.545C110.127 146.542 110.082 146.534 110.039 146.519C110.083 146.513 110.128 146.513 110.172 146.519L110.565 146.562C110.778 146.581 110.99 146.616 111.198 146.665C111.487 146.716 111.773 146.785 112.054 146.87C112.822 147.094 113.57 147.38 114.291 147.726C115.147 148.124 116.067 148.65 117.089 149.223C118.191 149.867 119.335 150.439 120.511 150.934C121.866 151.497 123.322 151.775 124.789 151.751C126.401 151.688 127.991 151.358 129.495 150.776C131.113 150.151 132.686 149.413 134.201 148.569C135.779 147.713 137.319 146.883 138.877 146.207C139.641 145.872 140.422 145.578 141.217 145.326C141.984 145.094 142.768 144.92 143.561 144.804C145.032 144.599 146.529 144.674 147.972 145.026C149.222 145.346 150.442 145.775 151.616 146.31C153.755 147.264 155.466 148.094 156.673 148.646L158.037 149.296L158.393 149.471C158.5 149.54 158.542 149.561 158.538 149.565Z" fill="#FAFAFA"/>
</svg>
