<svg width="260" height="180" viewBox="0 0 260 180" fill="none" xmlns="http://www.w3.org/2000/svg">
<path d="M41.6106 171.88C49.875 165.114 50.9438 153.745 49.7735 143.701C49.5764 142.023 49.6182 140.238 48.6867 138.829C47.7551 137.419 45.7846 136.565 44.3157 137.401C43.1214 138.094 42.6676 139.593 42.0585 140.853C41.2396 142.546 39.9607 143.973 38.3682 144.973C37.3292 145.618 36.0155 146.066 34.8929 145.57C33.3583 144.89 33.0239 142.901 32.8985 141.229C32.6596 138.112 32.4248 134.993 32.1939 131.872C32.1546 130.191 31.844 128.528 31.2743 126.946C30.6174 125.405 29.3336 124.026 27.6915 123.715C26.0494 123.405 24.1087 124.48 23.9176 126.146C23.9099 126.844 23.9498 127.542 24.037 128.235C24.071 128.582 24.0032 128.931 23.842 129.239C23.6808 129.548 23.4332 129.803 23.1294 129.973C22.4725 130.224 21.756 129.806 21.2066 129.376C19.3197 127.835 17.9522 125.757 16.6684 123.685C15.3846 121.613 14.1246 119.505 12.387 117.774C10.6493 116.042 8.33243 114.788 5.89613 114.848C3.45983 114.907 0.993673 116.609 0.57568 119.028C0.157687 121.446 1.74009 123.715 3.41206 125.495C5.90227 128.123 8.758 130.38 11.8913 132.194C12.4918 132.462 12.9916 132.914 13.3185 133.484C13.7783 134.571 12.799 135.765 11.7182 136.225C10.4881 136.745 9.10274 136.727 7.79502 136.989C6.48729 137.252 5.10195 137.945 4.70187 139.217C4.15251 141.008 5.74685 142.656 7.26357 143.713C10.3202 145.83 13.7145 147.411 17.3014 148.389C18.5852 148.735 19.9288 149.022 21.0036 149.804C22.0784 150.586 22.795 152.037 22.2994 153.267C21.8038 154.497 20.2631 154.999 18.9375 154.868C17.6119 154.736 16.3878 154.133 15.1039 153.775C12.7154 153.1 9.72972 153.506 8.38021 155.614C7.98115 156.333 7.75649 157.135 7.72434 157.957C7.69219 158.778 7.85344 159.596 8.19509 160.343C8.89017 161.83 9.87708 163.162 11.0972 164.26C15.1616 168.342 20.2337 171.276 25.7986 172.764C31.3519 174.167 36.3977 174.256 41.6106 171.88Z" fill="#EBEBEB"/>
<path d="M42.3321 179.341C41.4738 174.709 40.1679 170.171 38.4329 165.792C36.2889 160.442 33.8345 155.222 31.0822 150.159L28.9265 146.17C28.2219 144.856 27.5233 143.554 26.7589 142.324C25.2942 139.966 23.6993 137.692 21.9819 135.511C20.3517 133.415 18.7215 131.48 17.2048 129.689C15.6881 127.898 14.2191 126.255 12.8039 124.81C10.6018 122.526 8.22388 120.417 5.69207 118.505C4.79637 117.824 4.07982 117.31 3.59614 116.988L3.0408 116.606C2.97739 116.562 2.9116 116.522 2.84375 116.486C2.84375 116.486 2.90346 116.54 3.02289 116.63L3.56628 117.03C4.04399 117.376 4.76055 117.89 5.63236 118.582C8.13523 120.52 10.4886 122.644 12.6726 124.936C14.0639 126.381 15.5209 128.029 17.0495 129.826C18.5782 131.624 20.1905 133.558 21.8266 135.654C23.5435 137.831 25.1383 140.102 26.6037 142.456C27.362 143.68 28.0547 144.976 28.7593 146.289L30.8971 150.284C33.6265 155.34 36.0706 160.546 38.2179 165.875C39.955 170.239 41.2746 174.758 42.159 179.37" fill="#E0E0E0"/>
<path d="M26.7095 142.294C26.7655 142.055 26.7975 141.811 26.805 141.565C26.8528 141.099 26.9006 140.413 26.9483 139.571C27.0498 137.887 27.1096 135.558 27.1693 133.002C27.229 130.446 27.3245 128.106 27.4619 126.434C27.5216 125.592 27.5873 124.917 27.635 124.445C27.6698 124.204 27.6858 123.961 27.6828 123.717C27.609 123.95 27.559 124.19 27.5335 124.433C27.4559 124.899 27.3663 125.58 27.2827 126.416C27.0976 128.1 26.9722 130.429 26.9125 132.984C26.8528 135.54 26.811 137.839 26.7752 139.553C26.7453 140.359 26.7274 141.034 26.7095 141.547C26.6854 141.795 26.6854 142.045 26.7095 142.294Z" fill="#E0E0E0"/>
<path d="M4.59766 140.072H4.82457H5.47544C6.03675 140.072 6.84885 140.072 7.86397 140.102C9.87631 140.143 12.641 140.299 15.7163 140.615C18.7915 140.932 21.5264 141.338 23.5089 141.69C24.5001 141.863 25.3003 142.018 25.8556 142.126L26.4885 142.251C26.6378 142.251 26.7155 142.287 26.7155 142.251C26.6483 142.216 26.5756 142.192 26.5005 142.18L25.8735 142.007C25.3301 141.869 24.53 141.684 23.5387 141.493C21.5622 141.093 18.8034 140.657 15.7402 140.335C12.6769 140.012 9.88825 139.893 7.86397 139.899C6.85482 139.899 6.07257 139.899 5.47544 139.952L4.83054 139.994C4.74931 140.008 4.67071 140.034 4.59766 140.072Z" fill="#E0E0E0"/>
<path d="M38.1602 165.41C38.2071 165.32 38.247 165.226 38.2796 165.13C38.3632 164.921 38.4587 164.652 38.5841 164.324C38.8469 163.619 39.1813 162.586 39.6231 161.338C40.4651 158.788 41.522 155.229 42.6446 151.282C43.7672 147.335 44.7883 143.776 45.5885 141.215C45.9886 139.961 46.311 138.933 46.5499 138.181C46.6574 137.847 46.741 137.584 46.8066 137.357C46.8433 137.263 46.8693 137.165 46.8843 137.064C46.831 137.15 46.7889 137.243 46.7589 137.339C46.6812 137.554 46.5797 137.823 46.4543 138.151C46.1916 138.856 45.8572 139.883 45.4213 141.137C44.5734 143.687 43.5164 147.246 42.3998 151.193C41.2832 155.14 40.274 158.711 39.45 161.26C39.0559 162.514 38.7274 163.541 38.4945 164.288C38.3871 164.628 38.3035 164.885 38.2318 165.118C38.1984 165.213 38.1744 165.311 38.1602 165.41Z" fill="#E0E0E0"/>
<path d="M8.45703 158.582C8.54951 158.626 8.64815 158.657 8.74963 158.672L9.61547 158.875L12.8042 159.603C15.4913 160.2 19.1935 161.114 23.2838 162.117C27.3742 163.12 31.0824 163.992 33.7814 164.565C35.131 164.852 36.2237 165.073 36.9821 165.21L37.8539 165.365C37.9559 165.389 38.0598 165.403 38.1644 165.407C38.0695 165.364 37.969 165.334 37.8658 165.318L37 165.115L33.8173 164.386C31.1302 163.789 27.4279 162.875 23.3436 161.872C19.2592 160.869 15.545 159.997 12.846 159.424C11.4964 159.137 10.4037 158.916 9.64532 158.779L8.76754 158.618C8.66519 158.597 8.56134 158.585 8.45703 158.582Z" fill="#E0E0E0"/>
<path d="M120.056 1.25291L76.8828 14.2383L85.6355 43.3386L128.808 30.3532L120.056 1.25291Z" fill="white"/>
<path d="M128.813 30.3256C128.813 30.3256 128.747 30.1405 128.64 29.7941C128.532 29.4478 128.371 28.9223 128.162 28.2535C127.75 26.904 127.141 24.9275 126.371 22.4076C124.83 17.3499 122.627 10.0947 119.94 1.26313L120.095 1.34672L76.9342 14.3821L77.0417 14.1851L85.7837 43.2893L85.6045 43.1938L116.703 33.9084L125.606 31.275L127.995 30.5764L128.592 30.3972L128.807 30.3435L128.616 30.4092L128.019 30.6003L125.678 31.3168L116.829 34.0218L85.6822 43.4625L85.5448 43.5043L85.503 43.367C82.8338 34.4995 79.8601 24.6409 76.7371 14.2687L76.6953 14.1194L76.8386 14.0776L120.017 1.11981L120.137 1.08398L120.173 1.20341C122.818 10.0828 124.985 17.3738 126.502 22.4554C127.243 24.9753 127.828 26.9458 128.222 28.3013C128.419 28.9581 128.562 29.4657 128.67 29.824C128.777 30.1823 128.813 30.3256 128.813 30.3256Z" fill="#E0E0E0"/>
<path d="M120.059 1.2447C120.044 1.29024 120.024 1.33421 120 1.37607L119.797 1.74629C119.6 2.08666 119.331 2.55839 118.997 3.15553L115.981 8.33267L105.866 25.4883L105.794 25.6017L105.674 25.554L104.355 25.0464L84.9062 17.4569L79.0244 15.128L77.4361 14.4772L77.0241 14.304C76.9748 14.2875 76.9284 14.2634 76.8867 14.2323C76.9387 14.2368 76.9893 14.251 77.036 14.2741L77.454 14.4174L79.0722 15.0146L84.9838 17.2538L104.462 24.7538L105.788 25.2674L105.597 25.333C109.598 18.6153 113.192 12.5962 115.796 8.21921L118.895 3.09581C119.253 2.49868 119.54 2.05083 119.743 1.71047L119.976 1.35816C120.024 1.28053 120.053 1.23873 120.059 1.2447Z" fill="#E0E0E0"/>
<path d="M245.688 117.507C245.688 117.507 242.887 114.736 237.429 121.657C234.568 125.16 231.941 128.849 229.565 132.698C229.565 132.698 228.203 134.107 227.308 132.829C226.412 131.551 225.487 128.255 223.492 128.422C221.498 128.59 220.351 130.644 220.082 133.922C219.814 137.2 218.972 144.372 218.888 145.017C218.805 145.662 218.291 146.504 217.521 145.733C216.75 144.963 212.875 138.406 209.86 140.425C206.844 142.443 207.608 151.723 207.674 152.732C207.74 153.741 207.465 154.123 206.963 154.266C206.462 154.41 205.357 152.081 204.169 150.26C202.981 148.438 201.291 146.521 199.655 147.841C198.018 149.161 196.281 155.652 200.413 167.576L202.688 172.951L208.51 173.781C221.092 174.79 226.944 171.488 227.809 169.571C228.675 167.654 226.406 166.496 224.34 165.803C222.274 165.11 219.742 164.609 219.76 164.101C219.778 163.594 220.071 163.223 221.068 163.032C222.065 162.841 231.219 161.241 232.413 157.831C233.608 154.422 226.293 152.284 225.355 151.746C224.418 151.209 225.11 150.475 225.707 150.242C226.305 150.009 233.04 147.387 236.151 146.312C239.262 145.238 240.976 143.673 240.624 141.631C240.272 139.589 236.862 139.595 235.399 139.039C233.936 138.484 234.963 136.824 234.963 136.824C238.109 133.568 241.035 130.107 243.723 126.464C249.055 119.442 245.58 117.393 245.58 117.393" fill="#EBEBEB"/>
<path d="M240.763 123.67C240.736 123.723 240.704 123.773 240.667 123.82L240.362 124.25C240.076 124.632 239.676 125.175 239.168 125.868C238.123 127.271 236.6 129.289 234.702 131.774C230.91 136.742 225.607 143.561 219.72 151.061L204.66 170.295L200.116 176.14L198.874 177.723L198.545 178.129C198.468 178.218 198.432 178.266 198.426 178.26C198.453 178.207 198.485 178.157 198.521 178.111L198.826 177.687L200.02 176.063C201.059 174.66 202.588 172.641 204.481 170.157C208.273 165.189 213.581 158.37 219.475 150.87C225.368 143.37 230.665 136.574 234.528 131.636C236.433 129.182 237.986 127.194 239.073 125.796C239.598 125.121 240.016 124.602 240.309 124.208L240.643 123.802C240.715 123.712 240.757 123.664 240.763 123.67Z" fill="#E0E0E0"/>
<path d="M224.602 133.088C224.732 133.6 224.806 134.124 224.823 134.652C224.912 135.62 224.99 136.963 225.043 138.45C225.097 139.937 225.121 141.167 225.151 142.248C225.195 142.772 225.195 143.3 225.151 143.824C225.022 143.312 224.949 142.788 224.936 142.26C224.858 141.287 224.793 139.943 224.739 138.462C224.685 136.981 224.649 135.745 224.608 134.664C224.56 134.14 224.558 133.613 224.602 133.088Z" fill="#E0E0E0"/>
<path d="M225.652 144.032C227.696 143.702 229.754 143.477 231.821 143.357C235.23 143.076 238.007 142.915 238.013 142.999C235.969 143.325 233.911 143.548 231.845 143.667C228.435 143.954 225.664 144.115 225.652 144.032Z" fill="#E0E0E0"/>
<path d="M215.746 155.545C216.282 155.586 216.813 155.672 217.334 155.802C218.314 155.987 219.657 156.244 221.15 156.482C222.643 156.721 223.998 156.9 224.984 157.026C225.521 157.069 226.054 157.154 226.578 157.283C226.041 157.329 225.5 157.317 224.966 157.247C223.969 157.175 222.577 157.032 221.102 156.787C219.627 156.542 218.254 156.255 217.287 156.017C216.758 155.915 216.241 155.757 215.746 155.545Z" fill="#E0E0E0"/>
<path d="M212.613 145.859C212.861 146.292 213.061 146.751 213.21 147.227C213.527 148.093 213.951 149.287 214.405 150.613C214.859 151.938 215.241 153.144 215.509 154.028C215.678 154.495 215.802 154.977 215.88 155.467C215.628 155.034 215.428 154.573 215.282 154.094C214.96 153.234 214.542 152.04 214.088 150.714C213.634 149.388 213.252 148.176 212.984 147.298C212.808 146.834 212.684 146.351 212.613 145.859Z" fill="#E0E0E0"/>
<path d="M202.578 154.912C202.866 155.48 203.109 156.069 203.307 156.674C203.719 157.778 204.268 159.307 204.859 161.003C205.45 162.699 205.964 164.239 206.328 165.356C206.553 165.953 206.726 166.569 206.848 167.195C206.555 166.619 206.311 166.02 206.119 165.404C205.707 164.305 205.158 162.776 204.567 161.08C203.975 159.385 203.456 157.844 203.098 156.721C202.874 156.134 202.7 155.529 202.578 154.912Z" fill="#E0E0E0"/>
<path d="M206.828 166.871C207.508 166.91 208.185 166.998 208.852 167.134C210.094 167.331 211.838 167.6 213.719 167.85C215.6 168.101 217.35 168.292 218.598 168.448C219.278 168.492 219.954 168.582 220.622 168.716C219.941 168.758 219.258 168.742 218.58 168.668C217.32 168.585 215.594 168.43 213.677 168.173C211.76 167.916 210.047 167.618 208.811 167.373C208.137 167.26 207.474 167.092 206.828 166.871Z" fill="#E0E0E0"/>
<path d="M219.329 58.7565L217.914 105.066L251.756 106.1L253.171 59.7904L219.329 58.7565Z" fill="#F5F5F5"/>
<path d="M213.098 64.9127L211.684 111.223L245.525 112.257L246.94 65.9467L213.098 64.9127Z" fill="white"/>
<path d="M245.518 112.248C245.514 112.172 245.514 112.097 245.518 112.021C245.518 111.866 245.518 111.651 245.518 111.37C245.518 110.773 245.548 109.937 245.578 108.838C245.638 106.623 245.721 103.404 245.829 99.3259C246.062 91.1751 246.39 79.6206 246.778 65.9403L246.915 66.0836L213.076 65.0625L213.237 64.9132C212.694 82.23 212.198 98.2272 211.792 111.221L211.667 111.089L236.245 111.908L243.082 112.146L244.873 112.218L245.5 112.248H244.903L243.112 112.206L236.304 112.033L211.649 111.346H211.523V111.221C211.912 98.2212 212.389 82.2061 212.909 64.9072V64.752H213.07L246.904 65.8029H247.047V65.9462C246.599 79.6803 246.223 91.2527 245.954 99.4215C245.817 103.482 245.703 106.695 245.632 108.898C245.59 109.985 245.56 110.821 245.536 111.4C245.536 111.675 245.536 111.89 245.506 112.039C245.476 112.188 245.518 112.248 245.518 112.248Z" fill="#E0E0E0"/>
<path d="M233.742 75.6246C233.742 75.7142 230.058 75.6664 225.519 75.5291C220.981 75.3918 217.297 75.2067 217.297 75.1231C217.297 75.0395 220.987 75.0813 225.525 75.2186C230.064 75.3559 233.742 75.541 233.742 75.6246Z" fill="#E0E0E0"/>
<path d="M242.485 79.9231C242.485 80.0067 236.812 79.9231 229.814 79.6903C222.815 79.4574 217.142 79.2305 217.148 79.1469C217.154 79.0633 222.821 79.1469 229.826 79.3798C236.83 79.6126 242.491 79.8336 242.485 79.9231Z" fill="#E0E0E0"/>
<path d="M242.362 84.1224C242.362 84.206 236.683 84.1224 229.685 83.8895C222.686 83.6566 217.02 83.4297 217.02 83.3461C217.02 83.2625 222.698 83.3461 229.697 83.579C236.695 83.8119 242.362 84.0328 242.362 84.1224Z" fill="#E0E0E0"/>
<path d="M242.231 88.3177C242.231 88.4013 236.558 88.3177 229.56 88.0848C222.561 87.8519 216.895 87.625 216.895 87.5414C216.895 87.4578 222.573 87.5414 229.572 87.7743C236.57 88.0072 242.237 88.246 242.231 88.3177Z" fill="#E0E0E0"/>
<path d="M242.104 92.5169C242.104 92.6005 236.425 92.5169 229.433 92.284C222.44 92.0511 216.762 91.8242 216.762 91.7406C216.762 91.657 222.44 91.7406 229.439 91.9735C236.437 92.2064 242.104 92.4273 242.104 92.5169Z" fill="#E0E0E0"/>
<path d="M241.975 96.7161C241.975 96.7997 236.296 96.7161 229.298 96.4832C222.3 96.2504 216.633 96.0234 216.633 95.9398C216.633 95.8562 222.312 95.9398 229.31 96.1727C236.308 96.4056 241.975 96.6086 241.975 96.7161Z" fill="#E0E0E0"/>
<path d="M241.848 100.913C241.848 100.997 236.169 100.913 229.177 100.68C222.184 100.448 216.506 100.221 216.512 100.137C216.518 100.054 222.184 100.137 229.183 100.37C236.181 100.603 241.854 100.824 241.848 100.913Z" fill="#E0E0E0"/>
<path d="M229.996 104.753C229.996 104.837 226.944 104.813 223.182 104.699C219.42 104.586 216.375 104.419 216.375 104.335C216.375 104.251 219.426 104.275 223.188 104.389C226.95 104.502 229.996 104.663 229.996 104.753Z" fill="#E0E0E0"/>
<path d="M145.281 22.5427L134.691 49.1387L167.956 62.3829L178.545 35.7869L145.281 22.5427Z" fill="white"/>
<path d="M178.544 35.7884L178.383 35.7287L177.917 35.5495L176.126 34.833L169.301 32.116L145.26 22.5619L145.332 22.532L134.751 49.1223L134.715 49.0388L167.975 62.2951H167.909C171.11 54.2816 173.767 47.6415 175.618 43.0017C176.55 40.6849 177.278 38.8636 177.774 37.6275L178.371 36.2123L178.568 35.7227L178.383 36.2064C178.258 36.5288 178.073 37.0006 177.828 37.6156C177.338 38.8576 176.634 40.6789 175.702 42.9898C173.857 47.6355 171.212 54.2935 168.029 62.325V62.3727H167.981L134.673 49.194H134.613V49.1343C138.441 39.5324 142.054 30.456 145.206 22.544V22.4902H145.254L169.354 32.116L176.144 34.8389L177.935 35.5555L178.395 35.7406L178.544 35.7884Z" fill="#E0E0E0"/>
<path d="M145.739 24.7021L136.484 47.9473L167.413 60.2616L176.668 37.0164L145.739 24.7021Z" fill="#EBEBEB"/>
<path d="M136.605 48.0184L153.164 37.8672L156.257 49.571L162.718 46.5495L167.537 60.3313L136.605 48.0184Z" fill="#E0E0E0"/>
<path d="M163.397 39.8798C163.205 40.3617 162.875 40.7758 162.447 41.0699C162.02 41.3639 161.515 41.5246 160.997 41.5316C160.478 41.5387 159.969 41.3918 159.534 41.1094C159.099 40.8271 158.758 40.4221 158.553 39.9456C158.348 39.4692 158.289 38.9427 158.384 38.4327C158.478 37.9228 158.722 37.4524 159.084 37.0809C159.446 36.7095 159.91 36.4538 160.417 36.3462C160.924 36.2385 161.452 36.2838 161.934 36.4762C162.254 36.6032 162.545 36.792 162.792 37.0319C163.039 37.2719 163.236 37.5581 163.372 37.8743C163.508 38.1905 163.58 38.5304 163.584 38.8746C163.589 39.2187 163.525 39.5603 163.397 39.8798Z" fill="#E0E0E0"/>
<path d="M59.6496 76.8174C59.8744 76.9101 60.1177 76.949 60.3602 76.9309C60.6508 76.8975 60.9209 76.7646 61.1245 76.5547C61.3608 76.2276 61.5705 75.8822 61.7515 75.5216L65.6269 68.7621L66.9167 66.5288L67.6034 65.3345C67.723 65.1442 67.8268 64.9445 67.9139 64.7374C67.9767 64.5311 67.9767 64.3108 67.9139 64.1044C67.8602 63.8921 67.7412 63.702 67.5736 63.5611C67.3822 63.4256 67.1828 63.302 66.9764 63.1908L65.6448 62.4504L62.8741 60.8978L50.5374 53.9771C50.294 53.8469 50.011 53.8115 49.7431 53.8776C49.4751 53.9438 49.2412 54.1069 49.0863 54.3354L48.1608 55.9237C47.5637 56.9747 46.9665 58.0197 46.3694 59.0408L42.906 64.9583C42.7687 65.1912 42.6313 65.4241 42.5 65.657C42.3669 65.8587 42.2982 66.0961 42.3029 66.3377C42.3123 66.5736 42.3983 66.7999 42.5477 66.9826C42.7173 67.1584 42.9204 67.2985 43.1449 67.3946L45.7543 68.8755L50.4239 71.5268L57.1835 75.3903L59.0167 76.4531L59.4884 76.7338C59.5959 76.7995 59.6496 76.8353 59.6437 76.8413L59.4765 76.7637L58.9868 76.5069L57.1297 75.4918L50.3164 71.7179L45.6469 69.0726L43.0314 67.6096C42.778 67.4977 42.5488 67.3375 42.3567 67.1379C42.1701 66.9072 42.0632 66.6223 42.0521 66.3258C42.0393 66.0303 42.1186 65.7382 42.279 65.4898C42.4104 65.2569 42.5477 65.024 42.6851 64.7911L46.1066 58.8855L47.898 55.7685L48.8355 54.1622C49.0332 53.8692 49.3326 53.66 49.6756 53.575C50.0187 53.4901 50.3811 53.5355 50.6926 53.7024L63.0174 60.647L65.7881 62.2115L67.1078 62.9639C67.3357 63.0798 67.5552 63.2115 67.7647 63.358C67.9729 63.5357 68.121 63.7735 68.1886 64.0388C68.2603 64.2925 68.2603 64.5612 68.1886 64.815C68.0935 65.0411 67.9796 65.2588 67.8483 65.4659L67.1496 66.6602L65.8479 68.8875C64.1819 71.7059 62.8323 73.993 61.8889 75.5993C61.693 75.9604 61.4694 76.3057 61.2201 76.6323C60.9978 76.8501 60.7062 76.9832 60.396 77.0085C60.2084 77.0223 60.0202 76.9916 59.8467 76.9189C59.7766 76.8943 59.7103 76.8602 59.6496 76.8174Z" fill="#E0E0E0"/>
<path d="M56.4945 64.5775L57.9992 67.2467L54.8942 67.3064L51.7891 67.3601L53.3894 64.6312L54.9897 61.9023L56.4945 64.5775Z" fill="#E0E0E0"/>
<path d="M259.004 178.415C259.004 178.505 201.888 178.576 131.456 178.576C61.0243 178.576 3.89062 178.517 3.89062 178.415C3.89062 178.314 60.9944 178.248 131.456 178.248C201.918 178.248 259.004 178.338 259.004 178.415Z" fill="#263238"/>
<path d="M67.0235 140.489L48.9961 122.378L58.0606 105.73C67.125 94.1221 86.3169 94.8685 86.3169 94.8685C95.7851 94.225 105.297 94.809 114.615 96.6062C129.86 99.5919 128.63 109.66 128.63 109.66L130.672 147.022L132.863 177.446L76.6433 178.581L67.0235 140.513" fill="#FFC246"/>
<path d="M97.3124 176.802L46.9562 177.399C44.1821 177.432 41.4454 176.758 39.0031 175.442C36.5607 174.127 34.4929 172.212 32.9938 169.877C31.4947 167.543 30.6136 164.866 30.4331 162.098C30.2526 159.329 30.7788 156.561 31.9621 154.051L53.4948 114.121L73.1106 127.377L59.7288 155.126L100.489 155.855L97.3124 176.802Z" fill="#FFC246"/>
<path d="M126.855 103.566L167.263 165.955L143.689 167.495C143.689 167.495 129.608 145.312 129.925 145.766C130.486 146.602 126.855 103.566 126.855 103.566Z" fill="#FFC246"/>
<path d="M72.0955 130.964C72.097 130.854 72.1151 130.746 72.1493 130.641C72.209 130.403 72.2747 130.104 72.3642 129.734C72.5494 128.951 72.824 127.817 73.1047 126.408C73.3853 124.998 73.7018 123.303 73.8989 121.416C74.1414 119.371 74.1414 117.304 73.8989 115.259C73.5749 113.231 72.8676 111.284 71.8149 109.521C70.9688 108.069 69.9677 106.714 68.8292 105.478C68.0618 104.634 67.2443 103.836 66.381 103.09C66.0519 102.832 65.7369 102.557 65.4375 102.266C65.5347 102.314 65.6267 102.372 65.7122 102.439C65.8794 102.564 66.1481 102.737 66.4586 102.994C67.3565 103.703 68.2026 104.475 68.9904 105.305C70.1674 106.531 71.2011 107.888 72.0716 109.348C73.1614 111.138 73.8916 113.124 74.2213 115.194C74.4578 117.264 74.4417 119.355 74.1736 121.422C73.9719 123.103 73.6849 124.773 73.3137 126.426C73.0032 127.841 72.7165 128.969 72.4717 129.746C72.3642 130.134 72.2687 130.432 72.203 130.635C72.1779 130.748 72.1419 130.858 72.0955 130.964Z" fill="#263238"/>
<path d="M70.4742 133.113C70.388 133.424 70.272 133.726 70.1279 134.015C69.889 134.612 69.5308 135.412 69.071 136.403C68.1574 138.428 66.8616 141.21 65.3687 144.256C63.8759 147.301 62.4667 150.03 61.4217 152.018C60.8962 152.998 60.4663 153.81 60.1617 154.329C60.0163 154.619 59.8486 154.896 59.6602 155.159C59.7674 154.855 59.8992 154.559 60.0543 154.276C60.3588 153.679 60.7529 152.878 61.2485 151.917L65.112 144.154C66.575 141.127 67.9066 138.392 68.8978 136.344C69.3636 135.382 69.7457 134.582 70.0443 133.955C70.1638 133.663 70.3076 133.381 70.4742 133.113Z" fill="#263238"/>
<path d="M97.3109 176.799C97.3109 176.799 97.3109 176.763 97.3109 176.697C97.3109 176.632 97.3109 176.512 97.3109 176.387C97.3407 176.1 97.3825 175.7 97.4303 175.192C97.5497 174.13 97.7169 172.619 97.9259 170.714C98.3678 166.851 99.0008 161.417 99.7173 155.009L99.8606 155.165H84.9861L59.0048 155.123L51.1227 155.075L48.9789 155.045H48.4176H48.2266C48.29 155.038 48.3542 155.038 48.4176 155.045H48.9789L51.1227 155.015L59.0048 154.968L85.0279 154.926H99.9024H100.064V155.081C99.2754 161.482 98.6126 166.916 98.1349 170.774C97.8961 172.673 97.699 174.183 97.5378 175.246C97.4741 175.748 97.4203 176.146 97.3766 176.44L97.3288 176.745C97.3228 176.763 97.3168 176.799 97.3109 176.799Z" fill="#263238"/>
<path d="M60.0809 155.567C59.7203 155.168 59.3852 154.747 59.0778 154.307C57.4685 152.286 55.4757 150.604 53.2139 149.356C52.7309 149.123 52.2605 148.863 51.8047 148.58C52.3347 148.704 52.8437 148.905 53.3154 149.177C55.6711 150.341 57.7081 152.06 59.2509 154.187C59.59 154.606 59.8693 155.071 60.0809 155.567Z" fill="#263238"/>
<path d="M131.509 159.519C131.465 159.348 131.437 159.175 131.426 158.999C131.384 158.635 131.33 158.139 131.258 157.512C131.121 156.223 130.936 154.353 130.739 152.043C130.327 147.415 129.855 141.014 129.437 133.944C129.019 126.873 128.727 120.46 128.559 115.821C128.476 113.498 128.416 111.641 128.392 110.321C128.392 109.694 128.392 109.198 128.362 108.828C128.353 108.655 128.353 108.482 128.362 108.309C128.395 108.48 128.413 108.654 128.416 108.828C128.416 109.192 128.464 109.694 128.5 110.321C128.565 111.647 128.655 113.516 128.768 115.809C128.989 120.448 129.318 126.85 129.736 133.926C130.154 141.002 130.596 147.391 130.93 152.025C131.109 154.312 131.252 156.205 131.354 157.506C131.402 158.103 131.438 158.629 131.467 158.993C131.497 159.167 131.511 159.343 131.509 159.519Z" fill="#263238"/>
<path d="M86.5607 125.572C86.5633 125.298 86.5852 125.024 86.6264 124.754C86.698 124.186 86.7876 123.428 86.9011 122.496C87.1638 120.526 87.4982 117.827 87.9401 114.698L88.167 114.841L84.3035 117.546L80.3744 120.281L80.0938 120.478L80.1415 120.138C80.6192 117.039 81.0253 114.363 81.3358 112.375C81.491 111.461 81.6105 110.709 81.706 110.148C81.7381 109.879 81.794 109.613 81.8732 109.354C81.8736 109.626 81.8496 109.898 81.8016 110.166C81.7299 110.727 81.6403 111.479 81.5209 112.405C81.2522 114.363 80.876 117.045 80.4461 120.168L80.2191 120.024L84.1423 117.277L88.0117 114.584L88.2924 114.387L88.2446 114.728C87.7848 117.845 87.3847 120.544 87.0981 122.49C86.9488 123.416 86.8294 124.174 86.7398 124.736C86.7052 125.019 86.6453 125.299 86.5607 125.572Z" fill="#E0E0E0"/>
<path d="M109.034 127.99C108.819 127.819 108.619 127.629 108.437 127.423C108.049 127.005 107.523 126.45 106.878 125.769L101.546 119.989L101.803 119.899C101.677 121.362 101.546 122.95 101.409 124.598C101.271 126.246 101.128 127.883 101.003 129.375L100.973 129.722L100.746 129.465L95.5567 123.613L94.0758 121.905C93.8874 121.71 93.7193 121.496 93.5742 121.266C93.789 121.449 93.9887 121.649 94.1714 121.864L95.712 123.512L100.979 129.286L100.722 129.375C100.847 127.889 100.979 126.276 101.122 124.598C101.265 122.92 101.397 121.362 101.522 119.899L101.552 119.559L101.779 119.809L107.034 125.667L108.532 127.381C108.715 127.571 108.883 127.774 109.034 127.99Z" fill="#E0E0E0"/>
<path d="M120.341 127.191C120.23 127.443 120.094 127.683 119.935 127.908L118.741 129.831L114.477 136.447L114.334 136.22L118.968 135.42L123.685 134.626L124.026 134.566L123.864 134.823L119.505 141.308L118.192 143.183C118.046 143.412 117.882 143.63 117.702 143.833C117.82 143.589 117.956 143.353 118.108 143.129L119.302 141.218L123.572 134.65L123.721 134.877L119.004 135.695L114.352 136.483L114.012 136.537L114.203 136.256L118.556 129.687L119.834 127.806C119.99 127.591 120.16 127.386 120.341 127.191Z" fill="#E0E0E0"/>
<path d="M105.302 138.762C105.19 139.011 105.054 139.249 104.896 139.472L103.702 141.401L99.4442 148.011L99.2949 147.784L103.941 146.984L108.664 146.184L109.004 146.13L108.807 146.411L104.448 152.902L103.164 154.765C103.022 154.995 102.858 155.211 102.675 155.41C102.794 155.166 102.93 154.931 103.081 154.705C103.391 154.227 103.797 153.589 104.275 152.8L108.544 146.232L108.694 146.459L103.976 147.277L99.3247 148.059L98.9844 148.119L99.1755 147.832L103.529 141.264C104.054 140.487 104.484 139.854 104.812 139.383C104.96 139.164 105.124 138.957 105.302 138.762Z" fill="#E0E0E0"/>
<path d="M137.802 127.061C137.683 127.307 137.548 127.544 137.396 127.771L136.202 129.7L131.944 136.31L131.795 136.083L136.44 135.283L141.164 134.483L141.504 134.429L141.313 134.71L136.948 141.201C136.422 141.965 135.993 142.592 135.664 143.058C135.523 143.29 135.359 143.508 135.174 143.709C135.295 143.464 135.433 143.229 135.586 143.004L136.781 141.099L141.05 134.531L141.2 134.758L136.482 135.57L131.83 136.358L131.496 136.418L131.681 136.131L136.034 129.563L137.318 127.682C137.459 127.459 137.621 127.251 137.802 127.061Z" fill="#E0E0E0"/>
<path d="M156.553 157.118C156.339 156.955 156.14 156.776 155.956 156.58L154.32 155.004L148.701 149.498L148.951 149.397C148.904 150.866 148.856 152.454 148.802 154.108C148.748 155.762 148.683 157.404 148.629 158.885V159.232L148.384 158.987L142.914 153.404L141.35 151.773C141.156 151.589 140.976 151.389 140.812 151.176C141.025 151.34 141.225 151.519 141.41 151.714L143.034 153.284L148.587 158.79L148.33 158.891C148.378 157.398 148.432 155.786 148.486 154.114C148.539 152.442 148.605 150.872 148.659 149.403V149.062L148.898 149.301L154.433 154.891L156.015 156.527C156.211 156.708 156.391 156.906 156.553 157.118Z" fill="#E0E0E0"/>
<path d="M61.7003 117.469C61.5834 117.716 61.4477 117.953 61.2942 118.179L60.0999 120.108L55.8424 126.724L55.6931 126.497L60.3388 125.691L65.0621 124.897L65.4025 124.837L65.2114 125.124L60.8464 131.609L59.5685 133.472C59.4235 133.7 59.2597 133.916 59.0788 134.117C59.1933 133.872 59.3292 133.639 59.4849 133.418L60.6792 131.507C61.76 129.853 63.2409 127.584 64.9487 124.939L65.0979 125.166L60.3806 125.984L55.7289 126.772L55.3945 126.826L55.5796 126.545C57.3292 123.918 58.834 121.649 59.9327 119.977L61.2166 118.096C61.361 117.874 61.5228 117.665 61.7003 117.469Z" fill="#E0E0E0"/>
<path d="M38.0898 162.122C38.291 162.304 38.4749 162.504 38.6392 162.72L40.0962 164.469L45.0464 170.578L44.7837 170.65C44.9987 169.198 45.2256 167.622 45.4704 165.98C45.7152 164.338 45.9541 162.72 46.175 161.245L46.2228 160.904L46.4378 161.179L51.2507 167.341L52.6181 169.133C52.7918 169.34 52.9476 169.562 53.0838 169.796C52.8878 169.611 52.7061 169.411 52.5405 169.198L51.1073 167.455L46.2407 161.358L46.5034 161.292C46.2885 162.767 46.0556 164.368 45.8108 166.028C45.5659 167.688 45.3331 169.24 45.1121 170.691L45.0644 171.032L44.8494 170.763L39.9768 164.589L38.5855 162.797C38.4053 162.584 38.2397 162.358 38.0898 162.122Z" fill="#E0E0E0"/>
<path d="M92.0055 133.211C91.7381 133.268 91.4666 133.304 91.1934 133.319L88.9243 133.516L81.078 134.113L81.1736 133.862L84.613 137.086L88.0943 140.371L88.3451 140.609H87.9988L80.1943 141.039L77.9371 141.135C77.6669 141.158 77.3952 141.158 77.125 141.135C77.3909 141.082 77.6603 141.048 77.9311 141.033L80.1823 140.854L87.9809 140.317L87.8913 140.568L84.3981 137.295L80.9705 134.059L80.7197 133.82H81.0601L88.9124 133.348L91.1815 133.235C91.4552 133.206 91.7307 133.198 92.0055 133.211Z" fill="#E0E0E0"/>
<path d="M78.7773 163.307C78.9766 163.494 79.164 163.694 79.3386 163.904L80.8255 165.624L85.9071 171.631L85.6444 171.703C85.8295 170.246 86.0325 168.669 86.2415 167.027C86.4505 165.385 86.6655 163.755 86.8386 162.28L86.8864 161.934L87.1014 162.202L92.0456 168.263L93.4489 170.055C93.6228 170.262 93.7825 170.482 93.9266 170.711C93.7252 170.528 93.5394 170.328 93.3713 170.114L91.9023 168.401L86.8864 162.429L87.1432 162.352C86.9581 163.832 86.755 165.433 86.546 167.099C86.337 168.765 86.128 170.323 85.9489 171.78L85.9011 172.121L85.6862 171.858L80.6882 165.779L79.267 163.988C79.0817 163.778 78.9177 163.55 78.7773 163.307Z" fill="#E0E0E0"/>
<path d="M55.1223 141.236C54.8551 141.295 54.5834 141.331 54.3102 141.343L52.0471 141.534L44.2007 142.132L44.2903 141.875L47.7358 145.105L51.217 148.39L51.4678 148.628H51.1215L43.317 149.058L41.0598 149.154C40.7956 149.176 40.5299 149.176 40.2656 149.154C40.5309 149.097 40.8006 149.063 41.0718 149.052L43.3229 148.873L51.1215 148.33L51.0319 148.587L47.5387 145.314L44.1052 142.078L43.8604 141.839H44.2007L52.053 141.361L54.3221 141.254C54.588 141.228 54.8555 141.222 55.1223 141.236Z" fill="#E0E0E0"/>
<path d="M75.443 162.63C75.1757 162.687 74.904 162.721 74.6309 162.731L72.3618 162.929L64.5155 163.526L64.6111 163.269L68.0505 166.499L71.5318 169.784L71.7826 170.022H71.4423L63.6318 170.446L61.3746 170.548C61.1044 170.571 60.8327 170.571 60.5625 170.548C60.8278 170.491 61.0975 170.457 61.3686 170.446L63.6198 170.267L71.4184 169.724L71.3288 169.981L67.8356 166.708L64.408 163.484L64.1572 163.251H64.4976L72.3499 162.773L74.625 162.666C74.896 162.629 75.1698 162.617 75.443 162.63Z" fill="#E0E0E0"/>
<path d="M121.31 108.195C121.043 108.252 120.771 108.288 120.498 108.302L118.229 108.494L110.389 109.091L110.478 108.84L113.918 112.064L117.399 115.349L117.65 115.588H117.309L109.499 116.017L107.242 116.113C106.972 116.136 106.7 116.136 106.43 116.113C106.695 116.056 106.965 116.022 107.236 116.011L109.487 115.832L117.292 115.295L117.196 115.546L113.715 112.279L110.287 109.043L110.036 108.804H110.377L118.229 108.326L120.504 108.219C120.772 108.191 121.041 108.183 121.31 108.195Z" fill="#E0E0E0"/>
<path d="M99.0035 162.631C99.0035 162.631 109.047 159.735 112.373 158.887C113.669 158.558 119.216 161.484 123.05 163.921C123.05 163.921 128.329 167.049 127.905 168.011C127.433 169.074 125.516 168.859 122.381 167.414C122.381 167.414 123.468 170.561 121.336 170.489C121.336 170.489 122.393 173.893 120.399 174.245C118.404 174.597 117.939 170.256 116.183 170.023C114.427 169.79 110.809 169.551 110.809 169.551C110.809 169.551 107.781 174.567 105.435 174.926C103.088 175.284 97.6719 174.645 97.6719 174.645L99.0035 162.631Z" fill="#FFBE9D"/>
<path d="M116.148 163.322C117.132 163.76 118.071 164.29 118.955 164.905C119.892 165.435 120.776 166.055 121.594 166.756C119.671 165.792 117.847 164.642 116.148 163.322Z" fill="#EB996E"/>
<path d="M115.555 165.277C116.702 165.638 117.817 166.096 118.887 166.645C119.993 167.094 121.059 167.636 122.075 168.263C120.928 167.906 119.813 167.45 118.743 166.902C117.635 166.454 116.568 165.911 115.555 165.277Z" fill="#EB996E"/>
<path d="M116.629 169.94C118.146 169.934 119.657 170.135 121.119 170.537C119.602 170.541 118.092 170.34 116.629 169.94Z" fill="#EB996E"/>
<path d="M85.9316 58.986C86.0499 59.373 86.0516 59.7862 85.9365 60.1741C85.8214 60.562 85.5946 60.9074 85.2844 61.1673C84.9743 61.4271 84.5945 61.5898 84.1924 61.6352C83.7904 61.6806 83.3838 61.6065 83.0236 61.4223C81.6621 60.7356 81.489 58.8547 81.7577 57.3559C82.0264 55.8571 82.5339 54.2508 81.9069 52.8595C81.4233 51.7966 80.3783 51.1218 79.5662 50.2858C78.8495 49.5592 78.3111 48.6763 77.993 47.7066C77.6749 46.7368 77.5859 45.7066 77.733 44.6967C77.9051 43.6897 78.3519 42.7499 79.0241 41.9807C79.6963 41.2116 80.5679 40.643 81.5427 40.3376C83.5431 39.7823 86.0092 40.3973 87.514 38.9463C88.5948 37.8953 88.6605 36.1815 89.4965 34.9276C90.7923 32.9809 93.5331 32.6704 95.85 32.9869C98.1669 33.3034 100.52 34.0498 102.789 33.4825C104.682 33.0108 106.234 31.6911 108.014 30.879C109.953 29.9925 112.121 29.7342 114.214 30.1404C116.308 30.5465 118.222 31.5967 119.689 33.1442C121.156 34.6916 122.103 36.6589 122.397 38.7709C122.691 40.8829 122.318 43.0341 121.33 44.9236C120.671 46.3063 119.549 47.4152 118.159 48.0585" fill="#263238"/>
<path d="M97.4536 108.315C98.9763 108.312 100.483 108.007 101.887 107.417C103.291 106.827 104.564 105.965 105.632 104.88C106.7 103.794 107.542 102.508 108.109 101.095C108.677 99.6814 108.958 98.1697 108.936 96.6471L108.787 85.6718C108.787 85.6718 118.007 84.7463 118.616 75.6101C119.225 66.474 118.789 45.3892 118.789 45.3892C113.716 42.8725 108.064 41.7544 102.415 42.1501C96.7654 42.5458 91.324 44.4411 86.6514 47.6404L85.2422 48.6138L85.9289 96.9457C85.9651 99.9767 87.1958 102.871 89.3537 105C91.5116 107.129 94.4223 108.32 97.4536 108.315Z" fill="#FFBE9D"/>
<path d="M116.379 61.9726C116.046 61.9343 115.738 61.7746 115.515 61.5241C115.291 61.2736 115.168 60.9497 115.168 60.6141C115.168 60.2785 115.291 59.9546 115.515 59.7041C115.738 59.4536 116.046 59.294 116.379 59.2557C116.452 59.2377 116.528 59.2377 116.6 59.2557C116.934 59.294 117.241 59.4536 117.465 59.7041C117.688 59.9546 117.811 60.2785 117.811 60.6141C117.811 60.9497 117.688 61.2736 117.465 61.5241C117.241 61.7746 116.934 61.9343 116.6 61.9726C116.527 61.9845 116.452 61.9845 116.379 61.9726Z" fill="#263238"/>
<path d="M118.171 59.0221C118.021 59.1773 117.162 58.4249 115.902 58.3592C114.642 58.2936 113.692 58.8847 113.567 58.7175C113.441 58.5503 113.656 58.3652 114.074 58.0846C114.633 57.7262 115.292 57.5565 115.954 57.6006C116.616 57.6447 117.247 57.9001 117.753 58.3294C118.129 58.6638 118.248 58.9862 118.171 59.0221Z" fill="#263238"/>
<path d="M103.605 59.3344C103.822 59.4844 103.989 59.6953 104.086 59.9404C104.183 60.1855 104.204 60.4538 104.149 60.7113C104.093 60.9688 103.962 61.204 103.772 61.3871C103.583 61.5701 103.343 61.6928 103.084 61.7397C102.825 61.7865 102.557 61.7554 102.316 61.6502C102.074 61.545 101.869 61.3705 101.727 61.1488C101.584 60.9271 101.511 60.6681 101.516 60.4047C101.521 60.1412 101.604 59.8851 101.754 59.6688C101.955 59.3793 102.263 59.1816 102.611 59.1189C102.958 59.0562 103.315 59.1337 103.605 59.3344Z" fill="#263238"/>
<path d="M104.44 59.3873C104.285 59.5426 103.425 58.7902 102.171 58.7245C100.917 58.6588 99.962 59.25 99.8306 59.0828C99.7649 59.0051 99.9261 58.7305 100.338 58.4498C100.897 58.0914 101.556 57.9218 102.218 57.9658C102.88 58.0099 103.51 58.2654 104.016 58.6946C104.393 59.029 104.512 59.3216 104.44 59.3873Z" fill="#263238"/>
<path d="M108.942 70.0506C108.942 69.9551 109.724 69.8357 111.002 69.7282C111.331 69.7282 111.599 69.6506 111.629 69.4774C111.653 69.1481 111.589 68.8184 111.444 68.522C111.163 67.6681 110.883 66.8082 110.584 65.9065C109.39 62.1864 108.608 59.1231 108.793 59.0634C108.978 59.0037 110.088 61.9714 111.265 65.6916C111.54 66.5992 111.808 67.483 112.065 68.3189C112.255 68.7537 112.292 69.2395 112.172 69.6983C112.119 69.8222 112.037 69.9317 111.933 70.0179C111.83 70.104 111.707 70.1644 111.575 70.1939C111.389 70.2355 111.198 70.2496 111.008 70.2357C109.718 70.2118 108.942 70.1521 108.942 70.0506Z" fill="#263238"/>
<path d="M104.758 71.2227C106.677 72.2079 108.722 72.9252 110.837 73.3544C110.373 73.9912 109.708 74.4522 108.949 74.6626C108.19 74.8729 107.382 74.8201 106.657 74.5129C103.964 73.3604 104.758 71.2227 104.758 71.2227Z" fill="white"/>
<path d="M108.826 85.5425C104.598 85.3917 100.512 83.9866 97.0859 81.5059C97.0859 81.5059 99.5461 88.2355 108.712 87.9131L108.826 85.5425Z" fill="#EB996E"/>
<path d="M118.869 47.6993C118.869 47.6993 113.346 50.5058 106.031 47.0305C101.254 44.7495 95.6585 43.6925 94.4523 44.6778C93.2461 45.6631 93.0848 50.5596 88.4033 52.0822C88.4033 52.0822 88.9109 61.4333 85.1728 61.1706C81.4348 60.9079 83.4889 46.3796 83.4889 46.3796L92.5235 41.7459L102.442 39.6738L111.847 40.8144L119.144 42.6595L118.869 47.6993Z" fill="#263238"/>
<path d="M85.855 58.1688C85.7057 58.0911 79.6747 55.9653 79.5374 62.2292C79.4 68.4932 85.7117 67.3407 85.7237 67.1616C85.7356 66.9824 85.855 58.1688 85.855 58.1688Z" fill="#FFBE9D"/>
<path d="M83.8601 64.7421C83.8601 64.7421 83.7466 64.8197 83.5615 64.8973C83.2993 65.0039 83.0057 65.0039 82.7435 64.8973C82.0866 64.6406 81.5492 63.5777 81.5492 62.4491C81.5484 61.9111 81.6646 61.3793 81.8896 60.8906C81.9539 60.6966 82.064 60.521 82.2105 60.3786C82.3571 60.2362 82.5358 60.1312 82.7315 60.0725C82.8579 60.0495 82.9883 60.0679 83.1034 60.1249C83.2185 60.1819 83.3122 60.2745 83.3704 60.389C83.4481 60.5621 83.4063 60.6875 83.4361 60.6995C83.466 60.7114 83.5735 60.598 83.5317 60.3412C83.4989 60.185 83.4148 60.0442 83.2928 59.9411C83.1237 59.8082 82.9097 59.7461 82.6957 59.768C82.4371 59.8126 82.1943 59.9227 81.9905 60.0879C81.7866 60.2531 81.6285 60.4677 81.5313 60.7114C81.2555 61.2491 81.1122 61.8448 81.1133 62.4491C81.1133 63.709 81.7463 64.9093 82.642 65.1899C82.8094 65.241 82.9861 65.2547 83.1595 65.23C83.3329 65.2052 83.4987 65.1426 83.6451 65.0466C83.8601 64.8973 83.8601 64.754 83.8601 64.7421Z" fill="#EB996E"/>
<path d="M82.6641 38.5651C83.3786 38.3555 84.1418 38.383 84.8393 38.6435C85.5369 38.904 86.1313 39.3835 86.5335 40.0102C85.9767 39.5885 85.3761 39.2281 84.7421 38.9353C84.0642 38.74 83.3677 38.616 82.6641 38.5651Z" fill="#263238"/>
<path d="M86.434 34.8145C86.5474 34.8145 86.3743 36.1341 86.5892 37.6986C86.775 38.6392 87.0696 39.555 87.467 40.4275C87.467 40.4275 87.2043 40.2066 86.9415 39.7408C86.6044 39.1209 86.3818 38.4453 86.2847 37.7464C86.1107 36.7704 86.1618 35.7677 86.434 34.8145Z" fill="#263238"/>
<path d="M112.159 56.0009C112.124 55.9292 112.392 55.7083 112.9 55.5052C114.247 54.9842 115.743 54.9991 117.08 55.547C117.581 55.762 117.85 55.983 117.814 56.0546C117.737 56.2218 116.53 55.7501 114.984 55.7501C113.437 55.7501 112.231 56.186 112.159 56.0009Z" fill="#263238"/>
<path d="M98.1868 54.6985C98.1509 54.6269 98.4197 54.4119 98.9272 54.2029C99.5954 53.9446 100.307 53.8169 101.023 53.8267C101.743 53.8265 102.455 53.9686 103.119 54.2447C103.621 54.4597 103.883 54.6806 103.854 54.7582C103.824 54.8358 102.57 54.4537 101.017 54.4477C99.4646 54.4417 98.2704 54.8657 98.1868 54.6985Z" fill="#263238"/>
<path d="M111.081 57.0042C111.095 57.1272 111.095 57.2514 111.081 57.3744C111.081 57.6372 111.081 57.9716 111.111 58.3836C111.141 58.7956 111.111 59.3509 111.147 59.9481C111.124 60.6372 111.226 61.3248 111.446 61.9783C111.733 62.826 112.232 63.5868 112.894 64.1894C113.556 64.792 114.36 65.2167 115.231 65.4238C115.731 65.5459 116.247 65.5902 116.76 65.5551C117.294 65.5311 117.82 65.4202 118.319 65.2267C119.381 64.8287 120.286 64.0976 120.898 63.1427C121.478 62.2308 121.769 61.1654 121.734 60.0854C121.734 59.0165 121.734 57.9895 121.734 57.0042L121.877 57.1475L114.115 57.0759L111.864 57.034H111.266H111.045C111.301 57.0056 111.558 56.9937 111.816 56.9982L114.031 56.9564L121.877 56.8848H122.074V57.034C122.074 58.0193 122.074 59.0464 122.074 60.1153C122.115 61.2541 121.808 62.3784 121.197 63.3398C120.547 64.3508 119.588 65.1239 118.462 65.5432C117.933 65.7464 117.374 65.8614 116.808 65.8836C116.268 65.9156 115.726 65.8653 115.201 65.7343C114.288 65.5135 113.447 65.0614 112.759 64.4213C112.07 63.7813 111.559 62.9749 111.272 62.0798C111.058 61.3968 110.969 60.6807 111.01 59.966C111.01 59.3688 111.01 58.8135 111.039 58.3597C111.069 57.9059 111.039 57.6252 111.069 57.3625C111.064 57.2429 111.068 57.1231 111.081 57.0042Z" fill="#263238"/>
<path d="M96.4443 56.6954C96.4443 56.6954 96.4443 56.8327 96.4443 57.0656V58.0748C96.4443 58.5166 96.4443 59.0421 96.4741 59.6452C96.4585 60.334 96.5594 61.0204 96.7727 61.6755C97.0478 62.4617 97.4992 63.1746 98.0924 63.7595C98.7773 64.4252 99.6294 64.8935 100.559 65.1149C101.586 65.3625 102.664 65.2938 103.652 64.9179C104.711 64.5203 105.614 63.7915 106.225 62.8399C106.807 61.9286 107.101 60.8631 107.067 59.7826C107.067 58.7137 107.067 57.6806 107.067 56.6954L107.211 56.8387L99.4479 56.767L97.2026 56.7312H96.6055H96.3846C96.6383 56.7029 96.8936 56.691 97.1489 56.6954L99.3643 56.6596L107.211 56.5879H107.354V56.7312C107.354 57.7165 107.354 58.7495 107.354 59.8184C107.39 60.9576 107.082 62.0812 106.47 63.0429C105.821 64.0504 104.864 64.8211 103.741 65.2403C103.212 65.443 102.653 65.558 102.087 65.5807C101.545 65.6127 101.002 65.5623 100.475 65.4314C99.4992 65.1911 98.6073 64.6895 97.8953 63.9804C97.2794 63.3616 96.8171 62.6069 96.5458 61.777C96.3313 61.094 96.2423 60.3778 96.283 59.6631C96.283 59.066 96.283 58.5107 96.3189 58.0568C96.3547 57.603 96.3189 57.3224 96.3189 57.0596C96.3407 56.9322 96.383 56.8092 96.4443 56.6954Z" fill="#263238"/>
<path d="M111.21 57.4405C109.844 57.6477 108.455 57.6477 107.09 57.4405C108.455 57.2256 109.845 57.2256 111.21 57.4405Z" fill="#263238"/>
<path d="M85.0547 57.5174C86.9532 57.3591 88.8587 57.3013 90.7633 57.3442C92.6692 57.2902 94.5767 57.336 96.4778 57.4815C94.5798 57.6472 92.6739 57.705 90.7693 57.6547C88.8633 57.7156 86.9555 57.6698 85.0547 57.5174Z" fill="#263238"/>
<path d="M146.477 170.202C147.818 172.692 149.851 174.742 152.329 176.106C154.808 177.469 157.628 178.088 160.449 177.887C163.783 177.654 166.938 176.291 169.392 174.023C171.847 171.755 173.455 168.718 173.951 165.413L177.414 125.769L163.543 122.342L157.876 153.393C157.876 153.393 154.914 166.404 146.477 170.202Z" fill="#FFBE9D"/>
<path d="M163.418 125.214L163.878 118.257C163.878 118.257 165.842 102.648 165.842 101.12C165.842 99.3642 166.684 98.9342 167.335 98.982C168.344 99.0477 169.061 100.296 169.127 101.806C169.127 102.326 169.079 110.578 169.079 110.578C169.556 109.798 170.089 109.054 170.673 108.351C171.867 106.804 174.758 105.921 177.701 106.016C180.645 106.112 181.451 106.398 181.469 107.539C181.459 107.757 181.4 107.97 181.297 108.162C181.193 108.354 181.048 108.521 180.872 108.65C180.329 109.102 179.638 109.34 178.931 109.318C174.22 109.235 172.96 111.749 172.96 111.749L172.9 112.662C172.9 112.662 175.761 110.614 178.042 111.468C178.379 111.593 178.687 111.784 178.949 112.029C179.592 112.032 180.222 112.202 180.778 112.524C181.334 112.845 181.797 113.306 182.12 113.862C182.442 114.417 182.615 115.047 182.619 115.689C182.623 116.331 182.459 116.963 182.144 117.523C182.021 117.81 181.814 118.053 181.549 118.218C181.284 118.383 180.975 118.464 180.663 118.449C180.347 118.354 180.061 118.179 179.833 117.941C179.699 117.827 179.558 117.724 179.409 117.63L178.884 120.156C178.884 120.156 177.397 125.769 177.027 128.289" fill="#FFBE9D"/>
<path d="M164.777 124.67C165.637 124.909 166.527 124.276 166.993 123.512C167.458 122.747 167.655 121.846 168.061 121.045C169.292 118.657 172.241 117.522 173.37 115.074C173.525 114.734 173.609 114.268 173.31 114.041C173.012 113.814 172.641 113.999 172.337 114.166L164.574 118.466" fill="#FFBE9D"/>
<path d="M164.57 118.456C164.812 118.242 165.079 118.057 165.364 117.907C165.89 117.578 166.66 117.124 167.616 116.569L170.989 114.64L171.963 114.091C172.326 113.804 172.787 113.673 173.247 113.727C173.389 113.773 173.513 113.86 173.604 113.979C173.694 114.097 173.747 114.24 173.754 114.389C173.77 114.635 173.727 114.88 173.629 115.106C173.449 115.504 173.225 115.881 172.96 116.229C171.885 117.626 170.494 118.504 169.491 119.525C169.003 119.987 168.588 120.52 168.261 121.107C167.968 121.657 167.783 122.23 167.556 122.749C167.417 123.183 167.184 123.581 166.874 123.915C166.565 124.249 166.186 124.512 165.765 124.684C165.126 124.875 164.767 124.684 164.791 124.648C165.101 124.658 165.409 124.607 165.699 124.499C166.072 124.308 166.402 124.042 166.667 123.717C166.933 123.392 167.127 123.016 167.239 122.612C167.431 122.034 167.652 121.465 167.902 120.91C168.232 120.274 168.661 119.696 169.174 119.196C170.201 118.121 171.563 117.22 172.566 115.924C172.802 115.611 173.003 115.273 173.163 114.915C173.312 114.575 173.288 114.234 173.097 114.198C172.906 114.163 172.53 114.324 172.202 114.509L171.21 115.046L167.789 116.909C166.81 117.429 165.997 117.835 165.46 118.104C165.182 118.262 164.882 118.381 164.57 118.456Z" fill="#EB996E"/>
<path d="M172.797 112.726C172.849 112.161 173.036 111.617 173.34 111.138C173.694 110.646 174.196 110.282 174.773 110.099C175.496 109.861 176.252 109.74 177.012 109.74C177.793 109.748 178.573 109.68 179.341 109.537C179.985 109.406 180.582 109.107 181.073 108.672C181.236 108.521 181.363 108.335 181.444 108.128C181.524 107.921 181.557 107.699 181.539 107.477C181.53 107.314 181.476 107.157 181.383 107.023C181.354 107.023 181.383 107.197 181.413 107.483C181.411 107.683 181.364 107.881 181.278 108.061C181.191 108.241 181.066 108.401 180.912 108.528C180.434 108.904 179.873 109.158 179.276 109.269C178.524 109.392 177.762 109.448 177.001 109.436C176.211 109.427 175.426 109.55 174.678 109.8C174.052 110.018 173.516 110.438 173.155 110.994C172.921 111.369 172.786 111.796 172.761 112.236C172.727 112.4 172.739 112.569 172.797 112.726Z" fill="#EB996E"/>
<path d="M169.089 101.221C169.038 101.767 169.038 102.317 169.089 102.863C169.089 103.985 169.089 105.329 169.131 106.81C169.172 108.291 169.131 109.634 169.131 110.757C169.095 111.304 169.107 111.854 169.166 112.399C169.297 111.863 169.363 111.314 169.363 110.763C169.435 109.754 169.483 108.374 169.477 106.81C169.471 105.245 169.411 103.86 169.34 102.851C169.315 102.3 169.231 101.754 169.089 101.221Z" fill="#EB996E"/>
<path d="M174.657 114.56C174.824 114.52 174.985 114.458 175.135 114.375C175.329 114.276 175.543 114.219 175.761 114.208C175.98 114.198 176.198 114.235 176.401 114.315C176.526 114.383 176.631 114.482 176.706 114.602C176.781 114.723 176.824 114.86 176.831 115.002C176.85 115.358 176.824 115.715 176.753 116.065C176.654 116.504 176.725 116.965 176.95 117.355C177.093 117.555 177.281 117.719 177.499 117.833C177.716 117.947 177.958 118.008 178.204 118.012C178.446 118.01 178.685 117.959 178.906 117.863C179.128 117.766 179.328 117.626 179.494 117.45C179.805 117.138 180.014 116.738 180.091 116.304C180.185 115.602 180.175 114.889 180.061 114.19C179.999 113.717 179.856 113.258 179.637 112.835C179.47 112.536 179.315 112.422 179.303 112.434C179.291 112.446 179.398 112.596 179.524 112.888C179.688 113.318 179.79 113.768 179.828 114.226C179.907 114.899 179.897 115.58 179.798 116.25C179.722 116.63 179.525 116.975 179.237 117.233C178.948 117.492 178.584 117.649 178.198 117.683C178.004 117.682 177.813 117.636 177.639 117.547C177.466 117.459 177.316 117.332 177.201 117.176C177.02 116.848 176.963 116.467 177.04 116.101C177.106 115.724 177.122 115.341 177.087 114.96C177.07 114.779 177.006 114.604 176.901 114.455C176.797 114.305 176.655 114.185 176.49 114.106C176.258 114.018 176.008 113.986 175.761 114.013C175.514 114.04 175.277 114.125 175.069 114.262C174.789 114.429 174.621 114.518 174.657 114.56Z" fill="#EB996E"/>
<path d="M179.359 117.201C179.317 117.357 179.334 117.523 179.406 117.667C179.49 117.872 179.62 118.055 179.786 118.202C179.951 118.349 180.148 118.456 180.362 118.515C180.683 118.584 181.017 118.569 181.331 118.47C181.645 118.372 181.928 118.194 182.153 117.954C182.691 117.362 182.98 116.585 182.959 115.786C182.959 114.996 182.713 114.226 182.255 113.583C181.881 113.058 181.371 112.645 180.78 112.388C180.392 112.213 179.975 112.114 179.55 112.096C179.251 112.096 179.09 112.096 179.09 112.143C179.641 112.215 180.178 112.368 180.684 112.597C181.214 112.861 181.67 113.253 182.01 113.738C182.407 114.34 182.615 115.047 182.607 115.768C182.627 116.484 182.38 117.182 181.914 117.727C181.725 117.941 181.484 118.103 181.215 118.199C180.945 118.294 180.655 118.318 180.374 118.27C180.186 118.228 180.009 118.146 179.855 118.029C179.702 117.913 179.575 117.765 179.484 117.595C179.4 117.368 179.4 117.201 179.359 117.201Z" fill="#EB996E"/>
<path d="M173.688 122.716C173.432 122.635 173.157 122.635 172.9 122.716C172.228 122.864 171.623 123.229 171.181 123.756L171.455 123.839C171.419 123.469 171.359 123.102 171.276 122.74C171.038 121.457 170.449 120.264 169.574 119.295C170.159 120.415 170.623 121.594 170.96 122.812C171.043 123.182 171.103 123.541 171.145 123.875L171.192 124.245L171.425 123.953C171.821 123.464 172.35 123.102 172.948 122.908C173.396 122.77 173.688 122.758 173.688 122.716Z" fill="#EB996E"/>
<path d="M173.832 108.678C173.754 108.713 174.071 109.275 174.799 109.615C175.528 109.956 176.173 109.758 176.143 109.675C176.113 109.591 175.546 109.597 174.948 109.317C174.351 109.036 173.909 108.618 173.832 108.678Z" fill="#EB996E"/>
<path d="M161.033 129.717L178.463 130.965C178.463 130.965 175.782 161.807 175.262 166.59C174.743 171.373 171.679 178.586 161.033 178.586C150.386 178.586 148.403 174.962 143.668 167.497C149.251 163.628 158.119 152.073 158.119 152.073L161.033 129.717Z" fill="#FF725E"/>
<path d="M169.249 133.867C169.16 134.127 169.052 134.381 168.927 134.626L167.954 136.68L164.514 143.78L164.341 143.571L168.861 142.227L173.453 140.878L173.788 140.782L173.626 141.087L170.043 148.043L168.987 150.044C168.87 150.288 168.732 150.522 168.575 150.742C168.666 150.487 168.774 150.237 168.897 149.996C169.148 149.482 169.494 148.801 169.876 147.96L173.346 140.955L173.519 141.164L168.933 142.526L164.407 143.851L164.078 143.947L164.233 143.642L167.798 136.614C168.234 135.784 168.586 135.103 168.849 134.596C168.962 134.342 169.096 134.098 169.249 133.867Z" fill="#E0E0E0"/>
<path d="M167.599 163.531C167.332 163.589 167.06 163.625 166.787 163.639L164.518 163.836L156.672 164.433L156.767 164.176L160.207 167.401L163.688 170.685L163.939 170.924H163.593L155.788 171.354L153.531 171.449C153.261 171.473 152.989 171.473 152.719 171.449C152.985 171.397 153.254 171.365 153.525 171.354L155.776 171.169L163.575 170.631L163.485 170.888L159.992 167.61L156.564 164.373L156.313 164.14H156.654L164.506 163.669L166.781 163.555C167.053 163.526 167.326 163.518 167.599 163.531Z" fill="#E0E0E0"/>
<path d="M198.635 53.356L180.858 46.9727L163.279 53.2724C161.034 54.3293 159.063 54.9683 159.063 57.0582V67.4842C159.022 74.807 161.021 81.9966 164.837 88.2465C168.651 94.5536 174.301 99.5439 181.032 102.548C188.197 100.213 193.571 93.9789 196.886 88.6525C200.712 82.4057 202.722 75.2159 202.69 67.8902V58.5152C202.69 55.5296 201.101 54.0726 198.635 53.356Z" fill="#FFC246"/>
<g opacity="0.3">
<path opacity="0.3" d="M181.032 96.4805C175.698 94.0751 171.229 90.0952 168.223 85.0753C165.198 80.1362 163.608 74.4521 163.631 68.6601V61.3751C163.631 59.715 164.634 58.1625 166.617 57.2369L180.864 51.9105V46.9961L163.279 53.272C161.434 54.0781 159.063 54.9678 159.063 57.0578V67.4837C159.022 74.8065 161.021 81.9961 164.837 88.246C168.651 94.5532 174.301 99.5435 181.032 102.547V96.4805Z" fill="black"/>
</g>
<g opacity="0.4">
<path opacity="0.4" d="M181.031 102.53C182.237 102.136 183.406 101.637 184.524 101.038C187.274 99.482 189.774 97.5213 191.94 95.2214C193.899 93.1114 195.623 90.7949 197.082 88.3126C200.953 82.0197 202.902 74.7327 202.689 67.3473V58.7426C202.689 54.4552 200.479 54.1387 198.628 53.3326L180.852 46.9492V51.8636L195.266 57.2796C197.249 58.2052 198.252 59.7577 198.252 61.4118V68.7267C198.276 74.5168 196.686 80.199 193.66 85.1359C190.719 90.1327 186.303 94.0961 181.019 96.4814L181.031 102.53Z" fill="black"/>
</g>
<path opacity="0.5" d="M185.578 68.1969V66.7877C185.578 65.5635 185.091 64.3895 184.226 63.5238C183.36 62.6582 182.186 62.1719 180.962 62.1719C179.738 62.1719 178.563 62.6582 177.698 63.5238C176.832 64.3895 176.346 65.5635 176.346 66.7877V68.2208C175.735 68.3123 175.177 68.62 174.774 69.0879C174.371 69.5558 174.149 70.1529 174.148 70.7706V79.0707C174.148 79.7549 174.42 80.411 174.904 80.8948C175.388 81.3786 176.044 81.6503 176.728 81.6503H185.375C186.059 81.6503 186.715 81.3786 187.199 80.8948C187.682 80.411 187.954 79.7549 187.954 79.0707V70.7706C187.955 70.1212 187.71 69.4956 187.27 69.0185C186.829 68.5414 186.225 68.248 185.578 68.1969ZM182.216 76.9987H179.959L180.311 75.3685C180.064 75.2076 179.876 74.9713 179.774 74.6947C179.672 74.418 179.663 74.116 179.746 73.8334C179.83 73.5509 180.003 73.3031 180.239 73.1268C180.476 72.9505 180.763 72.8553 181.057 72.8553C181.352 72.8553 181.639 72.9505 181.875 73.1268C182.111 73.3031 182.284 73.5509 182.368 73.8334C182.452 74.116 182.442 74.418 182.341 74.6947C182.239 74.9713 182.051 75.2076 181.804 75.3685C181.959 75.9776 182.216 76.9987 182.216 76.9987ZM184.604 68.185H177.343V66.7877C177.381 65.8526 177.779 64.9685 178.454 64.3203C179.129 63.6722 180.029 63.3102 180.965 63.3102C181.901 63.3102 182.8 63.6722 183.475 64.3203C184.15 64.9685 184.548 65.8526 184.586 66.7877L184.604 68.185Z" fill="white"/>
<path d="M166.518 68.094C166.363 67.6269 166.272 67.1406 166.249 66.6489C166.117 65.4736 166.069 64.2902 166.106 63.1079C166.106 62.4152 166.172 61.7584 166.231 61.1613C166.261 60.6167 166.397 60.0832 166.632 59.5908C166.8 59.2535 167.072 58.9792 167.408 58.8086C167.653 58.6951 167.802 58.7011 167.802 58.719C167.373 58.9157 167.028 59.2586 166.829 59.6864C166.638 60.1638 166.533 60.6712 166.518 61.1852C166.47 61.7823 166.434 62.4332 166.417 63.1199C166.375 64.4873 166.417 65.7293 166.47 66.631C166.524 67.1167 166.54 67.6058 166.518 68.094Z" fill="white"/>
<path d="M166.772 72.6258C166.689 72.6258 166.611 72.2018 166.599 71.6704C166.587 71.1389 166.653 70.709 166.736 70.709C166.82 70.709 166.898 71.1329 166.91 71.6644C166.922 72.1958 166.862 72.6258 166.772 72.6258Z" fill="white"/>
<path d="M149.143 127.199L129.324 176.212H93.5859V178.427H200.037L221.814 127.199H149.143Z" fill="#263238"/>
<path d="M179.445 156.136C178.728 158.602 176.638 160.161 174.775 159.623C172.912 159.086 171.987 156.638 172.703 154.171C173.42 151.705 175.516 150.147 177.379 150.684C179.242 151.222 180.167 153.67 179.445 156.136Z" fill="#FAFAFA"/>
</svg>
