<svg width="70" height="70" viewBox="0 0 70 70" fill="none" xmlns="http://www.w3.org/2000/svg">
<path d="M70 35C70 54.33 54.33 70 35 70C15.67 70 0 54.33 0 35C0 15.67 15.67 0 35 0C54.33 0 70 15.67 70 35Z" fill="white"/>
<path d="M70 35C70 54.33 54.33 70 35 70C15.67 70 0 54.33 0 35C0 15.67 15.67 0 35 0C54.33 0 70 15.67 70 35Z" fill="#23ADB6" fill-opacity="0.2"/>
<path d="M29.8287 30.6243C29.8287 33.2602 27.6918 35.397 25.0559 35.397C22.42 35.397 20.2832 33.2602 20.2832 30.6243C20.2832 27.9884 22.42 25.8516 25.0559 25.8516C27.6918 25.8516 29.8287 27.9884 29.8287 30.6243Z" fill="#23ADB6"/>
<path d="M48.9205 30.6243C48.9205 33.2602 46.7836 35.397 44.1477 35.397C41.5118 35.397 39.375 33.2602 39.375 30.6243C39.375 27.9884 41.5118 25.8516 44.1477 25.8516C46.7836 25.8516 48.9205 27.9884 48.9205 30.6243Z" fill="#23ADB6"/>
<path fill-rule="evenodd" clip-rule="evenodd" d="M13.5417 47.8424C13.697 46.7552 14.7044 45.9997 15.7916 46.155C16.5465 46.2628 21.5759 46.5327 34.999 46.5327C48.4221 46.5327 53.4515 46.2628 54.2064 46.155C55.2937 45.9997 56.301 46.7552 56.4563 47.8424C56.6116 48.9297 55.8561 49.937 54.7689 50.0923C53.6677 50.2496 48.3032 50.51 34.999 50.51C21.6948 50.51 16.3303 50.2496 15.2291 50.0923C14.1419 49.937 13.3864 48.9297 13.5417 47.8424Z" fill="#23ADB6"/>
</svg>
