<svg width="170" height="170" viewBox="0 0 170 170" fill="none" xmlns="http://www.w3.org/2000/svg">
<mask id="mask0_1797_2612" style="mask-type:alpha" maskUnits="userSpaceOnUse" x="0" y="0" width="170" height="170">
<circle cx="85" cy="85" r="85" fill="white"/>
</mask>
<g mask="url(#mask0_1797_2612)">
<circle cx="85" cy="85" r="85" fill="#D2EFF7"/>
<path d="M32.6292 134.851C32.7093 134.673 32.4935 134.259 31.6979 134.111C30.9332 133.994 29.6504 134.29 28.7253 135.598C28.4972 135.924 28.3121 136.325 28.1888 136.8C28.0778 137.275 28.0778 137.842 28.1703 138.348C28.3738 139.397 29.0275 140.39 29.9464 141.093C30.8653 141.783 32.0864 142.27 33.5296 142.172C34.8802 142.085 36.2123 141.5 37.2607 140.612C37.7911 140.167 38.2659 139.656 38.673 139.07C38.8703 138.792 39.08 138.435 39.2219 138.175C39.376 137.898 39.5179 137.614 39.6474 137.324C40.1778 136.165 40.5416 134.956 40.8562 133.828C41.4667 131.564 42.0341 129.165 42.5891 126.661C43.7054 121.641 44.8031 116.109 45.8577 110.288C47.9669 98.6378 49.5025 88.0364 50.3228 80.309C51.1307 72.5753 51.2663 67.7526 50.4029 67.5738C49.5272 67.3887 47.8066 71.971 45.8516 79.4949C43.8904 87.025 41.6456 97.503 39.5364 109.14C38.4818 114.956 37.5567 120.513 36.7735 125.564C36.3788 128.061 36.0088 130.442 35.6634 132.668C35.4784 133.76 35.2995 134.691 35.0467 135.499C34.985 135.702 34.9172 135.9 34.8432 136.085C34.763 136.295 34.726 136.387 34.6582 136.541C34.5286 136.819 34.356 137.072 34.1771 137.287C33.8133 137.731 33.4062 137.99 33.0239 138.12C32.7217 138.249 32.2715 138.225 31.9076 138.083C31.5376 137.941 31.2724 137.731 31.112 137.503C31.0319 137.368 30.9825 137.3 30.9455 137.176C30.927 137.053 30.9085 136.905 30.9394 136.757C30.9825 136.449 31.1429 136.153 31.3094 135.931C31.4759 135.702 31.6671 135.536 31.8459 135.406C32.2036 135.154 32.5552 135.067 32.6292 134.851Z" fill="#236192"/>
<path d="M81.1582 22.214C77.3099 19.4264 71.6608 20.37 67.0416 21.4739C62.4162 22.5779 58.3397 25.7786 56.1627 30.0093C52.8077 36.5403 54.1028 44.459 52.2959 51.5697C51.0254 56.5589 48.244 61.061 46.9058 66.0317C45.2838 72.0632 45.8512 78.4832 44.5992 84.6011C42.8478 93.1611 37.581 100.919 37.1863 109.646C36.7793 118.681 41.676 127.266 41.6205 136.307C41.5897 141.425 40.017 146.834 42.1632 151.472C42.9711 153.217 44.26 154.703 45.1234 156.424C45.9868 158.145 46.3692 160.315 45.327 161.937C46.8441 157.374 47.6335 152.576 47.6581 147.765C48.5894 151.293 49.5206 154.827 50.4519 158.354C51.1734 149.344 55.0958 140.858 60.0542 133.303C65.0126 125.748 71.0317 118.952 76.5452 111.792C81.3494 105.557 85.7774 99.0322 89.8046 92.2668C91.5745 89.2943 93.289 86.1983 93.8749 82.7879C94.3744 79.8708 94.0106 76.8798 93.6467 73.9442C92.3023 63.1146 90.9578 52.2913 89.6196 41.4617C88.9658 36.2135 88.2443 30.7617 85.3457 26.3398C82.4471 21.918 76.6808 18.8899 71.7718 20.851" fill="#236192"/>
<path d="M87.4548 73.7285L47.214 80.204L48.3919 97.2809L69.792 110.83C69.792 110.83 80.7819 110.435 80.9792 109.85C81.1766 109.264 90.748 92.2794 90.748 92.2794V76.0844L87.4548 73.7285Z" fill="#FFB798"/>
<path d="M76.2793 20.007C76.23 20.0872 77.1797 20.7162 78.2898 21.5735C79.3999 22.4245 80.2571 23.1769 80.3188 23.1091C80.3805 23.0474 79.6157 22.1778 78.481 21.3144C77.3585 20.451 76.3225 19.933 76.2793 20.007Z" fill="#455A64"/>
<path d="M117.039 74.5799C117.039 74.5799 101.368 70.4973 97.3288 71.5704C93.2893 72.6496 85.3275 73.8029 85.3275 73.8029C85.3275 73.8029 84.1125 88.6226 81.8245 92.6621C79.5365 96.7016 71.8584 103.436 70.2426 103.843C68.6268 104.25 55.4229 98.7244 52.5983 93.7413C49.7676 88.7582 47.6152 80.1365 47.6152 80.1365C47.6152 80.1365 35.0897 82.4246 32.7955 84.0404C30.5075 85.6562 20.27 98.2002 20.27 98.2002L33.0731 113.193L37.1619 108.487L43.4339 114.753C43.5696 115.696 42.7617 120.408 48.9597 127.957L51.1552 152.823L41.9106 177.35H113.08L105.112 152.823C105.112 152.823 105.124 110.732 105.112 106.273C105.106 104.509 105.26 94.9501 105.26 94.9501L113.08 95.6531L117.039 74.5799Z" fill="#EFEFEF"/>
<path d="M32.9616 87.8637C32.9431 87.8699 32.9986 88.1166 33.1219 88.5606C33.2637 89.0663 33.4426 89.6954 33.6523 90.4293C34.0963 92.0081 34.676 94.1974 35.2126 96.6396C35.7491 99.0818 36.1315 101.314 36.3905 102.936C36.5077 103.695 36.6064 104.336 36.6927 104.854C36.7667 105.311 36.816 105.557 36.8345 105.557C36.8592 105.557 36.8469 105.298 36.816 104.842C36.7852 104.386 36.7174 103.72 36.6187 102.905C36.4213 101.271 36.0636 99.0263 35.5271 96.5718C34.9906 94.1172 34.3738 91.9279 33.8743 90.3614C33.6214 89.5782 33.4118 88.9492 33.2452 88.5175C33.0787 88.0919 32.9801 87.8514 32.9616 87.8637Z" fill="#236192"/>
<path d="M95.4973 96.702C95.5466 96.7267 95.855 96.0915 96.5025 95.1726C97.1439 94.2537 98.1677 93.0696 99.5368 92.0397C100.906 91.0159 102.33 90.356 103.391 89.9983C104.452 89.6345 105.149 89.5173 105.137 89.4618C105.13 89.4371 104.958 89.4495 104.643 89.4926C104.329 89.5296 103.872 89.6221 103.323 89.7825C102.226 90.0908 100.752 90.7322 99.3456 91.7806C97.9456 92.8352 96.9219 94.0748 96.3175 95.0431C96.0153 95.5241 95.7933 95.9373 95.67 96.2272C95.5343 96.5232 95.4788 96.6897 95.4973 96.702Z" fill="#236192"/>
<path d="M78.0205 120.914C78.0082 120.932 78.2117 121.08 78.6126 121.315C79.0073 121.549 79.6116 121.833 80.3949 122.092C81.949 122.61 84.3295 122.881 86.7594 122.11C89.1892 121.333 90.9716 119.73 91.9398 118.41C92.4332 117.75 92.76 117.164 92.9451 116.745C93.1362 116.326 93.2102 116.085 93.1979 116.079C93.1362 116.048 92.7724 117.01 91.761 118.274C90.768 119.532 89.0166 121.056 86.6669 121.808C84.3172 122.554 82.0045 122.326 80.4689 121.876C78.9086 121.426 78.0513 120.852 78.0205 120.914Z" fill="#236192"/>
<path d="M70.698 157.522C70.698 157.547 71.0002 157.559 71.5367 157.572C72.0794 157.584 72.8565 157.578 73.8247 157.553C75.7551 157.51 78.4254 157.368 81.361 157.06C84.2966 156.751 86.9361 156.344 88.8356 155.987C89.7854 155.808 90.5501 155.654 91.0805 155.53C91.6047 155.407 91.8945 155.333 91.8945 155.308C91.8884 155.284 91.5923 155.321 91.062 155.407C90.4699 155.499 89.7114 155.617 88.8048 155.758C86.8991 156.055 84.2596 156.431 81.3302 156.733C78.4008 157.035 75.7427 157.214 73.8186 157.319C72.9058 157.368 72.1349 157.405 71.5367 157.436C70.994 157.479 70.698 157.504 70.698 157.522Z" fill="#236192"/>
<path d="M148.14 46.248C148.14 46.248 157.415 64.9037 158.988 68.826C160.351 72.218 167.887 88.1169 165.556 92.5265C163.225 96.936 161.159 96.7078 157.915 96.8867C154.671 97.0655 133.548 96.1959 128.078 95.9677C121.109 95.6779 113.449 93.6982 113.449 93.6982L117.039 74.58L144.957 79.7728L140.24 49.4426L148.14 46.248Z" fill="#FFB798"/>
<path d="M148.195 46.3833C148.195 46.3833 146.586 43.5279 145.587 42.8434C144.594 42.1588 136.496 35.0604 136.496 35.0604C136.496 35.0604 133.32 31.6993 132.451 31.8843C131.581 32.0693 123.298 37.6136 123.237 38.4832C123.175 39.3528 123.613 39.8523 124.106 39.9756C124.606 40.099 123.86 40.6602 125.167 41.9676C125.167 41.9676 123.921 41.906 123.983 43.0901C124.045 44.2742 123.983 45.89 124.791 45.9516C125.599 46.0133 128.152 46.7595 128.275 45.3904L128.522 44.8292C128.522 44.8292 130.699 46.3833 132.691 47.1974C134.683 48.0053 137.859 47.9436 137.859 47.9436C137.859 47.9436 138.729 49.2511 140.227 49.4361C141.726 49.6211 148.195 46.3833 148.195 46.3833Z" fill="#FFB798"/>
<path d="M135.787 41.2762C135.762 41.2577 135.485 41.5722 135.355 42.2136C135.213 42.8488 135.294 43.78 135.725 44.6743C136.163 45.5623 136.774 46.2099 137.218 46.6478C137.668 47.0856 137.976 47.3262 138.007 47.2953C138.038 47.2645 137.791 46.9623 137.384 46.4936C136.983 46.0187 136.422 45.365 136.015 44.5324C135.608 43.6999 135.503 42.8426 135.577 42.2506C135.645 41.64 135.836 41.3008 135.787 41.2762Z" fill="#F09D71"/>
<path d="M131.975 42.9171C131.956 42.9294 131.969 42.9849 132.043 43.0527C132.117 43.1206 132.258 43.1699 132.425 43.1576C132.764 43.1391 133.177 42.9232 133.48 42.5347C133.782 42.1523 133.88 41.696 133.868 41.3876C133.85 41.0731 133.745 40.9004 133.708 40.9127C133.658 40.9251 133.677 41.1039 133.64 41.3814C133.597 41.6528 133.486 42.0228 133.227 42.3435C132.98 42.6642 132.641 42.8739 132.394 42.9356C132.147 43.0034 132.012 42.8924 131.975 42.9171Z" fill="#F09D71"/>
<path d="M135.077 34.9979C135.09 34.9917 134.781 34.8499 134.288 35.0596C134.048 35.1644 133.782 35.3679 133.548 35.6516C133.307 35.9353 133.104 36.2992 132.851 36.6692C132.352 37.4216 131.729 38.2973 130.97 39.2224C130.594 39.685 130.181 40.1537 129.737 40.6285C129.515 40.8691 129.268 41.1219 129.12 41.4796C128.96 41.8373 129.04 42.2875 129.237 42.602C129.434 42.9289 129.7 43.1694 129.946 43.3976C130.199 43.6258 130.452 43.8478 130.705 44.0513C131.223 44.4645 131.716 44.8469 132.259 45.1552C132.537 45.3032 132.845 45.4081 133.166 45.4019C133.48 45.3958 133.77 45.2909 134.017 45.1491C134.498 44.8592 134.868 44.4953 135.108 44.0698C135.343 43.6443 135.361 43.1571 135.207 42.8055C135.059 42.4355 134.72 42.2382 134.455 42.2135C134.183 42.1827 133.974 42.2628 133.863 42.3492C133.751 42.4355 133.721 42.5095 133.727 42.5095C133.739 42.5404 133.937 42.2443 134.43 42.3307C134.664 42.3738 134.923 42.5465 135.034 42.8672C135.151 43.1817 135.127 43.5888 134.905 43.9588C134.689 44.3227 134.319 44.668 133.881 44.9147C133.659 45.0381 133.412 45.1182 133.159 45.1182C132.907 45.1182 132.648 45.0257 132.395 44.89C131.901 44.6064 131.396 44.2055 130.896 43.8046C130.643 43.6011 130.397 43.3853 130.15 43.1571C129.903 42.9289 129.663 42.7007 129.502 42.4293C129.336 42.158 129.293 41.862 129.404 41.5906C129.515 41.3131 129.731 41.0787 129.953 40.8382C130.397 40.3572 130.81 39.8761 131.186 39.4074C131.938 38.4639 132.549 37.5696 133.03 36.7926C133.27 36.404 133.462 36.0402 133.671 35.7626C133.881 35.4789 134.109 35.2816 134.325 35.1706C134.781 34.9424 135.084 35.0287 135.077 34.9979Z" fill="#F09D71"/>
<path d="M133.617 40.9444C133.58 40.9629 133.611 41.1109 133.753 41.3082C133.894 41.4994 134.153 41.7214 134.499 41.851C134.844 41.9743 135.19 41.9743 135.418 41.9188C135.652 41.8633 135.769 41.7708 135.757 41.7276C135.726 41.6413 135.202 41.7708 134.61 41.5488C134.012 41.3391 133.697 40.9012 133.617 40.9444Z" fill="#F09D71"/>
<path d="M131.821 33.8756C131.803 33.8633 131.636 34.036 131.346 34.369C131.056 34.702 130.643 35.1831 130.144 35.7874C129.626 36.4103 129.04 37.1257 128.392 37.9151C128.065 38.3221 127.72 38.7415 127.362 39.1794C127.011 39.6173 126.616 40.0613 126.32 40.6163C126.024 41.1529 125.882 41.8683 126.191 42.4356C126.48 42.9907 126.968 43.3176 127.368 43.6321C128.201 44.255 128.904 44.8532 129.595 45.2787C129.946 45.4822 130.304 45.6056 130.637 45.6179C130.964 45.6241 131.248 45.5439 131.445 45.4267C131.852 45.1862 131.901 44.8902 131.889 44.8963C131.864 44.8778 131.772 45.1307 131.389 45.3157C131.204 45.4021 130.945 45.4637 130.649 45.4391C130.36 45.4144 130.033 45.291 129.712 45.0875C129.077 44.6682 128.368 44.0329 127.547 43.4039C127.146 43.0832 126.702 42.7563 126.468 42.3C126.228 41.8436 126.332 41.2701 126.604 40.7705C126.875 40.2648 127.257 39.8269 127.609 39.3829C127.961 38.945 128.3 38.5195 128.62 38.1063C129.249 37.3046 129.823 36.5768 130.323 35.9355C130.804 35.3126 131.186 34.8069 131.445 34.4553C131.704 34.0915 131.84 33.888 131.821 33.8756Z" fill="#F09D71"/>
<path d="M129.121 34.5171C129.041 34.4616 128.023 36.028 126.315 37.539C125.889 37.9213 125.47 38.2914 125.149 38.6922C124.822 39.0869 124.613 39.5186 124.514 39.8948C124.31 40.6719 124.576 41.1529 124.6 41.1283C124.656 41.1221 124.489 40.6534 124.736 39.9627C124.853 39.6235 125.063 39.2411 125.384 38.8834C125.698 38.5134 126.105 38.1619 126.531 37.7795C127.394 37.0086 128.072 36.2007 128.51 35.584C128.948 34.9549 129.158 34.5356 129.121 34.5171Z" fill="#F09D71"/>
<path d="M125.21 43.3862C125.21 43.4972 126.123 43.3923 127.11 43.7192C127.597 43.8919 127.973 44.1879 128.189 44.4469C128.411 44.6998 128.498 44.9095 128.547 44.891C128.584 44.8848 128.578 44.6381 128.374 44.3112C128.177 43.9844 127.77 43.6144 127.221 43.417C126.678 43.2197 126.154 43.2135 125.79 43.2443C125.426 43.2813 125.21 43.343 125.21 43.3862Z" fill="#F09D71"/>
<path d="M145.025 79.5809C144.988 79.5994 145.13 80.0126 145.457 80.6479C145.778 81.2769 146.302 82.1156 146.999 82.9482C147.696 83.7808 148.43 84.4407 148.991 84.8724C149.552 85.3041 149.94 85.5138 149.959 85.4829C150.021 85.4028 148.602 84.379 147.245 82.7385C145.87 81.1166 145.118 79.5378 145.025 79.5809Z" fill="#F09D71"/>
<path d="M73.2832 22.6656C72.1978 21.1114 70.3291 20.211 68.442 20.0384C66.5548 19.8657 64.6553 20.359 62.9285 21.1423C58.6608 23.0849 55.3799 26.7976 53.2091 30.9542C51.0382 35.1109 49.8788 39.7178 48.9661 44.3123C47.8005 50.1896 46.9987 56.1471 46.567 62.1231C46.4375 63.9239 45.4816 77.0291 45.2781 79.6934" fill="#236192"/>
<path d="M74.4361 26.1998L71.1675 25.8359L58.679 30.8683C56.872 30.967 55.4412 32.4348 55.3857 34.2418L55.4967 74.9266C55.4782 77.6833 56.0333 80.0762 57.6984 82.2717L59.4499 84.5844C63.4462 89.8635 71.6732 89.4318 74.837 83.61C75.059 83.2029 75.2132 82.8452 75.281 82.5554C75.3489 82.1915 75.4475 81.9572 75.466 81.6426C76.0334 78.522 75.8607 75.531 75.8607 75.531C76.0827 71.9355 76.1568 70.4616 76.1568 70.4986C76.1568 70.4986 83.8041 69.6167 85.8701 59.8047C86.9 54.9203 87.0541 46.8413 86.9678 40.2239C86.9 34.2726 81.7874 26.1875 74.4361 26.1998Z" fill="#FFB798"/>
<path d="M82.8103 45.5885C82.7978 46.271 82.2155 46.8219 81.5018 46.8282C80.7943 46.8282 80.2245 46.2835 80.2308 45.601C80.2433 44.9186 80.8256 44.3676 81.5393 44.3613C82.2531 44.3613 82.8229 44.906 82.8103 45.5885Z" fill="#236192"/>
<path d="M85.5487 44.0258C85.3651 44.2258 84.3449 43.2719 82.8417 43.195C81.3386 43.0873 80.1959 43.9027 80.0395 43.6873C79.9646 43.5873 80.1551 43.2258 80.6584 42.8566C81.1481 42.4873 81.9779 42.1489 82.9097 42.2104C83.8483 42.2719 84.6169 42.7027 85.0522 43.1335C85.5011 43.5565 85.6372 43.9412 85.5487 44.0258Z" fill="#236192"/>
<path d="M71.4875 46.5522C71.3087 46.694 70.4638 45.8429 69.1131 45.6394C67.7687 45.4174 66.6648 45.9601 66.5476 45.7689C66.4859 45.6826 66.6895 45.4112 67.1705 45.1646C67.6454 44.9179 68.4163 44.7267 69.255 44.8562C70.0937 44.9919 70.7536 45.4112 71.1175 45.7874C71.4813 46.1698 71.5739 46.4905 71.4875 46.5522Z" fill="#236192"/>
<path d="M76.0266 54.2966C76.0266 54.2164 76.8777 54.1177 78.2653 54.0067C78.6168 53.9882 78.9498 53.9327 79.0177 53.6983C79.1102 53.4517 78.9868 53.0693 78.8388 52.6561C78.5551 51.7927 78.253 50.8923 77.9384 49.9487C76.6988 46.0942 75.8169 42.9366 75.9711 42.8873C76.1253 42.838 77.26 45.9215 78.5058 49.776C78.8018 50.7258 79.0917 51.6323 79.3569 52.4957C79.4679 52.8966 79.6714 53.3592 79.4679 53.871C79.363 54.13 79.0979 54.3027 78.8697 54.3521C78.6415 54.4076 78.4441 54.4014 78.2714 54.4076C76.8838 54.4137 76.0266 54.3767 76.0266 54.2966Z" fill="#236192"/>
<path d="M76.1562 70.5045C76.1562 70.5045 69.4772 70.597 63.0818 66.3047C63.0818 66.3047 66.0729 73.3229 76.0206 72.8912L76.1562 70.5045Z" fill="#F09D71"/>
<path d="M75.2811 57.5591C74.8248 56.8869 73.9799 56.486 73.1226 56.5353C72.5244 56.5723 71.9139 56.8252 71.5315 57.2877C71.1491 57.7503 71.0381 58.4348 71.3403 58.9097C71.6857 59.4462 72.4443 59.6066 73.1103 59.4524C73.7702 59.2982 74.3561 58.8974 74.9111 58.4965C75.0653 58.3855 75.2195 58.2683 75.3182 58.1141C75.4168 57.9599 75.4477 57.7441 75.3428 57.6084" fill="#F09D71"/>
<path d="M71.957 55.0433C72.179 55.0433 72.105 56.5234 73.3261 57.6397C74.541 58.7559 76.126 58.6696 76.1322 58.8793C76.1507 58.9718 75.7683 59.1506 75.0961 59.1321C74.4424 59.1198 73.4988 58.8608 72.7526 58.1824C72.0125 57.4978 71.7226 56.6221 71.698 56.0115C71.6733 55.3886 71.8583 55.0309 71.957 55.0433Z" fill="#236192"/>
<path d="M72.1237 42.2833C71.9017 42.6101 70.6189 42.1168 69.0154 41.9256C67.412 41.6974 66.049 41.8454 65.9195 41.4754C65.864 41.2965 66.1662 41.0128 66.7582 40.7847C67.3503 40.5565 68.2322 40.4208 69.1943 40.5503C70.1563 40.6798 70.9766 41.0375 71.4885 41.4075C72.0003 41.7714 72.2162 42.1229 72.1237 42.2833Z" fill="#236192"/>
<path d="M84.9137 38.3491C84.6608 38.6452 83.7357 38.2813 82.601 38.2073C81.4724 38.0963 80.5041 38.3121 80.2944 37.9729C80.2081 37.8126 80.3746 37.5104 80.8063 37.2329C81.2319 36.9615 81.9349 36.758 82.712 36.8197C83.489 36.8814 84.1489 37.1959 84.5251 37.5351C84.9136 37.8743 85.0308 38.2011 84.9137 38.3491Z" fill="#236192"/>
<path d="M57.36 50.9614C57.397 50.2275 56.6323 48.4452 55.9108 48.2972C53.9804 47.8963 50.4713 47.8778 50.1938 52.8115C49.8114 59.5584 56.6632 58.547 56.6817 58.3558C56.7002 58.2017 57.2367 53.5084 57.36 50.9614Z" fill="#FFB798"/>
<path d="M54.7634 55.6774C54.7325 55.6528 54.64 55.7514 54.4365 55.8316C54.2392 55.9118 53.9 55.9488 53.5546 55.8008C52.8577 55.4986 52.3212 54.333 52.3582 53.1181C52.3767 52.5013 52.537 51.9278 52.7837 51.4529C53.0181 50.9719 53.3573 50.645 53.7211 50.6018C54.085 50.5402 54.3255 50.7684 54.3933 50.9657C54.4735 51.1569 54.4242 51.2926 54.455 51.3049C54.4735 51.3234 54.603 51.2001 54.566 50.9164C54.5475 50.7807 54.4735 50.6142 54.3255 50.4785C54.1713 50.3367 53.937 50.2565 53.6841 50.2688C53.1599 50.275 52.6665 50.7252 52.3952 51.2432C52.0992 51.7613 51.9018 52.4088 51.8833 53.0995C51.8463 54.4625 52.4754 55.7699 53.4313 56.1091C53.9 56.2571 54.3008 56.14 54.5167 55.992C54.7449 55.8439 54.788 55.6898 54.7634 55.6774Z" fill="#F09D71"/>
<path d="M70.4023 25.3242C65.4624 32.0525 60.1957 39.6567 55.0769 46.2494C54.195 42.9561 53.3625 37.9915 53.9792 34.6366C54.5959 31.2817 56.2919 28.0624 59.0054 25.9964C61.719 23.9304 66.554 23.5049 69.7178 24.7753" fill="#236192"/>
<path d="M53.9053 47.4698C53.9361 47.476 54.0409 47.0628 54.337 46.3536C54.6268 45.6443 55.1449 44.6453 55.9713 43.5475C56.7977 42.4497 57.9448 41.2718 59.3694 40.1432C60.7878 39.0085 62.4899 37.9354 64.2784 36.8129C66.0669 35.6905 67.769 34.6051 69.1937 33.4333C70.6244 32.2739 71.7654 31.0528 72.5794 29.9181C73.3873 28.7833 73.8745 27.7472 74.1274 27.0133C74.2507 26.6433 74.3371 26.3534 74.3803 26.1561C74.4296 25.9587 74.4481 25.8539 74.4358 25.8477C74.4049 25.8416 74.3001 26.2548 74.0102 26.9701C73.7204 27.6855 73.2147 28.6785 72.3944 29.7824C71.5742 30.8801 70.4271 32.0704 69.0086 33.199C67.5902 34.3399 65.8942 35.413 64.1057 36.5354C62.3173 37.6517 60.6151 38.7433 59.1844 39.9027C57.7536 41.056 56.6003 42.2709 55.7862 43.4057C54.9722 44.5404 54.4788 45.5642 54.2198 46.2981C54.0903 46.6681 54.0039 46.9518 53.9608 47.1553C53.9176 47.365 53.8929 47.4698 53.9053 47.4698Z" fill="#236192"/>
<path d="M89.8051 73.1072C89.8113 73.1134 89.9408 73.0209 90.1813 72.8235C90.4218 72.6323 90.7672 72.3363 91.1927 71.9354C92.0314 71.1337 93.2525 69.9126 94.2763 68.0625C94.7758 67.1374 95.2137 66.0458 95.3555 64.8C95.5282 63.5604 95.3432 62.2036 94.9238 60.8839C94.5106 59.5518 93.9001 58.232 93.3636 56.8382C92.827 55.4444 92.4015 53.9581 92.0499 52.4102C91.3592 49.3143 91.02 46.2985 90.6068 43.5665C90.2121 40.8344 89.7188 38.386 89.1144 36.3817C88.5162 34.3774 87.8069 32.8233 87.2519 31.7995C86.9682 31.2876 86.7338 30.8991 86.5612 30.6462C86.3885 30.3872 86.296 30.2577 86.2898 30.2639C86.2836 30.27 86.3577 30.4119 86.5057 30.6771C86.666 30.9423 86.8757 31.337 87.1409 31.855C87.6651 32.8911 88.3311 34.4452 88.8985 36.4434C89.4721 38.4415 89.9346 40.8776 90.317 43.6096C90.7117 46.3355 91.0385 49.3574 91.7354 52.478C92.087 54.0383 92.5186 55.5369 93.0675 56.9492C93.6164 58.3553 94.227 59.6628 94.6402 60.9702C95.0657 62.2653 95.2445 63.5666 95.0904 64.7692C94.9608 65.9718 94.5538 67.0449 94.0728 67.9576C93.0984 69.7831 91.9143 71.0227 91.1064 71.8491C90.6993 72.2623 90.3663 72.5707 90.1381 72.7803C89.9161 72.9839 89.7989 73.101 89.8051 73.1072Z" fill="#236192"/>
<path d="M53.4 47.9875C53.4123 47.9936 53.4678 47.895 53.5788 47.6976C53.6899 47.5064 53.8379 47.2166 54.0167 46.8342C54.3744 46.0756 54.8184 44.9409 55.2686 43.5101C56.1999 40.667 56.9523 36.5412 59.0923 32.514C60.153 30.5097 61.442 28.7397 62.8543 27.3768C64.2604 26.0077 65.759 25.0271 67.1034 24.3919C68.4479 23.7567 69.6197 23.4421 70.4399 23.2941C71.2601 23.1399 71.7227 23.1214 71.7227 23.0844C71.7227 23.0721 71.6055 23.0721 71.3835 23.0783C71.1614 23.0783 70.8346 23.1091 70.4214 23.1646C69.5888 23.2818 68.3924 23.5655 67.0109 24.1822C65.6357 24.8051 64.1 25.7795 62.6507 27.1609C61.2015 28.5362 59.8879 30.3309 58.8086 32.3599C56.6378 36.4425 55.9162 40.5992 55.0466 43.4423C54.6273 44.8792 54.2202 46.014 53.8995 46.7849C53.585 47.5619 53.3753 47.9751 53.4 47.9875Z" fill="#455A64"/>
<path d="M50.3044 63.6523C50.3167 63.6461 50.2428 63.4858 50.1009 63.1898C49.9529 62.8937 49.7555 62.4497 49.5335 61.87C49.0895 60.7105 48.5529 58.9591 48.4234 56.7327C48.2878 54.5125 48.6208 51.8237 49.8049 49.1163C50.3723 47.7595 51.0876 46.3781 51.8277 44.9473C52.5739 43.5165 53.2832 41.9932 53.9616 40.4267C55.3183 37.2876 56.5394 34.2657 58.0257 31.7125C59.4873 29.1532 61.245 27.1118 62.9656 25.6995C64.6863 24.2749 66.3514 23.5102 67.5293 23.1278C68.7196 22.7516 69.4165 22.6838 69.4041 22.6406C69.4041 22.6406 68.7011 22.6591 67.4923 23.0045C66.2897 23.356 64.5814 24.1022 62.8238 25.5207C61.06 26.9268 59.2653 28.9805 57.7729 31.5583C56.2619 34.1239 55.0223 37.1581 53.6717 40.2911C52.9933 41.8575 52.2964 43.3685 51.5564 44.7993C50.8225 46.2362 50.1071 47.6177 49.5397 48.9991C48.3556 51.7497 48.0411 54.5002 48.2076 56.7389C48.3679 58.9961 48.9415 60.7537 49.4287 61.907C49.6692 62.4867 49.8912 62.9246 50.0577 63.2083C50.2057 63.5104 50.2982 63.6585 50.3044 63.6523Z" fill="#455A64"/>
<path d="M53.3562 40.1299C53.3562 40.1423 53.4487 40.1608 53.6399 40.1916C53.8249 40.2163 54.1024 40.2718 54.4601 40.3026C55.1755 40.3828 56.2178 40.426 57.5005 40.3396C60.0537 40.1793 63.6369 39.3159 66.9116 37.0957C70.1864 34.8755 72.3202 31.8659 73.4118 29.5533C73.9669 28.3938 74.3122 27.4071 74.5034 26.7164C74.6083 26.371 74.6576 26.0996 74.7069 25.9146C74.7439 25.7296 74.7624 25.6309 74.7501 25.6309C74.7254 25.6248 74.6144 26.0071 74.3862 26.6794C74.1581 27.3577 73.788 28.3198 73.2145 29.4546C72.0859 31.7179 69.9582 34.6473 66.739 36.8305C63.5197 39.0137 60.0106 39.9018 57.4882 40.1176C56.2239 40.2348 55.1878 40.2225 54.4786 40.1854C53.7509 40.1361 53.3624 40.0991 53.3562 40.1299Z" fill="#236192"/>
<path d="M79.9984 42.8131C80.0293 42.8501 80.2759 42.6651 80.72 42.4678C81.1579 42.2643 81.8054 42.0669 82.5331 42.0916C83.2609 42.1163 83.8961 42.3568 84.3154 42.585C84.741 42.8131 84.9753 43.0167 85.0123 42.9797C85.0432 42.955 84.8582 42.6898 84.4326 42.3938C84.0194 42.0978 83.3349 41.8017 82.5393 41.7771C81.7437 41.7524 81.0468 42.0052 80.609 42.2704C80.1711 42.5356 79.9676 42.7885 79.9984 42.8131Z" fill="#F09D71"/>
<path d="M65.2175 49.6898C65.2668 49.7144 65.4765 49.3321 65.9761 48.8634C66.4694 48.4008 67.3082 47.8828 68.3381 47.7841C69.368 47.6854 70.2931 48.037 70.8605 48.3947C71.4463 48.7524 71.7239 49.0977 71.7609 49.0607C71.7917 49.0422 71.5697 48.6414 70.9838 48.2097C70.4164 47.778 69.4297 47.3648 68.3011 47.4696C67.1787 47.5806 66.2906 48.1788 65.8096 48.7092C65.3223 49.2396 65.1867 49.6774 65.2175 49.6898Z" fill="#F09D71"/>
<path d="M74.4368 25.8542C74.4676 25.7062 74.2333 25.4657 73.6474 25.33C73.0738 25.1944 72.1734 25.2499 71.1682 25.5952C70.6686 25.7617 70.1321 25.9961 69.5894 26.2674C69.4537 26.3353 69.318 26.4031 69.1762 26.4771C69.0467 26.5388 68.8493 26.6621 68.689 26.767C68.356 26.9828 68.0538 27.2295 67.7639 27.4947C67.1842 28.0251 66.6662 28.6171 66.1604 29.2215C65.9138 29.5114 65.6671 29.8136 65.408 30.1158C65.2847 30.2576 65.1614 30.3995 65.038 30.5351C64.9023 30.6831 64.7605 30.8312 64.6187 30.9853C63.4777 32.2188 62.1888 33.557 60.8258 35.0927C59.4691 36.6283 58.0198 38.3921 56.774 40.5259C56.1573 41.5929 55.5899 42.7461 55.1274 43.9734C54.671 45.2253 54.3318 46.4464 54.0235 47.7169C53.4437 50.2577 53.0984 52.9466 53.0305 55.691C52.9627 58.1702 53.1169 60.5816 53.4252 62.9004C53.7336 65.2316 54.2208 67.3963 54.6278 69.3821C55.041 71.3741 54.6402 73.4463 54.7573 75.1484C54.8622 76.8444 55.4974 78.1827 55.1335 79.5518C54.8067 80.9517 54.2393 81.9816 53.5979 82.438C52.9812 82.919 51.9698 82.9992 51.1187 82.8327C50.2553 82.6724 49.4659 82.3208 48.8307 82.0371C48.1893 81.7473 47.6774 81.5129 47.3197 81.4204L47.0422 82.0926C47.4924 82.0248 47.6713 81.92 47.6836 81.7905C47.7021 81.6609 47.5541 81.5191 47.1347 81.3403L46.2405 80.9641L46.8572 82.0125C47.0422 82.3332 47.3876 82.7834 47.9303 83.3261C48.4792 83.8626 49.2254 84.5287 50.4033 85.0467C50.9892 85.2996 51.6738 85.5031 52.4632 85.5524C53.2464 85.6079 54.1715 85.4969 55.0657 85.0591C55.9538 84.6335 56.7062 83.9305 57.2612 83.1534C57.8286 82.3763 58.2541 81.5068 58.5625 80.6372C59.247 78.8734 59.5431 76.8567 59.5677 74.8092C59.5801 72.7556 59.3334 70.6649 59.0004 68.5804C58.6735 66.4897 58.285 64.4175 58.0568 62.3207C57.8286 60.2054 57.7114 58.0222 57.7731 55.802C57.8286 53.3413 58.1123 50.9608 58.5625 48.7036C58.7968 47.5812 59.0744 46.4649 59.3951 45.4843C59.7219 44.4853 60.1413 43.5355 60.6038 42.6228C61.5351 40.7973 62.7007 39.1383 63.8724 37.5657C65.0442 35.9931 66.2036 34.5068 67.215 33.0945C67.3445 32.9157 67.4679 32.7368 67.5912 32.5641C67.7269 32.3729 67.8502 32.1818 67.9674 32.0029C68.2018 31.6391 68.4053 31.2999 68.6026 30.973C68.9912 30.3254 69.3427 29.7642 69.6942 29.3017C69.8669 29.0735 70.0396 28.8638 70.2061 28.6973C70.2986 28.6048 70.3479 28.5493 70.4775 28.4445C70.5885 28.352 70.6995 28.2594 70.8105 28.1669C71.2422 27.8092 71.6246 27.507 71.9823 27.248C72.6915 26.7423 73.265 26.4525 73.6906 26.2798C74.1223 26.1133 74.3998 26.0269 74.4368 25.8542Z" fill="#236192"/>
<path d="M32.2389 112.224C31.727 112.908 14.0581 136.103 14.0581 136.103C23.1917 146.174 34.1137 155.172 43.8023 159.68L44.0059 171.564C44.0059 171.564 -1.99505 147.753 -2.00122 138.132C-2.00739 130.984 20.6508 98.6621 20.6508 98.6621L32.2389 112.224Z" fill="#FFB798"/>
<path d="M4.29049 137.897C4.33983 137.995 6.25781 136.571 9.07003 136.028C11.8761 135.448 14.195 136.028 14.2011 135.917C14.2073 135.88 13.6522 135.689 12.7087 135.572C11.7651 135.448 10.4392 135.43 9.00837 135.713C7.57758 136.003 6.35648 136.528 5.53625 137.002C4.70985 137.477 4.26582 137.866 4.29049 137.897Z" fill="#F09D71"/>
<path d="M60.9783 158.366C60.2259 158.243 53.4605 157.922 53.4605 157.922C53.4605 157.922 53.1583 156.621 53.7627 155.819C54.1451 155.32 55.9829 154.469 55.9829 154.469C55.9829 154.469 61.6074 154.093 61.9836 153.84C62.3598 153.587 62.9888 150.947 62.3598 150.947H53.8121L48.7858 152.871L42.8777 159.242L44.0063 171.558L50.6668 170.429C50.6668 170.429 63.735 171.058 64.1174 170.553C64.4936 170.047 64.4936 168.166 64.1174 168.036C63.7412 167.913 67.6389 167.284 67.8856 166.526C68.1384 165.773 68.1384 165.397 67.8856 165.015C67.6327 164.638 66.8803 164.262 66.8803 164.262C66.8803 164.262 68.3728 164.299 68.4961 162.122L60.9783 158.366Z" fill="#FFB798"/>
<path d="M52.2276 167.007C52.2214 167.093 54.8301 167.334 58.0555 167.537C61.281 167.741 63.902 167.833 63.9082 167.747C63.9144 167.661 61.3056 167.42 58.0802 167.217C54.8548 167.013 52.2337 166.921 52.2276 167.007Z" fill="#F09D71"/>
<path d="M55.151 162.517C55.1386 162.604 57.7597 163.085 61.0098 163.59C64.2599 164.096 66.8994 164.435 66.9179 164.343C66.9303 164.256 64.3092 163.775 61.0591 163.27C57.809 162.77 55.1633 162.431 55.151 162.517Z" fill="#F09D71"/>
</g>
</svg>
