<svg width="97" height="97" viewBox="0 0 97 97" fill="none" xmlns="http://www.w3.org/2000/svg">
<path d="M82.4978 48.9048C63.5542 37.9666 32.937 37.9666 14.1083 48.9048C-4.72033 59.843 -4.60943 77.5771 14.3363 88.5256C33.2821 99.474 63.8992 99.4658 82.7258 88.5256C101.552 77.5853 101.446 59.843 82.4978 48.9048Z" fill="#F5F5F5"/>
<path d="M5.04572 67.444C6.38681 66.6697 8.55761 66.6697 9.89254 67.444C11.2275 68.2182 11.2193 69.4772 9.87611 70.2535C8.53297 71.0298 6.36422 71.0277 5.02929 70.2535C3.69436 69.4792 3.70257 68.2203 5.04572 67.444Z" fill="#E0E0E0"/>
<path d="M74.6139 78.8998C70.8617 76.7352 64.8012 76.7352 61.0736 78.8998C57.3461 81.0645 57.3666 84.5784 61.1168 86.7431C64.8669 88.9077 70.9316 88.9098 74.6571 86.7431C78.3825 84.5764 78.3641 81.0665 74.6139 78.8998Z" fill="#E0E0E0"/>
<path d="M85.7134 62.4721C87.1222 61.6506 89.3978 61.6506 90.7984 62.4721C92.1991 63.2936 92.1888 64.6039 90.782 65.4171C89.3752 66.2304 87.0955 66.2386 85.6969 65.4171C84.2983 64.5956 84.3045 63.2854 85.7134 62.4721Z" fill="#E0E0E0"/>
<path d="M59.5388 48.1555L56.756 46.5515C56.3285 46.3047 55.8437 46.1748 55.3502 46.1748C54.8566 46.1748 54.3718 46.3047 53.9444 46.5515L38.5064 55.4996L37.1448 54.7151L25.9704 61.2542L27.2602 61.9956L8.98599 72.5477C8.84305 72.6297 8.72429 72.748 8.6417 72.8907C8.55912 73.0333 8.51562 73.1952 8.51562 73.36C8.51563 73.5248 8.55912 73.6867 8.6417 73.8293C8.72429 73.9719 8.84305 74.0902 8.98599 74.1722L11.7976 75.7926C12.2256 76.0397 12.7111 76.1698 13.2054 76.1698C13.6997 76.1698 14.1852 76.0397 14.6132 75.7926L32.8751 65.2302L35.011 66.4625C35.8656 66.9554 36.8349 67.2149 37.8215 67.2149C38.8081 67.2149 39.7774 66.9554 40.632 66.4625L47.204 62.6713C47.3942 62.5615 47.5522 62.4036 47.662 62.2135C47.7719 62.0233 47.8297 61.8075 47.8297 61.5879C47.8297 61.3683 47.7719 61.1526 47.662 60.9624C47.5522 60.7722 47.3942 60.6143 47.204 60.5046L44.1234 58.7343L46.7173 57.2289L47.6148 56.7072L59.547 49.7841C59.69 49.7012 59.8085 49.582 59.8906 49.4386C59.9728 49.2952 60.0156 49.1326 60.0148 48.9674C60.0139 48.8021 59.9695 48.64 59.8859 48.4974C59.8023 48.3549 59.6826 48.2369 59.5388 48.1555Z" fill="#E0E0E0"/>
<path d="M75.168 20.2699L75.782 19.9126L82.2657 23.6422V24.3507L75.168 20.2699Z" fill="#F5F5F5"/>
<path d="M75.168 20.27L82.2657 24.3508V25.162L75.168 21.0833V20.27Z" fill="#E0E0E0"/>
<path d="M82.9375 24.7348L83.5516 24.3774L90.0352 28.107V28.8156L82.9375 24.7348Z" fill="#F5F5F5"/>
<path d="M82.9375 24.7344L90.0352 28.8152V29.6264L82.9375 25.5477V24.7344Z" fill="#E0E0E0"/>
<path d="M56.2227 9.35833L56.8367 9.00098L63.3204 12.7306V13.4391L56.2227 9.35833Z" fill="#F5F5F5"/>
<path d="M56.2227 9.3584L63.3204 13.4392V14.2504L56.2227 10.1717V9.3584Z" fill="#E0E0E0"/>
<path d="M63.9922 13.8231L64.6063 13.4678L71.0899 17.1953V17.9059L63.9922 13.8231Z" fill="#F5F5F5"/>
<path d="M63.9922 13.8232L71.0899 17.9061V18.7152L63.9922 14.6365V13.8232Z" fill="#E0E0E0"/>
<path d="M75.2029 13.4555L75.817 13.0981L75.78 34.9766L75.168 35.334L75.2029 13.4555Z" fill="#F0F0F0"/>
<path d="M75.168 35.3339L75.78 34.9766L82.8428 39.0306L82.2287 39.388L75.168 35.3339Z" fill="#F5F5F5"/>
<path d="M74.5021 12.2378L82.9738 17.1052L82.9348 40.6061L74.459 35.7449L74.5021 12.2378ZM82.2303 39.3862L82.2673 17.5097L75.2024 13.4557L75.1675 35.3341L82.2283 39.3862" fill="#E0E0E0"/>
<path d="M74.5 12.2377L75.112 11.8804L83.5857 16.7498L82.9717 17.1051L74.5 12.2377Z" fill="#F5F5F5"/>
<path d="M82.9726 17.1048L83.5867 16.7495L83.5456 40.2484L82.9336 40.6057L82.9726 17.1048Z" fill="#F0F0F0"/>
<path d="M82.9724 17.9202L83.5865 17.5649L83.5516 39.4414L82.9375 39.7987L82.9724 17.9202Z" fill="#F0F0F0"/>
<path d="M82.9375 39.7988L83.5516 39.4414L90.6123 43.4955L89.9983 43.8528L82.9375 39.7988Z" fill="#F5F5F5"/>
<path d="M82.2696 16.7026L90.7433 21.5741L90.7022 45.073L82.2285 40.2015L82.2696 16.7026ZM89.9978 43.8531L90.0348 21.9849L82.972 17.9308L82.9371 39.8092L89.9978 43.8633" fill="#E0E0E0"/>
<path d="M82.2695 16.7026L82.8836 16.3452L91.3553 21.2146L90.7433 21.5699L82.2695 16.7026Z" fill="#F5F5F5"/>
<path d="M90.7442 21.5697L91.3562 21.2144L91.3172 44.7132L90.7031 45.0706L90.7442 21.5697Z" fill="#F0F0F0"/>
<path d="M56.2576 2.54377L56.8716 2.18848L56.8347 24.0649L56.2227 24.4223L56.2576 2.54377Z" fill="#F0F0F0"/>
<path d="M56.2227 24.4223L56.8347 24.0649L63.8975 28.119L63.2834 28.4743L56.2227 24.4223Z" fill="#F5F5F5"/>
<path d="M55.5546 1.32617L64.0284 6.19559L63.9894 29.6945L55.5156 24.8251L55.5546 1.32617ZM63.2829 28.4766L63.3198 6.59812L56.257 2.54404L56.2242 24.4225L63.2849 28.4766" fill="#E0E0E0"/>
<path d="M55.5547 1.3261L56.1667 0.96875L64.6404 5.83816L64.0264 6.19551L55.5547 1.3261Z" fill="#F5F5F5"/>
<path d="M64.0273 6.19573L64.6414 5.83838L64.6003 29.3373L63.9883 29.6946L64.0273 6.19573Z" fill="#F0F0F0"/>
<path d="M64.0271 7.00862L64.6412 6.65332L64.6063 28.5297L63.9922 28.8871L64.0271 7.00862Z" fill="#F0F0F0"/>
<path d="M63.9922 28.8871L64.6063 28.5298L71.667 32.5839L71.0529 32.9412L63.9922 28.8871Z" fill="#F5F5F5"/>
<path d="M63.3243 5.79102L71.798 10.6604L71.7569 34.1593L63.2832 29.2899L63.3243 5.79102ZM71.0525 32.9414L71.0895 11.063L64.0287 7.00888L63.9938 28.8874L71.0545 32.9414" fill="#E0E0E0"/>
<path d="M63.3242 5.79094L63.9383 5.43359L72.41 10.303L71.7979 10.6604L63.3242 5.79094Z" fill="#F5F5F5"/>
<path d="M71.7969 10.6606L72.4089 10.3032L72.3699 33.8021L71.7559 34.1595L71.7969 10.6606Z" fill="#F0F0F0"/>
<path d="M4.2104 62.9834L7.46146 63.0779L10.7125 62.9834C10.8522 65.1788 10.425 67.4174 9.83353 68.51C9.69436 68.7905 9.47009 69.0198 9.19276 69.1652C8.23367 69.7197 6.6831 69.7197 5.73016 69.1652C5.44741 69.018 5.22083 68.7821 5.08529 68.4936C4.49381 67.3948 4.07074 65.1686 4.2104 62.9834Z" fill="white"/>
<path d="M5.16887 61.6507C3.89555 62.388 3.88734 63.5792 5.15449 64.3206C6.42165 65.062 8.47744 65.0579 9.75281 64.3206C11.0282 63.5833 11.0323 62.3942 9.76719 61.6507C8.50209 60.9073 6.44219 60.9155 5.16887 61.6507Z" fill="#EBEBEB"/>
<path d="M5.67283 61.9444C4.67882 62.5174 4.67471 63.4477 5.67283 64.0228C6.67095 64.5978 8.2667 64.5958 9.25866 64.0228C10.2506 63.4498 10.2588 62.5174 9.27098 61.9444C8.28313 61.3714 6.66684 61.3714 5.67283 61.9444Z" fill="#E0E0E0"/>
<g opacity="0.15">
<path opacity="0.15" d="M5.67283 61.9444C4.67882 62.5174 4.67471 63.4477 5.67283 64.0228C6.67095 64.5978 8.2667 64.5958 9.25866 64.0228C10.2506 63.4498 10.2588 62.5174 9.27098 61.9444C8.28313 61.3714 6.66684 61.3714 5.67283 61.9444Z" fill="black"/>
</g>
<path d="M2.11523 49.1084C9.44297 51.5072 9.50869 56.4094 7.8657 59.9008C7.45496 60.6073 6.1878 60.9872 5.0911 56.6456L7.01546 56.8921L4.77277 55.7543L4.1813 54.023L6.0502 54.1626L3.67813 53.1645C3.24172 51.7814 2.71975 50.4267 2.11523 49.1084Z" fill="#36B8B0"/>
<path opacity="0.2" d="M2.11523 49.1084C9.44297 51.5072 9.50869 56.4094 7.8657 59.9008C7.45496 60.6073 6.1878 60.9872 5.0911 56.6456L7.01546 56.8921L4.77277 55.7543L4.1813 54.023L6.0502 54.1626L3.67813 53.1645C3.24172 51.7814 2.71975 50.4267 2.11523 49.1084Z" fill="black"/>
<path opacity="0.2" d="M2.11523 49.1084C9.44297 51.5072 9.50869 56.4094 7.8657 59.9008C7.45496 60.6073 6.1878 60.9872 5.0911 56.6456L7.01546 56.8921L4.77277 55.7543L4.1813 54.023L6.0502 54.1626L3.67813 53.1645C3.24172 51.7814 2.71975 50.4267 2.11523 49.1084Z" fill="white"/>
<path d="M4.1875 50.3262C8.05058 53.2589 8.39972 56.6209 7.30918 60.1307C7.69529 57.0481 8.11219 53.9223 4.1875 50.3262Z" fill="white"/>
<path d="M14.5327 54.0864C7.3097 55.1133 6.43276 59.6582 7.39185 63.1845C7.66295 63.9115 8.77402 64.4742 10.5176 60.6132L8.68365 60.5228L10.9613 59.8369L11.7827 58.313L10.0145 58.1302L12.3907 57.5963C13.0322 56.3836 13.7475 55.2114 14.5327 54.0864Z" fill="#36B8B0"/>
<path opacity="0.2" d="M14.5327 54.0864C7.3097 55.1133 6.43276 59.6582 7.39185 63.1845C7.66295 63.9115 8.77402 64.4742 10.5176 60.6132L8.68365 60.5228L10.9613 59.8369L11.7827 58.313L10.0145 58.1302L12.3907 57.5963C13.0322 56.3836 13.7475 55.2114 14.5327 54.0864Z" fill="white"/>
<path opacity="0.1" d="M14.5327 54.0864C7.3097 55.1133 6.43276 59.6582 7.39185 63.1845C7.66295 63.9115 8.77402 64.4742 10.5176 60.6132L8.68365 60.5228L10.9613 59.8369L11.7827 58.313L10.0145 58.1302L12.3907 57.5963C13.0322 56.3836 13.7475 55.2114 14.5327 54.0864Z" fill="black"/>
<path d="M12.3923 54.8853C8.30541 56.9739 7.4223 60.0484 7.85564 63.4986C8.00967 60.5556 8.14111 57.5757 12.3923 54.8853Z" fill="white"/>
<path d="M0 55.7935C6.62536 55.9023 7.92538 59.9009 7.45507 63.1869C7.29283 63.8729 6.35427 64.5034 4.34982 61.2194L5.99281 60.9319L3.86308 60.5684L2.94301 59.2869L4.51206 58.9275L2.31046 58.7098C1.60142 57.6908 0.829779 56.7168 0 55.7935Z" fill="#36B8B0"/>
<path d="M2.00391 56.2822C5.92039 57.7075 7.06226 60.3897 7.05816 63.5381C6.59812 60.8949 6.1463 58.223 2.00391 56.2822Z" fill="white"/>
<path opacity="0.2" d="M0 55.7935C6.62536 55.9023 7.92538 59.9009 7.45507 63.1869C7.29283 63.8729 6.35427 64.5034 4.34982 61.2194L5.99281 60.9319L3.86308 60.5684L2.94301 59.2869L4.51206 58.9275L2.31046 58.7098C1.60142 57.6908 0.829779 56.7168 0 55.7935Z" fill="white"/>
<path d="M84.8364 57.7915L88.2477 57.8921L91.6569 57.7915C91.8047 60.0958 91.355 62.4412 90.7347 63.5892C90.5882 63.8844 90.3516 64.1254 90.0591 64.2772C89.0527 64.8584 87.4262 64.8584 86.428 64.2772C86.1313 64.1233 85.8938 63.8757 85.7524 63.5728C85.1362 62.4186 84.6906 60.0835 84.8364 57.7915Z" fill="white"/>
<path d="M85.845 56.3948C84.508 57.167 84.5019 58.4177 85.8286 59.1879C87.1553 59.958 89.3199 59.9601 90.6508 59.1879C91.9816 58.4157 91.9939 57.167 90.6672 56.3948C89.3405 55.6226 87.1799 55.6246 85.845 56.3948Z" fill="#EBEBEB"/>
<path d="M86.3715 56.7033C85.3282 57.305 85.3241 58.2805 86.3592 58.8823C87.3943 59.484 89.0783 59.484 90.1216 58.8823C91.1649 58.2805 91.169 57.305 90.134 56.7033C89.0989 56.1015 87.4128 56.1015 86.3715 56.7033Z" fill="#E0E0E0"/>
<g opacity="0.15">
<path opacity="0.15" d="M86.3715 56.7033C85.3282 57.305 85.3241 58.2805 86.3592 58.8823C87.3943 59.484 89.0783 59.484 90.1216 58.8823C91.1649 58.2805 91.169 57.305 90.134 56.7033C89.0989 56.1015 87.4128 56.1015 86.3715 56.7033Z" fill="black"/>
</g>
<path d="M89.9874 50.8129C90.5419 50.1249 91.1847 49.5068 91.694 48.7818C92.0411 48.2889 92.3307 47.683 92.1849 47.0977C92.1036 46.8288 91.9488 46.5878 91.738 46.4021C91.5272 46.2163 91.2687 46.0931 90.9917 46.0462C90.4316 45.9631 89.8606 46.0912 89.3897 46.4056C88.9232 46.7178 88.5134 47.1075 88.178 47.5578C86.2587 49.9891 85.351 53.0669 85.6437 56.1506C85.6499 56.5038 85.7599 56.8474 85.96 57.1384C86.0831 57.2836 86.2455 57.39 86.4277 57.445C86.6098 57.5 86.804 57.5013 86.9869 57.4486C87.9172 57.1734 87.794 55.9185 87.946 55.1894C88.2737 53.5908 88.9778 52.0934 89.9997 50.8211L89.9874 50.8129Z" fill="#36B8B0"/>
<path opacity="0.2" d="M89.9874 50.8129C90.5419 50.1249 91.1847 49.5068 91.694 48.7818C92.0411 48.2889 92.3307 47.683 92.1849 47.0977C92.1036 46.8288 91.9488 46.5878 91.738 46.4021C91.5272 46.2163 91.2687 46.0931 90.9917 46.0462C90.4316 45.9631 89.8606 46.0912 89.3897 46.4056C88.9232 46.7178 88.5134 47.1075 88.178 47.5578C86.2587 49.9891 85.351 53.0669 85.6437 56.1506C85.6499 56.5038 85.7599 56.8474 85.96 57.1384C86.0831 57.2836 86.2455 57.39 86.4277 57.445C86.6098 57.5 86.804 57.5013 86.9869 57.4486C87.9172 57.1734 87.794 55.9185 87.946 55.1894C88.2737 53.5908 88.9778 52.0934 89.9997 50.8211L89.9874 50.8129Z" fill="white"/>
<path d="M86.9208 56.514C86.9388 56.5107 86.9551 56.5014 86.967 56.4875C86.979 56.4737 86.9859 56.4562 86.9865 56.438C87.0522 54.9469 87.5369 49.866 91.0447 46.9682C91.053 46.9616 91.0599 46.9534 91.065 46.9441C91.0701 46.9347 91.0732 46.9245 91.0741 46.9139C91.0751 46.9033 91.0739 46.8927 91.0706 46.8826C91.0673 46.8725 91.062 46.8632 91.0549 46.8552C91.0488 46.845 91.0406 46.8363 91.0308 46.8296C91.0209 46.823 91.0098 46.8185 90.9981 46.8165C90.9864 46.8146 90.9744 46.8152 90.9629 46.8183C90.9515 46.8215 90.9408 46.827 90.9317 46.8347C87.3726 49.7654 86.8818 54.9141 86.8242 56.4236C86.8237 56.445 86.8315 56.4658 86.8461 56.4816C86.8607 56.4973 86.8809 56.5067 86.9023 56.5078L86.9208 56.514Z" fill="#F0F0F0"/>
<path d="M86.4137 56.6764C86.4875 57.0026 86.6263 57.3106 86.8218 57.5819C87.0173 57.8533 87.2655 58.0825 87.5515 58.2558C88.088 58.5096 88.6846 58.6091 89.2746 58.5433C89.8722 58.4774 90.4598 58.3395 91.0243 58.1325C91.3057 58.0381 91.6179 57.9107 91.6405 57.5616C91.6451 57.4696 91.629 57.3778 91.5935 57.2929C91.5579 57.2079 91.5038 57.132 91.4351 57.0708C91.3777 57.0156 91.3173 56.9635 91.2544 56.9147C91.2246 56.8929 91.2024 56.8624 91.1907 56.8274C91.179 56.7925 91.1784 56.7548 91.189 56.7194C91.1995 56.6841 91.2208 56.6529 91.2498 56.6302C91.2787 56.6074 91.3141 56.5942 91.3509 56.5922C91.5176 56.581 91.6835 56.5604 91.8479 56.5306C92.2332 56.469 92.5949 56.3052 92.8953 56.0562C93.1216 55.8639 93.2942 55.6162 93.3964 55.3374C93.4516 55.2253 93.4744 55.1 93.4625 54.9756C93.4505 54.8512 93.4042 54.7325 93.3286 54.633C93.217 54.5426 93.0828 54.4844 92.9405 54.4646C92.8145 54.4386 92.6892 54.416 92.5646 54.3968C92.5288 54.3911 92.4957 54.3739 92.4706 54.3477C92.4454 54.3215 92.4295 54.2878 92.4253 54.2517C92.4211 54.2156 92.4289 54.1791 92.4473 54.1478C92.4658 54.1166 92.494 54.0922 92.5277 54.0785L93.0555 53.8567C93.211 53.8095 93.3523 53.7241 93.4662 53.6082C93.5351 53.5013 93.5798 53.3807 93.5972 53.2548C93.6145 53.1288 93.6042 53.0006 93.5669 52.8791C93.5032 52.5484 93.3882 52.2281 93.3101 51.9015C93.2177 51.5752 93.2057 51.2313 93.2752 50.8993C92.283 50.7916 91.2796 50.8611 90.3117 51.1047C90.0201 51.1651 89.7444 51.2861 89.5025 51.4599C89.1739 51.7228 89.0918 52.1192 89.1226 52.5484C89.1243 52.5661 89.1198 52.5839 89.1098 52.5986C89.0998 52.6133 89.0849 52.624 89.0678 52.6289C89.0507 52.6338 89.0324 52.6326 89.0162 52.6253C88.9999 52.6181 88.9867 52.6055 88.9788 52.5895L88.6399 51.9734C88.5889 51.885 88.5068 51.8188 88.4096 51.7877C88.3124 51.7566 88.2071 51.7627 88.1142 51.805C87.8175 51.9556 87.5547 52.1653 87.342 52.4211C87.2238 52.5558 87.1337 52.7128 87.0769 52.8827C87.0201 53.0527 86.9978 53.2323 87.0113 53.411C87.0449 53.8944 87.1198 54.3739 87.2352 54.8445C87.2411 54.8707 87.239 54.8981 87.2293 54.9231C87.2196 54.9482 87.2027 54.9698 87.1807 54.9852C87.1586 55.0006 87.1326 55.0091 87.1057 55.0096C87.0788 55.0102 87.0524 55.0028 87.0298 54.9883L87.0154 54.976C86.9242 54.9056 86.8097 54.8726 86.6951 54.8835C86.3973 54.9205 86.3213 55.2224 86.3007 55.4812C86.2895 55.8827 86.3275 56.2841 86.4137 56.6764Z" fill="#36B8B0"/>
<path opacity="0.2" d="M86.4137 56.6764C86.4875 57.0026 86.6263 57.3106 86.8218 57.5819C87.0173 57.8533 87.2655 58.0825 87.5515 58.2558C88.088 58.5096 88.6846 58.6091 89.2746 58.5433C89.8722 58.4774 90.4598 58.3395 91.0243 58.1325C91.3057 58.0381 91.6179 57.9107 91.6405 57.5616C91.6451 57.4696 91.629 57.3778 91.5935 57.2929C91.5579 57.2079 91.5038 57.132 91.4351 57.0708C91.3777 57.0156 91.3173 56.9635 91.2544 56.9147C91.2246 56.8929 91.2024 56.8624 91.1907 56.8274C91.179 56.7925 91.1784 56.7548 91.189 56.7194C91.1995 56.6841 91.2208 56.6529 91.2498 56.6302C91.2787 56.6074 91.3141 56.5942 91.3509 56.5922C91.5176 56.581 91.6835 56.5604 91.8479 56.5306C92.2332 56.469 92.5949 56.3052 92.8953 56.0562C93.1216 55.8639 93.2942 55.6162 93.3964 55.3374C93.4516 55.2253 93.4744 55.1 93.4625 54.9756C93.4505 54.8512 93.4042 54.7325 93.3286 54.633C93.217 54.5426 93.0828 54.4844 92.9405 54.4646C92.8145 54.4386 92.6892 54.416 92.5646 54.3968C92.5288 54.3911 92.4957 54.3739 92.4706 54.3477C92.4454 54.3215 92.4295 54.2878 92.4253 54.2517C92.4211 54.2156 92.4289 54.1791 92.4473 54.1478C92.4658 54.1166 92.494 54.0922 92.5277 54.0785L93.0555 53.8567C93.211 53.8095 93.3523 53.7241 93.4662 53.6082C93.5351 53.5013 93.5798 53.3807 93.5972 53.2548C93.6145 53.1288 93.6042 53.0006 93.5669 52.8791C93.5032 52.5484 93.3882 52.2281 93.3101 51.9015C93.2177 51.5752 93.2057 51.2313 93.2752 50.8993C92.283 50.7916 91.2796 50.8611 90.3117 51.1047C90.0201 51.1651 89.7444 51.2861 89.5025 51.4599C89.1739 51.7228 89.0918 52.1192 89.1226 52.5484C89.1243 52.5661 89.1198 52.5839 89.1098 52.5986C89.0998 52.6133 89.0849 52.624 89.0678 52.6289C89.0507 52.6338 89.0324 52.6326 89.0162 52.6253C88.9999 52.6181 88.9867 52.6055 88.9788 52.5895L88.6399 51.9734C88.5889 51.885 88.5068 51.8188 88.4096 51.7877C88.3124 51.7566 88.2071 51.7627 88.1142 51.805C87.8175 51.9556 87.5547 52.1653 87.342 52.4211C87.2238 52.5558 87.1337 52.7128 87.0769 52.8827C87.0201 53.0527 86.9978 53.2323 87.0113 53.411C87.0449 53.8944 87.1198 54.3739 87.2352 54.8445C87.2411 54.8707 87.239 54.8981 87.2293 54.9231C87.2196 54.9482 87.2027 54.9698 87.1807 54.9852C87.1586 55.0006 87.1326 55.0091 87.1057 55.0096C87.0788 55.0102 87.0524 55.0028 87.0298 54.9883L87.0154 54.976C86.9242 54.9056 86.8097 54.8726 86.6951 54.8835C86.3973 54.9205 86.3213 55.2224 86.3007 55.4812C86.2895 55.8827 86.3275 56.2841 86.4137 56.6764Z" fill="black"/>
<path opacity="0.2" d="M86.4137 56.6764C86.4875 57.0026 86.6263 57.3106 86.8218 57.5819C87.0173 57.8533 87.2655 58.0825 87.5515 58.2558C88.088 58.5096 88.6846 58.6091 89.2746 58.5433C89.8722 58.4774 90.4598 58.3395 91.0243 58.1325C91.3057 58.0381 91.6179 57.9107 91.6405 57.5616C91.6451 57.4696 91.629 57.3778 91.5935 57.2929C91.5579 57.2079 91.5038 57.132 91.4351 57.0708C91.3777 57.0156 91.3173 56.9635 91.2544 56.9147C91.2246 56.8929 91.2024 56.8624 91.1907 56.8274C91.179 56.7925 91.1784 56.7548 91.189 56.7194C91.1995 56.6841 91.2208 56.6529 91.2498 56.6302C91.2787 56.6074 91.3141 56.5942 91.3509 56.5922C91.5176 56.581 91.6835 56.5604 91.8479 56.5306C92.2332 56.469 92.5949 56.3052 92.8953 56.0562C93.1216 55.8639 93.2942 55.6162 93.3964 55.3374C93.4516 55.2253 93.4744 55.1 93.4625 54.9756C93.4505 54.8512 93.4042 54.7325 93.3286 54.633C93.217 54.5426 93.0828 54.4844 92.9405 54.4646C92.8145 54.4386 92.6892 54.416 92.5646 54.3968C92.5288 54.3911 92.4957 54.3739 92.4706 54.3477C92.4454 54.3215 92.4295 54.2878 92.4253 54.2517C92.4211 54.2156 92.4289 54.1791 92.4473 54.1478C92.4658 54.1166 92.494 54.0922 92.5277 54.0785L93.0555 53.8567C93.211 53.8095 93.3523 53.7241 93.4662 53.6082C93.5351 53.5013 93.5798 53.3807 93.5972 53.2548C93.6145 53.1288 93.6042 53.0006 93.5669 52.8791C93.5032 52.5484 93.3882 52.2281 93.3101 51.9015C93.2177 51.5752 93.2057 51.2313 93.2752 50.8993C92.283 50.7916 91.2796 50.8611 90.3117 51.1047C90.0201 51.1651 89.7444 51.2861 89.5025 51.4599C89.1739 51.7228 89.0918 52.1192 89.1226 52.5484C89.1243 52.5661 89.1198 52.5839 89.1098 52.5986C89.0998 52.6133 89.0849 52.624 89.0678 52.6289C89.0507 52.6338 89.0324 52.6326 89.0162 52.6253C88.9999 52.6181 88.9867 52.6055 88.9788 52.5895L88.6399 51.9734C88.5889 51.885 88.5068 51.8188 88.4096 51.7877C88.3124 51.7566 88.2071 51.7627 88.1142 51.805C87.8175 51.9556 87.5547 52.1653 87.342 52.4211C87.2238 52.5558 87.1337 52.7128 87.0769 52.8827C87.0201 53.0527 86.9978 53.2323 87.0113 53.411C87.0449 53.8944 87.1198 54.3739 87.2352 54.8445C87.2411 54.8707 87.239 54.8981 87.2293 54.9231C87.2196 54.9482 87.2027 54.9698 87.1807 54.9852C87.1586 55.0006 87.1326 55.0091 87.1057 55.0096C87.0788 55.0102 87.0524 55.0028 87.0298 54.9883L87.0154 54.976C86.9242 54.9056 86.8097 54.8726 86.6951 54.8835C86.3973 54.9205 86.3213 55.2224 86.3007 55.4812C86.2895 55.8827 86.3275 56.2841 86.4137 56.6764Z" fill="white"/>
<path d="M87.9802 58.1736C88.1664 57.381 88.4334 56.6096 88.777 55.8714C88.777 55.8599 88.7796 55.8486 88.7846 55.8383C88.7896 55.828 88.7968 55.819 88.8058 55.8118C88.8243 55.7708 88.8407 55.7317 88.8612 55.6907C88.7633 54.7677 88.4952 53.8708 88.0706 53.0454C88.0601 53.0266 88.0575 53.0044 88.0633 52.9837C88.069 52.963 88.0827 52.9453 88.1014 52.9346C88.1202 52.9241 88.1424 52.9215 88.1631 52.9273C88.1839 52.933 88.2015 52.9467 88.2123 52.9654C88.6108 53.7363 88.874 54.5699 88.9906 55.4298C89.6643 54.0764 90.7404 52.495 92.4019 51.3388C92.4105 51.3325 92.4202 51.3279 92.4306 51.3255C92.441 51.323 92.4517 51.3226 92.4623 51.3243C92.4728 51.326 92.4828 51.3298 92.4919 51.3355C92.5009 51.3411 92.5087 51.3486 92.5148 51.3573C92.5272 51.3751 92.5321 51.3971 92.5287 51.4185C92.5253 51.4399 92.5137 51.4592 92.4964 51.4723C90.7815 52.6635 89.7012 54.3167 89.044 55.6886C89.928 55.2887 90.9095 55.1559 91.8679 55.3066C91.8783 55.3086 91.8883 55.3126 91.8971 55.3184C91.906 55.3243 91.9136 55.3318 91.9195 55.3406C91.9254 55.3493 91.9295 55.3592 91.9316 55.3696C91.9337 55.38 91.9337 55.3907 91.9316 55.4011C91.9299 55.4117 91.926 55.4218 91.9203 55.4309C91.9146 55.44 91.9071 55.4478 91.8983 55.454C91.8895 55.4601 91.8795 55.4644 91.869 55.4666C91.8585 55.4688 91.8476 55.4689 91.8371 55.4668C91.8227 55.4668 90.2701 55.1813 88.9311 55.931C88.5894 56.6645 88.3238 57.4311 88.1383 58.2188C88.1357 58.235 88.1282 58.2499 88.1168 58.2617C88.1054 58.2734 88.0907 58.2814 88.0747 58.2845H88.0439C88.0317 58.2826 88.0202 58.278 88.0101 58.271C88 58.2641 87.9916 58.2549 87.9855 58.2443C87.9794 58.2337 87.9758 58.2218 87.9748 58.2096C87.9739 58.1973 87.9757 58.1851 87.9802 58.1736Z" fill="#F0F0F0"/>
<path d="M44.9284 60.9649L39.5763 64.0271C38.8074 64.4691 37.9361 64.7017 37.0492 64.7017C36.1623 64.7017 35.2909 64.4691 34.5221 64.0271L30.5522 61.731C30.3209 61.5977 30.1287 61.4059 29.9949 61.1748C29.8612 60.9437 29.7906 60.6815 29.7902 60.4145V57.7036L28.9688 58.1842V60.5378C28.9687 60.8497 29.0509 61.1562 29.207 61.4262C29.3631 61.6963 29.5877 61.9204 29.858 62.076L34.5816 64.7952C35.3388 65.2297 36.1967 65.4584 37.0697 65.4584C37.9428 65.4584 38.8006 65.2297 39.5578 64.7952L44.9489 61.7146C45.3158 61.5052 45.6079 61.1863 45.7843 60.8025C45.9607 60.4187 46.0126 59.9893 45.9326 59.5746C45.8785 59.8662 45.7604 60.1422 45.5867 60.3826C45.413 60.623 45.1882 60.8219 44.9284 60.9649Z" fill="#36B8B0"/>
<path opacity="0.1" d="M44.9284 60.9649L39.5763 64.0271C38.8074 64.4691 37.9361 64.7017 37.0492 64.7017C36.1623 64.7017 35.2909 64.4691 34.5221 64.0271L30.5522 61.731C30.3209 61.5977 30.1287 61.4059 29.9949 61.1748C29.8612 60.9437 29.7906 60.6815 29.7902 60.4145V57.7036L28.9688 58.1842V60.5378C28.9687 60.8497 29.0509 61.1562 29.207 61.4262C29.3631 61.6963 29.5877 61.9204 29.858 62.076L34.5816 64.7952C35.3388 65.2297 36.1967 65.4584 37.0697 65.4584C37.9428 65.4584 38.8006 65.2297 39.5578 64.7952L44.9489 61.7146C45.3158 61.5052 45.6079 61.1863 45.7843 60.8025C45.9607 60.4187 46.0126 59.9893 45.9326 59.5746C45.8785 59.8662 45.7604 60.1422 45.5867 60.3826C45.413 60.623 45.1882 60.8219 44.9284 60.9649Z" fill="black"/>
<path d="M30.5513 61.7307L34.5232 64.0185C35.2921 64.4605 36.1635 64.6931 37.0504 64.6931C37.9372 64.6931 38.8086 64.4605 39.5775 64.0185L44.9275 60.9646C45.183 60.8197 45.4036 60.6205 45.5736 60.3809C45.7436 60.1414 45.8588 59.8674 45.9112 59.5783C45.8601 59.2963 45.7489 59.0285 45.5852 58.7932C45.4215 58.5579 45.2091 58.3606 44.9624 58.2147L40.5715 55.5818C40.3086 55.4236 40.0911 55.2002 39.9399 54.9332C39.7888 54.6662 39.7092 54.3647 39.7089 54.0579V51.9692L29.7832 57.7074V60.4183C29.7849 60.6852 29.8568 60.947 29.9916 61.1773C30.1264 61.4076 30.3194 61.5985 30.5513 61.7307Z" fill="#36B8B0"/>
<path opacity="0.4" d="M30.5522 61.731C30.3209 61.5977 30.1287 61.4059 29.9949 61.1748C29.8612 60.9437 29.7906 60.6815 29.7902 60.4145V57.7036L28.9688 58.1842V60.5378C28.9687 60.8497 29.0509 61.1562 29.207 61.4262C29.3631 61.6963 29.5877 61.9204 29.858 62.076L31.5298 63.0413V62.2876L30.5522 61.731Z" fill="black"/>
<path opacity="0.3" d="M30.5512 61.7307L31.5185 62.2872L41.8817 56.3663L40.5734 55.5818C40.3106 55.4236 40.093 55.2002 39.9419 54.9332C39.7908 54.6662 39.7112 54.3647 39.7109 54.0579V51.9692L29.7852 57.7074V60.4183C29.7867 60.685 29.8582 60.9466 29.9927 61.1769C30.1271 61.4073 30.3197 61.5982 30.5512 61.7307Z" fill="black"/>
<path d="M12.5303 67.4854L12.4543 33.5392C12.4824 33.0135 12.6342 32.5018 12.8972 32.0458C13.1601 31.5898 13.527 31.2022 13.9679 30.9145L56.1661 6.61467C56.5768 6.37438 56.9609 6.34974 57.2361 6.50377L55.6465 5.58369C55.3692 5.40707 54.9769 5.42145 54.5436 5.672L12.3475 29.9739C11.9068 30.2611 11.5402 30.6483 11.2775 31.1041C11.0148 31.5599 10.8635 32.0712 10.8359 32.5965L10.9078 66.551C10.9078 67.0049 11.0639 67.3293 11.3186 67.4977L11.4028 67.545L12.9698 68.4589C12.6987 68.2946 12.5323 67.9598 12.5303 67.4854Z" fill="#36B8B0"/>
<path opacity="0.3" d="M55.6468 5.58369C55.3696 5.40707 54.9773 5.42145 54.544 5.672L12.3479 29.9739C11.8482 30.2888 11.4463 30.7369 11.1875 31.2677L12.81 32.2063C13.0694 31.677 13.4703 31.2299 13.9683 30.9145L56.1664 6.61467C56.5772 6.37438 56.9612 6.34974 57.2364 6.50377L55.6468 5.58369Z" fill="white"/>
<path opacity="0.2" d="M10.8359 32.5966L10.9078 66.5511C10.9078 67.005 11.0639 67.3295 11.3186 67.4979L11.4028 67.5451L12.9698 68.459C12.7028 68.2988 12.5364 67.9641 12.5344 67.4897L12.4584 33.5434C12.4711 33.0775 12.5928 32.621 12.8137 32.2105L11.1912 31.272C10.9721 31.6802 10.8505 32.1336 10.8359 32.5966Z" fill="black"/>
<path d="M57.6907 7.48355C57.6907 7.00914 57.5223 6.67644 57.2553 6.51624H57.2451C56.9699 6.36221 56.592 6.38686 56.1751 6.62715L13.9687 30.9147C13.5278 31.2023 13.1609 31.5899 12.8979 32.046C12.635 32.502 12.4832 33.0136 12.4551 33.5393L12.5311 67.4856C12.5311 67.96 12.6995 68.2948 12.9665 68.4549L12.9911 68.4673H13.0014C13.2766 68.611 13.6462 68.5843 14.0549 68.3482L56.2531 44.0545C56.694 43.7673 57.0608 43.3801 57.3238 42.9243C57.5868 42.4686 57.7386 41.9573 57.7667 41.4319L57.6907 7.48355ZM55.5035 42.7565L14.0282 66.6394L13.9543 33.5352C13.9825 33.274 14.065 33.0216 14.1966 32.7941C14.3282 32.5667 14.5059 32.3693 14.7183 32.2147L56.2038 8.33175L56.2778 41.436C56.2478 41.6979 56.1635 41.9507 56.0302 42.1781C55.8968 42.4055 55.7174 42.6025 55.5035 42.7565Z" fill="#36B8B0"/>
<path d="M56.1928 8.33154L55.1186 8.94766L55.1967 40.9121C55.168 41.1731 55.0853 41.4254 54.9537 41.6528C54.8222 41.8801 54.6448 42.0776 54.4327 42.2326L14.0254 65.4953V66.6392L55.5109 42.7563C55.723 42.6013 55.9004 42.4038 56.032 42.1765C56.1635 41.9491 56.2462 41.6969 56.2749 41.4358L56.1928 8.33154Z" fill="#36B8B0"/>
<path opacity="0.3" d="M56.1928 8.33154L55.1186 8.94766L55.1967 40.9121C55.168 41.1731 55.0853 41.4254 54.9537 41.6528C54.8222 41.8801 54.6448 42.0776 54.4327 42.2326L14.0254 65.4953V66.6392L55.5109 42.7563C55.723 42.6013 55.9004 42.4038 56.032 42.1765C56.1635 41.9491 56.2462 41.6969 56.2749 41.4358L56.1928 8.33154Z" fill="black"/>
<path d="M55.1963 40.912L55.1244 8.94971L14.7171 32.2145C14.5047 32.3691 14.327 32.5665 14.1954 32.7939C14.0638 33.0213 13.9813 33.2738 13.9531 33.535L14.025 65.4953L54.4262 42.2326C54.6393 42.0782 54.818 41.881 54.9506 41.6536C55.0832 41.4262 55.1669 41.1736 55.1963 40.912Z" fill="#263238"/>
<path d="M18.9226 69.2003L18.8446 37.1147C18.8718 36.6174 19.0163 36.1337 19.2661 35.7029C19.516 35.2721 19.8641 34.9064 20.2822 34.6358L60.1658 11.6689C60.5601 11.4409 60.9175 11.4183 61.1783 11.5641L59.677 10.6892C59.4141 10.5229 59.0445 10.5373 58.6337 10.7734L18.7501 33.7466C18.3317 34.0168 17.9833 34.3823 17.7334 34.8132C17.4835 35.2441 17.3393 35.7281 17.3125 36.2254L17.3844 68.311C17.3844 68.7423 17.5302 69.0483 17.7664 69.2064C17.7916 69.2239 17.8185 69.239 17.8465 69.2516L19.3272 70.1142C19.0828 69.9643 18.9247 69.65 18.9226 69.2003Z" fill="#455A64"/>
<path opacity="0.2" d="M59.6779 10.6892C59.415 10.5229 59.0453 10.5373 58.6346 10.7734L18.751 33.7466C18.2791 34.0443 17.8994 34.4674 17.6543 34.9685L19.1884 35.8558C19.434 35.3561 19.8128 34.9339 20.2831 34.6358L60.1667 11.6689C60.561 11.4409 60.9184 11.4183 61.1792 11.5641L59.6779 10.6892Z" fill="white"/>
<path opacity="0.1" d="M17.3203 36.2256L17.3922 68.3112C17.3922 68.7425 17.538 69.0485 17.7742 69.2066C17.7995 69.2241 17.8263 69.2392 17.8543 69.2518L19.335 70.1144C19.0824 69.9624 18.9243 69.6482 18.9243 69.1984L18.8462 37.1149C18.8587 36.6747 18.974 36.2436 19.1831 35.856L17.6489 34.9688C17.4426 35.3563 17.3301 35.7867 17.3203 36.2256Z" fill="white"/>
<path d="M18.8555 38.9755L18.9232 69.2003C18.9232 69.6501 19.0834 69.9643 19.334 70.1163L19.3566 70.1307C19.6154 70.2662 19.9727 70.2416 20.3526 70.0177L60.2486 47.0549C60.6666 46.7843 61.0148 46.4187 61.2647 45.9879C61.5145 45.5571 61.6589 45.0733 61.6862 44.576L61.6184 14.2998L18.8555 38.9755Z" fill="#455A64"/>
<path d="M20.9141 40.1603L59.5675 17.8506L59.627 44.5759C59.5723 44.8475 59.4276 45.0928 59.2163 45.2721L20.9736 67.3026L20.9141 40.1603Z" fill="#455A64"/>
<path opacity="0.2" d="M18.8555 38.9755L18.9232 69.2003C18.9232 69.6501 19.0834 69.9643 19.334 70.1163L19.3566 70.1307C19.6154 70.2662 19.9727 70.2416 20.3526 70.0177L60.2486 47.0549C60.6666 46.7843 61.0148 46.4187 61.2647 45.9879C61.5145 45.5571 61.6589 45.0733 61.6862 44.576L61.6184 14.2998L18.8555 38.9755Z" fill="white"/>
<path d="M59.9576 16.3106C60.3273 16.1052 60.6292 16.2675 60.6292 16.6946C60.6172 16.9264 60.5505 17.152 60.4345 17.353C60.3184 17.554 60.1564 17.7246 59.9617 17.8509L25.7731 37.614C25.4055 37.8194 25.1036 37.6572 25.1016 37.232C25.1134 37 25.18 36.774 25.2961 36.5726C25.4121 36.3713 25.5742 36.2003 25.769 36.0737L59.9576 16.3106Z" fill="#455A64"/>
<g opacity="0.8">
<path opacity="0.8" d="M59.9576 16.3106C60.3273 16.1052 60.6292 16.2675 60.6292 16.6946C60.6172 16.9264 60.5505 17.152 60.4345 17.353C60.3184 17.554 60.1564 17.7246 59.9617 17.8509L25.7731 37.614C25.4055 37.8194 25.1036 37.6572 25.1016 37.232C25.1134 37 25.18 36.774 25.2961 36.5726C25.4121 36.3713 25.5742 36.2003 25.769 36.0737L59.9576 16.3106Z" fill="white"/>
</g>
<path d="M20.7481 39.3204C20.7552 39.3171 20.7629 39.3154 20.7707 39.3154C20.7785 39.3154 20.7862 39.3171 20.7933 39.3204C20.822 39.3348 20.8241 39.3821 20.7933 39.4272L20.5879 39.8257L21.317 39.4046C21.3539 39.3821 21.3847 39.4046 21.3847 39.4437C21.3833 39.4668 21.3763 39.4893 21.3646 39.5093C21.3528 39.5292 21.3365 39.5462 21.317 39.5587L20.5879 39.9797L20.8056 40.1276C20.8323 40.144 20.8302 40.1933 20.8056 40.2385C20.7944 40.2575 20.7789 40.2736 20.7604 40.2857C20.7532 40.2907 20.7446 40.2934 20.7358 40.2934C20.7269 40.2934 20.7183 40.2907 20.7111 40.2857L20.3805 40.0577C20.3746 40.0533 20.3697 40.0477 20.3661 40.0413C20.3649 40.0324 20.3649 40.0235 20.3661 40.0146C20.3651 40.0057 20.3651 39.9968 20.3661 39.9879C20.3686 39.9764 20.3727 39.9653 20.3784 39.955L20.6988 39.3656C20.7108 39.3464 20.7279 39.3308 20.7481 39.3204Z" fill="#455A64"/>
<path d="M22.5871 38.2585C22.5946 38.253 22.6036 38.25 22.6128 38.25C22.622 38.25 22.631 38.253 22.6385 38.2585L22.9589 38.4741L22.9732 38.4905C22.9742 38.4994 22.9742 38.5084 22.9732 38.5172C22.9741 38.5268 22.9741 38.5364 22.9732 38.546L22.9609 38.5768L22.6405 39.1662C22.6291 39.1881 22.6121 39.2065 22.5912 39.2196C22.584 39.2236 22.5759 39.2256 22.5676 39.2256C22.5594 39.2256 22.5512 39.2236 22.544 39.2196C22.5173 39.2073 22.5152 39.158 22.544 39.1128L22.7617 38.7144L22.0326 39.1354C21.9956 39.158 21.9648 39.1354 21.9648 39.0985C21.9657 39.0749 21.9723 39.0519 21.9841 39.0315C21.9959 39.011 22.0126 38.9938 22.0326 38.9814L22.7617 38.5604L22.5419 38.4146C22.5173 38.3961 22.5194 38.3468 22.5419 38.3016C22.5529 38.2835 22.5685 38.2686 22.5871 38.2585Z" fill="#455A64"/>
<path d="M23.9339 37.4802C24.0001 37.4372 24.0792 37.4183 24.1577 37.4268C24.1607 37.4054 24.1681 37.3849 24.1794 37.3665C24.1907 37.3482 24.2057 37.3323 24.2235 37.32C24.2604 37.2995 24.2892 37.32 24.2871 37.3632V37.5357C24.2848 37.5578 24.2778 37.5792 24.2664 37.5983C24.2551 37.6175 24.2397 37.6339 24.2214 37.6466L24.0756 37.739C24.0407 37.7595 24.0099 37.739 24.0099 37.7041C24.0097 37.6837 24.014 37.6636 24.0225 37.6452C24.0311 37.6267 24.0436 37.6103 24.0592 37.5973C24.0163 37.5989 23.9745 37.6117 23.938 37.6343C23.8556 37.6874 23.787 37.7595 23.7381 37.8446C23.6892 37.9296 23.6612 38.0251 23.6566 38.123C23.6566 38.3017 23.784 38.3736 23.94 38.2832C24.0552 38.2096 24.1426 38.0998 24.1885 37.9711C24.199 37.9401 24.2201 37.9139 24.2481 37.8971C24.2581 37.8937 24.2689 37.8937 24.2789 37.8971C24.3118 37.8971 24.3241 37.9382 24.3077 37.9875C24.2391 38.1777 24.1099 38.34 23.94 38.4496C23.71 38.581 23.5293 38.4742 23.5293 38.2093C23.5341 38.0644 23.5733 37.9227 23.6436 37.7959C23.714 37.6692 23.8134 37.5609 23.9339 37.4802Z" fill="#455A64"/>
<g opacity="0.7">
<path opacity="0.7" d="M20.7481 39.3204C20.7552 39.3171 20.7629 39.3154 20.7707 39.3154C20.7785 39.3154 20.7862 39.3171 20.7933 39.3204C20.822 39.3348 20.8241 39.3821 20.7933 39.4272L20.5879 39.8257L21.317 39.4046C21.3539 39.3821 21.3847 39.4046 21.3847 39.4437C21.3833 39.4668 21.3763 39.4893 21.3646 39.5093C21.3528 39.5292 21.3365 39.5462 21.317 39.5587L20.5879 39.9797L20.8056 40.1276C20.8323 40.144 20.8302 40.1933 20.8056 40.2385C20.7944 40.2575 20.7789 40.2736 20.7604 40.2857C20.7532 40.2907 20.7446 40.2934 20.7358 40.2934C20.7269 40.2934 20.7183 40.2907 20.7111 40.2857L20.3805 40.0577C20.3746 40.0533 20.3697 40.0477 20.3661 40.0413C20.3649 40.0324 20.3649 40.0235 20.3661 40.0146C20.3651 40.0057 20.3651 39.9968 20.3661 39.9879C20.3686 39.9764 20.3727 39.9653 20.3784 39.955L20.6988 39.3656C20.7108 39.3464 20.7279 39.3308 20.7481 39.3204Z" fill="white"/>
<path opacity="0.7" d="M22.5891 38.2585C22.5965 38.253 22.6055 38.25 22.6148 38.25C22.624 38.25 22.633 38.253 22.6404 38.2585L22.9608 38.4741L22.9752 38.4905C22.9762 38.4994 22.9762 38.5084 22.9752 38.5172C22.976 38.5268 22.976 38.5364 22.9752 38.546L22.9629 38.5768L22.6425 39.1662C22.631 39.1881 22.614 39.2065 22.5932 39.2196C22.5859 39.2236 22.5778 39.2256 22.5696 39.2256C22.5613 39.2256 22.5532 39.2236 22.546 39.2196C22.5193 39.2073 22.5172 39.158 22.546 39.1128L22.7636 38.7144L22.0346 39.1354C21.9976 39.158 21.9668 39.1354 21.9668 39.0985C21.9676 39.0749 21.9742 39.0519 21.9861 39.0315C21.9979 39.011 22.0145 38.9938 22.0346 38.9814L22.7636 38.5604L22.5439 38.4146C22.5193 38.3961 22.5213 38.3468 22.5439 38.3016C22.5549 38.2835 22.5705 38.2686 22.5891 38.2585Z" fill="white"/>
<path opacity="0.7" d="M23.9358 37.4802C24.0021 37.4372 24.0812 37.4183 24.1597 37.4268C24.1627 37.4054 24.17 37.3849 24.1814 37.3665C24.1927 37.3482 24.2077 37.3323 24.2254 37.32C24.2624 37.2995 24.2911 37.32 24.2891 37.3632V37.5357C24.2868 37.5578 24.2797 37.5792 24.2684 37.5983C24.257 37.6175 24.2417 37.6339 24.2234 37.6466L24.0775 37.739C24.0426 37.7595 24.0118 37.739 24.0118 37.7041C24.0116 37.6837 24.016 37.6636 24.0245 37.6452C24.033 37.6267 24.0455 37.6103 24.0611 37.5973C24.0182 37.5989 23.9765 37.6117 23.9399 37.6343C23.8575 37.6874 23.789 37.7595 23.7401 37.8446C23.6911 37.9296 23.6632 38.0251 23.6586 38.123C23.6586 38.3017 23.7859 38.3736 23.942 38.2832C24.0572 38.2096 24.1446 38.0998 24.1905 37.9711C24.201 37.9401 24.2221 37.9139 24.2501 37.8971C24.26 37.8937 24.2709 37.8937 24.2809 37.8971C24.3137 37.8971 24.326 37.9382 24.3096 37.9875C24.241 38.1777 24.1119 38.34 23.942 38.4496C23.712 38.581 23.5312 38.4742 23.5312 38.2093C23.536 38.0644 23.5752 37.9227 23.6456 37.7959C23.7159 37.6692 23.8154 37.5609 23.9358 37.4802Z" fill="white"/>
</g>
<path d="M61.6087 12.4882C61.6087 12.0405 61.4485 11.7242 61.1979 11.5743H61.1876C60.9268 11.4285 60.5715 11.4511 60.1751 11.679L20.2833 34.6357C19.8652 34.9063 19.5171 35.272 19.2672 35.7028C19.0174 36.1336 18.8729 36.6173 18.8457 37.1146V38.9753L61.6128 14.2996L61.6087 12.4882Z" fill="#455A64"/>
<path opacity="0.3" d="M61.6087 12.4882C61.6087 12.0405 61.4485 11.7242 61.1979 11.5743H61.1876C60.9268 11.4285 60.5715 11.4511 60.1751 11.679L20.2833 34.6357C19.8652 34.9063 19.5171 35.272 19.2672 35.7028C19.0174 36.1336 18.8729 36.6173 18.8457 37.1146V38.9753L61.6128 14.2996L61.6087 12.4882Z" fill="black"/>
<g opacity="0.5">
<path opacity="0.5" d="M20.7515 35.9362C20.9569 35.8109 21.1438 35.9116 21.1438 36.1601C21.1371 36.2956 21.0982 36.4276 21.0303 36.5451C20.9625 36.6626 20.8676 36.7622 20.7536 36.8358C20.538 36.961 20.3613 36.8604 20.3613 36.6119C20.3684 36.4765 20.4074 36.3446 20.4752 36.2272C20.5431 36.1097 20.6377 36.01 20.7515 35.9362Z" fill="white"/>
<path opacity="0.5" d="M21.8219 35.3181C22.0375 35.1949 22.2141 35.2935 22.2141 35.542C22.2067 35.6776 22.1676 35.8096 22.0998 35.9274C22.032 36.0451 21.9375 36.1452 21.8239 36.2197C21.6185 36.343 21.4316 36.2444 21.4316 35.9959C21.4382 35.86 21.477 35.7277 21.5449 35.6099C21.6127 35.492 21.7077 35.392 21.8219 35.3181Z" fill="white"/>
<path opacity="0.5" d="M22.8923 34.7018C23.0976 34.5766 23.2825 34.6772 23.2845 34.9257C23.277 35.061 23.2378 35.1927 23.17 35.3101C23.1022 35.4274 23.0078 35.5272 22.8943 35.6014C22.6766 35.7267 22.5021 35.626 22.5 35.3775C22.5074 35.2419 22.5469 35.11 22.615 34.9926C22.6832 34.8752 22.7782 34.7755 22.8923 34.7018Z" fill="white"/>
</g>
<path d="M20.7515 35.9357C20.9569 35.8105 21.1438 35.9111 21.1438 36.1596C21.1371 36.2951 21.0982 36.4271 21.0303 36.5446C20.9625 36.6621 20.8676 36.7617 20.7536 36.8353C20.538 36.9606 20.3613 36.8599 20.3613 36.6114C20.3684 36.476 20.4074 36.3441 20.4752 36.2267C20.5431 36.1092 20.6377 36.0095 20.7515 35.9357Z" fill="#455A64"/>
<path d="M21.8219 35.3176C22.0375 35.1944 22.2141 35.293 22.2141 35.5415C22.2067 35.6771 22.1676 35.8092 22.0998 35.9269C22.032 36.0446 21.9375 36.1448 21.8239 36.2192C21.6185 36.3425 21.4316 36.2439 21.4316 35.9954C21.4382 35.8595 21.477 35.7272 21.5449 35.6094C21.6127 35.4915 21.7077 35.3915 21.8219 35.3176Z" fill="#455A64"/>
<path d="M22.8923 34.7018C23.0976 34.5766 23.2825 34.6772 23.2845 34.9257C23.277 35.061 23.2378 35.1927 23.17 35.3101C23.1022 35.4274 23.0078 35.5272 22.8943 35.6014C22.6766 35.7267 22.5021 35.626 22.5 35.3775C22.5074 35.2419 22.5469 35.11 22.615 34.9926C22.6832 34.8752 22.7782 34.7755 22.8923 34.7018Z" fill="#455A64"/>
<path d="M59.5963 31.1385L59.5716 20.2023C59.5716 20.1303 59.5525 20.0595 59.5165 19.9971C59.4804 19.9347 59.4285 19.8829 59.3661 19.8469C59.3037 19.8109 59.2329 19.792 59.1608 19.792C59.0887 19.792 59.0179 19.811 58.9555 19.847L42.2771 29.4524C42.121 29.5425 41.9914 29.6721 41.9013 29.8282C41.8111 29.9843 41.7637 30.1614 41.7637 30.3416V41.2901C41.7637 41.3622 41.7828 41.433 41.8189 41.4953C41.8549 41.5577 41.9068 41.6095 41.9692 41.6455C42.0317 41.6815 42.1025 41.7005 42.1745 41.7004C42.2466 41.7004 42.3174 41.6814 42.3798 41.6454L59.0829 32.0257C59.2387 31.9357 59.3681 31.8064 59.4582 31.6507C59.5483 31.495 59.5959 31.3184 59.5963 31.1385Z" fill="#37474F"/>
<path d="M40.0095 30.7586L21.4314 41.4566C21.2747 41.547 21.1447 41.6773 21.0545 41.8342C20.9644 41.9911 20.9173 42.169 20.918 42.3499L20.9426 53.284C20.9427 53.3561 20.9617 53.4269 20.9978 53.4893C21.0339 53.5517 21.0857 53.6035 21.1482 53.6395C21.2106 53.6755 21.2814 53.6944 21.3535 53.6944C21.4255 53.6944 21.4963 53.6754 21.5587 53.6393L40.1102 42.9599C40.2666 42.87 40.3967 42.7405 40.4872 42.5844C40.5777 42.4283 40.6254 42.2511 40.6257 42.0706V31.1139C40.6256 31.0419 40.6065 30.9711 40.5705 30.9087C40.5344 30.8463 40.4825 30.7945 40.4201 30.7585C40.3577 30.7225 40.2869 30.7036 40.2148 30.7036C40.1427 30.7036 40.0719 30.7226 40.0095 30.7586Z" fill="#37474F"/>
<path opacity="0.1" d="M40.0095 30.7586L21.4314 41.4566C21.2747 41.547 21.1447 41.6773 21.0545 41.8342C20.9644 41.9911 20.9173 42.169 20.918 42.3499L20.9426 53.284C20.9427 53.3561 20.9617 53.4269 20.9978 53.4893C21.0339 53.5517 21.0857 53.6035 21.1482 53.6395C21.2106 53.6755 21.2814 53.6944 21.3535 53.6944C21.4255 53.6944 21.4963 53.6754 21.5587 53.6393L40.1102 42.9599C40.2666 42.87 40.3967 42.7405 40.4872 42.5844C40.5777 42.4283 40.6254 42.2511 40.6257 42.0706V31.1139C40.6256 31.0419 40.6065 30.9711 40.5705 30.9087C40.5344 30.8463 40.4825 30.7945 40.4201 30.7585C40.3577 30.7225 40.2869 30.7036 40.2148 30.7036C40.1427 30.7036 40.0719 30.7226 40.0095 30.7586Z" fill="white"/>
<path d="M41.7637 43.3603V54.6189C41.7634 54.6912 41.7822 54.7622 41.8181 54.8249C41.854 54.8875 41.9059 54.9396 41.9683 54.9759C42.0308 55.0121 42.1018 55.0312 42.174 55.0313C42.2463 55.0314 42.3172 55.0124 42.3798 54.9763L59.2205 45.2765C59.4318 45.0972 59.5765 44.8519 59.6312 44.5803L59.6066 33.7961C59.6065 33.724 59.5875 33.6532 59.5514 33.5908C59.5153 33.5285 59.4634 33.4767 59.401 33.4407C59.3386 33.4047 59.2678 33.3857 59.1957 33.3857C59.1236 33.3858 59.0528 33.4047 58.9904 33.4408L41.7637 43.3603Z" fill="#37474F"/>
<path opacity="0.1" d="M41.7637 43.3603V54.6189C41.7634 54.6912 41.7822 54.7622 41.8181 54.8249C41.854 54.8875 41.9059 54.9396 41.9683 54.9759C42.0308 55.0121 42.1018 55.0312 42.174 55.0313C42.2463 55.0314 42.3172 55.0124 42.3798 54.9763L59.2205 45.2765C59.4318 45.0972 59.5765 44.8519 59.6312 44.5803L59.6066 33.7961C59.6065 33.724 59.5875 33.6532 59.5514 33.5908C59.5153 33.5285 59.4634 33.4767 59.401 33.4407C59.3386 33.4047 59.2678 33.3857 59.1957 33.3857C59.1236 33.3858 59.0528 33.4047 58.9904 33.4408L41.7637 43.3603Z" fill="white"/>
<path d="M20.9492 55.9413L20.9718 66.5941C20.9723 66.666 20.9915 66.7365 21.0278 66.7986C21.064 66.8607 21.1159 66.9122 21.1783 66.9479C21.2406 66.9837 21.3113 67.0025 21.3832 67.0023C21.4551 67.0022 21.5257 66.9833 21.5879 66.9473L40.1106 56.2822C40.2674 56.1922 40.3976 56.0624 40.4881 55.9059C40.5787 55.7494 40.6262 55.5717 40.6261 55.3909V44.7259C40.6264 44.6536 40.6076 44.5826 40.5717 44.5199C40.5357 44.4572 40.4839 44.4052 40.4214 44.3689C40.3589 44.3327 40.288 44.3135 40.2158 44.3135C40.1435 44.3134 40.0725 44.3324 40.01 44.3685L21.4627 55.0479C21.306 55.1384 21.1759 55.2687 21.0858 55.4256C20.9956 55.5825 20.9485 55.7604 20.9492 55.9413Z" fill="#37474F"/>
<path d="M29.2214 44.0603L27.2354 45.5554C26.6744 45.9777 26.2101 46.515 25.8737 47.1313C25.5372 47.7476 25.3363 48.4287 25.2843 49.1289L25.1016 51.5934L36.0316 45.2987L35.438 44.4197C35.1371 43.9736 34.7085 43.6288 34.2082 43.4305C33.708 43.2322 33.1595 43.1898 32.6347 43.3086L31.5174 43.5633L29.2214 44.0603Z" fill="white"/>
<path d="M28.0217 41.1503C28.0826 41.0032 28.1961 40.8839 28.34 40.8156C28.3705 40.7997 28.4029 40.788 28.4365 40.7807C28.5328 40.7646 28.6317 40.7722 28.7244 40.803C28.8171 40.8338 28.9009 40.8868 28.9684 40.9573C29.1014 41.1014 29.1911 41.28 29.2272 41.4728C29.2618 41.6648 29.2831 41.859 29.2909 42.054C29.3194 42.3997 29.3729 42.7429 29.4511 43.0809C29.4921 43.2643 29.5725 43.4366 29.6867 43.5858C29.8009 43.7351 29.9461 43.8578 30.1124 43.9455L30.1349 43.9578C30.6176 44.1974 31.1435 44.3371 31.6814 44.3686V44.9559C32.1065 45.5351 32.2257 46.6441 31.1023 46.3134C29.9789 45.9828 29.2539 45.2352 29.2539 44.5C29.2539 44.1899 29.2375 43.7914 29.2313 43.4362C29.221 42.9556 29.2108 42.5551 29.2108 42.5551C29.1047 42.6729 28.9579 42.7463 28.8 42.7605C28.7289 42.775 28.6555 42.775 28.5844 42.7605C28.4811 42.7276 28.3856 42.6743 28.3033 42.6038C28.2211 42.5332 28.154 42.4468 28.1059 42.3497C28.0108 42.1578 27.9583 41.9477 27.9518 41.7336C27.9289 41.5364 27.9528 41.3366 28.0217 41.1503Z" fill="#8C5C5B"/>
<path d="M28.3844 39.1211C28.6112 38.8606 28.9267 38.6937 29.2696 38.6528L33.8823 39.08C34.4142 40.2096 33.9911 40.953 33.9911 40.953C34.063 42.6741 34.1226 43.7666 33.3647 44.1281C32.8307 44.3418 32.2527 44.4222 31.6807 44.3622C31.1428 44.3307 30.6168 44.191 30.1342 43.9515L30.1096 43.9392C29.9434 43.8504 29.7982 43.7269 29.6841 43.5769C29.57 43.427 29.4895 43.2543 29.4483 43.0704C29.3709 42.7358 29.3181 42.3961 29.2901 42.0538C29.2823 41.8588 29.2611 41.6646 29.2265 41.4726C29.1904 41.2799 29.1007 41.1012 28.9677 40.9571C28.9001 40.8866 28.8163 40.8336 28.7236 40.8029C28.6309 40.7721 28.5321 40.7644 28.4358 40.7805C28.4022 40.7878 28.3697 40.7995 28.3392 40.8154C28.2078 40.0576 28.1708 39.3901 28.3844 39.1211Z" fill="#263238"/>
<path d="M30.075 39.2527C30.1548 39.5736 30.134 39.9113 30.0154 40.22C29.8944 40.5252 29.7962 40.8389 29.7217 41.1586C29.661 41.4797 29.7057 41.8117 29.849 42.1054C29.9209 42.2513 30.0241 42.3795 30.1511 42.4811C30.2782 42.5826 30.4261 42.6549 30.5843 42.6927C31.0792 42.7975 31.5639 42.5099 32.0609 42.4134C32.538 42.3285 33.0298 42.4151 33.4492 42.6578C33.4846 42.6791 33.5249 42.6908 33.5661 42.692C33.6073 42.6932 33.6482 42.6837 33.6847 42.6645C33.7212 42.6453 33.7522 42.6171 33.7746 42.5824C33.797 42.5478 33.8102 42.508 33.8128 42.4668C33.8723 41.4769 33.8703 39.9263 33.7244 39.1973L30.075 39.2527Z" fill="#8C5C5B"/>
<path d="M33.6478 38.3573L34.2208 37.9589C34.2807 38.1506 34.2919 38.3542 34.2536 38.5514C34.2152 38.7486 34.1284 38.9331 34.0011 39.0884C33.7391 39.3929 33.3839 39.6023 32.9906 39.684C32.5994 39.7634 32.1983 39.7814 31.8015 39.7374C31.2201 39.6904 30.6449 39.5851 30.0846 39.4232C29.8313 39.371 29.5979 39.2486 29.411 39.0699C29.2943 38.9211 29.2279 38.7392 29.2213 38.5502C29.2146 38.3612 29.2681 38.1751 29.374 38.0184C29.4844 37.865 29.626 37.7366 29.7896 37.6418C29.9531 37.5469 30.1348 37.4877 30.3228 37.468C30.7058 37.4376 31.0912 37.4681 31.4647 37.5584C31.8381 37.649 32.224 37.6767 32.6066 37.6405C32.7985 37.6205 32.9827 37.5539 33.143 37.4466C33.3033 37.3392 33.435 37.1943 33.5266 37.0244C33.8511 37.5563 33.6478 38.3573 33.6478 38.3573Z" fill="#263238"/>
<path d="M32.1992 41.0088L33.0412 42.0274L32.269 42.3006L32.1992 41.0088Z" fill="#F28F8F"/>
<path d="M32.1992 41.0088L33.0412 42.0274L32.269 42.3006L32.1992 41.0088Z" fill="#7D4B4A"/>
<path d="M31.5632 42.8057L32.2122 43.011C32.1704 43.0871 32.1055 43.148 32.0269 43.1849C31.9483 43.2218 31.86 43.2328 31.7748 43.2164C31.6971 43.1834 31.6334 43.1243 31.5948 43.0492C31.5562 42.9742 31.545 42.8881 31.5632 42.8057Z" fill="#F28F8F"/>
<path d="M31.5632 42.8057L32.2122 43.011C32.1704 43.0871 32.1055 43.148 32.0269 43.1849C31.9483 43.2218 31.86 43.2328 31.7748 43.2164C31.6971 43.1834 31.6334 43.1243 31.5948 43.0492C31.5562 42.9742 31.545 42.8881 31.5632 42.8057Z" fill="#7D4B4A"/>
<path d="M31.9889 43.196C31.9228 43.2188 31.8518 43.223 31.7835 43.2083C31.7245 43.1845 31.6737 43.144 31.6373 43.0919C31.6008 43.0398 31.5803 42.9782 31.5781 42.9146C31.6715 42.8985 31.7675 42.9186 31.8465 42.9709C31.9255 43.0232 31.9816 43.1037 32.0033 43.196H31.9889Z" fill="#F28F8F"/>
<path d="M31.0552 41.2325C31.0581 41.2778 31.0743 41.3212 31.1018 41.3573C31.1293 41.3934 31.1669 41.4205 31.2098 41.4353C31.2527 41.4501 31.299 41.4518 31.3429 41.4404C31.3868 41.4289 31.4263 41.4047 31.4565 41.3708C31.4866 41.3369 31.5061 41.2949 31.5125 41.2499C31.5188 41.205 31.5117 41.1592 31.4921 41.1183C31.4725 41.0774 31.4412 41.0432 31.4022 41.02C31.3632 40.9969 31.3182 40.9858 31.2729 40.9881C31.2424 40.9897 31.2127 40.9973 31.1852 41.0104C31.1578 41.0236 31.1332 41.0421 31.1129 41.0648C31.0927 41.0875 31.0772 41.1141 31.0672 41.1429C31.0573 41.1716 31.0532 41.2021 31.0552 41.2325Z" fill="#263238"/>
<path d="M32.9885 41.054C32.9928 41.115 33.0207 41.1719 33.0664 41.2126C33.112 41.2533 33.1718 41.2745 33.2329 41.2717C33.2909 41.264 33.3438 41.2348 33.3811 41.1899C33.4185 41.1449 33.4375 41.0876 33.4344 41.0292C33.4313 40.9709 33.4063 40.9158 33.3643 40.8751C33.3224 40.8344 33.2667 40.811 33.2083 40.8096C33.1469 40.8133 33.0894 40.841 33.0483 40.8867C33.0072 40.9325 32.9857 40.9925 32.9885 41.054Z" fill="#263238"/>
<path d="M33.1641 40.1214L33.6939 40.448C33.7129 40.3837 33.7117 40.3151 33.6904 40.2515C33.6691 40.188 33.6287 40.1325 33.5748 40.0927C33.5104 40.0589 33.4379 40.0437 33.3654 40.0488C33.2928 40.0539 33.2231 40.079 33.1641 40.1214Z" fill="#263238"/>
<path d="M31.1841 40.2018L30.6933 40.5817C30.6674 40.5196 30.6612 40.451 30.6755 40.3853C30.6898 40.3195 30.724 40.2598 30.7734 40.2141C30.8338 40.1738 30.9044 40.1513 30.977 40.1491C31.0496 40.1469 31.1214 40.1652 31.1841 40.2018Z" fill="#263238"/>
<path d="M29.8257 43.9209C29.6973 43.756 29.6055 43.5655 29.5566 43.3623C29.6763 43.6088 29.8712 43.8109 30.1132 43.9394L30.1358 43.9517C30.6184 44.1913 31.1444 44.331 31.6823 44.3625V44.7588C31.3679 44.7362 31.0575 44.6748 30.7581 44.5761C30.3917 44.45 30.0685 44.2229 29.8257 43.9209Z" fill="#7D4B4A"/>
<path d="M50.1047 45.3545L48.0509 46.9071C47.689 47.1776 47.3909 47.5245 47.178 47.9231C46.965 48.3216 46.8424 48.7622 46.8187 49.2135L46.6523 52.5138L56.6808 46.7387L55.2103 45.2908C54.9402 45.0255 54.6078 44.8322 54.2435 44.7289C53.8793 44.6255 53.4949 44.6154 53.1257 44.6994L52.4008 44.8637L50.1047 45.3545Z" fill="#36B8B0"/>
<path opacity="0.2" d="M50.1047 45.3545L48.0509 46.9071C47.689 47.1776 47.3909 47.5245 47.178 47.9231C46.965 48.3216 46.8424 48.7622 46.8187 49.2135L46.6523 52.5138L56.6808 46.7387L55.2103 45.2908C54.9402 45.0255 54.6078 44.8322 54.2435 44.7289C53.8793 44.6255 53.4949 44.6154 53.1257 44.6994L52.4008 44.8637L50.1047 45.3545Z" fill="black"/>
<path d="M54.3745 42.8325C54.7241 42.5811 54.9672 42.2082 55.0561 41.7869C55.145 41.3655 55.0733 40.9262 54.855 40.555C55.0514 40.4679 55.2122 40.3165 55.311 40.1257C55.3526 40.0338 55.3654 39.9314 55.3479 39.832C55.3303 39.7327 55.2831 39.6409 55.2126 39.5688C55.142 39.4966 55.0513 39.4475 54.9523 39.4278C54.8533 39.4081 54.7507 39.4187 54.6579 39.4583C54.7095 39.3096 54.7098 39.1479 54.6588 38.999C54.6078 38.8501 54.5085 38.7226 54.3765 38.6368C54.2427 38.5648 54.0884 38.5407 53.9391 38.5683C53.7897 38.596 53.6542 38.6737 53.555 38.7887C53.5587 38.6919 53.5308 38.5966 53.4756 38.517C53.4204 38.4373 53.3409 38.3778 53.249 38.3472C53.0592 38.2971 52.8584 38.3094 52.676 38.3821C52.4912 38.4458 52.3166 38.5382 52.1318 38.5875C51.8121 38.6683 51.4839 38.7104 51.1542 38.7127C50.8231 38.7164 50.4982 38.8032 50.2095 38.9654C49.9343 39.144 49.6899 39.5609 49.8398 39.9224C49.7923 39.8628 49.7329 39.8137 49.6653 39.7784C49.5978 39.743 49.5236 39.7221 49.4476 39.717C49.3707 39.7141 49.294 39.728 49.2231 39.7578C49.1521 39.7876 49.0886 39.8326 49.0368 39.8895C49.2422 40.0169 49.4476 40.1524 49.6529 40.2798C49.5352 40.247 49.41 40.2538 49.2965 40.2991C49.183 40.3443 49.0874 40.4256 49.0245 40.5303C48.9284 40.7374 48.8908 40.9668 48.9156 41.1937C48.942 42.0561 49.0949 42.91 49.3695 43.728C49.5092 44.151 49.7125 44.5988 50.113 44.7939L54.3745 42.8325Z" fill="#263238"/>
<path d="M52.1987 44.8678L52.1084 45.8782C52.1037 45.9564 52.1238 46.034 52.1659 46.1C52.2218 46.2059 52.2431 46.3266 52.2269 46.4452C52.2107 46.5638 52.1578 46.6744 52.0755 46.7613C51.9453 46.8581 51.7879 46.9113 51.6257 46.9133C51.3175 46.9298 51.0093 46.8811 50.7213 46.7703C50.4332 46.6596 50.1717 46.4892 49.954 46.2705C49.9102 46.2242 49.876 46.1697 49.8534 46.1102C49.8309 46.0506 49.8204 45.9871 49.8226 45.9234L49.8883 43.3604L52.1987 44.8678Z" fill="#FFA8A7"/>
<path d="M50.0919 43.4937L52.199 44.8676L52.1189 45.763C51.6251 45.6783 51.1569 45.4831 50.7491 45.1921C50.5044 44.988 50.3157 44.7251 50.2007 44.4279C50.0857 44.1308 50.0483 43.8093 50.0919 43.4937Z" fill="#F28F8F"/>
<path d="M54.4953 40.7501C54.6497 41.9222 54.5729 43.1132 54.2694 44.2558C54.2098 44.5072 54.1158 44.749 53.9901 44.9747C53.8626 45.2015 53.6632 45.3793 53.4233 45.4799C53.1152 45.5631 52.7907 45.5631 52.4826 45.4799C51.9096 45.3792 51.3243 45.2745 50.8273 44.9726C50.3303 44.6707 49.936 44.1285 49.9832 43.5494C49.8421 43.6368 49.6814 43.6875 49.5156 43.6968C49.3499 43.7061 49.1845 43.6738 49.0344 43.6028C48.888 43.522 48.7638 43.4062 48.6731 43.2657C48.5824 43.1252 48.528 42.9644 48.5148 42.7977C48.4953 42.6361 48.5328 42.4727 48.6209 42.3358C48.7091 42.199 48.8422 42.0972 48.9974 42.0481C49.0958 42.0339 49.196 42.041 49.2913 42.069C49.3867 42.097 49.4749 42.1452 49.5499 42.2103C49.7 42.3405 49.8301 42.492 49.936 42.6601C49.9854 42.7412 50.0511 42.8112 50.1291 42.8655C50.1679 42.8925 50.2142 42.907 50.2615 42.907C50.3089 42.907 50.3551 42.8925 50.394 42.8655C50.427 42.8256 50.4509 42.7791 50.464 42.7291C50.4771 42.6791 50.4791 42.6268 50.47 42.5759L50.4371 41.8427C50.4346 41.7863 50.4486 41.7304 50.4774 41.6819C50.5063 41.6334 50.5486 41.5943 50.5994 41.5696C50.7506 41.4871 50.8673 41.3529 50.928 41.1917C50.9803 41.0498 51.0114 40.901 51.0204 40.7501C51.0226 40.7219 51.0314 40.6947 51.046 40.6705C51.0607 40.6463 51.0808 40.6259 51.1048 40.611C51.1287 40.596 51.1559 40.5868 51.184 40.5843C51.2122 40.5817 51.2405 40.5857 51.2668 40.5961C52.3022 40.9747 53.4285 41.0285 54.4953 40.7501Z" fill="#FFA8A7"/>
<path d="M52.8792 42.5283L53.5405 43.6394L52.7539 43.7873L52.8792 42.5283Z" fill="#F28F8F"/>
<path d="M51.9957 44.165L52.5934 44.4567C52.5421 44.524 52.4703 44.5729 52.3888 44.5959C52.3073 44.6188 52.2205 44.6147 52.1416 44.584C52.0728 44.5416 52.0207 44.4768 51.9941 44.4005C51.9676 44.3241 51.9681 44.241 51.9957 44.165Z" fill="#F28F8F"/>
<path opacity="0.3" d="M51.9957 44.165L52.5934 44.4567C52.5421 44.524 52.4703 44.5729 52.3888 44.5959C52.3073 44.6188 52.2205 44.6147 52.1416 44.584C52.0728 44.5416 52.0207 44.4768 51.9941 44.4005C51.9676 44.3241 51.9681 44.241 51.9957 44.165Z" fill="black"/>
<path d="M52.3482 44.6087C52.2792 44.6224 52.2077 44.6153 52.1428 44.5881C52.0881 44.5574 52.0437 44.5112 52.0152 44.4553C51.9867 44.3993 51.9754 44.3363 51.9826 44.2739C52.0683 44.2739 52.1516 44.3028 52.2188 44.3561C52.2934 44.42 52.3399 44.5107 52.3482 44.6087Z" fill="#F28F8F"/>
<path d="M51.743 42.5736C51.7392 42.618 51.7486 42.6626 51.77 42.7017C51.7914 42.7408 51.824 42.7727 51.8635 42.7933C51.9031 42.814 51.9478 42.8225 51.9922 42.8177C52.0365 42.813 52.0785 42.7952 52.1127 42.7666C52.147 42.7381 52.172 42.7 52.1847 42.6573C52.1974 42.6145 52.1971 42.569 52.1839 42.5263C52.1707 42.4837 52.1452 42.446 52.1106 42.4178C52.076 42.3897 52.0339 42.3724 51.9895 42.3682C51.9598 42.3654 51.9298 42.3685 51.9013 42.3773C51.8729 42.3861 51.8464 42.4005 51.8235 42.4195C51.8006 42.4386 51.7817 42.4621 51.7679 42.4885C51.754 42.515 51.7456 42.5439 51.743 42.5736Z" fill="#263238"/>
<path d="M53.6356 42.6905C53.6318 42.7348 53.6412 42.7793 53.6625 42.8183C53.6839 42.8574 53.7164 42.8892 53.7558 42.9099C53.7952 42.9305 53.8398 42.9391 53.8841 42.9345C53.9284 42.9299 53.9703 42.9123 54.0046 42.8839C54.0389 42.8556 54.0641 42.8177 54.0769 42.7751C54.0898 42.7325 54.0898 42.6871 54.0769 42.6445C54.0641 42.6019 54.0389 42.564 54.0046 42.5357C53.9703 42.5073 53.9284 42.4897 53.8841 42.4851C53.8542 42.482 53.8241 42.4849 53.7953 42.4935C53.7666 42.5022 53.7399 42.5165 53.7168 42.5357C53.6936 42.5548 53.6745 42.5783 53.6606 42.6049C53.6467 42.6315 53.6382 42.6606 53.6356 42.6905Z" fill="#263238"/>
<path d="M53.9434 41.818L54.4075 42.2123C54.4355 42.153 54.4445 42.0866 54.4335 42.0219C54.4225 41.9573 54.3919 41.8976 54.3459 41.8509C54.2888 41.8079 54.2206 41.782 54.1494 41.7762C54.0781 41.7703 54.0067 41.7849 53.9434 41.818Z" fill="#263238"/>
<path d="M52.0234 41.596L51.4894 41.8917C51.474 41.8277 51.4786 41.7606 51.5024 41.6993C51.5263 41.638 51.5683 41.5854 51.6229 41.5487C51.6874 41.5182 51.7591 41.5065 51.8299 41.5148C51.9008 41.5232 51.9678 41.5513 52.0234 41.596Z" fill="#263238"/>
<path d="M35.1415 53.5017C35.0532 53.707 34.8109 53.8056 34.6938 53.9966C34.6483 54.0705 34.6237 54.1555 34.6227 54.2423C34.6218 54.3291 34.6445 54.4146 34.6884 54.4895C34.7323 54.5644 34.7957 54.626 34.8719 54.6676C34.9481 54.7092 35.0342 54.7293 35.121 54.7257C35.2071 54.7211 35.2904 54.6937 35.3626 54.6465C35.4347 54.5992 35.4931 54.5337 35.5317 54.4566C35.5687 54.6376 35.5687 54.8241 35.5317 55.005C35.5154 55.0974 35.4751 55.184 35.4149 55.256C35.3547 55.3281 35.2768 55.3831 35.1887 55.4157C35.3164 55.5478 35.404 55.7134 35.4414 55.8933C35.4787 56.0731 35.4643 56.2599 35.3998 56.4319C35.3353 56.6039 35.2233 56.7541 35.0769 56.865C34.9305 56.976 34.7557 57.0432 34.5726 57.0587C34.6425 57.5578 34.318 58.0979 33.9052 58.3896C33.4804 58.6672 32.9714 58.7864 32.4675 58.7264C31.9651 58.6639 31.4761 58.5204 31.0197 58.3012C30.3187 58.5681 29.5684 58.6802 28.8201 58.6298C28.3457 58.5847 27.8507 58.4573 27.5221 58.1123C27.1935 57.7673 27.1114 57.1532 27.4667 56.8308C27.3541 56.8985 27.2253 56.9343 27.0939 56.9343C26.9626 56.9343 26.8337 56.8985 26.7212 56.8308C26.6105 56.7719 26.5198 56.6816 26.4605 56.5712C26.4011 56.4608 26.3758 56.3353 26.3876 56.2105C26.3995 56.0858 26.448 55.9673 26.5271 55.8701C26.6062 55.7729 26.7123 55.7012 26.8321 55.6642C26.7488 55.611 26.6813 55.5365 26.6366 55.4484C26.5918 55.3603 26.5714 55.2618 26.5774 55.1631C26.593 55.0689 26.6342 54.9807 26.6965 54.9083C26.7588 54.8359 26.8398 54.7819 26.9307 54.7524C26.9057 54.8335 26.9041 54.92 26.9259 55.0021C26.9476 55.0841 26.992 55.1584 27.0539 55.2165C27.1199 55.266 27.1993 55.2944 27.2818 55.298C27.3642 55.3017 27.4458 55.2805 27.516 55.2371C27.5812 55.1909 27.6361 55.1316 27.6771 55.063C27.7181 54.9944 27.7444 54.918 27.7542 54.8386C27.7737 54.6797 27.7737 54.519 27.7542 54.3601C27.6783 53.8117 27.7324 53.2531 27.9124 52.7295C28.0043 52.4682 28.1607 52.2345 28.3672 52.05C28.5736 51.8654 28.8234 51.736 29.0932 51.6738C29.3015 51.0313 29.7418 50.4894 30.3282 50.1541C30.9145 49.8188 31.6048 49.714 32.2642 49.8604C32.8126 49.9816 33.3445 50.3081 33.5642 50.8236C33.8005 50.7744 34.0418 50.7537 34.283 50.762C34.5211 50.7586 34.7518 50.8443 34.93 51.0023C35.0164 51.083 35.0762 51.1881 35.1016 51.3037C35.1269 51.4192 35.1164 51.5397 35.0717 51.6492C34.9998 51.7971 34.8478 51.9306 34.8827 52.0907C34.9177 52.2509 35.0717 52.2961 35.1477 52.4152C35.179 52.4744 35.1953 52.5403 35.1953 52.6073C35.1953 52.6742 35.179 52.7401 35.1477 52.7993C35.0872 52.9181 35.0097 53.0274 34.9177 53.1238C34.8376 53.2162 34.7513 53.3291 34.7965 53.4503C34.8417 53.5715 35.0696 53.6126 35.1415 53.5017Z" fill="#263238"/>
<path d="M33.0168 59.0937C32.8283 59.2242 32.6004 59.2851 32.3719 59.2662C31.8124 59.2655 31.2606 59.1353 30.7596 58.8859C30.2587 58.6365 29.8223 58.2747 29.4844 57.8286L30.1251 57.7732V55.7153L32.3555 56.5758V57.767H32.9264C33.0444 57.9119 33.1368 58.0758 33.1996 58.2517C33.2551 58.3945 33.2674 58.5505 33.2349 58.7002C33.2024 58.85 33.1266 58.9868 33.0168 59.0937Z" fill="#F28F8F"/>
<path d="M30.2891 55.7749C30.9565 57.0729 31.3714 57.0996 32.3613 57.2125V56.5718L30.2891 55.7749Z" fill="#D96E6E"/>
<path d="M34.3309 52.7784C34.5242 53.7565 34.536 54.7617 34.3658 55.744C34.3001 56.1117 34.1933 56.5039 33.9017 56.738C33.5423 57.0276 33.0268 56.9845 32.5688 56.927C32.0661 56.8867 31.5718 56.7753 31.1004 56.5963C30.866 56.5047 30.6534 56.3648 30.4765 56.1858C30.2997 56.0068 30.1623 55.7926 30.0735 55.5571C29.9473 55.6254 29.8021 55.6499 29.6605 55.6268C29.519 55.6038 29.389 55.5345 29.291 55.4298C29.0999 55.213 28.9973 54.9322 29.0035 54.6432C28.9879 54.5142 29.0058 54.3833 29.0555 54.2632C29.1051 54.1431 29.1848 54.0377 29.2869 53.9573C29.3651 53.9155 29.4517 53.8919 29.5402 53.8884C29.6288 53.8848 29.717 53.9014 29.7983 53.9367C29.9612 54.0074 30.1069 54.1125 30.2255 54.2448C30.284 54.3132 30.3534 54.3715 30.4308 54.4173C30.4693 54.4405 30.5133 54.4528 30.5582 54.4528C30.603 54.4528 30.6471 54.4405 30.6855 54.4173C30.7255 54.3791 30.7561 54.3321 30.775 54.2801C30.7939 54.2281 30.8005 54.1725 30.7943 54.1175C30.7866 53.6642 30.8895 53.2158 31.0942 52.8113C31.3242 52.4231 31.7884 52.1418 32.2238 52.2588C32.4117 52.3446 32.6087 52.4087 32.8111 52.4498C32.9766 52.4411 33.1367 52.3887 33.2753 52.2979C33.3717 52.2326 33.4833 52.1933 33.5993 52.1835C33.7153 52.1738 33.8318 52.194 33.9378 52.2422C34.0437 52.2905 34.1355 52.3651 34.2044 52.459C34.2732 52.5529 34.3168 52.6629 34.3309 52.7784Z" fill="#F28F8F"/>
<path d="M32.9235 53.9946L33.517 54.9927L32.8105 55.1242L32.9235 53.9946Z" fill="#F28F8F"/>
<path d="M32.9235 53.9946L33.517 54.9927L32.8105 55.1242L32.9235 53.9946Z" fill="#D96E6E"/>
<path d="M32.1292 55.4609L32.6672 55.7218C32.6207 55.7831 32.5553 55.8275 32.4812 55.8483C32.407 55.869 32.3281 55.865 32.2565 55.8368C32.1953 55.7983 32.1492 55.74 32.126 55.6715C32.1028 55.603 32.1039 55.5287 32.1292 55.4609Z" fill="#F28F8F"/>
<path d="M32.1292 55.4609L32.6672 55.7218C32.6207 55.7831 32.5553 55.8275 32.4812 55.8483C32.407 55.869 32.3281 55.865 32.2565 55.8368C32.1953 55.7983 32.1492 55.74 32.126 55.6715C32.1028 55.603 32.1039 55.5287 32.1292 55.4609Z" fill="#D96E6E"/>
<path d="M32.4458 55.8717C32.3831 55.8855 32.3177 55.879 32.2589 55.8533C32.2099 55.8257 32.1701 55.7843 32.1445 55.7343C32.119 55.6842 32.1087 55.6277 32.1151 55.5719C32.1983 55.5696 32.2791 55.5995 32.3407 55.6554C32.4024 55.7112 32.44 55.7888 32.4458 55.8717Z" fill="#F28F8F"/>
<path d="M32.4458 55.8717C32.3831 55.8855 32.3177 55.879 32.2589 55.8533C32.2099 55.8257 32.1701 55.7843 32.1445 55.7343C32.119 55.6842 32.1087 55.6277 32.1151 55.5719C32.1983 55.5696 32.2791 55.5995 32.3407 55.6554C32.4024 55.7112 32.44 55.7888 32.4458 55.8717Z" fill="#C75555"/>
<path d="M31.9016 54.0336C31.8972 54.0742 31.9051 54.1151 31.9241 54.1512C31.9431 54.1873 31.9725 54.2169 32.0084 54.2363C32.0443 54.2556 32.0852 54.2638 32.1258 54.2599C32.1664 54.2559 32.2049 54.2399 32.2364 54.214C32.2679 54.188 32.2909 54.1533 32.3026 54.1142C32.3142 54.0751 32.314 54.0334 32.3019 53.9944C32.2897 53.9555 32.2663 53.921 32.2345 53.8954C32.2027 53.8699 32.164 53.8543 32.1234 53.8509C32.0698 53.8463 32.0166 53.8628 31.9752 53.897C31.9337 53.9312 31.9073 53.9802 31.9016 54.0336Z" fill="#263238"/>
<path d="M33.6038 54.138C33.5986 54.1916 33.6146 54.245 33.6484 54.2869C33.6822 54.3287 33.7311 54.3557 33.7845 54.3619C33.8384 54.367 33.8921 54.3507 33.9341 54.3165C33.976 54.2823 34.0027 54.2329 34.0084 54.1791C34.0139 54.1246 33.9974 54.0702 33.9628 54.0278C33.9281 53.9855 33.878 53.9586 33.8236 53.9532C33.7691 53.9477 33.7147 53.9641 33.6723 53.9988C33.63 54.0335 33.6031 54.0835 33.5977 54.138H33.6038Z" fill="#263238"/>
<path d="M33.8809 53.3536L34.2916 53.7089C34.3169 53.6553 34.3251 53.5953 34.3152 53.5369C34.3053 53.4785 34.2777 53.4245 34.2362 53.3823C34.1849 53.3462 34.1249 53.3246 34.0624 53.3195C33.9999 53.3144 33.9373 53.3262 33.8809 53.3536Z" fill="#263238"/>
<path d="M32.1542 53.1564L31.6736 53.4193C31.6602 53.3617 31.6646 53.3014 31.6863 53.2464C31.7079 53.1914 31.7457 53.1442 31.7948 53.1112C31.8528 53.084 31.9174 53.0738 31.981 53.0817C32.0446 53.0897 32.1047 53.1156 32.1542 53.1564Z" fill="#263238"/>
<path d="M33.4863 57.7671L33.665 59.9933L35.1745 59.1226C34.8644 58.3154 34.3612 57.7671 33.4863 57.7671Z" fill="#F28F8F"/>
<path d="M33.4864 57.7671H32.9319C33.0499 57.9119 33.1422 58.0759 33.2051 58.2518C33.2606 58.3946 33.2729 58.5506 33.2404 58.7003C33.2079 58.85 33.132 58.9869 33.0223 59.0938C32.8338 59.2242 32.6059 59.2852 32.3774 59.2663C31.8178 59.2655 31.266 59.1354 30.7651 58.886C30.2642 58.6366 29.8277 58.2747 29.4899 57.8287L27.584 57.993C27.584 57.993 27.6271 62.0101 27.6168 62.5893C27.6071 62.8721 27.6285 63.1552 27.6805 63.4334L34.7351 59.3711C34.416 58.7674 33.9934 58.2245 33.4864 57.7671Z" fill="#36B8B0"/>
<path opacity="0.6" d="M33.4864 57.7671H32.9319C33.0499 57.9119 33.1422 58.0759 33.2051 58.2518C33.2606 58.3946 33.2729 58.5506 33.2404 58.7003C33.2079 58.85 33.132 58.9869 33.0223 59.0938C32.8338 59.2242 32.6059 59.2852 32.3774 59.2663C31.8178 59.2655 31.266 59.1354 30.7651 58.886C30.2642 58.6366 29.8277 58.2747 29.4899 57.8287L27.584 57.993C27.584 57.993 27.6271 62.0101 27.6168 62.5893C27.6071 62.8721 27.6285 63.1552 27.6805 63.4334L34.7351 59.3711C34.416 58.7674 33.9934 58.2245 33.4864 57.7671Z" fill="white"/>
<path d="M27.5837 57.999C25.7559 58.6151 26.1831 60.1739 27.1155 61.8416C27.3475 62.2523 27.6268 62.7699 27.9164 63.3038L29.8839 62.1702C29.1774 60.4389 28.2081 58.3153 27.5837 57.999Z" fill="#F28F8F"/>
<path d="M53.7288 33.5353C53.9614 33.9293 54.1619 34.3413 54.3285 34.7675L55.0596 34.3567L54.3921 33.0547C54.2685 32.8137 54.069 32.6201 53.8243 32.5039C53.5797 32.3877 53.3036 32.3554 53.0387 32.4119L52.8066 32.4611C53.172 32.765 53.4837 33.1281 53.7288 33.5353Z" fill="#455A64"/>
<path d="M48.7143 35.6608C48.6662 35.5353 48.5926 35.421 48.4983 35.3252C48.4039 35.2295 48.2908 35.1542 48.166 35.1043C48.03 35.0654 47.8871 35.0575 47.7477 35.0813C47.6084 35.1052 47.4762 35.16 47.3609 35.2419C47.2709 35.3012 47.1876 35.37 47.1124 35.4472C46.8118 35.9335 46.6526 36.4939 46.6523 37.0656V39.185L49.0614 37.7988L48.8889 36.4412C48.8662 36.1744 48.8075 35.9119 48.7143 35.6608Z" fill="#455A64"/>
<path d="M53.7287 33.535C53.4844 33.1249 53.1726 32.759 52.8065 32.4526L51.2046 32.7977L49.5616 33.4775L48.0234 34.5043C47.6527 34.7494 47.3401 35.0725 47.1074 35.4511C47.1826 35.3739 47.2659 35.305 47.3559 35.2457C47.4712 35.1639 47.6034 35.109 47.7428 35.0852C47.8821 35.0614 48.0251 35.0692 48.161 35.1081C48.2858 35.1581 48.399 35.2333 48.4933 35.3291C48.5877 35.4249 48.6612 35.5391 48.7093 35.6647C48.8027 35.9164 48.8614 36.1796 48.8839 36.4472L49.0564 37.8047L54.3222 34.7713C54.1579 34.3439 53.9594 33.9305 53.7287 33.535Z" fill="#455A64"/>
<path opacity="0.3" d="M53.7288 33.5353C53.9614 33.9293 54.1619 34.3413 54.3285 34.7675L55.0596 34.3567L54.3921 33.0547C54.2685 32.8137 54.069 32.6201 53.8243 32.5039C53.5797 32.3877 53.3036 32.3554 53.0387 32.4119L52.8066 32.4611C53.172 32.765 53.4837 33.1281 53.7288 33.5353Z" fill="white"/>
<path opacity="0.3" d="M48.7143 35.6608C48.6662 35.5353 48.5926 35.421 48.4983 35.3252C48.4039 35.2295 48.2908 35.1542 48.166 35.1043C48.03 35.0654 47.8871 35.0575 47.7477 35.0813C47.6084 35.1052 47.4762 35.16 47.3609 35.2419C47.2709 35.3012 47.1876 35.37 47.1124 35.4472C46.8118 35.9335 46.6526 36.4939 46.6523 37.0656V39.185L49.0614 37.7988L48.8889 36.4412C48.8662 36.1744 48.8075 35.9119 48.7143 35.6608Z" fill="white"/>
<path opacity="0.4" d="M53.7287 33.535C53.4844 33.1249 53.1726 32.759 52.8065 32.4526L51.2046 32.7977L49.5616 33.4775L48.0234 34.5043C47.6527 34.7494 47.3401 35.0725 47.1074 35.4511C47.1826 35.3739 47.2659 35.305 47.3559 35.2457C47.4712 35.1639 47.6034 35.109 47.7428 35.0852C47.8821 35.0614 48.0251 35.0692 48.161 35.1081C48.2858 35.1581 48.399 35.2333 48.4933 35.3291C48.5877 35.4249 48.6612 35.5391 48.7093 35.6647C48.8027 35.9164 48.8614 36.1796 48.8839 36.4472L49.0564 37.8047L54.3222 34.7713C54.1579 34.3439 53.9594 33.9305 53.7287 33.535Z" fill="white"/>
<path d="M53.6505 29.9409C53.9791 29.6083 54.1828 29.1724 54.2274 28.707C54.2719 28.2415 54.1545 27.775 53.8949 27.3861C54.0329 27.3289 54.1493 27.2296 54.2275 27.1024C54.3057 26.9751 54.3417 26.8264 54.3303 26.6775C54.3152 26.5286 54.2529 26.3884 54.1524 26.2776C54.0518 26.1667 53.9184 26.0909 53.7717 26.0614C53.5208 26.0485 53.2698 26.0841 53.0323 26.1661C52.6106 26.2421 52.1787 26.2421 51.757 26.1661C51.3339 26.1066 50.9149 26.0142 50.4898 25.9834C50.0632 25.9378 49.6319 25.9992 49.235 26.162C49.0374 26.2449 48.8614 26.3721 48.7208 26.5338C48.5801 26.6954 48.4785 26.8873 48.4237 27.0944C48.0952 27.0061 47.7049 27.2156 47.4934 27.4826C47.2944 27.7612 47.1874 28.0951 47.1874 28.4376C47.1751 28.7764 47.2223 29.1153 47.2387 29.4644C47.2702 29.8045 47.2268 30.1473 47.1114 30.4687C46.9574 30.8343 46.6534 31.1341 46.5569 31.5202C46.5124 31.6984 46.5151 31.885 46.5646 32.0618C46.6141 32.2386 46.7088 32.3994 46.8394 32.5285C46.9699 32.6576 47.1318 32.7505 47.3091 32.7981C47.4865 32.8456 47.6731 32.8462 47.8508 32.7997C47.7785 32.5321 47.7453 32.2554 47.7522 31.9782C47.785 32.352 48.1629 32.6436 48.5121 32.7689C48.8734 32.8728 49.2513 32.9062 49.6252 32.8675L50.9437 32.8161L52.4819 32.7545C52.7561 32.762 53.029 32.7153 53.2849 32.6169C53.4979 32.5008 53.6764 32.3303 53.8022 32.1229C53.9281 31.9156 53.9969 31.6786 54.0017 31.436C53.9934 30.9182 53.8736 30.4083 53.6505 29.9409Z" fill="#263238"/>
<path d="M51.766 32.0832V33.4859C51.766 33.4859 52.914 34.2191 52.4293 34.6072C51.5195 35.3384 49.5664 33.4777 49.5664 33.4777V31.1426L51.766 32.0832Z" fill="#FFA8A7"/>
<path d="M49.5664 31.1426C49.9053 32.1489 51.1355 32.9108 51.766 33.0628V32.0832L49.5664 31.1426Z" fill="#F28F8F"/>
<path d="M49.8297 29.5488C49.8604 29.7229 49.8687 29.9003 49.8543 30.0766C49.8364 30.2103 49.775 30.3344 49.6798 30.4298C49.6336 30.4751 49.5771 30.5083 49.5152 30.5265C49.4532 30.5448 49.3877 30.5475 49.3245 30.5346C49.3574 30.3608 49.3225 30.181 49.2267 30.0323C49.131 29.8836 48.9818 29.7773 48.81 29.7354C48.6382 29.6935 48.4568 29.7192 48.3034 29.8071C48.1499 29.8951 48.0361 30.0386 47.9854 30.208C47.9556 30.3307 47.953 30.4585 47.9778 30.5823C48.0027 30.7062 48.0543 30.8231 48.1292 30.9248C48.2819 31.1274 48.4794 31.2919 48.7063 31.4054C48.8357 31.4481 48.9759 31.4442 49.1027 31.3943C49.2295 31.3444 49.3349 31.2517 49.4004 31.1322C50.072 31.9825 51.2488 32.6191 52.3352 32.5288C52.6356 32.5112 52.9248 32.4086 53.1691 32.233C53.5798 31.9126 53.6127 31.43 53.6661 30.9515C53.7434 30.3464 53.7386 29.7336 53.6517 29.1298C53.5405 28.286 53.1329 27.5093 52.5016 26.9385C52.1258 28.7478 50.4725 29.4153 49.8297 29.5488Z" fill="#FFA8A7"/>
<path d="M52.1113 29.3413L52.8609 30.2655L52.1627 30.5058L52.1113 29.3413Z" fill="#F28F8F"/>
<path d="M51.5248 30.9556L52.108 31.1404C52.0705 31.2094 52.0115 31.2642 51.9399 31.2965C51.8684 31.3287 51.7882 31.3367 51.7117 31.3191C51.6433 31.2894 51.5873 31.237 51.5533 31.1707C51.5192 31.1044 51.5091 31.0284 51.5248 30.9556Z" fill="#F28F8F"/>
<path opacity="0.3" d="M51.5248 30.9556L52.108 31.1404C52.0705 31.2094 52.0115 31.2642 51.9399 31.2965C51.8684 31.3287 51.7882 31.3367 51.7117 31.3191C51.6433 31.2894 51.5873 31.237 51.5533 31.1707C51.5192 31.1044 51.5091 31.0284 51.5248 30.9556Z" fill="black"/>
<path d="M51.9111 31.3089C51.8489 31.3282 51.7823 31.3282 51.7201 31.3089C51.6659 31.2886 51.6191 31.2525 51.5857 31.2053C51.5524 31.158 51.5341 31.1018 51.5332 31.044C51.6106 31.0312 51.69 31.0465 51.7571 31.0871C51.7966 31.1114 51.8308 31.1437 51.8573 31.1819C51.8838 31.22 51.9021 31.2633 51.9111 31.3089Z" fill="#F28F8F"/>
<path d="M51.0902 29.5346C51.0926 29.5746 51.1067 29.613 51.1307 29.6451C51.1546 29.6773 51.1875 29.7017 51.2252 29.7153C51.2628 29.729 51.3037 29.7313 51.3427 29.7221C51.3817 29.7128 51.4171 29.6924 51.4446 29.6632C51.4721 29.634 51.4905 29.5975 51.4975 29.558C51.5044 29.5186 51.4997 29.4779 51.4839 29.4411C51.468 29.4043 51.4418 29.3729 51.4083 29.3508C51.3748 29.3288 51.3357 29.317 51.2956 29.3169C51.2675 29.3168 51.2398 29.3225 51.214 29.3336C51.1883 29.3447 51.1651 29.3609 51.1458 29.3813C51.1266 29.4017 51.1117 29.4259 51.1022 29.4522C51.0926 29.4786 51.0885 29.5066 51.0902 29.5346Z" fill="#263238"/>
<path d="M52.8226 29.3886C52.825 29.4286 52.8391 29.467 52.8631 29.4991C52.8871 29.5313 52.9199 29.5557 52.9576 29.5693C52.9953 29.583 53.0361 29.5853 53.0751 29.5761C53.1141 29.5668 53.1495 29.5464 53.177 29.5172C53.2045 29.4881 53.2229 29.4515 53.2299 29.412C53.2369 29.3726 53.2321 29.3319 53.2163 29.2951C53.2004 29.2583 53.1742 29.2269 53.1407 29.2048C53.1073 29.1828 53.0681 29.171 53.028 29.1709C53 29.1708 52.9722 29.1765 52.9465 29.1876C52.9207 29.1987 52.8975 29.2149 52.8783 29.2353C52.859 29.2557 52.8441 29.2799 52.8346 29.3062C52.825 29.3326 52.821 29.3606 52.8226 29.3886Z" fill="#263238"/>
<path d="M52.9863 28.5567L53.4607 28.8545C53.4786 28.7968 53.4781 28.735 53.4593 28.6776C53.4406 28.6202 53.4045 28.5701 53.356 28.5341C53.2985 28.5028 53.2333 28.4884 53.1679 28.4923C53.1026 28.4963 53.0396 28.5186 52.9863 28.5567Z" fill="#263238"/>
<path d="M51.2046 28.6063L50.7589 28.9473C50.7356 28.8913 50.7302 28.8294 50.7434 28.7702C50.7566 28.711 50.7879 28.6573 50.8329 28.6166C50.8877 28.5803 50.9515 28.5601 51.0173 28.5582C51.083 28.5564 51.1479 28.5731 51.2046 28.6063Z" fill="#263238"/>
<path d="M66.0643 29.9427C66.1458 29.7962 66.2658 29.6747 66.4113 29.5915L73.9753 25.3012C74.386 25.063 75.378 25.3854 75.378 26.057V31.4953C75.3781 31.6592 75.3349 31.8202 75.2526 31.962C75.1704 32.1037 75.0521 32.2212 74.9097 32.3024L71.3876 34.3069L71.8743 34.0296L71.5683 34.8922C71.5664 34.8984 71.5633 34.9041 71.5592 34.9091C71.555 34.914 71.5499 34.918 71.5441 34.9209C71.5384 34.9238 71.5321 34.9255 71.5256 34.9258C71.5192 34.9262 71.5127 34.9252 71.5067 34.923C71.4533 34.8942 71.215 34.7669 71.0774 34.6765L71.0651 34.6642L70.9912 34.543L67.3561 36.5763C67.2189 36.6616 67.0617 36.7093 66.9002 36.7144C66.7388 36.7195 66.5788 36.682 66.4365 36.6055C66.2942 36.529 66.1746 36.4164 66.0898 36.2789C66.0049 36.1414 65.9579 35.984 65.9534 35.8225V30.4048C65.9497 30.2437 65.9879 30.0845 66.0643 29.9427Z" fill="#36B8B0"/>
<path opacity="0.2" d="M71.0549 34.6682L71.0672 34.6805C71.2048 34.7709 71.4431 34.8982 71.4965 34.9269C71.4902 34.9259 71.4842 34.9235 71.4789 34.92C71.4736 34.9164 71.469 34.9118 71.4657 34.9064L71.172 34.4279L71.2295 34.395L70.9707 34.5429L71.0549 34.6682Z" fill="white"/>
<path opacity="0.4" d="M66.9886 30.4664C67.0487 30.3461 67.1334 30.2397 67.2371 30.1542C67.2727 30.1259 67.3104 30.1004 67.3501 30.0782L74.912 25.788C74.9591 25.761 75.0125 25.7469 75.0668 25.747C75.1212 25.7472 75.1745 25.7616 75.2215 25.7888C75.2685 25.8161 75.3075 25.8552 75.3347 25.9022C75.3618 25.9493 75.3761 26.0027 75.3761 26.057C75.3761 25.3854 74.3903 25.063 73.9734 25.3012L66.4115 29.5833C66.266 29.6665 66.146 29.788 66.0645 29.9345L66.9886 30.4664Z" fill="white"/>
<path opacity="0.2" d="M66.8843 36.3115V30.8835C66.8822 30.8465 66.8822 30.8095 66.8843 30.7726C66.8996 30.6657 66.9329 30.5623 66.9829 30.4666L66.0587 29.9429C65.9801 30.0813 65.9384 30.2376 65.9375 30.3967V35.8268C65.942 35.9883 65.9891 36.1457 66.0739 36.2832C66.1587 36.4207 66.2783 36.5333 66.4206 36.6098C66.5629 36.6863 66.7229 36.7238 66.8844 36.7187C67.0458 36.7136 67.2031 36.6659 67.3402 36.5806C67.2934 36.6062 67.2407 36.6192 67.1873 36.6183C67.134 36.6175 67.0817 36.6027 67.0358 36.5756C66.9898 36.5485 66.9517 36.5099 66.9251 36.4636C66.8986 36.4173 66.8845 36.3649 66.8843 36.3115Z" fill="white"/>
<path d="M71.2699 29.9922L71.2781 32.508L70.6579 32.8654L70.6558 31.8837L69.8097 32.3725L69.8138 33.3542L69.1956 33.7095L69.1895 31.1936L69.8056 30.8383L69.8097 31.781L70.6538 31.2943L70.6517 30.3495L71.2699 29.9922Z" fill="white"/>
<path d="M71.9788 29.9363C71.7612 30.0616 71.6153 29.9876 71.6133 29.7823C71.6222 29.664 71.66 29.5497 71.7234 29.4494C71.7868 29.3492 71.8738 29.266 71.9768 29.2072C72.1945 29.0819 72.3403 29.1456 72.3403 29.351C72.334 29.471 72.2975 29.5875 72.2344 29.6898C72.1712 29.7921 72.0833 29.8769 71.9788 29.9363Z" fill="white"/>
<path d="M71.6878 32.2715L71.6816 30.3245L72.2772 29.9795L72.2834 31.9264L71.6878 32.2715Z" fill="white"/>
<path d="M73.1814 30.4888L72.7091 30.764L72.5879 29.2299L73.2944 28.8232L73.1814 30.4888Z" fill="white"/>
<path d="M72.945 30.8297C73.1504 30.7064 73.3003 30.7804 73.3003 30.994C73.2938 31.1124 73.2582 31.2275 73.1966 31.3288C73.1349 31.4302 73.0493 31.5148 72.9471 31.5752C72.7417 31.6963 72.5939 31.6101 72.5918 31.4027C72.5987 31.2854 72.6346 31.1717 72.6963 31.0717C72.7579 30.9717 72.8434 30.8885 72.945 30.8297Z" fill="white"/>
<path d="M73.1348 52.9142L74.5005 55.5676L73.2683 57.6562L74.6484 59.8394L76.7329 56.6047C76.8717 56.3849 76.9618 56.138 76.9973 55.8804C77.0327 55.6229 77.0126 55.3608 76.9383 55.1117C76.5828 53.8502 76.1296 52.6183 75.5828 51.4272L73.1348 52.9142Z" fill="#FFA8A7"/>
<path opacity="0.2" d="M74.2479 52.2383L73.1348 52.914L74.1781 54.9287L74.2397 52.5566C74.2438 52.4519 74.2458 52.3451 74.2479 52.2383Z" fill="black"/>
<path d="M72.0371 47.786C73.6185 47.4923 74.5221 48.0201 75.8591 51.5957C75.3128 52.8279 72.9983 53.2715 72.9983 53.2715L72.0371 47.786Z" fill="#36B8B0"/>
<path opacity="0.2" d="M74.0713 50.6404C73.7551 49.667 72.9541 48.9584 72.1367 48.3218L73.0034 53.2713C73.4243 53.1802 73.8365 53.0531 74.2356 52.8913C74.2356 52.7804 74.2356 52.6675 74.2356 52.5566C74.2582 51.9138 74.2726 51.2545 74.0713 50.6404Z" fill="black"/>
<path d="M69.6077 85.2605C69.4783 85.5316 69.0675 85.7822 68.6198 85.8561C68.1662 85.895 67.7093 85.8659 67.2643 85.7698C66.5942 85.6757 65.9155 85.6585 65.2414 85.7185C64.8239 85.7735 64.4035 85.803 63.9825 85.8068C63.5583 85.8117 63.1438 85.6807 62.7995 85.433C62.5618 85.2459 62.4033 84.976 62.3559 84.6772C62.3353 84.8721 62.3654 85.069 62.4431 85.2488C62.5208 85.4287 62.6435 85.5855 62.7995 85.7041C63.1441 85.9515 63.5583 86.0831 63.9825 86.0799C64.4035 86.0744 64.8239 86.0443 65.2414 85.9896C65.9155 85.9306 66.5941 85.9479 67.2643 86.0409C67.7141 86.1046 68.2029 86.2319 68.6506 86.158C69.0983 86.0841 69.5091 85.8335 69.6385 85.5624L69.6077 85.2605Z" fill="#263238"/>
<path d="M64.6959 84.4593C65.0738 84.4593 64.9341 83.9006 65.2935 83.5269C65.1477 83.5269 64.9998 83.5269 64.854 83.5269C64.5316 84.0074 64.4371 84.4593 64.6959 84.4593Z" fill="white"/>
<path d="M65.4817 84.4305C65.8616 84.4305 65.761 83.7651 66.1348 83.377C66.0485 83.4057 65.9623 83.4304 65.876 83.4509C65.8021 83.4673 65.7261 83.4796 65.6522 83.4899C65.3194 83.9623 65.2229 84.4305 65.4817 84.4305Z" fill="white"/>
<path d="M69.2165 83.1532C69.1883 83.0293 69.1151 82.9203 69.0111 82.8472L66.9718 82.7959C66.7531 83.0688 66.4588 83.271 66.1256 83.3771C65.7518 83.7653 65.8525 84.4307 65.4725 84.4307C65.2138 84.4307 65.3103 83.9624 65.643 83.4901C65.5239 83.5085 65.4048 83.5188 65.2856 83.527C64.9262 83.9008 65.0659 84.4594 64.688 84.4594C64.4333 84.4594 64.5237 84.0014 64.8461 83.5373H64.5607C64.4744 83.5373 64.3861 83.5373 64.2998 83.5229C63.5502 84.1144 63.4783 84.7552 63.5831 85.7697C63.7121 85.7919 63.8425 85.805 63.9733 85.8087C64.3944 85.8049 64.8148 85.7754 65.2322 85.7204C65.9063 85.6605 66.585 85.6777 67.2552 85.7718C67.7002 85.8678 68.157 85.8969 68.6106 85.858C69.0584 85.7841 69.4691 85.5335 69.5985 85.2624L69.2165 83.1532Z" fill="#455A64"/>
<path d="M64.3072 83.5211C63.9672 83.465 63.6203 83.465 63.2803 83.5211C63.0709 83.5619 62.8759 83.6569 62.7148 83.7968C62.5536 83.9366 62.4321 84.1164 62.3623 84.3179C62.3329 84.4355 62.328 84.5578 62.3479 84.6774C62.3953 84.9761 62.5538 85.246 62.7915 85.4331C63.0238 85.6089 63.2963 85.7239 63.5843 85.7679C63.4918 84.7574 63.5576 84.1126 64.3072 83.5211Z" fill="white"/>
<path d="M66.9219 82.2148V83.1965C66.9219 83.3055 66.9651 83.4099 67.0422 83.487C67.1192 83.564 67.2237 83.6073 67.3326 83.6073H68.3595C68.5314 83.6074 68.6965 83.5405 68.82 83.4209C68.9434 83.3013 69.0155 83.1383 69.0208 82.9665L69.0454 82.221L66.9219 82.2148Z" fill="#FFA8A7"/>
<path d="M73.7181 81.7773C73.6625 81.8973 73.5762 82.0004 73.4681 82.0765C73.3599 82.1526 73.2337 82.1988 73.102 82.2107C72.8274 82.2301 72.5536 82.1626 72.3195 82.0176C71.9642 81.7938 71.8266 81.4405 71.5864 81.1222C71.3339 80.8129 71.0473 80.5332 70.732 80.2884C70.3908 80.039 70.1101 79.7161 69.9105 79.3437C69.861 79.2335 69.8284 79.1165 69.814 78.9966C69.783 79.223 69.8164 79.4537 69.9105 79.662C70.1101 80.0345 70.3908 80.3573 70.732 80.6067C71.0468 80.8521 71.3334 81.1318 71.5864 81.4405C71.8266 81.7589 71.9642 82.1121 72.3195 82.336C72.5532 82.4818 72.8273 82.5495 73.102 82.529C73.2337 82.5172 73.3599 82.4709 73.4681 82.3948C73.5762 82.3188 73.6625 82.2156 73.7181 82.0957C73.761 81.9162 73.7742 81.731 73.7572 81.5473C73.7576 81.6257 73.7444 81.7035 73.7181 81.7773Z" fill="#263238"/>
<path d="M71.4014 79.6206C71.3656 79.6692 71.3481 79.7288 71.3521 79.7891C71.3583 79.8177 71.3717 79.8443 71.3912 79.8662C71.4106 79.8882 71.4353 79.9047 71.463 79.9143C71.5033 79.9246 71.5455 79.9245 71.5857 79.9141C71.6259 79.9037 71.6628 79.8833 71.693 79.8548C71.7517 79.797 71.8046 79.7337 71.8512 79.6658C71.9881 79.4927 72.17 79.3605 72.3769 79.2838C72.4779 79.2461 72.5837 79.2226 72.6912 79.214L72.4345 78.9819C72.2741 78.9905 72.1167 79.0288 71.9703 79.0949C71.731 79.2073 71.5323 79.3909 71.4014 79.6206Z" fill="white"/>
<path d="M71.4547 78.8094C71.2165 78.9217 71.0186 79.1045 70.8878 79.3331C70.8507 79.3811 70.8325 79.441 70.8365 79.5015C70.8434 79.5304 70.8573 79.5571 70.877 79.5793C70.8967 79.6015 70.9216 79.6185 70.9494 79.6288C70.9894 79.6391 71.0313 79.639 71.0711 79.6286C71.111 79.6182 71.1476 79.5978 71.1774 79.5693C71.2368 79.5116 71.2904 79.4483 71.3376 79.3803C71.4736 79.2066 71.6548 79.0738 71.8613 78.9963C72.0263 78.9373 72.2021 78.9142 72.3768 78.9285L72.1242 78.6985C71.8951 78.6753 71.664 78.7136 71.4547 78.8094Z" fill="white"/>
<path d="M71.9638 78.5547C71.732 78.3283 71.4605 78.1466 71.1628 78.0187C70.9832 77.9399 70.7852 77.9124 70.5909 77.9392C70.3966 77.966 70.2135 78.0461 70.062 78.1707C69.9606 78.2794 69.8859 78.4102 69.8438 78.5528C69.8017 78.6954 69.7935 78.8458 69.8197 78.9922C69.8341 79.1121 69.8667 79.2291 69.9162 79.3392C69.9817 79.4837 70.0667 79.6184 70.1688 79.7397C70.2653 78.873 71.0293 78.4623 71.9638 78.5547Z" fill="white"/>
<path d="M73.7392 80.9148C73.7417 80.6162 73.6712 80.3215 73.5338 80.0563L73.0389 79.5367L72.6856 79.2143C72.5782 79.2229 72.4724 79.2464 72.3714 79.2841C72.1645 79.3608 71.9826 79.493 71.8457 79.6661C71.7991 79.734 71.7462 79.7973 71.6875 79.855C71.6573 79.8835 71.6204 79.904 71.5802 79.9144C71.54 79.9248 71.4978 79.9249 71.4575 79.9146C71.4298 79.905 71.4051 79.8884 71.3856 79.8665C71.3662 79.8446 71.3528 79.818 71.3466 79.7893C71.3426 79.7291 71.36 79.6694 71.3959 79.6209C71.5268 79.3912 71.7255 79.2075 71.9648 79.0952C72.1111 79.029 72.2685 78.9907 72.4289 78.9822L72.3714 78.9288C72.1967 78.9145 72.021 78.9376 71.8559 78.9966C71.6494 79.0741 71.4682 79.207 71.3322 79.3806C71.2851 79.4486 71.2314 79.5119 71.172 79.5696C71.1423 79.5981 71.1057 79.6185 71.0658 79.6289C71.0259 79.6393 70.984 79.6394 70.9441 79.6291C70.9162 79.6188 70.8914 79.6018 70.8717 79.5796C70.852 79.5574 70.838 79.5307 70.8311 79.5018C70.8271 79.4413 70.8454 79.3814 70.8825 79.3334C71.0132 79.1048 71.2111 78.922 71.4493 78.8097C71.6587 78.7139 71.8898 78.6756 72.1188 78.6988L71.9668 78.5632C71.0324 78.4626 70.2684 78.8733 70.1719 79.7524C70.3417 79.9506 70.5294 80.1327 70.7325 80.2966C71.0472 80.5422 71.3332 80.8226 71.5848 81.1325C71.8251 81.4508 71.9627 81.804 72.318 82.0279C72.5521 82.1728 72.8259 82.2404 73.1005 82.2209C73.2322 82.2091 73.3584 82.1628 73.4666 82.0868C73.5747 82.0107 73.661 81.9075 73.7166 81.7876C73.7429 81.7138 73.7561 81.6359 73.7556 81.5576C73.7621 81.3432 73.7567 81.1286 73.7392 80.9148Z" fill="#455A64"/>
<path d="M71.9492 79.3618L72.0067 80.4174C72.6721 80.7994 73.3725 80.592 73.6066 80.3476L73.6497 79.3618H71.9492Z" fill="#FFA8A7"/>
<path d="M73.2679 56.5656C73.2109 56.4522 73.1767 56.3287 73.1673 56.2021L73.1118 55.2964L66.661 55.7071C66.5768 56.159 66.4906 56.7135 66.4043 57.3501C68.7102 57.9501 71.1568 57.6704 73.2679 56.5656Z" fill="#FFA8A7"/>
<path d="M69.0836 48.2069L67.3564 48.5457C66.9765 49.244 66.5863 49.8991 66.2043 50.5995C65.9188 51.1252 65.6231 51.6838 65.6436 52.2835C65.6569 52.534 65.7246 52.7786 65.842 53.0003C65.9594 53.2219 66.1237 53.4154 66.3234 53.5671C66.4283 53.6424 66.5122 53.7432 66.5672 53.86C66.6222 53.9769 66.6464 54.1058 66.6376 54.2346L66.4795 56.1281C69.1883 56.9496 72.501 56.2288 73.2301 55.6003C73.4355 54.6125 73.6408 53.563 73.8462 52.5752C74.0742 51.5216 74.3042 50.4578 73.9756 49.357C73.9165 49.1587 73.8293 48.9699 73.7168 48.7963C73.4922 48.4389 73.1673 48.1555 72.7828 47.9813C72.3983 47.8071 71.9711 47.7499 71.5542 47.8167L69.0836 48.2069Z" fill="#36B8B0"/>
<path opacity="0.2" d="M66.2494 50.5171L66.2063 50.5972C65.9188 51.1229 65.6231 51.6816 65.6436 52.2813C65.6569 52.5317 65.7246 52.7763 65.842 52.998C65.9594 53.2196 66.1237 53.4131 66.3234 53.5648C66.4283 53.6401 66.5122 53.7409 66.5672 53.8578C66.6222 53.9746 66.6464 54.1035 66.6376 54.2323L66.5842 54.8649C67.1264 53.801 67.8555 52.2546 68.1635 51.1147L66.2494 50.5171Z" fill="black"/>
<path d="M73.361 56.7297C73.3224 56.6782 73.2887 56.6232 73.2604 56.5654C71.1488 57.6689 68.7022 57.947 66.3968 57.3458C65.9121 60.9645 65.4931 67.0908 65.7499 71.1326C65.9552 75.8398 66.8301 82.5021 66.8301 82.5021C67.9597 82.841 68.8058 82.6335 69.1262 82.3891C69.502 77.721 70.3297 74.5213 69.691 71.4345C70.1161 69.276 70.3934 66.5651 70.3934 66.5651L70.7199 71.3339L71.831 79.7172C72.1414 79.8761 72.4882 79.9504 72.8364 79.9328C73.1847 79.9151 73.5222 79.8061 73.8149 79.6166C74.6179 74.8232 74.9198 71.5742 74.2154 69.1959C75.2792 61.3301 75.3347 59.3174 73.361 56.7297Z" fill="#455A64"/>
<path opacity="0.3" d="M70.867 65.6225L71.4585 63.1395C72.1485 63.0265 73.2288 62.5747 73.7956 61.6279C72.9787 62.2723 71.973 62.6308 70.9327 62.6486L70.3926 66.5651L70.5076 68.2451L70.5528 67.629C70.6052 66.953 70.7102 66.2821 70.867 65.6225Z" fill="black"/>
<path d="M66.9797 43.5674C66.723 43.0787 66.6057 42.5288 66.6409 41.9778C66.6624 41.7036 66.7493 41.4386 66.8944 41.2049C67.0395 40.9712 67.2385 40.7757 67.4747 40.6347C67.7163 40.5027 67.9956 40.4566 68.2668 40.504C68.5381 40.5514 68.7852 40.6894 68.9677 40.8955C69.4064 40.6546 69.902 40.537 70.4022 40.5551C70.9023 40.5733 71.3881 40.7266 71.8081 40.9987C72.2281 41.2708 72.5665 41.6516 72.7874 42.1007C73.0084 42.5497 73.1036 43.0502 73.0629 43.549C73.0259 44.1199 72.8164 44.6826 72.8822 45.2515C72.9191 45.5863 73.0506 45.9251 72.9643 46.2496C72.9209 46.3843 72.8502 46.5085 72.7565 46.6145C72.6629 46.7205 72.5483 46.8061 72.4201 46.8657C72.1716 46.9972 71.5883 46.9623 71.3131 47.0198C70.4711 47.7838 69.4155 47.4983 68.7418 46.8144C68.0682 46.1305 66.9797 43.5674 66.9797 43.5674Z" fill="#37474F"/>
<path d="M66.8051 44.3271L66.2793 45.2411L66.8543 45.4526L66.8051 44.3271Z" fill="#FF9192"/>
<path d="M66.745 43.9208C66.8292 43.1178 67.0633 42.364 67.585 41.98C67.4438 42.9792 67.6567 43.9964 68.1867 44.8552C68.2391 44.5908 68.3752 44.3503 68.5749 44.1693C68.6718 44.0755 68.793 44.0108 68.9247 43.9825C69.0565 43.9542 69.1936 43.9634 69.3204 44.0091C69.4951 44.0909 69.6302 44.2386 69.6962 44.4198C69.7659 44.5926 69.7844 44.7818 69.7498 44.9648C69.7151 45.1479 69.6286 45.3172 69.5006 45.4525C69.3726 45.5879 69.2084 45.6837 69.0276 45.7285C68.8467 45.7733 68.6568 45.7653 68.4804 45.7055C68.553 46.0614 68.7276 46.3886 68.9828 46.6472C69.2381 46.9057 69.563 47.0844 69.918 47.1616C70.3852 47.2561 70.8698 47.2097 71.3105 47.0281L71.5282 48.1083C70.6492 49.0448 69.1458 48.4164 69.1458 48.4164L68.9405 47.3526C67.2112 47.4552 67.049 47.4265 66.86 46.4736C66.7045 45.632 66.6658 44.7729 66.745 43.9208Z" fill="#FFA8A7"/>
<path opacity="0.3" d="M70.5737 42.7563C70.8182 42.06 71.3071 41.4762 71.9497 41.1133C72.3175 41.3998 72.6107 41.7708 72.8045 42.1949C72.9983 42.6189 73.0869 43.0834 73.0628 43.549C73.0259 44.12 72.8164 44.6827 72.8821 45.2516C72.9191 45.5863 73.0505 45.9252 72.9643 46.2497C72.9209 46.3843 72.8501 46.5086 72.7565 46.6146C72.6628 46.7206 72.5483 46.8061 72.42 46.8658C72.1715 46.9972 71.5883 46.9623 71.3131 47.0198C71.2761 47.0527 71.2391 47.0814 71.2022 47.1102C70.9086 46.5526 70.6792 45.9635 70.5183 45.3543C70.2811 44.5016 70.3004 43.598 70.5737 42.7563Z" fill="black"/>
<path d="M71.0542 42.1564C71.1894 41.7079 71.464 41.3141 71.8383 41.0324C72.2126 40.7507 72.6669 40.5957 73.1354 40.59C73.6038 40.5843 74.0618 40.7281 74.4428 41.0006C74.8239 41.273 75.1081 41.66 75.2541 42.105C75.7758 43.6823 74.4326 45.3623 74.7325 46.9991C74.8372 47.5885 75.1432 48.1246 75.2562 48.714C75.3184 49.0548 75.3102 49.4046 75.2321 49.7421C75.1541 50.0796 75.0079 50.3976 74.8025 50.6765C74.597 50.9554 74.3367 51.1894 74.0376 51.364C73.7384 51.5386 73.4067 51.6502 73.0628 51.6919C73.4386 51.2811 73.4448 50.6383 73.2312 50.1228C73.0176 49.6074 72.6356 49.1822 72.307 48.7304C70.9803 46.9087 70.3929 44.3128 71.0542 42.1564Z" fill="#37474F"/>
<path d="M67.3558 48.5459C65.5074 48.9197 63.6447 53.6371 63.6447 53.6371L61.8847 48.7081L62.2625 46.8598C62.2832 46.7534 62.2747 46.6434 62.2379 46.5414L61.8271 45.3934C61.8071 45.3378 61.7674 45.2915 61.7156 45.2632C61.6638 45.2348 61.6034 45.2263 61.5458 45.2394C61.5133 45.2467 61.4827 45.2606 61.4559 45.2803C61.429 45.2999 61.4064 45.3248 61.3895 45.3534C61.3725 45.3821 61.3616 45.4139 61.3574 45.4469C61.3532 45.4799 61.3558 45.5134 61.3651 45.5454L61.6793 46.5989L61.1802 45.6522C61.16 45.6136 61.1322 45.5795 61.0986 45.5519C61.065 45.5242 61.0262 45.5036 60.9845 45.4912C60.9428 45.4787 60.899 45.4747 60.8557 45.4795C60.8124 45.4842 60.7705 45.4975 60.7325 45.5187L60.33 45.7364C60.2552 45.7776 60.1997 45.8466 60.1754 45.9285C60.1512 46.0104 60.1602 46.0985 60.2006 46.1738L60.636 46.9953C60.1431 48.4083 60.5846 48.8211 60.5846 48.8211L61.4184 54.0602C61.4976 54.5568 61.7306 55.016 62.0847 55.3731C62.4388 55.7302 62.8961 55.967 63.3921 56.0502C63.8552 56.1276 64.3308 56.0675 64.7601 55.8773C65.1894 55.6871 65.5534 55.3752 65.8073 54.9802C68.5285 50.768 70.038 48.0674 67.3558 48.5459Z" fill="#FFA8A7"/>
<path opacity="0.2" d="M63.3664 54.639C63.4263 54.2999 63.5199 53.9676 63.6457 53.6471L63.4404 53.0474C63.3012 53.2872 63.2218 53.5571 63.2089 53.8341C63.196 54.1112 63.2501 54.3873 63.3664 54.639Z" fill="black"/>
<path d="M67.3551 48.5458C66.5336 48.7717 65.6423 49.201 64.373 51.6922C64.5148 53.4892 67.1661 53.0374 67.1661 53.0374C67.8665 51.7024 68.6202 50.31 68.768 49.6569C69.0165 48.5664 68.5195 48.3138 67.3551 48.5458Z" fill="#36B8B0"/>
</svg>
