<svg width="104" height="78" viewBox="0 0 104 78" fill="none" xmlns="http://www.w3.org/2000/svg">
<path d="M104 68.0991H0V68.1511H104V68.0991Z" fill="#EBEBEB"/>
<path d="M17.8011 70.0796H10.9121V70.1316H17.8011V70.0796Z" fill="#EBEBEB"/>
<path d="M46.8005 70.1064H35.5977V70.1584H46.8005V70.1064Z" fill="#EBEBEB"/>
<path d="M25.9915 71.1528H22V71.2048H25.9915V71.1528Z" fill="#EBEBEB"/>
<path d="M92.7674 71.1274H88.7676V71.1794H92.7674V71.1274Z" fill="#EBEBEB"/>
<path d="M86.9155 71.1274H80.6152V71.1794H86.9155V71.1274Z" fill="#EBEBEB"/>
<path d="M77.1455 70.7847H68.293V70.8367H77.1455V70.7847Z" fill="#EBEBEB"/>
<path d="M49.2956 58.8224H9.13287C8.81823 58.8218 8.51668 58.6965 8.29439 58.4738C8.07211 58.2511 7.94727 57.9493 7.94727 57.6347V1.17728C7.95 0.864453 8.07606 0.56534 8.29805 0.344909C8.52003 0.124479 8.82003 0.000535889 9.13287 0H49.2956C49.6106 0 49.9127 0.12513 50.1354 0.347863C50.3581 0.570597 50.4833 0.872687 50.4833 1.18768V57.6347C50.4833 57.9497 50.3581 58.2518 50.1354 58.4745C49.9127 58.6973 49.6106 58.8224 49.2956 58.8224ZM9.13287 0.0416002C8.83203 0.0421511 8.54369 0.162046 8.33116 0.374967C8.11863 0.587889 7.99927 0.876439 7.99927 1.17728V57.6347C7.99927 57.9356 8.11863 58.2241 8.33116 58.437C8.54369 58.6499 8.83203 58.7698 9.13287 58.7704H49.2956C49.5966 58.7698 49.8852 58.65 50.098 58.4372C50.3109 58.2243 50.4307 57.9357 50.4313 57.6347V1.17728C50.4307 0.876248 50.3109 0.587702 50.098 0.37484C49.8852 0.161978 49.5966 0.04215 49.2956 0.0416002H9.13287Z" fill="#EBEBEB"/>
<path d="M94.288 58.8224H54.1232C53.8084 58.8218 53.5066 58.6965 53.284 58.4739C53.0614 58.2513 52.9361 57.9495 52.9355 57.6347V1.17728C52.9388 0.864264 53.0653 0.565152 53.2877 0.344779C53.51 0.124407 53.8102 0.000530044 54.1232 0H94.288C94.6005 0.00108254 94.9 0.125268 95.1215 0.345639C95.343 0.566011 95.4688 0.864812 95.4715 1.17728V57.6347C95.4715 57.949 95.347 58.2505 95.1252 58.4731C94.9033 58.6957 94.6023 58.8213 94.288 58.8224ZM54.1232 0.0416002C53.8222 0.04215 53.5336 0.161978 53.3208 0.37484C53.1079 0.587702 52.9881 0.876248 52.9875 1.17728V57.6347C52.9881 57.9357 53.1079 58.2243 53.3208 58.4372C53.5336 58.65 53.8222 58.7698 54.1232 58.7704H94.288C94.5891 58.7698 94.8776 58.65 95.0905 58.4372C95.3033 58.2243 95.4232 57.9357 95.4237 57.6347V1.17728C95.4232 0.876248 95.3033 0.587702 95.0905 0.37484C94.8776 0.161978 94.5891 0.04215 94.288 0.0416002H54.1232Z" fill="#EBEBEB"/>
<path d="M62.8614 68.0991H68.752V38.7919H62.8614V68.0991Z" fill="#E6E6E6"/>
<path d="M63.9784 68.0994H62.8594V64.917H65.1515L63.9784 68.0994Z" fill="#F0F0F0"/>
<path d="M84.877 68.0991H90.7676V38.7919H84.877V68.0991Z" fill="#E6E6E6"/>
<path d="M62.8612 66.146H85.8535V38.7919H62.8612V66.146Z" fill="#F0F0F0"/>
<path d="M63.7285 56.8484V62.167H73.9808V56.8484H63.7285Z" fill="#E6E6E6"/>
<path d="M74.7324 56.8484V62.167H84.9847V56.8484H74.7324Z" fill="#E6E6E6"/>
<path d="M78.8452 57.7389H80.8732C81.3093 57.7392 81.7409 57.6504 82.1415 57.478C82.5421 57.3056 82.9032 57.0532 83.2028 56.7363H76.5156C76.8152 57.0532 77.1764 57.3056 77.577 57.478C77.9776 57.6504 78.4091 57.7392 78.8452 57.7389Z" fill="#F0F0F0"/>
<path d="M67.7378 57.7389H69.7658C70.2019 57.7392 70.6335 57.6504 71.0341 57.478C71.4346 57.3056 71.7958 57.0532 72.0954 56.7363H65.4082C65.7078 57.0532 66.069 57.3056 66.4696 57.478C66.8701 57.6504 67.3017 57.7392 67.7378 57.7389Z" fill="#F0F0F0"/>
<path d="M63.7266 48.5804V53.8989H73.9789V48.5804H63.7266Z" fill="#E6E6E6"/>
<path d="M74.7324 48.5823V53.9009H84.9847V48.5823H74.7324Z" fill="#E6E6E6"/>
<path d="M78.8452 49.4706H80.8732C81.3092 49.4697 81.7405 49.3799 82.1406 49.2069C82.5408 49.0338 82.9015 48.781 83.2007 48.4639H76.5156C76.8151 48.7812 77.1761 49.0342 77.5767 49.2073C77.9772 49.3804 78.4089 49.47 78.8452 49.4706Z" fill="#F0F0F0"/>
<path d="M67.7378 49.4707H69.7658C70.2017 49.4709 70.6331 49.3823 71.0336 49.2102C71.4341 49.0382 71.7954 48.7864 72.0954 48.4702H65.4082C65.7082 48.7864 66.0695 49.0382 66.47 49.2102C66.8705 49.3823 67.3019 49.4709 67.7378 49.4707Z" fill="#F0F0F0"/>
<path d="M63.7285 40.3147V45.6333H73.9808V40.3147H63.7285Z" fill="#E6E6E6"/>
<path d="M74.7324 40.3147V45.6333H84.9847V40.3147H74.7324Z" fill="#E6E6E6"/>
<path d="M78.8452 41.2047H80.8732C81.3093 41.205 81.7409 41.1162 82.1415 40.9438C82.5421 40.7714 82.9032 40.519 83.2028 40.2021H76.5156C76.8152 40.519 77.1764 40.7714 77.577 40.9438C77.9776 41.1162 78.4091 41.205 78.8452 41.2047Z" fill="#F0F0F0"/>
<path d="M67.7378 41.2047H69.7658C70.2019 41.205 70.6335 41.1162 71.0341 40.9438C71.4346 40.7714 71.7958 40.519 72.0954 40.2021H65.4082C65.7078 40.519 66.069 40.7714 66.4696 40.9438C66.8701 41.1162 67.3017 41.205 67.7378 41.2047Z" fill="#F0F0F0"/>
<path d="M84.7356 68.0994H85.8547V64.917H83.5625L84.7356 68.0994Z" fill="#F0F0F0"/>
<path d="M85.7043 18.6724L86.6049 21.1351H85.7043L80.1777 18.6724H85.7043Z" fill="#F5F5F5"/>
<path d="M86.6046 18.6724V21.1351L81.0801 18.6724H86.6046Z" fill="#E6E6E6"/>
<path d="M64.0362 18.6724L64.9368 21.1351H64.0362L58.5117 18.6724H64.0362Z" fill="#F5F5F5"/>
<path d="M64.9385 18.6724V21.1351L59.4141 18.6724H64.9385Z" fill="#E6E6E6"/>
<path d="M90.6615 16.9126H84.6523V18.7867H90.6615V16.9126Z" fill="#E6E6E6"/>
<path d="M54.7773 18.7886L84.6523 18.7886V16.9145L54.7773 16.9145V18.7886Z" fill="#F5F5F5"/>
<path d="M78.584 10.3999C78.584 10.3999 78.6443 16.9145 80.8928 16.9145C83.1413 16.9145 83.1995 10.3999 83.1995 10.3999H78.584Z" fill="#F0F0F0"/>
<path d="M64.6426 14.7886C64.6426 14.7886 64.8007 16.9123 70.8493 16.9123C76.8979 16.9123 77.056 14.7886 77.056 14.7886H64.6426Z" fill="#F0F0F0"/>
<path d="M46.666 68.0992H47.0675L48.2177 62.4312L48.4257 61.4369L49.6737 55.2593H54.4951L57.1014 68.0992H57.5049L54.8487 55.0243C54.84 54.9795 54.8159 54.9392 54.7806 54.9103C54.7452 54.8815 54.7009 54.8659 54.6553 54.8662H49.5135C49.4682 54.8659 49.4241 54.8816 49.3892 54.9105C49.3542 54.9394 49.3305 54.9797 49.3222 55.0243L48.2198 60.4489L48.0118 61.4411L46.666 68.0992Z" fill="#F0F0F0"/>
<path d="M38.9434 68.0993H39.3448L41.9531 55.2594H46.7621L48.0101 61.4412L48.2181 62.4313L49.3704 68.0993H49.7718L48.4198 61.4433L48.2118 60.4553L47.1094 55.0306C47.0987 54.9869 47.074 54.9478 47.0391 54.9193C47.0042 54.8908 46.961 54.8744 46.916 54.8726H41.793C41.7473 54.8722 41.703 54.8878 41.6677 54.9167C41.6324 54.9456 41.6083 54.9859 41.5995 55.0306L38.9434 68.0993Z" fill="#F0F0F0"/>
<path d="M55.2164 53.3687H41.2242C40.9033 53.3692 40.5958 53.4969 40.3688 53.7238C40.1419 53.9507 40.0142 54.2583 40.0137 54.5792V54.6208C40.0137 54.7383 40.0604 54.851 40.1434 54.9341C40.2265 55.0172 40.3392 55.0639 40.4567 55.0639H55.9839C56.1014 55.0639 56.2141 55.0172 56.2972 54.9341C56.3803 54.851 56.427 54.7383 56.427 54.6208V54.5792C56.4264 54.2583 56.2987 53.9507 56.0718 53.7238C55.8449 53.4969 55.5373 53.3692 55.2164 53.3687Z" fill="#F0F0F0"/>
<path d="M32.625 68.0992H33.0264L34.1767 62.4312L34.3847 61.4369L35.6327 55.2593H40.4416L43.0562 68.0992H43.4597L40.8036 55.0243C40.7948 54.9795 40.7707 54.9392 40.7354 54.9103C40.7001 54.8815 40.6557 54.8659 40.6101 54.8662H35.4725C35.4271 54.8659 35.3831 54.8816 35.3481 54.9105C35.3132 54.9394 35.2895 54.9797 35.2812 55.0243L34.1788 60.4489L33.9708 61.4411L32.625 68.0992Z" fill="#F0F0F0"/>
<path d="M24.9023 68.0992H25.3059L27.9121 55.2593H32.7231L33.9711 61.4411L34.1791 62.4312L35.3315 68.0992H35.7329L34.3809 61.4432L34.1729 60.4552L33.0726 55.0243C33.0618 54.9806 33.0371 54.9415 33.0022 54.913C32.9674 54.8845 32.9242 54.8681 32.8791 54.8662H27.7519C27.7063 54.8659 27.662 54.8815 27.6267 54.9103C27.5914 54.9392 27.5672 54.9795 27.5585 55.0243L24.9023 68.0992Z" fill="#F0F0F0"/>
<path d="M41.1838 53.3687H27.1813C26.8604 53.3692 26.5528 53.4969 26.3259 53.7238C26.099 53.9507 25.9713 54.2583 25.9707 54.5792V54.6208C25.9707 54.7383 26.0174 54.851 26.1005 54.9341C26.1836 55.0172 26.2962 55.0639 26.4137 55.0639H41.943C42.0011 55.0639 42.0586 55.0524 42.1123 55.0301C42.1659 55.0078 42.2146 54.9751 42.2556 54.934C42.2965 54.8928 42.329 54.8439 42.351 54.7902C42.3731 54.7365 42.3843 54.6789 42.384 54.6208V54.5792C42.3835 54.2601 42.2572 53.9541 42.0325 53.7275C41.8078 53.5009 41.5029 53.3719 41.1838 53.3687Z" fill="#F0F0F0"/>
<path d="M17.5413 36.9409H37.6445L37.6445 4.73628H17.5413L17.5413 36.9409Z" fill="#E6E6E6"/>
<path d="M16.2272 36.9409H37.0293L37.0293 4.73628H16.2272L16.2272 36.9409Z" fill="#F0F0F0"/>
<path d="M17.5413 39.3809H37.6445V36.9389H17.5413V39.3809Z" fill="#E6E6E6"/>
<path d="M14.0397 39.3809H34.8418V36.9389H14.0397V39.3809Z" fill="#F0F0F0"/>
<path d="M35.1895 35.1019V6.57471L18.0648 6.57471V35.1019H35.1895Z" fill="#FAFAFA"/>
<path d="M35.3365 35.0998L29.3128 6.57471H24.2168L30.2405 35.0998H35.3365Z" fill="white"/>
<path d="M33.9494 31.6928C33.9842 31.6928 34.0175 31.679 34.0421 31.6544C34.0666 31.6298 34.0804 31.5965 34.0804 31.5617V7.77069C34.0804 7.73593 34.0666 7.7026 34.0421 7.67803C34.0175 7.65345 33.9842 7.63965 33.9494 7.63965C33.9146 7.63965 33.8813 7.65345 33.8567 7.67803C33.8322 7.7026 33.8184 7.73593 33.8184 7.77069V31.5617C33.8184 31.5965 33.8322 31.6298 33.8567 31.6544C33.8813 31.679 33.9146 31.6928 33.9494 31.6928Z" fill="#F0F0F0"/>
<path d="M29.1468 35.0998L23.1231 6.57471H21.1367L27.1583 35.0998H29.1468Z" fill="white"/>
<path d="M18.3008 35.1019V6.57471H18.0678V35.1019H18.3008Z" fill="#E6E6E6"/>
<path opacity="0.6" d="M15.791 7.98697H35.8942L36.0648 7.28809H15.9616L15.791 7.98697Z" fill="#F0F0F0"/>
<path opacity="0.6" d="M15.791 9.61184H35.8942L36.0648 8.91504H15.9616L15.791 9.61184Z" fill="#F0F0F0"/>
<path opacity="0.6" d="M15.791 11.2384H35.8942L36.0648 10.5396H15.9616L15.791 11.2384Z" fill="#F0F0F0"/>
<path opacity="0.6" d="M15.791 12.8628H35.8942L36.0648 12.166H15.9616L15.791 12.8628Z" fill="#F0F0F0"/>
<path opacity="0.6" d="M15.791 14.4893H35.8942L36.0648 13.7925H15.9616L15.791 14.4893Z" fill="#F0F0F0"/>
<path opacity="0.6" d="M15.791 16.1159H35.8942L36.0648 15.417H15.9616L15.791 16.1159Z" fill="#F0F0F0"/>
<path d="M51.999 77.4923C74.2722 77.4923 92.3282 76.4381 92.3282 75.1378C92.3282 73.8374 74.2722 72.7832 51.999 72.7832C29.7259 72.7832 11.6699 73.8374 11.6699 75.1378C11.6699 76.4381 29.7259 77.4923 51.999 77.4923Z" fill="#F5F5F5"/>
<path d="M50.5703 43.208H37.8635C37.6843 43.208 37.5391 43.3533 37.5391 43.5325V48.8323C37.5391 49.0115 37.6843 49.1568 37.8635 49.1568H50.5703C50.7495 49.1568 50.8947 49.0115 50.8947 48.8323V43.5325C50.8947 43.3533 50.7495 43.208 50.5703 43.208Z" fill="#36B8B0"/>
<path opacity="0.6" d="M50.5703 43.208H37.8635C37.6843 43.208 37.5391 43.3533 37.5391 43.5325V48.8323C37.5391 49.0115 37.6843 49.1568 37.8635 49.1568H50.5703C50.7495 49.1568 50.8947 49.0115 50.8947 48.8323V43.5325C50.8947 43.3533 50.7495 43.208 50.5703 43.208Z" fill="white"/>
<path opacity="0.1" d="M50.5666 43.208H37.8557C37.7697 43.208 37.6871 43.2422 37.6263 43.303C37.5654 43.3639 37.5312 43.4464 37.5312 43.5325V45.2318L44.1457 46.5339C44.1861 46.5422 44.2279 46.5422 44.2684 46.5339L50.8848 45.2318V43.5325C50.8849 43.4475 50.8515 43.3659 50.792 43.3052C50.7325 43.2445 50.6516 43.2096 50.5666 43.208Z" fill="black"/>
<path d="M50.8458 41.0323H46.9645V40.3813C46.964 40.1122 46.8569 39.8544 46.6666 39.6641C46.4764 39.4739 46.2185 39.3668 45.9495 39.3662H42.4821C42.2131 39.3668 41.9552 39.4739 41.765 39.6641C41.5748 39.8544 41.4676 40.1122 41.4671 40.3813V41.0323H37.5879C37.5029 41.0323 37.4215 41.066 37.3614 41.1261C37.3013 41.1862 37.2676 41.2677 37.2676 41.3526V44.5579C37.268 44.6319 37.2939 44.7035 37.3408 44.7607C37.3878 44.8179 37.453 44.8572 37.5255 44.872L44.1545 46.1761C44.1951 46.1824 44.2365 46.1824 44.2772 46.1761L50.9061 44.872C50.9789 44.8572 51.0443 44.818 51.0916 44.7609C51.1389 44.7037 51.1652 44.6321 51.1661 44.5579V41.3526C51.1661 41.2677 51.1324 41.1862 51.0723 41.1261C51.0122 41.066 50.9308 41.0323 50.8458 41.0323ZM42.2388 40.3813C42.2393 40.3167 42.2651 40.2549 42.3105 40.209C42.356 40.1632 42.4176 40.1369 42.4821 40.1358H45.9495C46.0141 40.1369 46.0756 40.1632 46.1211 40.209C46.1666 40.2549 46.1923 40.3167 46.1929 40.3813V41.0323H42.2409L42.2388 40.3813Z" fill="#36B8B0"/>
<path opacity="0.6" d="M50.8458 41.0323H46.9645V40.3813C46.964 40.1122 46.8569 39.8544 46.6666 39.6641C46.4764 39.4739 46.2185 39.3668 45.9495 39.3662H42.4821C42.2131 39.3668 41.9552 39.4739 41.765 39.6641C41.5748 39.8544 41.4676 40.1122 41.4671 40.3813V41.0323H37.5879C37.5029 41.0323 37.4215 41.066 37.3614 41.1261C37.3013 41.1862 37.2676 41.2677 37.2676 41.3526V44.5579C37.268 44.6319 37.2939 44.7035 37.3408 44.7607C37.3878 44.8179 37.453 44.8572 37.5255 44.872L44.1545 46.1761C44.1951 46.1824 44.2365 46.1824 44.2772 46.1761L50.9061 44.872C50.9789 44.8572 51.0443 44.818 51.0916 44.7609C51.1389 44.7037 51.1652 44.6321 51.1661 44.5579V41.3526C51.1661 41.2677 51.1324 41.1862 51.0723 41.1261C51.0122 41.066 50.9308 41.0323 50.8458 41.0323ZM42.2388 40.3813C42.2393 40.3167 42.2651 40.2549 42.3105 40.209C42.356 40.1632 42.4176 40.1369 42.4821 40.1358H45.9495C46.0141 40.1369 46.0756 40.1632 46.1211 40.209C46.1666 40.2549 46.1923 40.3167 46.1929 40.3813V41.0323H42.2409L42.2388 40.3813Z" fill="white"/>
<path d="M44.9011 45.3003H43.5324C43.3624 45.3003 43.2246 45.4381 43.2246 45.6081V46.4734C43.2246 46.6434 43.3624 46.7813 43.5324 46.7813H44.9011C45.0711 46.7813 45.2089 46.6434 45.2089 46.4734V45.6081C45.2089 45.4381 45.0711 45.3003 44.9011 45.3003Z" fill="#36B8B0"/>
<path opacity="0.3" d="M44.9011 45.3003H43.5324C43.3624 45.3003 43.2246 45.4381 43.2246 45.6081V46.4734C43.2246 46.6434 43.3624 46.7813 43.5324 46.7813H44.9011C45.0711 46.7813 45.2089 46.6434 45.2089 46.4734V45.6081C45.2089 45.4381 45.0711 45.3003 44.9011 45.3003Z" fill="white"/>
<path d="M50.5703 4.94434H37.8635C37.6843 4.94434 37.5391 5.08961 37.5391 5.26882V10.5687C37.5391 10.7479 37.6843 10.8931 37.8635 10.8931H50.5703C50.7495 10.8931 50.8947 10.7479 50.8947 10.5687V5.26882C50.8947 5.08961 50.7495 4.94434 50.5703 4.94434Z" fill="#36B8B0"/>
<path opacity="0.6" d="M50.5703 4.94434H37.8635C37.6843 4.94434 37.5391 5.08961 37.5391 5.26882V10.5687C37.5391 10.7479 37.6843 10.8931 37.8635 10.8931H50.5703C50.7495 10.8931 50.8947 10.7479 50.8947 10.5687V5.26882C50.8947 5.08961 50.7495 4.94434 50.5703 4.94434Z" fill="white"/>
<path opacity="0.1" d="M50.5666 4.94434H37.8557C37.7697 4.94434 37.6871 4.97852 37.6263 5.03937C37.5654 5.10023 37.5312 5.18276 37.5312 5.26882V6.96818L44.1457 8.27026C44.1861 8.27855 44.2279 8.27855 44.2684 8.27026L50.8848 6.96818V5.26882C50.8849 5.18383 50.8515 5.10223 50.792 5.04155C50.7325 4.98088 50.6516 4.94597 50.5666 4.94434Z" fill="black"/>
<path d="M50.8458 2.76862H46.9645V2.11758C46.964 1.84854 46.8569 1.59068 46.6666 1.40044C46.4764 1.21021 46.2185 1.10309 45.9495 1.10254H42.4821C42.2131 1.10309 41.9552 1.21021 41.765 1.40044C41.5748 1.59068 41.4676 1.84854 41.4671 2.11758V2.76862H37.5879C37.5029 2.76862 37.4215 2.80237 37.3614 2.86244C37.3013 2.92251 37.2676 3.00398 37.2676 3.08894V6.29422C37.2676 6.36833 37.2933 6.44013 37.3404 6.4974C37.3874 6.55467 37.4528 6.59386 37.5255 6.6083L44.1545 7.90414C44.1949 7.91243 44.2367 7.91243 44.2772 7.90414L50.9061 6.59998C50.978 6.58633 51.0432 6.54862 51.0908 6.49305C51.1384 6.43748 51.1657 6.36736 51.1682 6.29422V3.08894C51.1682 3.0467 51.1599 3.00487 51.1436 2.96588C51.1274 2.92688 51.1036 2.89147 51.0737 2.8617C51.0437 2.83193 51.0081 2.80838 50.969 2.7924C50.9299 2.77643 50.8881 2.76834 50.8458 2.76862ZM42.2388 2.11758C42.2388 2.05284 42.2643 1.99073 42.3099 1.94476C42.3555 1.89879 42.4174 1.87269 42.4821 1.87214H45.9495C46.0139 1.87268 46.0755 1.8985 46.121 1.94402C46.1665 1.98954 46.1923 2.05112 46.1929 2.1155V2.76654H42.2409L42.2388 2.11758Z" fill="#36B8B0"/>
<path opacity="0.6" d="M50.8458 2.76862H46.9645V2.11758C46.964 1.84854 46.8569 1.59068 46.6666 1.40044C46.4764 1.21021 46.2185 1.10309 45.9495 1.10254H42.4821C42.2131 1.10309 41.9552 1.21021 41.765 1.40044C41.5748 1.59068 41.4676 1.84854 41.4671 2.11758V2.76862H37.5879C37.5029 2.76862 37.4215 2.80237 37.3614 2.86244C37.3013 2.92251 37.2676 3.00398 37.2676 3.08894V6.29422C37.2676 6.36833 37.2933 6.44013 37.3404 6.4974C37.3874 6.55467 37.4528 6.59386 37.5255 6.6083L44.1545 7.90414C44.1949 7.91243 44.2367 7.91243 44.2772 7.90414L50.9061 6.59998C50.978 6.58633 51.0432 6.54862 51.0908 6.49305C51.1384 6.43748 51.1657 6.36736 51.1682 6.29422V3.08894C51.1682 3.0467 51.1599 3.00487 51.1436 2.96588C51.1274 2.92688 51.1036 2.89147 51.0737 2.8617C51.0437 2.83193 51.0081 2.80838 50.969 2.7924C50.9299 2.77643 50.8881 2.76834 50.8458 2.76862ZM42.2388 2.11758C42.2388 2.05284 42.2643 1.99073 42.3099 1.94476C42.3555 1.89879 42.4174 1.87269 42.4821 1.87214H45.9495C46.0139 1.87268 46.0755 1.8985 46.121 1.94402C46.1665 1.98954 46.1923 2.05112 46.1929 2.1155V2.76654H42.2409L42.2388 2.11758Z" fill="white"/>
<path d="M44.9011 7.03906H43.5324C43.3624 7.03906 43.2246 7.17689 43.2246 7.3469V8.21218C43.2246 8.3822 43.3624 8.52002 43.5324 8.52002H44.9011C45.0711 8.52002 45.2089 8.3822 45.2089 8.21218V7.3469C45.2089 7.17689 45.0711 7.03906 44.9011 7.03906Z" fill="#36B8B0"/>
<path opacity="0.3" d="M44.9011 7.03906H43.5324C43.3624 7.03906 43.2246 7.17689 43.2246 7.3469V8.21218C43.2246 8.3822 43.3624 8.52002 43.5324 8.52002H44.9011C45.0711 8.52002 45.2089 8.3822 45.2089 8.21218V7.3469C45.2089 7.17689 45.0711 7.03906 44.9011 7.03906Z" fill="white"/>
<path d="M30.7773 43.208H18.0706C17.8914 43.208 17.7461 43.3533 17.7461 43.5325V48.8323C17.7461 49.0115 17.8914 49.1568 18.0706 49.1568H30.7773C30.9565 49.1568 31.1018 49.0115 31.1018 48.8323V43.5325C31.1018 43.3533 30.9565 43.208 30.7773 43.208Z" fill="#36B8B0"/>
<path opacity="0.6" d="M30.7773 43.208H18.0706C17.8914 43.208 17.7461 43.3533 17.7461 43.5325V48.8323C17.7461 49.0115 17.8914 49.1568 18.0706 49.1568H30.7773C30.9565 49.1568 31.1018 49.0115 31.1018 48.8323V43.5325C31.1018 43.3533 30.9565 43.208 30.7773 43.208Z" fill="white"/>
<path opacity="0.1" d="M30.7856 43.208H18.0706C17.9845 43.208 17.902 43.2422 17.8411 43.303C17.7803 43.3639 17.7461 43.4464 17.7461 43.5325V45.2318L24.3605 46.5339C24.4017 46.5422 24.4441 46.5422 24.4853 46.5339L31.1018 45.2318V43.5325C31.1018 43.4479 31.0688 43.3666 31.0097 43.3059C30.9506 43.2453 30.8702 43.2102 30.7856 43.208Z" fill="black"/>
<path d="M31.0509 41.0323H27.1696V40.3813C27.1691 40.1122 27.0619 39.8544 26.8717 39.6641C26.6815 39.4739 26.4236 39.3668 26.1546 39.3662H22.6893C22.4203 39.3668 22.1624 39.4739 21.9722 39.6641C21.7819 39.8544 21.6748 40.1122 21.6743 40.3813V41.0323H17.793C17.708 41.0323 17.6265 41.066 17.5665 41.1261C17.5064 41.1862 17.4727 41.2677 17.4727 41.3526V44.5579C17.4731 44.6319 17.4989 44.7035 17.5459 44.7607C17.5929 44.8179 17.6581 44.8572 17.7306 44.872L24.3595 46.1761C24.4009 46.1824 24.443 46.1824 24.4843 46.1761L31.1133 44.872C31.1858 44.8572 31.251 44.8179 31.298 44.7607C31.3449 44.7035 31.3708 44.6319 31.3712 44.5579V41.3526C31.3712 41.2677 31.3375 41.1862 31.2774 41.1261C31.2173 41.066 31.1358 41.0323 31.0509 41.0323ZM22.4439 40.3813C22.4449 40.3165 22.4711 40.2547 22.5169 40.2089C22.5627 40.1631 22.6245 40.1369 22.6893 40.1358H26.1546C26.2193 40.1369 26.2811 40.1631 26.3269 40.2089C26.3727 40.2547 26.3989 40.3165 26.4 40.3813V41.0323H22.448L22.4439 40.3813Z" fill="#36B8B0"/>
<path opacity="0.6" d="M31.0509 41.0323H27.1696V40.3813C27.1691 40.1122 27.0619 39.8544 26.8717 39.6641C26.6815 39.4739 26.4236 39.3668 26.1546 39.3662H22.6893C22.4203 39.3668 22.1624 39.4739 21.9722 39.6641C21.7819 39.8544 21.6748 40.1122 21.6743 40.3813V41.0323H17.793C17.708 41.0323 17.6265 41.066 17.5665 41.1261C17.5064 41.1862 17.4727 41.2677 17.4727 41.3526V44.5579C17.4731 44.6319 17.4989 44.7035 17.5459 44.7607C17.5929 44.8179 17.6581 44.8572 17.7306 44.872L24.3595 46.1761C24.4009 46.1824 24.443 46.1824 24.4843 46.1761L31.1133 44.872C31.1858 44.8572 31.251 44.8179 31.298 44.7607C31.3449 44.7035 31.3708 44.6319 31.3712 44.5579V41.3526C31.3712 41.2677 31.3375 41.1862 31.2774 41.1261C31.2173 41.066 31.1358 41.0323 31.0509 41.0323ZM22.4439 40.3813C22.4449 40.3165 22.4711 40.2547 22.5169 40.2089C22.5627 40.1631 22.6245 40.1369 22.6893 40.1358H26.1546C26.2193 40.1369 26.2811 40.1631 26.3269 40.2089C26.3727 40.2547 26.3989 40.3165 26.4 40.3813V41.0323H22.448L22.4439 40.3813Z" fill="white"/>
<path d="M25.1062 45.3003H23.7375C23.5675 45.3003 23.4297 45.4381 23.4297 45.6081V46.4734C23.4297 46.6434 23.5675 46.7813 23.7375 46.7813H25.1062C25.2762 46.7813 25.414 46.6434 25.414 46.4734V45.6081C25.414 45.4381 25.2762 45.3003 25.1062 45.3003Z" fill="#36B8B0"/>
<path opacity="0.3" d="M25.1062 45.3003H23.7375C23.5675 45.3003 23.4297 45.4381 23.4297 45.6081V46.4734C23.4297 46.6434 23.5675 46.7813 23.7375 46.7813H25.1062C25.2762 46.7813 25.414 46.6434 25.414 46.4734V45.6081C25.414 45.4381 25.2762 45.3003 25.1062 45.3003Z" fill="white"/>
<path d="M30.7773 4.94434H18.0706C17.8914 4.94434 17.7461 5.08961 17.7461 5.26882V10.5687C17.7461 10.7479 17.8914 10.8931 18.0706 10.8931H30.7773C30.9565 10.8931 31.1018 10.7479 31.1018 10.5687V5.26882C31.1018 5.08961 30.9565 4.94434 30.7773 4.94434Z" fill="#36B8B0"/>
<path opacity="0.6" d="M30.7773 4.94434H18.0706C17.8914 4.94434 17.7461 5.08961 17.7461 5.26882V10.5687C17.7461 10.7479 17.8914 10.8931 18.0706 10.8931H30.7773C30.9565 10.8931 31.1018 10.7479 31.1018 10.5687V5.26882C31.1018 5.08961 30.9565 4.94434 30.7773 4.94434Z" fill="white"/>
<path opacity="0.1" d="M30.7856 4.94434H18.0706C17.9845 4.94434 17.902 4.97852 17.8411 5.03937C17.7803 5.10023 17.7461 5.18276 17.7461 5.26882V6.96818L24.3605 8.27026C24.4017 8.2786 24.4441 8.2786 24.4853 8.27026L31.1018 6.96818V5.26882C31.1018 5.18418 31.0688 5.10289 31.0097 5.04227C30.9506 4.98165 30.8702 4.94651 30.7856 4.94434Z" fill="black"/>
<path d="M31.0509 2.76862H27.1696V2.11758C27.1691 1.84854 27.0619 1.59068 26.8717 1.40044C26.6815 1.21021 26.4236 1.10309 26.1546 1.10254H22.6893C22.4203 1.10309 22.1624 1.21021 21.9722 1.40044C21.7819 1.59068 21.6748 1.84854 21.6743 2.11758V2.76862H17.793C17.708 2.76862 17.6265 2.80237 17.5665 2.86244C17.5064 2.92251 17.4727 3.00398 17.4727 3.08894V6.29422C17.4727 6.36833 17.4984 6.44013 17.5454 6.4974C17.5925 6.55467 17.6579 6.59386 17.7306 6.6083L24.3595 7.90414C24.4007 7.91249 24.4432 7.91249 24.4843 7.90414L31.1133 6.59998C31.186 6.58554 31.2514 6.54635 31.2984 6.48908C31.3455 6.43181 31.3712 6.36001 31.3712 6.2859V3.08894C31.3712 3.00398 31.3375 2.92251 31.2774 2.86244C31.2173 2.80237 31.1358 2.76862 31.0509 2.76862ZM22.4439 2.11758C22.4444 2.05265 22.4704 1.99054 22.5163 1.94463C22.5623 1.89872 22.6244 1.87268 22.6893 1.87214H26.1546C26.2191 1.87267 26.281 1.89842 26.3268 1.94389C26.3727 1.98935 26.3989 2.05093 26.4 2.1155V2.76654H22.448L22.4439 2.11758Z" fill="#36B8B0"/>
<path opacity="0.6" d="M31.0509 2.76862H27.1696V2.11758C27.1691 1.84854 27.0619 1.59068 26.8717 1.40044C26.6815 1.21021 26.4236 1.10309 26.1546 1.10254H22.6893C22.4203 1.10309 22.1624 1.21021 21.9722 1.40044C21.7819 1.59068 21.6748 1.84854 21.6743 2.11758V2.76862H17.793C17.708 2.76862 17.6265 2.80237 17.5665 2.86244C17.5064 2.92251 17.4727 3.00398 17.4727 3.08894V6.29422C17.4727 6.36833 17.4984 6.44013 17.5454 6.4974C17.5925 6.55467 17.6579 6.59386 17.7306 6.6083L24.3595 7.90414C24.4007 7.91249 24.4432 7.91249 24.4843 7.90414L31.1133 6.59998C31.186 6.58554 31.2514 6.54635 31.2984 6.48908C31.3455 6.43181 31.3712 6.36001 31.3712 6.2859V3.08894C31.3712 3.00398 31.3375 2.92251 31.2774 2.86244C31.2173 2.80237 31.1358 2.76862 31.0509 2.76862ZM22.4439 2.11758C22.4444 2.05265 22.4704 1.99054 22.5163 1.94463C22.5623 1.89872 22.6244 1.87268 22.6893 1.87214H26.1546C26.2191 1.87267 26.281 1.89842 26.3268 1.94389C26.3727 1.98935 26.3989 2.05093 26.4 2.1155V2.76654H22.448L22.4439 2.11758Z" fill="white"/>
<path d="M25.1062 7.03906H23.7375C23.5675 7.03906 23.4297 7.17689 23.4297 7.3469V8.21218C23.4297 8.3822 23.5675 8.52002 23.7375 8.52002H25.1062C25.2762 8.52002 25.414 8.3822 25.414 8.21218V7.3469C25.414 7.17689 25.2762 7.03906 25.1062 7.03906Z" fill="#36B8B0"/>
<path opacity="0.3" d="M25.1062 7.03906H23.7375C23.5675 7.03906 23.4297 7.17689 23.4297 7.3469V8.21218C23.4297 8.3822 23.5675 8.52002 23.7375 8.52002H25.1062C25.2762 8.52002 25.414 8.3822 25.414 8.21218V7.3469C25.414 7.17689 25.2762 7.03906 25.1062 7.03906Z" fill="white"/>
<path d="M29.1198 30.025H18.0687C17.9821 30.025 17.8991 29.9906 17.8378 29.9293C17.7766 29.8681 17.7422 29.785 17.7422 29.6984V24.4007C17.7425 24.357 17.7517 24.3138 17.7692 24.2738C17.7777 24.2551 17.7874 24.237 17.7983 24.2197C17.8099 24.2019 17.8239 24.1858 17.8399 24.1719C17.9005 24.1109 17.9828 24.0765 18.0687 24.0762H28.5291C28.442 24.8021 28.4135 25.5338 28.4438 26.2643C28.4438 26.3829 28.4438 26.5015 28.4625 26.6179C28.4771 26.8363 28.4937 27.0568 28.5187 27.2752C28.6257 28.2097 28.8271 29.131 29.1198 30.025Z" fill="#36B8B0"/>
<path opacity="0.6" d="M29.1198 30.025H18.0687C17.9821 30.025 17.8991 29.9906 17.8378 29.9293C17.7766 29.8681 17.7422 29.785 17.7422 29.6984V24.4007C17.7425 24.357 17.7517 24.3138 17.7692 24.2738C17.7777 24.2551 17.7874 24.237 17.7983 24.2197C17.8099 24.2019 17.8239 24.1858 17.8399 24.1719C17.9005 24.1109 17.9828 24.0765 18.0687 24.0762H28.5291C28.442 24.8021 28.4135 25.5338 28.4438 26.2643C28.4438 26.3829 28.4438 26.5015 28.4625 26.6179C28.4771 26.8363 28.4937 27.0568 28.5187 27.2752C28.6257 28.2097 28.8271 29.131 29.1198 30.025Z" fill="white"/>
<path opacity="0.1" d="M28.5309 24.0762C28.4439 24.8021 28.4154 25.5338 28.4456 26.2643C28.4456 26.3829 28.4456 26.5015 28.4643 26.6179L25.4151 27.217L24.4832 27.4C24.443 27.4104 24.4007 27.4104 24.3605 27.4L23.4307 27.2191L17.7461 26.1V24.3986C17.7468 24.3558 17.7552 24.3135 17.7711 24.2738C17.7795 24.2551 17.7892 24.237 17.8002 24.2197C17.8118 24.2019 17.8258 24.1858 17.8418 24.1719C17.9024 24.1109 17.9846 24.0765 18.0706 24.0762H28.5309Z" fill="black"/>
<path d="M28.9647 21.9005H27.1717V21.2494C27.1706 20.9802 27.063 20.7223 26.8724 20.5322C26.6819 20.342 26.4238 20.2349 26.1546 20.2344H22.6893C22.4201 20.2344 22.1619 20.3413 21.9716 20.5317C21.7812 20.722 21.6743 20.9802 21.6743 21.2494V21.9005H17.793C17.7509 21.9005 17.7093 21.9087 17.6704 21.9248C17.6315 21.9409 17.5962 21.9645 17.5665 21.9943C17.5367 22.024 17.5131 22.0593 17.497 22.0982C17.4809 22.1371 17.4727 22.1787 17.4727 22.2208V25.424C17.4727 25.4986 17.4986 25.571 17.546 25.6286C17.5935 25.6863 17.6594 25.7257 17.7327 25.7401H17.7451L23.4298 26.8613L24.3595 27.0422C24.4 27.0505 24.4418 27.0505 24.4823 27.0422L25.4141 26.8592L28.4447 26.2622C28.4144 25.5317 28.4429 24.8 28.5299 24.0741C28.6163 23.339 28.7617 22.6122 28.9647 21.9005ZM22.4439 21.2494C22.4449 21.1849 22.4712 21.1233 22.5171 21.0778C22.5629 21.0323 22.6247 21.0066 22.6893 21.0061H26.1546C26.219 21.0066 26.2805 21.0324 26.3261 21.0779C26.3716 21.1235 26.3974 21.185 26.3979 21.2494V21.9005H22.4459L22.4439 21.2494Z" fill="#36B8B0"/>
<path opacity="0.6" d="M28.9647 21.9005H27.1717V21.2494C27.1706 20.9802 27.063 20.7223 26.8724 20.5322C26.6819 20.342 26.4238 20.2349 26.1546 20.2344H22.6893C22.4201 20.2344 22.1619 20.3413 21.9716 20.5317C21.7812 20.722 21.6743 20.9802 21.6743 21.2494V21.9005H17.793C17.7509 21.9005 17.7093 21.9087 17.6704 21.9248C17.6315 21.9409 17.5962 21.9645 17.5665 21.9943C17.5367 22.024 17.5131 22.0593 17.497 22.0982C17.4809 22.1371 17.4727 22.1787 17.4727 22.2208V25.424C17.4727 25.4986 17.4986 25.571 17.546 25.6286C17.5935 25.6863 17.6594 25.7257 17.7327 25.7401H17.7451L23.4298 26.8613L24.3595 27.0422C24.4 27.0505 24.4418 27.0505 24.4823 27.0422L25.4141 26.8592L28.4447 26.2622C28.4144 25.5317 28.4429 24.8 28.5299 24.0741C28.6163 23.339 28.7617 22.6122 28.9647 21.9005ZM22.4439 21.2494C22.4449 21.1849 22.4712 21.1233 22.5171 21.0778C22.5629 21.0323 22.6247 21.0066 22.6893 21.0061H26.1546C26.219 21.0066 26.2805 21.0324 26.3261 21.0779C26.3716 21.1235 26.3974 21.185 26.3979 21.2494V21.9005H22.4459L22.4439 21.2494Z" fill="white"/>
<path d="M25.1062 26.1685H23.7375C23.5675 26.1685 23.4297 26.3063 23.4297 26.4763V27.3416C23.4297 27.5116 23.5675 27.6494 23.7375 27.6494H25.1062C25.2762 27.6494 25.414 27.5116 25.414 27.3416V26.4763C25.414 26.3063 25.2762 26.1685 25.1062 26.1685Z" fill="#36B8B0"/>
<path opacity="0.3" d="M25.1062 26.1685H23.7375C23.5675 26.1685 23.4297 26.3063 23.4297 26.4763V27.3416C23.4297 27.5116 23.5675 27.6494 23.7375 27.6494H25.1062C25.2762 27.6494 25.414 27.5116 25.414 27.3416V26.4763C25.414 26.3063 25.2762 26.1685 25.1062 26.1685Z" fill="white"/>
<path d="M57.6563 49.1548H70.363C70.5422 49.1548 70.6875 49.0095 70.6875 48.8303V43.5305C70.6875 43.3513 70.5422 43.206 70.363 43.206H57.6563C57.4771 43.206 57.3318 43.3513 57.3318 43.5305V48.8303C57.3318 49.0095 57.4771 49.1548 57.6563 49.1548Z" fill="#36B8B0"/>
<path opacity="0.6" d="M57.6563 49.1548H70.363C70.5422 49.1548 70.6875 49.0095 70.6875 48.8303V43.5305C70.6875 43.3513 70.5422 43.206 70.363 43.206H57.6563C57.4771 43.206 57.3318 43.3513 57.3318 43.5305V48.8303C57.3318 49.0095 57.4771 49.1548 57.6563 49.1548Z" fill="white"/>
<path opacity="0.1" d="M57.659 43.2081H70.3636C70.4497 43.2081 70.5322 43.2423 70.5931 43.3032C70.6539 43.364 70.6881 43.4465 70.6881 43.5326V45.232L64.0654 46.534C64.0249 46.5423 63.9831 46.5423 63.9427 46.534L57.3262 45.232V43.5326C57.3262 43.4893 57.3348 43.4464 57.3516 43.4065C57.3685 43.3665 57.3931 43.3304 57.4241 43.3002C57.4551 43.2699 57.4919 43.2462 57.5322 43.2304C57.5726 43.2146 57.6157 43.207 57.659 43.2081Z" fill="black"/>
<path d="M57.3814 41.0323H61.2627V40.3813C61.2632 40.1122 61.3703 39.8544 61.5606 39.6641C61.7508 39.4739 62.0087 39.3668 62.2777 39.3662H65.745C66.0141 39.3668 66.272 39.4739 66.4622 39.6641C66.6524 39.8544 66.7595 40.1122 66.7601 40.3813V41.0323H70.6393C70.6814 41.0323 70.723 41.0406 70.7619 41.0567C70.8007 41.0728 70.836 41.0964 70.8658 41.1261C70.8955 41.1559 70.9191 41.1912 70.9352 41.23C70.9513 41.2689 70.9596 41.3105 70.9596 41.3526V44.5579C70.9592 44.6319 70.9333 44.7035 70.8864 44.7607C70.8394 44.8179 70.7742 44.8572 70.7017 44.872L64.0644 46.1761C64.023 46.1824 63.981 46.1824 63.9396 46.1761L57.3107 44.872C57.2381 44.8572 57.1729 44.8179 57.126 44.7607C57.079 44.7035 57.0531 44.6319 57.0527 44.5579V41.3526C57.0527 41.3098 57.0613 41.2675 57.0779 41.2281C57.0945 41.1887 57.1188 41.153 57.1495 41.1231C57.1801 41.0933 57.2164 41.0698 57.2562 41.0542C57.2961 41.0386 57.3386 41.0312 57.3814 41.0323ZM65.9884 40.3813C65.9879 40.3167 65.9621 40.2549 65.9167 40.209C65.8712 40.1632 65.8096 40.1369 65.745 40.1358H62.2777C62.2129 40.1369 62.1511 40.1631 62.1053 40.2089C62.0595 40.2547 62.0333 40.3165 62.0323 40.3813V41.0323H65.9843L65.9884 40.3813Z" fill="#36B8B0"/>
<path opacity="0.6" d="M57.3814 41.0323H61.2627V40.3813C61.2632 40.1122 61.3703 39.8544 61.5606 39.6641C61.7508 39.4739 62.0087 39.3668 62.2777 39.3662H65.745C66.0141 39.3668 66.272 39.4739 66.4622 39.6641C66.6524 39.8544 66.7595 40.1122 66.7601 40.3813V41.0323H70.6393C70.6814 41.0323 70.723 41.0406 70.7619 41.0567C70.8007 41.0728 70.836 41.0964 70.8658 41.1261C70.8955 41.1559 70.9191 41.1912 70.9352 41.23C70.9513 41.2689 70.9596 41.3105 70.9596 41.3526V44.5579C70.9592 44.6319 70.9333 44.7035 70.8864 44.7607C70.8394 44.8179 70.7742 44.8572 70.7017 44.872L64.0644 46.1761C64.023 46.1824 63.981 46.1824 63.9396 46.1761L57.3107 44.872C57.2381 44.8572 57.1729 44.8179 57.126 44.7607C57.079 44.7035 57.0531 44.6319 57.0527 44.5579V41.3526C57.0527 41.3098 57.0613 41.2675 57.0779 41.2281C57.0945 41.1887 57.1188 41.153 57.1495 41.1231C57.1801 41.0933 57.2164 41.0698 57.2562 41.0542C57.2961 41.0386 57.3386 41.0312 57.3814 41.0323ZM65.9884 40.3813C65.9879 40.3167 65.9621 40.2549 65.9167 40.209C65.8712 40.1632 65.8096 40.1369 65.745 40.1358H62.2777C62.2129 40.1369 62.1511 40.1631 62.1053 40.2089C62.0595 40.2547 62.0333 40.3165 62.0323 40.3813V41.0323H65.9843L65.9884 40.3813Z" fill="white"/>
<path d="M63.3255 46.7812H64.6941C64.8641 46.7812 65.002 46.6434 65.002 46.4734V45.6081C65.002 45.4381 64.8641 45.3003 64.6941 45.3003H63.3255C63.1555 45.3003 63.0176 45.4381 63.0176 45.6081V46.4734C63.0176 46.6434 63.1555 46.7812 63.3255 46.7812Z" fill="#36B8B0"/>
<path opacity="0.3" d="M63.3255 46.7812H64.6941C64.8641 46.7812 65.002 46.6434 65.002 46.4734V45.6081C65.002 45.4381 64.8641 45.3003 64.6941 45.3003H63.3255C63.1555 45.3003 63.0176 45.4381 63.0176 45.6081V46.4734C63.0176 46.6434 63.1555 46.7812 63.3255 46.7812Z" fill="white"/>
<path d="M57.6563 10.8911L70.363 10.8911C70.5422 10.8911 70.6875 10.7458 70.6875 10.5666V5.26679C70.6875 5.08759 70.5422 4.94231 70.363 4.94231L57.6563 4.94231C57.4771 4.94231 57.3318 5.08759 57.3318 5.26679V10.5666C57.3318 10.7458 57.4771 10.8911 57.6563 10.8911Z" fill="#36B8B0"/>
<path opacity="0.6" d="M57.6563 10.8911L70.363 10.8911C70.5422 10.8911 70.6875 10.7458 70.6875 10.5666V5.26679C70.6875 5.08759 70.5422 4.94231 70.363 4.94231L57.6563 4.94231C57.4771 4.94231 57.3318 5.08759 57.3318 5.26679V10.5666C57.3318 10.7458 57.4771 10.8911 57.6563 10.8911Z" fill="white"/>
<path opacity="0.1" d="M57.6585 4.94434H70.3631C70.4492 4.94434 70.5317 4.97852 70.5925 5.03937C70.6534 5.10023 70.6876 5.18276 70.6876 5.26882V6.96818L64.0649 8.27026C64.0244 8.27855 63.9826 8.27855 63.9421 8.27026L57.334 6.96818V5.26882C57.334 5.18276 57.3682 5.10023 57.429 5.03937C57.4899 4.97852 57.5724 4.94434 57.6585 4.94434Z" fill="black"/>
<path d="M57.3814 2.76864H61.2627V2.1176C61.2632 1.84856 61.3703 1.5907 61.5606 1.40046C61.7508 1.21023 62.0087 1.10311 62.2777 1.10256H65.745C65.879 1.10174 66.0117 1.12737 66.1357 1.17799C66.2597 1.2286 66.3725 1.30321 66.4676 1.39752C66.5626 1.49183 66.6382 1.60399 66.6898 1.72756C66.7414 1.85113 66.7681 1.98368 66.7684 2.1176V2.76864H70.6476C70.7326 2.76864 70.814 2.80239 70.8741 2.86246C70.9342 2.92253 70.9679 3.004 70.9679 3.08896V6.29424C70.9679 6.36834 70.9422 6.44015 70.8952 6.49742C70.8481 6.55469 70.7827 6.59388 70.71 6.60832L64.0644 7.90416C64.0232 7.91251 63.9808 7.91251 63.9396 7.90416L57.3107 6.6C57.238 6.58556 57.1725 6.54637 57.1255 6.4891C57.0785 6.43183 57.0528 6.36002 57.0527 6.28592V3.08896C57.0527 3.04618 57.0613 3.00384 57.0779 2.96443C57.0945 2.92501 57.1188 2.88932 57.1495 2.85947C57.1801 2.82961 57.2164 2.80619 57.2562 2.79059C57.2961 2.77499 57.3386 2.76753 57.3814 2.76864ZM65.9884 2.1176C65.9884 2.05286 65.9628 1.99075 65.9173 1.94478C65.8717 1.89881 65.8098 1.87271 65.745 1.87216H62.2777C62.2131 1.87269 62.1513 1.89844 62.1055 1.9439C62.0596 1.98937 62.0333 2.05095 62.0323 2.11552V2.76656H65.9843L65.9884 2.1176Z" fill="#36B8B0"/>
<path opacity="0.6" d="M57.3814 2.76864H61.2627V2.1176C61.2632 1.84856 61.3703 1.5907 61.5606 1.40046C61.7508 1.21023 62.0087 1.10311 62.2777 1.10256H65.745C65.879 1.10174 66.0117 1.12737 66.1357 1.17799C66.2597 1.2286 66.3725 1.30321 66.4676 1.39752C66.5626 1.49183 66.6382 1.60399 66.6898 1.72756C66.7414 1.85113 66.7681 1.98368 66.7684 2.1176V2.76864H70.6476C70.7326 2.76864 70.814 2.80239 70.8741 2.86246C70.9342 2.92253 70.9679 3.004 70.9679 3.08896V6.29424C70.9679 6.36834 70.9422 6.44015 70.8952 6.49742C70.8481 6.55469 70.7827 6.59388 70.71 6.60832L64.0644 7.90416C64.0232 7.91251 63.9808 7.91251 63.9396 7.90416L57.3107 6.6C57.238 6.58556 57.1725 6.54637 57.1255 6.4891C57.0785 6.43183 57.0528 6.36002 57.0527 6.28592V3.08896C57.0527 3.04618 57.0613 3.00384 57.0779 2.96443C57.0945 2.92501 57.1188 2.88932 57.1495 2.85947C57.1801 2.82961 57.2164 2.80619 57.2562 2.79059C57.2961 2.77499 57.3386 2.76753 57.3814 2.76864ZM65.9884 2.1176C65.9884 2.05286 65.9628 1.99075 65.9173 1.94478C65.8717 1.89881 65.8098 1.87271 65.745 1.87216H62.2777C62.2131 1.87269 62.1513 1.89844 62.1055 1.9439C62.0596 1.98937 62.0333 2.05095 62.0323 2.11552V2.76656H65.9843L65.9884 2.1176Z" fill="white"/>
<path d="M63.3255 8.51758H64.6941C64.8641 8.51758 65.002 8.37975 65.002 8.20974V7.34446C65.002 7.17444 64.8641 7.03662 64.6941 7.03662H63.3255C63.1555 7.03662 63.0176 7.17444 63.0176 7.34446V8.20974C63.0176 8.37975 63.1555 8.51758 63.3255 8.51758Z" fill="#36B8B0"/>
<path opacity="0.3" d="M63.3255 8.51758H64.6941C64.8641 8.51758 65.002 8.37975 65.002 8.20974V7.34446C65.002 7.17444 64.8641 7.03662 64.6941 7.03662H63.3255C63.1555 7.03662 63.0176 7.17444 63.0176 7.34446V8.20974C63.0176 8.37975 63.1555 8.51758 63.3255 8.51758Z" fill="white"/>
<path d="M59.3203 30.025H70.3651C70.4514 30.0244 70.5339 29.9898 70.5947 29.9286C70.6555 29.8674 70.6896 29.7847 70.6896 29.6984V24.4007C70.6893 24.357 70.6801 24.3138 70.6626 24.2738C70.6549 24.2547 70.6452 24.2366 70.6334 24.2197C70.6219 24.2019 70.6079 24.1858 70.5918 24.1719C70.562 24.1415 70.5264 24.1174 70.4871 24.101C70.4478 24.0845 70.4056 24.0761 70.363 24.0762H59.9048C59.9918 24.8021 60.0203 25.5338 59.9901 26.2643C59.9901 26.3829 59.9901 26.5015 59.9714 26.6179C59.9589 26.8363 59.9401 27.0568 59.9152 27.2752C59.8102 28.2095 59.6109 29.1308 59.3203 30.025Z" fill="#36B8B0"/>
<path opacity="0.6" d="M59.3203 30.025H70.3651C70.4514 30.0244 70.5339 29.9898 70.5947 29.9286C70.6555 29.8674 70.6896 29.7847 70.6896 29.6984V24.4007C70.6893 24.357 70.6801 24.3138 70.6626 24.2738C70.6549 24.2547 70.6452 24.2366 70.6334 24.2197C70.6219 24.2019 70.6079 24.1858 70.5918 24.1719C70.562 24.1415 70.5264 24.1174 70.4871 24.101C70.4478 24.0845 70.4056 24.0761 70.363 24.0762H59.9048C59.9918 24.8021 60.0203 25.5338 59.9901 26.2643C59.9901 26.3829 59.9901 26.5015 59.9714 26.6179C59.9589 26.8363 59.9401 27.0568 59.9152 27.2752C59.8102 28.2095 59.6109 29.1308 59.3203 30.025Z" fill="white"/>
<path opacity="0.1" d="M59.9043 24.0762C59.9913 24.8021 60.0198 25.5338 59.9896 26.2643C59.9896 26.3829 59.9896 26.5015 59.9709 26.6179L63.0243 27.217L63.9561 27.4C63.9964 27.4104 64.0386 27.4104 64.0789 27.4L65.0086 27.2191L70.6933 26.1V24.3986C70.6926 24.3558 70.6841 24.3135 70.6683 24.2738C70.6607 24.2547 70.6509 24.2366 70.6392 24.2197C70.6276 24.2019 70.6136 24.1858 70.5976 24.1719C70.5677 24.1415 70.5321 24.1174 70.4928 24.101C70.4535 24.0845 70.4114 24.0761 70.3688 24.0762H59.9043Z" fill="black"/>
<path d="M59.4673 21.9005H61.2623V21.2494C61.2629 20.9804 61.37 20.7225 61.5603 20.5323C61.7505 20.342 62.0084 20.2349 62.2774 20.2344H65.7427C66.0121 20.2344 66.2705 20.3412 66.4611 20.5315C66.6518 20.7218 66.7592 20.98 66.7598 21.2494V21.9005H70.639C70.7239 21.9005 70.8054 21.9342 70.8655 21.9943C70.9256 22.0543 70.9593 22.1358 70.9593 22.2208V25.424C70.9594 25.4983 70.9337 25.5704 70.8867 25.628C70.8397 25.6857 70.7742 25.7253 70.7014 25.7401H70.6868L65.0022 26.8613L64.0641 27.0401C64.0236 27.0484 63.9819 27.0484 63.9414 27.0401L63.0095 26.8571L59.979 26.2601C60.038 24.7858 59.8625 23.3114 59.459 21.8921L59.4673 21.9005ZM65.9881 21.2494C65.987 21.1849 65.9608 21.1233 65.9149 21.0778C65.869 21.0323 65.8072 21.0066 65.7427 21.0061H62.2774C62.213 21.0066 62.1514 21.0324 62.1059 21.0779C62.0604 21.1235 62.0346 21.185 62.034 21.2494V21.9005H65.986L65.9881 21.2494Z" fill="#36B8B0"/>
<path opacity="0.6" d="M59.4673 21.9005H61.2623V21.2494C61.2629 20.9804 61.37 20.7225 61.5603 20.5323C61.7505 20.342 62.0084 20.2349 62.2774 20.2344H65.7427C66.0121 20.2344 66.2705 20.3412 66.4611 20.5315C66.6518 20.7218 66.7592 20.98 66.7598 21.2494V21.9005H70.639C70.7239 21.9005 70.8054 21.9342 70.8655 21.9943C70.9256 22.0543 70.9593 22.1358 70.9593 22.2208V25.424C70.9594 25.4983 70.9337 25.5704 70.8867 25.628C70.8397 25.6857 70.7742 25.7253 70.7014 25.7401H70.6868L65.0022 26.8613L64.0641 27.0401C64.0236 27.0484 63.9819 27.0484 63.9414 27.0401L63.0095 26.8571L59.979 26.2601C60.038 24.7858 59.8625 23.3114 59.459 21.8921L59.4673 21.9005ZM65.9881 21.2494C65.987 21.1849 65.9608 21.1233 65.9149 21.0778C65.869 21.0323 65.8072 21.0066 65.7427 21.0061H62.2774C62.213 21.0066 62.1514 21.0324 62.1059 21.0779C62.0604 21.1235 62.0346 21.185 62.034 21.2494V21.9005H65.986L65.9881 21.2494Z" fill="white"/>
<path d="M63.3255 27.6519H64.6941C64.8641 27.6519 65.002 27.514 65.002 27.344V26.4787C65.002 26.3087 64.8641 26.1709 64.6941 26.1709H63.3255C63.1555 26.1709 63.0176 26.3087 63.0176 26.4787V27.344C63.0176 27.514 63.1555 27.6519 63.3255 27.6519Z" fill="#36B8B0"/>
<path opacity="0.3" d="M63.3255 27.6519H64.6941C64.8641 27.6519 65.002 27.514 65.002 27.344V26.4787C65.002 26.3087 64.8641 26.1709 64.6941 26.1709H63.3255C63.1555 26.1709 63.0176 26.3087 63.0176 26.4787V27.344C63.0176 27.514 63.1555 27.6519 63.3255 27.6519Z" fill="white"/>
<path d="M54.0191 22.7847H35.7608C35.5035 22.7847 35.2949 22.9933 35.2949 23.2506V30.8655C35.2949 31.1228 35.5035 31.3314 35.7608 31.3314H54.0191C54.2764 31.3314 54.485 31.1228 54.485 30.8655V23.2506C54.485 22.9933 54.2764 22.7847 54.0191 22.7847Z" fill="#36B8B0"/>
<path d="M47.3791 21.4242H42.3975C42.0197 21.4237 41.6577 21.2734 41.3906 21.0063C41.1235 20.7392 40.9732 20.3771 40.9727 19.9994V18.7202C40.9732 18.3425 41.1235 17.9804 41.3906 17.7133C41.6577 17.4463 42.0197 17.296 42.3975 17.2954H47.3791C47.7569 17.2954 48.1193 17.4455 48.3865 17.7127C48.6537 17.9799 48.8039 18.3423 48.8039 18.7202V19.9932C48.8047 20.1808 48.7684 20.3667 48.6972 20.5403C48.626 20.7139 48.5211 20.8717 48.3888 21.0047C48.2564 21.1377 48.099 21.2432 47.9257 21.3152C47.7525 21.3872 47.5667 21.4242 47.3791 21.4242ZM42.3975 18.3416C42.2972 18.3427 42.2013 18.3829 42.1302 18.4536C42.0591 18.5243 42.0184 18.62 42.0168 18.7202V19.9932C42.0168 20.0952 42.0574 20.1931 42.1295 20.2653C42.2017 20.3374 42.2996 20.378 42.4016 20.378H47.3832C47.4853 20.378 47.5831 20.3374 47.6553 20.2653C47.7275 20.1931 47.768 20.0952 47.768 19.9932V18.7202C47.768 18.6182 47.7275 18.5203 47.6553 18.4481C47.5831 18.376 47.4853 18.3354 47.3832 18.3354L42.3975 18.3416Z" fill="#36B8B0"/>
<path opacity="0.2" d="M54.017 22.7847H35.7629C35.7016 22.7844 35.6408 22.7962 35.584 22.8195C35.5272 22.8428 35.4756 22.8771 35.4321 22.9204C35.3886 22.9637 35.3541 23.0151 35.3306 23.0718C35.307 23.1285 35.2949 23.1892 35.2949 23.2506V25.6946L44.8005 27.5666C44.8588 27.5793 44.9191 27.5793 44.9773 27.5666L54.485 25.6946V23.2506C54.485 23.1892 54.4729 23.1285 54.4493 23.0718C54.4258 23.0151 54.3913 22.9637 54.3478 22.9204C54.3043 22.8771 54.2527 22.8428 54.1959 22.8195C54.1392 22.7962 54.0784 22.7844 54.017 22.7847Z" fill="black"/>
<path d="M54.4963 25.168L44.972 27.04C44.9128 27.0504 44.8523 27.0504 44.7931 27.04L35.2688 25.168C35.1642 25.1473 35.0699 25.0911 35.002 25.0088C34.9342 24.9265 34.8969 24.8233 34.8965 24.7166V20.1198C34.8965 20.0595 34.9084 19.9997 34.9315 19.9439C34.9546 19.8882 34.9884 19.8375 35.0311 19.7948C35.0738 19.7521 35.1245 19.7182 35.1803 19.6951C35.236 19.672 35.2958 19.6602 35.3562 19.6602H54.4131C54.4735 19.6602 54.5333 19.672 54.589 19.6951C54.6448 19.7182 54.6955 19.7521 54.7382 19.7948C54.7809 19.8375 54.8147 19.8882 54.8378 19.9439C54.8609 19.9997 54.8728 20.0595 54.8728 20.1198V24.725C54.8707 24.8309 54.8321 24.9328 54.7635 25.0136C54.6949 25.0943 54.6005 25.1488 54.4963 25.168Z" fill="#36B8B0"/>
<path d="M45.8756 25.7944H43.9058C43.6623 25.7944 43.4648 25.9919 43.4648 26.2354V27.4813C43.4648 27.7248 43.6623 27.9223 43.9058 27.9223H45.8756C46.1191 27.9223 46.3165 27.7248 46.3165 27.4813V26.2354C46.3165 25.9919 46.1191 25.7944 45.8756 25.7944Z" fill="#36B8B0"/>
<path opacity="0.4" d="M45.8756 25.7944H43.9058C43.6623 25.7944 43.4648 25.9919 43.4648 26.2354V27.4813C43.4648 27.7248 43.6623 27.9223 43.9058 27.9223H45.8756C46.1191 27.9223 46.3165 27.7248 46.3165 27.4813V26.2354C46.3165 25.9919 46.1191 25.7944 45.8756 25.7944Z" fill="black"/>
<path d="M79.2264 27.4995C79.4656 27.9925 79.6424 28.4584 79.8504 28.9451C80.0584 29.4318 80.2103 29.9165 80.3725 30.4136C80.7014 31.4215 80.9443 32.4555 81.0984 33.5045C81.1192 33.6355 81.1296 33.7769 81.1442 33.9205L81.165 34.1285C81.165 34.1659 81.165 34.193 81.165 34.2366V34.3718C81.172 34.6872 81.1448 35.0025 81.0839 35.312C80.9807 35.85 80.834 36.3786 80.645 36.8928C80.2898 37.8702 79.8471 38.8135 79.3221 39.7112L78.2655 39.264C78.5005 38.3155 78.7376 37.3483 78.9165 36.4144C79.004 35.9669 79.0658 35.5148 79.1016 35.0603C79.1139 34.8745 79.1097 34.688 79.0892 34.5029L79.0663 34.3718L79.0372 34.2054C79.0143 34.0952 78.9997 33.985 78.9727 33.8726C78.7653 32.9545 78.4971 32.0512 78.1698 31.1686C78.0117 30.7173 77.837 30.268 77.6623 29.8166C77.4876 29.3653 77.2941 28.9118 77.1152 28.4958L79.2264 27.4995Z" fill="#7F3E3B"/>
<path d="M78.3112 38.9873L77.5 39.7777L79.2701 40.6097C79.2701 40.6097 79.6986 39.8609 79.4032 39.1828L78.3112 38.9873Z" fill="#7F3E3B"/>
<path d="M76.8477 40.9572L78.3411 41.5687L79.2709 40.6015L77.5008 39.7778L76.8477 40.9572Z" fill="#7F3E3B"/>
<path opacity="0.2" d="M46.5531 40.1046C49.4963 39.7749 52.2758 38.58 54.54 36.6708C56.8043 34.7616 58.4515 32.2239 59.2736 29.3786C60.0958 26.5333 60.0558 23.5081 59.1587 20.6856C58.2616 17.863 56.5478 15.3698 54.2339 13.5212C51.92 11.6725 49.1099 10.5515 46.1589 10.2998C43.2079 10.0481 40.2486 10.677 37.655 12.1071C35.0614 13.5371 32.9501 15.7041 31.588 18.334C30.2259 20.9639 29.6741 23.9386 30.0025 26.882C30.2206 28.8371 30.8218 30.7301 31.7716 32.4528C32.7215 34.1755 34.0015 35.6942 35.5384 36.9221C37.0754 38.15 38.8392 39.063 40.7291 39.6091C42.6191 40.1552 44.5981 40.3235 46.5531 40.1046Z" fill="#36B8B0"/>
<path opacity="0.1" d="M35.6562 13.4242L58.4323 31.6159C58.53 31.4079 58.6215 31.1999 58.711 30.9919C59.2818 29.6338 59.6463 28.198 59.7926 26.7321L40.1199 11.0239C38.5055 11.5623 36.9956 12.3743 35.6562 13.4242Z" fill="white"/>
<path opacity="0.1" d="M30.4023 21.397L51.8139 38.505C53.8483 37.444 55.6118 35.9296 56.9681 34.0788L33.5847 15.3921C32.0778 17.1234 30.989 19.178 30.4023 21.397Z" fill="white"/>
<path d="M81.7796 42.0408C81.7523 41.6623 81.6284 41.2971 81.4198 40.98C81.2682 40.7468 81.0561 40.5592 80.8062 40.4371L79.3855 39.7403C78.4412 39.2723 77.4907 38.8168 76.5401 38.3613C75.5895 37.9058 74.6327 37.4586 73.6801 37.0072C72.7275 36.5559 71.7665 36.117 70.8035 35.6864C68.8815 34.8156 66.9471 33.9683 65.0003 33.1447C64.0268 32.7287 63.0513 32.3293 62.0675 31.9383C61.7802 31.8251 61.5467 31.6071 61.4142 31.3282C61.2818 31.0494 61.2602 30.7306 61.354 30.4365C62.6709 26.2844 62.3711 21.7882 60.5144 17.8478C58.6577 13.9074 55.3813 10.8137 51.3409 9.18588C47.3006 7.5581 42.7945 7.51641 38.7248 9.06915C34.655 10.6219 31.3219 13.6545 29.3926 17.5599C27.4634 21.4652 27.0804 25.9552 28.3202 30.1309C29.5601 34.3066 32.3314 37.8599 36.0794 40.0796C39.8273 42.2992 44.2753 43.0214 48.533 42.1015C52.7906 41.1816 56.5438 38.6876 59.0411 35.1186C59.2178 34.8649 59.4844 34.6879 59.7868 34.6234C60.0892 34.5589 60.4048 34.6118 60.6697 34.7712C61.5793 35.312 62.4932 35.8438 63.4111 36.3666C65.2457 37.4121 67.0941 38.4313 68.9564 39.4242C69.8862 39.9275 70.8284 40.4122 71.754 40.9051C72.6796 41.3981 73.626 41.8786 74.5683 42.3611C75.5105 42.8437 76.4403 43.3159 77.395 43.7818L78.8115 44.4848C79.0603 44.61 79.3387 44.6646 79.6164 44.6429C79.9944 44.6161 80.3591 44.4922 80.6751 44.2831C81.052 44.0516 81.3557 43.7182 81.5512 43.3214C81.7466 42.9247 81.8258 42.4807 81.7796 42.0408ZM38.8547 37.4399C36.4367 36.2467 34.4268 34.3633 33.0793 32.0279C31.7317 29.6924 31.1071 27.0098 31.2842 24.3193C31.4613 21.6288 32.4324 19.0512 34.0745 16.9126C35.7166 14.774 37.956 13.1703 40.5096 12.3045C43.0631 11.4387 45.8161 11.3496 48.4203 12.0484C51.0245 12.7472 53.3629 14.2026 55.14 16.2305C56.917 18.2585 58.0527 20.7678 58.4035 23.4412C58.7543 26.1146 58.3045 28.8321 57.1108 31.2498C56.3186 32.855 55.218 34.2885 53.8718 35.4683C52.5255 36.6482 50.9601 37.5513 49.2648 38.1261C47.5696 38.7009 45.7777 38.9361 43.9915 38.8184C42.2053 38.7007 40.4598 38.2322 38.8547 37.4399Z" fill="#36B8B0"/>
<path d="M71.383 21.0703C71.383 21.1931 71.3185 21.2929 71.2374 21.2929C71.1563 21.2929 71.0918 21.1931 71.0918 21.0703C71.0918 20.9476 71.1563 20.8457 71.2374 20.8457C71.3185 20.8457 71.383 20.9455 71.383 21.0703Z" fill="#263238"/>
<path d="M71.3287 21.293C71.1826 21.6698 70.9852 22.0246 70.7422 22.3475C70.8263 22.4077 70.9226 22.4488 71.0243 22.4678C71.126 22.4869 71.2306 22.4834 71.3308 22.4578L71.3287 21.293Z" fill="#630F0F"/>
<path d="M71.8213 20.384C71.8364 20.3836 71.851 20.3785 71.8631 20.3694C71.8751 20.3603 71.8841 20.3477 71.8887 20.3333C71.8932 20.3189 71.8932 20.3034 71.8886 20.289C71.884 20.2746 71.875 20.262 71.8629 20.253C71.771 20.1841 71.6641 20.138 71.5509 20.1185C71.4377 20.099 71.3215 20.1066 71.2119 20.1407C71.202 20.1433 71.1929 20.1481 71.185 20.1545C71.1771 20.1609 71.1707 20.1689 71.1661 20.178C71.1615 20.1871 71.1588 20.197 71.1583 20.2072C71.1578 20.2174 71.1594 20.2275 71.1631 20.237C71.1667 20.2465 71.1723 20.2552 71.1795 20.2624C71.1867 20.2696 71.1953 20.2752 71.2048 20.2788C71.2143 20.2825 71.2245 20.2841 71.2347 20.2836C71.2448 20.2831 71.2548 20.2805 71.2639 20.2759C71.3512 20.2499 71.4433 20.2448 71.533 20.2611C71.6226 20.2774 71.7071 20.3145 71.7797 20.3695C71.7914 20.3791 71.8062 20.3842 71.8213 20.384Z" fill="#263238"/>
<path d="M75.5913 21.998C75.3708 23.1171 75.1524 25.1659 75.9345 25.9105C75.9345 25.9105 75.6287 27.0441 73.5529 27.0441C71.2649 27.0441 72.4609 25.9105 72.4609 25.9105C73.7089 25.6131 73.6756 24.6875 73.4572 23.8305L75.5913 21.998Z" fill="#7F3E3B"/>
<path d="M76.3364 25.2095C76.5091 25.2656 76.2844 26.2931 76.2844 26.2931C76.2844 26.2931 75.9995 27.0107 72.4593 26.7611C72.1868 26.7403 72.2908 25.7544 72.5508 25.6109C73.3891 25.1533 75.779 25.0264 76.3364 25.2095Z" fill="#263238"/>
<path d="M83.5273 68.1842C83.7187 68.1655 83.9974 67.814 84.0764 67.685C84.0799 67.6794 84.0818 67.6729 84.0818 67.6663C84.0818 67.6597 84.0799 67.6532 84.0764 67.6476C84.073 67.6415 84.0678 67.6365 84.0614 67.6335C84.0551 67.6306 84.0479 67.6296 84.0411 67.631C84.0203 67.631 83.5169 67.7266 83.3942 67.9222C83.3812 67.9427 83.3727 67.9657 83.3691 67.9896C83.3655 68.0136 83.367 68.0381 83.3734 68.0615C83.4004 68.153 83.4524 68.178 83.494 68.1842H83.5273ZM83.9662 67.7204C83.831 67.9076 83.6084 68.126 83.5023 68.1114C83.4919 68.1114 83.4607 68.1114 83.442 68.0407C83.4379 68.0271 83.437 68.0128 83.4391 67.9988C83.4413 67.9847 83.4465 67.9713 83.4545 67.9596C83.5979 67.8314 83.7758 67.7482 83.9662 67.7204Z" fill="#36B8B0"/>
<path d="M83.9445 67.7204C83.9817 67.7172 84.0186 67.711 84.0547 67.7017C84.0609 67.6997 84.0664 67.6962 84.0708 67.6914C84.0751 67.6867 84.0782 67.6809 84.0797 67.6746C84.0809 67.6682 84.0804 67.6615 84.0782 67.6553C84.076 67.6491 84.0722 67.6435 84.0672 67.6393C84.0547 67.6268 83.7178 67.3397 83.489 67.3626C83.4614 67.3644 83.4346 67.372 83.4102 67.3849C83.3859 67.3978 83.3645 67.4158 83.3475 67.4375C83.3279 67.4564 83.3157 67.4816 83.3131 67.5087C83.3104 67.5357 83.3174 67.5629 83.333 67.5852C83.4079 67.7037 83.7365 67.7412 83.9445 67.7204ZM83.9611 67.6476C83.7531 67.6726 83.4495 67.6309 83.3912 67.5457C83.3912 67.5457 83.3746 67.5186 83.4037 67.4812C83.4154 67.4675 83.4297 67.4562 83.4457 67.448C83.4618 67.4397 83.4793 67.4348 83.4973 67.4334C83.6697 67.4572 83.8312 67.5318 83.9611 67.6476Z" fill="#36B8B0"/>
<path d="M69.226 73.6549C69.3836 73.6544 69.5409 73.6405 69.6961 73.6134C69.7031 73.6114 69.7094 73.6078 69.7145 73.6027C69.7196 73.5975 69.7233 73.5912 69.7252 73.5842C69.7265 73.5768 69.7254 73.5692 69.722 73.5624C69.7186 73.5557 69.7132 73.5502 69.7065 73.5468C69.6836 73.5322 69.1511 73.2286 68.8953 73.2972C68.8474 73.3094 68.8063 73.3401 68.7809 73.3825C68.7646 73.4056 68.7559 73.4332 68.7559 73.4615C68.7559 73.4898 68.7646 73.5174 68.7809 73.5406C68.8475 73.6321 69.0305 73.6549 69.226 73.6549ZM69.5796 73.5593C69.2947 73.5988 68.9078 73.5967 68.8371 73.4989C68.8267 73.4865 68.8183 73.4636 68.8371 73.4178C68.8447 73.405 68.8549 73.3939 68.8671 73.3853C68.8793 73.3767 68.8931 73.3708 68.9078 73.3679C69.0721 73.3242 69.3924 73.4636 69.5796 73.5593Z" fill="#36B8B0"/>
<path d="M69.681 73.6133C69.6885 73.6154 69.6964 73.6154 69.7039 73.6133C69.7087 73.6092 69.7125 73.6041 69.715 73.5983C69.7175 73.5926 69.7187 73.5863 69.7185 73.58C69.7185 73.5634 69.6748 73.1515 69.4813 72.9914C69.4527 72.9675 69.4195 72.9496 69.3837 72.9389C69.348 72.9282 69.3104 72.9248 69.2733 72.929C69.1735 72.9394 69.1465 72.9893 69.1381 73.0309C69.1111 73.2035 69.4772 73.5343 69.6602 73.6175L69.681 73.6133ZM69.3087 72.9893C69.3551 72.9906 69.3998 73.0075 69.4356 73.0371C69.551 73.1691 69.6236 73.333 69.6436 73.5072C69.4543 73.3949 69.2068 73.1349 69.2276 73.0309C69.2276 73.0309 69.2276 72.9976 69.2983 72.9914L69.3087 72.9893Z" fill="#36B8B0"/>
<path d="M71.3701 73.5778H69.8434L69.6895 70.0376H71.2183L71.3701 73.5778Z" fill="#7F3E3B"/>
<path d="M85.412 66.5659L84.2201 67.5206L81.1875 65.4157L82.3814 64.4609L85.412 66.5659Z" fill="#7F3E3B"/>
<path d="M84.0002 67.4606L85.2191 66.2522C85.241 66.2311 85.2693 66.218 85.2994 66.215C85.3296 66.212 85.3599 66.2192 85.3855 66.2355L86.5566 66.9885C86.585 67.0068 86.6088 67.0314 86.6263 67.0604C86.6437 67.0894 86.6544 67.1219 86.6574 67.1556C86.6604 67.1893 86.6557 67.2232 86.6436 67.2548C86.6316 67.2864 86.6125 67.3148 86.5878 67.3379C86.1551 67.7539 85.9242 67.9328 85.3876 68.4632C85.059 68.7918 84.254 69.7694 83.7985 70.2208C83.343 70.6722 82.8354 70.2811 82.9831 70.0544C83.6383 69.0435 83.8609 68.2094 83.89 67.7019C83.8963 67.6108 83.9354 67.525 84.0002 67.4606Z" fill="#263238"/>
<path d="M69.851 73.4009H71.515C71.5452 73.4007 71.5745 73.411 71.598 73.4299C71.6215 73.4489 71.6377 73.4753 71.644 73.5049L71.9456 74.8631C71.9532 74.8958 71.9532 74.9297 71.9457 74.9624C71.9382 74.995 71.9234 75.0255 71.9023 75.0516C71.8813 75.0777 71.8546 75.0986 71.8242 75.1128C71.7939 75.127 71.7607 75.1341 71.7272 75.1335C71.124 75.1335 70.2545 75.0898 69.4974 75.0898C68.6134 75.0898 67.85 75.1377 66.8121 75.1377C66.1881 75.1377 66.0113 74.5033 66.2734 74.445C67.4694 74.185 68.4449 74.1559 69.4766 73.5194C69.5879 73.4458 69.7176 73.4047 69.851 73.4009Z" fill="#263238"/>
<path d="M78.9467 26.368C80.2717 26.992 80.8187 31.2685 80.8187 31.2685L77.7715 32.4645C77.2985 31.3065 76.9154 30.114 76.6254 28.8973C76.199 26.967 77.5843 25.719 78.9467 26.368Z" fill="#36B8B0"/>
<path opacity="0.3" d="M78.9467 26.368C80.2717 26.992 80.8187 31.2685 80.8187 31.2685L77.7715 32.4645C77.2985 31.3065 76.9154 30.114 76.6254 28.8973C76.199 26.967 77.5843 25.719 78.9467 26.368Z" fill="white"/>
<path opacity="0.2" d="M76.9736 27.6225C76.8698 27.572 76.761 27.5323 76.6491 27.5039C76.5276 27.96 76.5233 28.4393 76.6367 28.8975C76.9254 30.1143 77.3078 31.3069 77.7807 32.4647L78.7853 32.0716C78.6002 30.9546 78.0323 28.13 76.9736 27.6225Z" fill="black"/>
<path d="M70.1102 26.3346C70.1102 26.3346 68.4836 28.1713 70.0187 39.5426H78.1931C78.2492 38.2946 77.4609 32.1669 78.6715 26.2556C77.7674 26.0817 76.8531 25.9664 75.9342 25.9103C74.7773 25.8437 73.6175 25.8437 72.4606 25.9103C71.6673 25.9902 70.8814 26.1321 70.1102 26.3346Z" fill="#36B8B0"/>
<path opacity="0.3" d="M70.1102 26.3346C70.1102 26.3346 68.4836 28.1713 70.0187 39.5426H78.1931C78.2492 38.2946 77.4609 32.1669 78.6715 26.2556C77.7674 26.0817 76.8531 25.9664 75.9342 25.9103C74.7773 25.8437 73.6175 25.8437 72.4606 25.9103C71.6673 25.9902 70.8814 26.1321 70.1102 26.3346Z" fill="white"/>
<path opacity="0.2" d="M71.7612 28.7726C71.3909 27.6618 70.5007 27.3062 69.5938 27.9655C69.4107 29.043 69.2818 30.7798 69.4295 33.5337L71.0248 33.5191C71.0248 33.5191 72.3082 30.4262 71.7612 28.7726Z" fill="black"/>
<path d="M71.461 28.317C71.3945 28.8744 71.303 29.3799 71.201 29.9061C71.0991 30.4324 70.9806 30.9461 70.8454 31.464C70.5784 32.5226 70.215 33.5544 69.7596 34.5466C69.641 34.8024 69.5038 35.0541 69.3582 35.3058C69.2833 35.4327 69.2084 35.5596 69.1231 35.6844C69.0126 35.8578 68.882 36.0177 68.7342 36.1607C68.4472 36.4268 68.1068 36.6289 67.7358 36.7535C67.4345 36.859 67.1228 36.9323 66.806 36.9719C66.2407 37.042 65.6693 37.0489 65.1025 36.9927C64.8252 36.9705 64.5548 36.9351 64.2913 36.8866C64.0209 36.8387 63.765 36.7888 63.4863 36.716L63.6215 35.5762C64.5709 35.5363 65.5134 35.3969 66.4337 35.1602C66.6209 35.1048 66.8026 35.0324 66.9766 34.9439C67.0908 34.8915 67.1907 34.8123 67.2678 34.713C67.2511 34.7276 67.403 34.4759 67.4924 34.297C67.5819 34.1181 67.6817 33.881 67.767 33.673C67.9417 33.2445 68.0914 32.7911 68.2287 32.3272C68.366 31.8634 68.4866 31.3912 68.599 30.9128C68.7113 30.4344 68.807 29.9519 68.911 29.4568C69.015 28.9618 69.0898 28.4709 69.1647 28.0112L71.461 28.317Z" fill="#7F3E3B"/>
<path d="M72.1544 27.4559C72.5849 28.8515 70.8377 33.0115 70.8377 33.0115L67.1582 32.0859C67.3835 30.771 67.7625 29.4872 68.2876 28.2608C69.4732 25.665 71.6364 25.7731 72.1544 27.4559Z" fill="#36B8B0"/>
<path opacity="0.3" d="M72.1544 27.4559C72.5849 28.8515 70.8377 33.0115 70.8377 33.0115L67.1582 32.0859C67.3835 30.771 67.7625 29.4872 68.2876 28.2608C69.4732 25.665 71.6364 25.7731 72.1544 27.4559Z" fill="white"/>
<path d="M63.6739 35.5823L61.9434 35.5386L62.7754 37.3378C62.7754 37.3378 63.4784 37.4314 64.0566 36.4808L64.6661 35.7549L63.9651 35.6135C63.8691 35.5947 63.7717 35.5843 63.6739 35.5823Z" fill="#7F3E3B"/>
<path d="M60.8516 35.8735L61.8437 37.3648L62.7776 37.3378L61.9436 35.5386L60.8516 35.8735Z" fill="#7F3E3B"/>
<path opacity="0.2" d="M69.6914 70.0396L69.7684 71.8637H71.2972L71.2181 70.0396H69.6914Z" fill="black"/>
<path opacity="0.2" d="M82.3814 64.4609L81.1875 65.4157L82.7517 66.5014L83.9456 65.5467L82.3814 64.4609Z" fill="black"/>
<path d="M75.5039 20.7998C75.4124 22.3141 75.4373 23.2043 74.6719 23.9822C73.5237 25.1512 71.6538 24.4606 71.2919 22.9422C70.9653 21.5819 71.1712 19.3355 72.6522 18.7302C72.9788 18.5952 73.3345 18.546 73.6855 18.5876C74.0364 18.6291 74.3709 18.7599 74.6569 18.9675C74.9429 19.175 75.1709 19.4525 75.3192 19.7733C75.4675 20.094 75.5311 20.4475 75.5039 20.7998Z" fill="#7F3E3B"/>
<path d="M76.727 19.3939C76.727 19.3939 77.5236 19.631 77.274 20.54C76.8975 21.9211 76.0114 23.5102 74.8674 23.61C73.4426 23.7369 72.7999 22.2664 72.6127 20.7459C71.7599 20.1614 71.1276 19.6144 71.3314 19.007C71.6434 18.071 72.775 17.264 74.5762 17.472C76.3775 17.68 77.274 18.8448 76.727 19.3939Z" fill="#263238"/>
<path d="M73.4799 21.0577C73.4522 21.4333 73.3017 21.7893 73.0514 22.0707C72.7186 22.4368 72.3692 22.208 72.3109 21.7629C72.2589 21.3593 72.3671 20.6833 72.7748 20.4816C73.1825 20.2798 73.5069 20.6043 73.4799 21.0577Z" fill="#7F3E3B"/>
<path d="M72.9195 39.543C72.9195 39.543 72.4037 49.8431 73.4083 54.207C74.9995 61.1167 81.9946 66.6537 81.9946 66.6537L84.241 64.8545C84.241 64.8545 78.4856 60.5718 77.9677 54.8185C77.5038 49.6518 78.1902 43.7175 78.1902 39.543H72.9195Z" fill="#36B8B0"/>
<path opacity="0.2" d="M72.9195 39.543C72.9195 39.543 72.4037 49.8431 73.4083 54.207C74.9995 61.1167 81.9946 66.6537 81.9946 66.6537L84.241 64.8545C84.241 64.8545 78.4856 60.5718 77.9677 54.8185C77.5038 49.6518 78.1902 43.7175 78.1902 39.543H72.9195Z" fill="black"/>
<path opacity="0.2" d="M73.6855 42.594C73.4775 42.1925 73.0719 43.3886 72.7891 44.9236C72.7891 47.041 72.8265 49.4497 73.0116 51.4901C74.4239 48.8797 74.1244 43.426 73.6855 42.594Z" fill="black"/>
<path d="M80.9746 66.2105L81.8274 66.872L84.4212 64.7691L83.6433 64.064L80.9746 66.2105Z" fill="#2C6BDB"/>
<path opacity="0.4" d="M80.9746 66.2105L81.8274 66.872L84.4212 64.7691L83.6433 64.064L80.9746 66.2105Z" fill="#FAFAFA"/>
<path d="M70.0183 39.543C70.0183 39.543 67.7178 49.2982 67.5556 53.9574C67.3746 59.1844 69.1967 71.5105 69.1967 71.5105H71.7863C71.7863 71.5105 72.1046 59.0887 72.221 54.3276C72.3458 49.138 75.391 39.543 75.391 39.543H70.0183Z" fill="#36B8B0"/>
<path opacity="0.2" d="M70.0183 39.543C70.0183 39.543 67.7178 49.2982 67.5556 53.9574C67.3746 59.1844 69.1967 71.5105 69.1967 71.5105H71.7863C71.7863 71.5105 72.1046 59.0887 72.221 54.3276C72.3458 49.138 75.391 39.543 75.391 39.543H70.0183Z" fill="black"/>
<path d="M68.6999 70.4785C68.6874 70.4785 68.8455 71.5539 68.8455 71.5539H71.9946L72.0799 70.595L68.6999 70.4785Z" fill="#2C6BDB"/>
<path opacity="0.4" d="M68.6999 70.4785C68.6874 70.4785 68.8455 71.5539 68.8455 71.5539H71.9946L72.0799 70.595L68.6999 70.4785Z" fill="#FAFAFA"/>
</svg>
