<svg width="22" height="21" viewBox="0 0 22 21" fill="none" xmlns="http://www.w3.org/2000/svg">
<path d="M10.2389 2.94559C10.4289 3.1685 10.7071 3.29691 11 3.29691C11.2929 3.29691 11.5711 3.1685 11.7611 2.94559C12.7764 1.75441 14.3384 1 15.95 1C18.7866 1 21 3.21272 21 6.0445C21 7.79284 20.222 9.45746 18.6481 11.38C17.0627 13.3165 14.7762 15.3905 11.9236 17.9749L11.9222 17.9762L10.9974 18.8172L10.0772 17.9866C10.0769 17.9863 10.0766 17.9861 10.0763 17.9858C7.22385 15.396 4.93756 13.3195 3.35211 11.3816C1.77797 9.45752 1 7.79285 1 6.0445C1 3.21272 3.21343 1 6.05 1C7.66155 1 9.22365 1.75441 10.2389 2.94559Z" stroke="white" stroke-width="2" stroke-linejoin="round"/>
</svg>
