<svg width="14" height="17" viewBox="0 0 14 17" fill="none" xmlns="http://www.w3.org/2000/svg">
<path d="M8.7659 8.89583C7.40296 8.89583 6.04002 8.89769 4.67707 8.89249C4.55368 8.89212 4.49913 8.94112 4.46678 9.04322C4.35242 9.40407 4.14739 9.70181 3.86412 9.95946C3.6527 10.1518 3.42059 10.294 3.15726 10.4024C2.65241 10.6103 2.13402 10.6032 1.62465 10.4696C1.20144 10.3586 0.84067 10.1143 0.558526 9.77532C0.306477 9.47275 0.149229 9.13232 0.0536764 8.7451C-0.0546668 8.30591 0.0119192 7.89308 0.156001 7.49399C0.317387 7.04775 0.620974 6.68615 1.02387 6.41848C1.51894 6.08955 2.06969 6.01419 2.65316 6.07284C3.01167 6.10885 3.33181 6.24882 3.61772 6.44149C3.90851 6.63789 4.15943 6.88959 4.31367 7.21518C4.38139 7.35774 4.44459 7.5029 4.51982 7.64138C4.53863 7.67627 4.59393 7.69706 4.63682 7.71229C4.66767 7.72342 4.70604 7.71451 4.74102 7.71451C7.4071 7.71451 10.0728 7.71525 12.7389 7.71303C12.9315 7.71303 13.1045 7.73864 13.2621 7.86413C13.4273 7.99555 13.5067 8.33005 13.4141 8.51827C13.2772 8.79708 13.0616 8.9014 12.7501 8.89917C11.4218 8.89063 10.0939 8.89583 8.7659 8.89583ZM2.31045 9.37326C2.93079 9.40593 3.41382 8.88989 3.41006 8.29403C3.4063 7.72045 2.92816 7.22483 2.30217 7.23077C1.66265 7.23708 1.20369 7.74236 1.21122 8.31C1.21912 8.8795 1.65512 9.39553 2.31045 9.37326Z" fill="#36B8B0"/>
<path d="M11.0063 1.69417C11.603 1.69417 12.2169 1.70308 12.8305 1.69082C13.2059 1.6834 13.4741 2.01604 13.4538 2.30339C13.4324 2.60596 13.1698 2.86695 12.8576 2.87214C12.2887 2.88142 11.7192 2.87883 11.1504 2.87251C11.0206 2.87103 10.9698 2.90184 10.9296 3.03549C10.8235 3.38633 10.6117 3.68295 10.3389 3.92984C9.72538 4.4856 9.00046 4.64932 8.19879 4.46778C7.83539 4.38536 7.51375 4.20605 7.23537 3.95174C6.93103 3.67367 6.71509 3.34734 6.59998 2.95419C6.59095 2.92263 6.54581 2.89145 6.51082 2.87994C6.47019 2.86695 6.42204 2.87548 6.3769 2.87548C4.48503 2.87548 2.59279 2.87363 0.700918 2.87697C0.323598 2.87734 0.104655 2.68243 0.0170021 2.36093C-0.0319028 2.18162 0.0640261 2.01678 0.174626 1.88053C0.308927 1.71533 0.505675 1.69268 0.710323 1.69268C2.5973 1.69491 4.48428 1.69231 6.37125 1.69714C6.52098 1.69751 6.58794 1.65853 6.62669 1.50928C6.69478 1.24681 6.83623 1.01515 7.03298 0.823211C7.20189 0.658376 7.37268 0.494284 7.55626 0.345783C7.64843 0.271162 7.76617 0.221786 7.87941 0.179463C8.30939 0.0187115 8.75669 -0.0555386 9.20774 0.0472978C9.58732 0.133799 9.94395 0.280072 10.2449 0.548857C10.4748 0.754159 10.6655 0.979879 10.8017 1.25126C10.8713 1.389 10.9314 1.53082 11.0063 1.69417ZM8.76421 3.35403C9.37402 3.37073 9.87886 2.85915 9.87134 2.27777C9.86344 1.66818 9.40261 1.20374 8.78377 1.19409C8.186 1.18444 7.68266 1.64887 7.66874 2.26663C7.65557 2.85766 8.19014 3.36739 8.76421 3.35403Z" fill="#36B8B0"/>
<path d="M4.52556 14.9174C4.03914 14.9174 3.56476 14.9174 3.09076 14.9174C2.28684 14.9174 1.48292 14.9163 0.678995 14.9177C0.256531 14.9185 0.121479 14.7507 0.018402 14.4065C-0.0350172 14.2276 0.0673069 14.0475 0.192955 13.9183C0.315217 13.7925 0.477732 13.7316 0.671471 13.7327C1.905 13.7398 3.13816 13.7349 4.37169 13.7387C4.48718 13.739 4.53233 13.7134 4.57446 13.5935C4.73058 13.1484 4.99768 12.7871 5.39757 12.5042C5.97239 12.0981 6.59724 11.9967 7.26611 12.1337C7.64531 12.2113 7.98313 12.397 8.27468 12.6602C8.57375 12.9301 8.79044 13.2456 8.91007 13.6295C8.92474 13.6767 9.01277 13.7286 9.0692 13.7316C9.29341 13.7435 9.51837 13.7364 9.74296 13.7364C10.7767 13.7364 11.8105 13.7457 12.8439 13.732C13.2182 13.7271 13.5527 14.1552 13.4338 14.4778C13.3446 14.7199 13.1949 14.9163 12.8518 14.917C12.3876 14.9181 11.923 14.9174 11.4584 14.9174C10.6744 14.9174 9.89043 14.9203 9.10644 14.9144C8.97628 14.9133 8.92361 14.9671 8.88825 15.0774C8.75546 15.4902 8.51168 15.8236 8.1622 16.0913C7.84921 16.3307 7.50386 16.4651 7.11864 16.5572C6.70559 16.6556 6.32187 16.5776 5.9517 16.4551C5.58153 16.3329 5.25725 16.1135 4.99768 15.8035C4.77798 15.5403 4.61584 15.2578 4.52556 14.9174ZM7.83078 14.3371C7.85071 13.7639 7.34398 13.2401 6.73418 13.2456C6.10406 13.2516 5.63758 13.7387 5.63871 14.3204C5.63983 14.9571 6.11534 15.4063 6.73342 15.4126C7.32668 15.4189 7.82889 14.9593 7.83078 14.3371Z" fill="#36B8B0"/>
</svg>
