<svg width="26" height="26" viewBox="0 0 26 26" fill="none" xmlns="http://www.w3.org/2000/svg">
<path d="M23.6271 0.745813L23.6284 0.747073L25.4213 2.51869C25.7927 2.9091 25.7918 3.5236 25.4019 3.91385L16.4431 12.8724L16.2307 13.0848L16.4434 13.297L25.4208 22.2533C25.7958 22.647 25.7888 23.2616 25.4231 23.6273L23.6295 25.4209C23.2358 25.7961 22.6211 25.7891 22.2554 25.4233L13.2965 16.4645L13.0844 16.2523L12.8722 16.4645L3.91595 25.4209C3.52226 25.7961 2.90753 25.7891 2.54181 25.4233L0.748217 23.6297C0.373096 23.2361 0.380086 22.6213 0.74581 22.2556L0.746309 22.2551L9.68407 13.2751L9.8952 13.0629L9.68357 12.8513L0.579151 3.7469C0.203863 3.35322 0.21085 2.73854 0.576728 2.37282L0.576774 2.37278L2.37042 0.579128C2.76383 0.203925 3.37852 0.21078 3.74452 0.576774L12.8722 9.70449L13.0844 9.91662L13.2965 9.70449L22.253 0.748205C22.6467 0.373096 23.2614 0.380089 23.6271 0.745813Z" fill="#DCDCDC" stroke="white" stroke-width="0.6"/>
</svg>
