<svg width="376" height="71" viewBox="0 0 376 71" fill="none" xmlns="http://www.w3.org/2000/svg">
<path d="M108.929 54.7025C108.486 54.7025 108.063 54.5604 107.72 54.2762C107.196 53.8499 95 43.944 95 29.4708C95 22.4879 98.7696 17.1493 104.333 16.1546C109.191 15.2818 116.206 17.9409 119.976 28.334C122.032 33.9569 122.113 37.834 120.278 40.1887C119.754 40.8585 119.069 41.4066 118.283 41.772C117.497 42.1374 116.65 42.2795 115.783 42.2186L116.065 38.3211C116.287 38.3211 116.509 38.2806 116.71 38.1994C116.912 38.1182 117.093 37.9761 117.235 37.7934C117.557 37.3468 118.444 35.459 116.327 29.6738C113.384 21.6557 108.405 19.4431 105.039 19.9708C101.31 20.6204 98.9107 24.3148 98.9107 29.3896C98.9107 41.9547 110.038 51.008 110.159 51.1095C110.482 51.3734 110.703 51.7185 110.824 52.1042C110.945 52.4899 110.925 52.9161 110.784 53.3018C110.643 53.6875 110.401 54.0123 110.078 54.2559C109.756 54.4995 109.353 54.6213 108.949 54.6213" fill="#0F6BB5"/>
<path d="M123.121 54.7033C122.718 54.7033 122.314 54.5815 121.992 54.3379C121.669 54.0943 121.407 53.7695 121.286 53.3839C121.145 52.9982 121.145 52.5719 121.246 52.1862C121.367 51.8005 121.589 51.4352 121.911 51.1916C122.032 51.1104 133.16 42.0367 133.16 29.4716C133.16 24.3969 130.761 20.6821 127.052 20.0326C123.685 19.4439 118.646 21.6159 115.763 29.6949C113.667 35.4801 114.553 37.3679 114.876 37.8145C115.017 37.9972 115.219 38.119 115.42 38.2205C115.622 38.3017 115.864 38.3626 116.085 38.3423V38.4438L116.227 42.2803C115.38 42.3209 114.533 42.1585 113.767 41.8134C113.001 41.4683 112.316 40.9406 111.792 40.2707C109.937 37.8754 110.119 33.978 112.094 28.4161C115.864 18.023 122.879 15.3638 127.737 16.2366C133.321 17.2313 137.07 22.5902 137.07 29.5528C137.07 44.0463 124.874 53.9319 124.35 54.3582C124.008 54.6424 123.584 54.7845 123.141 54.7845" fill="#0F6BB5"/>
<path d="M175.189 29.3285C176.54 30.9727 177.225 33.0635 177.145 35.1746V49.0186H173.012V35.7836C173.073 34.383 172.609 33.0026 171.702 31.9471C171.238 31.4599 170.694 31.0945 170.089 30.8509C169.485 30.6073 168.819 30.4855 168.174 30.5058C167.429 30.4855 166.703 30.6479 166.017 30.9524C165.352 31.2569 164.748 31.7238 164.284 32.3125C163.236 33.6725 162.712 35.3573 162.792 37.0624V49.0794H158.66V35.7836C158.72 34.383 158.257 33.0026 157.349 31.9471C156.906 31.4802 156.362 31.0945 155.777 30.8509C155.172 30.6073 154.547 30.4855 153.902 30.5058C153.157 30.4855 152.431 30.6479 151.745 30.9524C151.08 31.2569 150.475 31.7238 150.012 32.3125C148.964 33.6725 148.439 35.3573 148.52 37.0624V49.0794H144.388V27.5422H148.52V31.4193C149.064 30.0999 150.032 29.0037 151.262 28.3135C152.592 27.5219 154.104 27.1159 155.636 27.1362C157.108 27.0956 158.559 27.5422 159.748 28.3947C160.938 29.2676 161.825 30.5058 162.248 31.9065C162.953 30.4449 164.082 29.227 165.473 28.415C166.824 27.5625 168.396 27.0956 170.009 27.1159C170.976 27.0753 171.944 27.258 172.851 27.6437C173.758 28.0294 174.544 28.5977 175.189 29.3285Z" fill="#0F6BB5"/>
<path d="M195.005 43.9648C196.255 42.3611 196.9 40.3515 196.799 38.3216C196.9 36.2714 196.255 34.2618 195.005 32.6379C194.42 31.968 193.695 31.42 192.868 31.0546C192.062 30.6892 191.175 30.5065 190.288 30.5065C189.401 30.5065 188.514 30.6892 187.708 31.0546C186.901 31.42 186.176 31.968 185.571 32.6379C184.361 34.2821 183.757 36.2917 183.898 38.3216C183.797 40.3718 184.442 42.3611 185.692 43.9648C186.256 44.6549 186.962 45.2233 187.768 45.5887C188.575 45.9744 189.461 46.1571 190.348 46.1165C191.256 46.1368 192.143 45.9541 192.969 45.5887C193.796 45.2233 194.521 44.6549 195.086 43.9445L195.005 43.9648ZM182.507 46.4007C181.519 45.3045 180.733 44.0257 180.229 42.6453C179.725 41.2447 179.503 39.7832 179.564 38.3013C179.503 36.8195 179.725 35.3377 180.229 33.9573C180.733 32.5567 181.519 31.2982 182.507 30.202C183.515 29.1668 184.724 28.3548 186.055 27.827C187.385 27.2993 188.816 27.0557 190.248 27.1166C191.699 27.0557 193.13 27.2993 194.481 27.827C195.831 28.3548 197.041 29.1668 198.069 30.202C199.057 31.2982 199.843 32.577 200.347 33.9573C200.851 35.358 201.073 36.8195 201.012 38.3013C201.073 39.7832 200.851 41.265 200.347 42.6453C199.843 44.046 199.077 45.3045 198.069 46.4007C197.041 47.4359 195.831 48.2276 194.481 48.7756C193.13 49.3034 191.699 49.547 190.248 49.4861C188.816 49.547 187.385 49.3034 186.055 48.7756C184.724 48.2479 183.515 47.4359 182.507 46.4007Z" fill="#0F6BB5"/>
<path d="M232.197 27.5221H236.35V49.0796H232.197V27.5221ZM231.733 20.3362C231.733 19.6663 231.995 19.0168 232.479 18.5499C232.943 18.083 233.588 17.7988 234.253 17.7988C234.918 17.7988 235.563 18.0627 236.027 18.5499C236.491 19.0168 236.773 19.6663 236.773 20.3362C236.773 21.0061 236.511 21.6556 236.027 22.1225C235.563 22.5894 234.918 22.8736 234.253 22.8736C233.588 22.8736 232.943 22.6097 232.479 22.1225C231.995 21.6556 231.733 21.0061 231.733 20.3362Z" fill="#0F6BB5"/>
<path d="M255.742 27.542H259.955L251.388 49.0996H246.55L237.942 27.542H242.276L248.969 45.2224H249.049L255.742 27.542Z" fill="#0F6BB5"/>
<path d="M270.397 46.1368C271.284 46.1774 272.171 45.9947 272.997 45.609C273.804 45.2436 274.529 44.6752 275.094 43.9851C276.343 42.3612 276.989 40.3516 276.868 38.3013C276.968 36.2511 276.343 34.2415 275.094 32.6379C274.529 31.9478 273.804 31.3794 272.997 31.014C272.191 30.6486 271.304 30.4659 270.397 30.5065C269.49 30.4659 268.603 30.6486 267.776 31.014C266.95 31.3794 266.224 31.9478 265.66 32.6379C264.39 34.2415 263.765 36.2511 263.866 38.3013C263.765 40.3516 264.39 42.3815 265.66 43.9851C266.224 44.6955 266.95 45.2436 267.776 45.6293C268.603 45.9947 269.51 46.1774 270.397 46.1368ZM276.868 27.5226H281V49.0801H276.868V45H276.787C276.182 46.4007 275.114 47.5577 273.763 48.2682C272.272 49.1004 270.598 49.5064 268.905 49.4861C267.635 49.5267 266.365 49.2628 265.196 48.735C264.027 48.2073 262.999 47.4156 262.192 46.421C260.419 44.1069 259.511 41.2447 259.652 38.3216C259.511 35.3783 260.418 32.4958 262.213 30.202C263.019 29.2074 264.047 28.4157 265.216 27.8879C266.385 27.3602 267.655 27.0963 268.925 27.1369C270.598 27.1166 272.272 27.5429 273.723 28.3548C275.094 29.1059 276.162 30.3035 276.767 31.7448H276.868V27.5226Z" fill="#0F6BB5"/>
<path d="M215.768 30.587V27.5218H208.713V21.29H204.62V43.0912C204.58 43.9641 204.741 44.8166 205.064 45.6083C205.386 46.3999 205.87 47.1307 206.495 47.7194C207.846 48.917 209.6 49.526 211.394 49.4042C212.906 49.4448 214.417 49.1606 215.788 48.5313V45.5677C214.8 46.0346 213.732 46.2578 212.643 46.2375C212.16 46.2984 211.676 46.2578 211.212 46.1157C210.749 45.9737 210.325 45.7301 209.942 45.4256C209.559 45.1211 209.277 44.7151 209.075 44.2685C208.874 43.822 208.753 43.3551 208.733 42.8476V30.587H215.768Z" fill="#0F6BB5"/>
<path d="M229.516 30.587V27.5218H222.46V21.29H218.308V43.0912C218.268 43.9641 218.429 44.8166 218.751 45.6083C219.074 46.3999 219.558 47.1307 220.183 47.7194C221.533 48.917 223.287 49.5057 225.081 49.4042C226.593 49.4448 228.105 49.1606 229.496 48.5313V45.5677C228.508 46.0345 227.44 46.2578 226.351 46.2375C225.867 46.2984 225.383 46.2578 224.92 46.1157C224.456 45.9737 224.033 45.7301 223.65 45.4256C223.287 45.1008 222.985 44.7151 222.783 44.2685C222.581 43.822 222.46 43.3551 222.44 42.8476V30.587H229.516Z" fill="#0F6BB5"/>
</svg>
