<svg width="21" height="27" viewBox="0 0 21 27" fill="none" xmlns="http://www.w3.org/2000/svg">
<mask id="path-1-inside-1_1313_5063" fill="white">
<path d="M4 9.73913V5.41063C4 3.97564 4.6413 2.59943 5.78283 1.58474C6.92435 0.570047 8.4726 0 10.087 0C11.7013 0 13.2496 0.570047 14.3911 1.58474C15.5326 2.59943 16.1739 3.97564 16.1739 5.41063V9.73913"/>
</mask>
<path d="M2 9.73913C2 10.8437 2.89543 11.7391 4 11.7391C5.10457 11.7391 6 10.8437 6 9.73913H2ZM4 5.41063H2H4ZM14.1739 9.73913C14.1739 10.8437 15.0693 11.7391 16.1739 11.7391C17.2785 11.7391 18.1739 10.8437 18.1739 9.73913H14.1739ZM6 9.73913V5.41063H2V9.73913H6ZM6 5.41063C6 4.58719 6.36596 3.74231 7.11156 3.07955L4.4541 0.0899175C2.91665 1.45654 2 3.36409 2 5.41063H6ZM7.11156 3.07955C7.86483 2.40998 8.93195 2 10.087 2L10.087 -2C8.01324 -2 5.98388 -1.26989 4.4541 0.0899175L7.11156 3.07955ZM10.087 2C11.242 2 12.3091 2.40998 13.0624 3.07955L15.7198 0.0899175C14.19 -1.26989 12.1607 -2 10.087 -2V2ZM13.0624 3.07955C13.808 3.74231 14.1739 4.58719 14.1739 5.41063H18.1739C18.1739 3.36409 17.2573 1.45654 15.7198 0.0899175L13.0624 3.07955ZM14.1739 5.41063V9.73913H18.1739V5.41063H14.1739Z" fill="#3A4771" mask="url(#path-1-inside-1_1313_5063)"/>
<circle cx="10.5" cy="16.5" r="1.5" stroke="#3A4771" stroke-width="2" stroke-linecap="round" stroke-linejoin="round"/>
<line x1="11" y1="19" x2="11" y2="21" stroke="#3A4771" stroke-width="2" stroke-linecap="round" stroke-linejoin="round"/>
<rect x="1" y="10" width="19" height="16" rx="1" stroke="#3A4771" stroke-width="2" stroke-linecap="round" stroke-linejoin="round"/>
</svg>
