<svg width="19" height="19" viewBox="0 0 19 19" fill="none" xmlns="http://www.w3.org/2000/svg">
<path d="M2.72978 18.6816C3.87956 18.4445 5.0016 18.0899 6.07804 17.6236C6.49195 17.4392 6.95402 17.39 7.39789 17.4828C8.08535 17.6274 8.7861 17.7004 9.48879 17.7008M2.72978 18.6816L9.48879 17.7008M2.72978 18.6816L1.37901 18.9754L2.72978 18.6816ZM9.48879 17.7008L9.48884 17.6008H9.48879V17.7008ZM0.1 8.85034L0 8.8504H0.1C0.1 8.85038 0.1 8.85036 0.1 8.85034ZM1.81806 17.6123L1.81809 17.6122L1.72291 17.5815L1.81806 17.6123ZM2.70852 18.5839L1.41446 18.8654L6.03794 17.532C4.96791 17.9955 3.85253 18.3479 2.70958 18.5837L2.70852 18.5839ZM1.62716 8.85086L1.62716 8.85099C1.62908 10.3906 2.15544 11.8842 3.12043 13.0886C3.7362 13.8695 3.99334 14.7881 3.8514 15.6775C3.80161 15.9873 3.74072 16.304 3.66856 16.6229L3.63097 16.789L3.79434 16.7409C4.34488 16.5788 4.88432 16.3816 5.4093 16.1504L5.40973 16.1502C6.13877 15.8253 6.95287 15.7386 7.73471 15.9028L7.73504 15.9028C8.31468 16.0225 8.90501 16.0836 9.49702 16.0851H9.49728H9.49986C13.8331 16.0851 17.3726 12.8477 17.3726 8.85086C17.3726 4.85404 13.8331 1.61618 9.49995 1.61618H9.49986C5.16753 1.61618 1.62716 4.85283 1.62716 8.85086Z" fill="#A0A9B8" stroke="white" stroke-width="0.2"/>
<path d="M8.49045 6.61367C8.29455 6.82474 8.18598 7.10146 8.18642 7.38858C8.18579 7.46323 8.16957 7.53693 8.1388 7.60503C8.10803 7.67312 8.06337 7.73413 8.00764 7.7842C7.89 7.89044 7.73651 7.94892 7.57754 7.94808C7.41836 7.94887 7.26465 7.89041 7.1467 7.7842C7.09108 7.7341 7.04654 7.67306 7.01591 7.60496C6.98528 7.53685 6.96922 7.46318 6.96875 7.38858C6.9689 6.82507 7.18698 6.28316 7.57791 5.87489C8.00026 5.43379 8.62465 5.15234 9.40364 5.15234C10.1826 5.15234 10.8079 5.43379 11.2302 5.87489C11.6213 6.28305 11.8394 6.82503 11.8394 7.38858C11.8496 7.85834 11.7217 8.32087 11.4714 8.71951C11.2818 8.99746 11.0591 9.25159 10.8081 9.47635L10.7572 9.52441C10.5517 9.70435 10.3736 9.91305 10.2286 10.144C10.0744 10.4284 9.9999 10.7487 10.0127 11.0716C10.0121 11.1459 9.99592 11.2194 9.9653 11.2873C9.93467 11.3551 9.89022 11.4159 9.83475 11.4659C9.717 11.5725 9.56311 11.631 9.40382 11.6298C9.24478 11.631 9.09114 11.5725 8.97372 11.4659C8.91813 11.416 8.87355 11.3552 8.84279 11.2873C8.81202 11.2195 8.79572 11.146 8.79494 11.0716C8.78183 10.5668 8.90436 10.0677 9.14991 9.62565C9.34789 9.30039 9.59323 9.00604 9.87795 8.75215L9.90472 8.72638C10.0987 8.55733 10.2715 8.36577 10.4195 8.15579C10.562 7.9257 10.6323 7.65864 10.6215 7.38868C10.6225 7.10145 10.5138 6.82454 10.3175 6.61376C10.1309 6.42072 9.84251 6.27051 9.40373 6.27051C8.96495 6.27051 8.67698 6.42063 8.49045 6.61367ZM9.40327 14.3353C9.51749 14.339 9.63142 14.3215 9.73923 14.2838C9.84527 14.2474 9.94301 14.1906 10.0268 14.1165C10.1087 14.045 10.1748 13.9573 10.2207 13.859C10.2652 13.763 10.2881 13.6585 10.288 13.5527C10.2881 13.447 10.2652 13.3425 10.2207 13.2465C10.1747 13.1482 10.1087 13.0605 10.0268 12.989C9.94301 12.915 9.84526 12.8581 9.73923 12.8218C9.63143 12.784 9.5175 12.7666 9.40327 12.7702C9.1805 12.7695 8.9655 12.8515 8.80047 13.0002C8.72264 13.0703 8.66031 13.1557 8.61741 13.251C8.57451 13.3462 8.552 13.4493 8.55128 13.5537C8.552 13.658 8.57451 13.7611 8.61741 13.8564C8.66031 13.9516 8.72264 14.037 8.80047 14.1071C8.96556 14.2556 9.18058 14.3374 9.40327 14.3364V14.3353Z" fill="#ACACAC"/>
</svg>
