<svg width="21" height="21" viewBox="0 0 21 21" fill="none" xmlns="http://www.w3.org/2000/svg">
<path d="M19.6068 10.3443L10.974 1.20808C10.9119 1.14212 10.8381 1.08979 10.7568 1.05408C10.6755 1.01838 10.5884 1 10.5004 1C10.4124 1 10.3253 1.01838 10.244 1.05408C10.1627 1.08979 10.0889 1.14212 10.0267 1.20808L1.39402 10.3443C1.14252 10.6107 1 10.9725 1 11.3499C1 12.1334 1.6015 12.7704 2.34133 12.7704H3.25092V19.2897C3.25092 19.6826 3.55062 20 3.92159 20H9.15907V15.0279H11.5064V20H17.0792C17.4501 20 17.7499 19.6826 17.7499 19.2897V12.7704H18.6594C19.0157 12.7704 19.3574 12.6217 19.6088 12.3531C20.1307 11.7982 20.1307 10.8993 19.6068 10.3443Z" stroke="#A0A9B8" stroke-width="1.2" stroke-linejoin="round"/>
</svg>
