<svg width="25" height="20" viewBox="0 0 25 20" fill="none" xmlns="http://www.w3.org/2000/svg">
<path d="M14.07 19.0002C14.07 19.0002 13.2621 14.3181 14.07 13.4061C14.6821 12.739 17.1302 10.5111 18.4278 9.37272C18.6339 9.19008 18.9036 9.09601 19.1786 9.11091C19.4535 9.1258 19.7116 9.24846 19.8967 9.45229L20.3619 9.97253" stroke="white" stroke-linecap="round" stroke-linejoin="round"/>
<path d="M17.0508 13.3197C17.0508 13.3197 21.1943 9.89838 21.3963 9.31694C21.5555 8.87627 21.8309 5.91396 21.9533 4.57357C21.9713 4.36277 22.0677 4.16639 22.2236 4.02329C22.3794 3.88019 22.5833 3.80078 22.7948 3.80078C23.0064 3.80078 23.2103 3.88019 23.3661 4.02329C23.522 4.16639 23.6184 4.36277 23.6364 4.57357C23.7343 6.59945 23.8384 11.2571 22.7673 12.1446C21.8003 12.9464 20.2273 14.299 19.3827 15.0212C19.2112 15.1688 19.0868 15.3634 19.0248 15.581C18.9627 15.7985 18.9659 16.0295 19.0338 16.2453L19.8723 18.9689" stroke="white" stroke-linecap="round" stroke-linejoin="round"/>
<path d="M12.3477 11.6065C12.3477 11.6065 18.4681 9.28073 18.4681 5.06373C18.4681 0.846723 14.2817 -0.389611 12.3477 2.79303" stroke="white" stroke-linecap="round" stroke-linejoin="round"/>
<path d="M10.6122 19.0002C10.6122 19.0002 11.4201 14.3181 10.6122 13.4061C10.0001 12.739 7.55192 10.5111 6.25438 9.37272C6.0483 9.19008 5.77855 9.09601 5.50359 9.11091C5.22863 9.1258 4.97061 9.24846 4.78547 9.45229L4.32031 9.97253" stroke="white" stroke-linecap="round" stroke-linejoin="round"/>
<path d="M7.64859 13.3213C7.64859 13.3213 3.49891 9.8999 3.29693 9.31846C3.1378 8.87778 2.86237 5.91548 2.74609 4.57509C2.74609 4.35108 2.6571 4.13625 2.4987 3.97785C2.3403 3.81945 2.12547 3.73047 1.90146 3.73047C1.67745 3.73047 1.46262 3.81945 1.30422 3.97785C1.14582 4.13625 1.05684 4.35108 1.05684 4.57509C0.958908 6.60097 0.860979 11.2586 1.92594 12.1461C2.89298 12.9479 4.46594 14.3005 5.31056 15.0227C5.48204 15.1703 5.60649 15.3649 5.6685 15.5825C5.7305 15.8001 5.72735 16.031 5.65943 16.2468L4.82093 18.9704" stroke="white" stroke-linecap="round" stroke-linejoin="round"/>
<path d="M12.347 11.6065C12.347 11.6065 6.22656 9.28073 6.22656 5.06373C6.22656 0.846723 10.413 -0.389611 12.347 2.79303" stroke="white" stroke-linecap="round" stroke-linejoin="round"/>
</svg>
