<svg width="19" height="19" viewBox="0 0 19 19" fill="none" xmlns="http://www.w3.org/2000/svg">
<path d="M7.3 17.24C7.98 17.38 8.67 17.45 9.37 17.45C14.55 17.45 18.76 13.53 18.76 8.72C18.75 3.91 14.54 0 9.37 0C4.21 0 0 3.91 0 8.73C0 10.6 0.64 12.43 1.81 13.89C2.02 14.15 2.34 14.68 2.24 15.33C2.12 16.07 1.94 16.8 1.71 17.51L1.32 18.72L2.57 18.45C3.71 18.21 4.83 17.86 5.89 17.4C6.34 17.19 6.83 17.14 7.3 17.24Z" fill="#36B8B0"/>
<path d="M8.49045 5.46133C8.29455 5.6724 8.18598 5.94912 8.18642 6.23624C8.18579 6.31088 8.16957 6.38459 8.1388 6.45268C8.10803 6.52078 8.06337 6.58179 8.00764 6.63186C7.89 6.73809 7.73651 6.79658 7.57754 6.79573C7.41836 6.79653 7.26465 6.73806 7.1467 6.63186C7.09108 6.58175 7.04654 6.52071 7.01591 6.45261C6.98528 6.38451 6.96922 6.31083 6.96875 6.23624C6.9689 5.67272 7.18698 5.13081 7.57791 4.72255C8.00026 4.28144 8.62465 4 9.40364 4C10.1826 4 10.8079 4.28144 11.2302 4.72255C11.6213 5.13071 11.8394 5.67269 11.8394 6.23624C11.8496 6.706 11.7217 7.16852 11.4714 7.56716C11.2818 7.84512 11.0591 8.09925 10.8081 8.32401L10.7572 8.37206C10.5517 8.552 10.3736 8.76071 10.2286 8.99162C10.0744 9.27608 9.9999 9.5964 10.0127 9.91922C10.0121 9.9936 9.99592 10.067 9.9653 10.1349C9.93467 10.2028 9.89022 10.2636 9.83475 10.3136C9.717 10.4201 9.56311 10.4787 9.40382 10.4774C9.24478 10.4787 9.09114 10.4201 8.97372 10.3136C8.91813 10.2637 8.87355 10.2028 8.84279 10.135C8.81202 10.0671 8.79572 9.99365 8.79494 9.91922C8.78183 9.41447 8.90436 8.91537 9.14991 8.4733C9.34789 8.14805 9.59323 7.85369 9.87795 7.59981L9.90472 7.57404C10.0987 7.40499 10.2715 7.21342 10.4195 7.00345C10.562 6.77335 10.6323 6.5063 10.6215 6.23633C10.6225 5.94911 10.5138 5.67219 10.3175 5.46142C10.1309 5.26838 9.84251 5.11816 9.40373 5.11816C8.96495 5.11816 8.67698 5.26829 8.49045 5.46133ZM9.40327 13.1829C9.51749 13.1866 9.63142 13.1692 9.73923 13.1315C9.84527 13.0951 9.94301 13.0382 10.0268 12.9641C10.1087 12.8926 10.1748 12.805 10.2207 12.7067C10.2652 12.6107 10.2881 12.5061 10.288 12.4004C10.2881 12.2947 10.2652 12.1902 10.2207 12.0941C10.1747 11.9959 10.1087 11.9082 10.0268 11.8367C9.94301 11.7626 9.84526 11.7058 9.73923 11.6694C9.63143 11.6317 9.5175 11.6142 9.40327 11.6179C9.1805 11.6172 8.9655 11.6992 8.80047 11.8479C8.72264 11.918 8.66031 12.0033 8.61741 12.0986C8.57451 12.1939 8.552 12.297 8.55128 12.4013C8.552 12.5057 8.57451 12.6088 8.61741 12.704C8.66031 12.7993 8.72264 12.8847 8.80047 12.9548C8.96556 13.1033 9.18058 13.185 9.40327 13.184V13.1829Z" fill="white"/>
</svg>
