<svg width="17" height="19" viewBox="0 0 17 19" fill="none" xmlns="http://www.w3.org/2000/svg">
<path d="M8.5 19C9.08489 19.0007 9.65549 18.8182 10.1325 18.4777C10.6094 18.1371 10.9691 17.6556 11.1614 17.1H5.83856C6.0309 17.6556 6.39056 18.1371 6.86754 18.4777C7.34451 18.8182 7.91511 19.0007 8.5 19ZM15.1111 11.9567V7.6C15.1111 4.54385 13.0475 1.96935 10.2519 1.1951C9.97522 0.494 9.299 0 8.5 0C7.701 0 7.02478 0.494 6.74806 1.1951C3.9525 1.9703 1.88889 4.54385 1.88889 7.6V11.9567L0.276723 13.5783C0.18885 13.6664 0.119161 13.7711 0.0716695 13.8864C0.0241779 14.0016 -0.000178924 14.1252 9.8947e-07 14.25V15.2C9.8947e-07 15.452 0.0995046 15.6936 0.276622 15.8718C0.45374 16.0499 0.693963 16.15 0.944445 16.15H16.0556C16.306 16.15 16.5463 16.0499 16.7234 15.8718C16.9005 15.6936 17 15.452 17 15.2V14.25C17.0002 14.1252 16.9758 14.0016 16.9283 13.8864C16.8808 13.7711 16.8112 13.6664 16.7233 13.5783L15.1111 11.9567Z" fill="#36B8B0"/>
</svg>
