<svg width="19" height="19" viewBox="0 0 19 19" fill="none" xmlns="http://www.w3.org/2000/svg">
<path d="M18.6068 9.34433L9.97405 0.208075C9.91188 0.14212 9.83808 0.0897876 9.75679 0.0540803C9.67551 0.0183793 9.58841 0 9.50041 0C9.41242 0 9.32526 0.0183793 9.24397 0.0540803C9.16275 0.0897876 9.08888 0.14212 9.02672 0.208075L0.394016 9.34433C0.142517 9.61071 0 9.97253 0 10.3499C0 11.1334 0.601504 11.7704 1.34133 11.7704H2.25092V18.2897C2.25092 18.6826 2.55062 19 2.92159 19H8.15907V14.0279H10.5064V19H16.0792C16.4501 19 16.7499 18.6826 16.7499 18.2897V11.7704H17.6594C18.0157 11.7704 18.3574 11.6217 18.6088 11.3531C19.1307 10.7982 19.1307 9.89925 18.6068 9.34433Z" fill="#36B8B0"/>
</svg>
