<svg width="24" height="24" viewBox="0 0 24 24" fill="none" xmlns="http://www.w3.org/2000/svg">
<path d="M10.6942 1.61418C11.3664 0.783198 12.6336 0.783198 13.3058 1.61418C13.7931 2.21659 14.6293 2.40745 15.3298 2.07613C16.296 1.61911 17.4376 2.16891 17.6827 3.20926C17.8604 3.96346 18.531 4.49822 19.3058 4.50363C20.3746 4.51109 21.1647 5.50179 20.9341 6.54546C20.767 7.30207 21.1391 8.07482 21.8349 8.41588C22.7946 8.88634 23.0766 10.1217 22.416 10.962C21.9371 11.5712 21.9371 12.4288 22.416 13.038C23.0766 13.8783 22.7946 15.1137 21.8349 15.5841C21.1391 15.9252 20.767 16.6979 20.9341 17.4545C21.1647 18.4982 20.3746 19.4889 19.3058 19.4964C18.531 19.5018 17.8604 20.0365 17.6827 20.7907C17.4376 21.8311 16.296 22.3809 15.3298 21.9239C14.6293 21.5926 13.7931 21.7834 13.3058 22.3858C12.6336 23.2168 11.3664 23.2168 10.6942 22.3858C10.2069 21.7834 9.37069 21.5926 8.67025 21.9239C7.70404 22.3809 6.56238 21.8311 6.31728 20.7907C6.13959 20.0365 5.46902 19.5018 4.69419 19.4964C3.62538 19.4889 2.83533 18.4982 3.06589 17.4545C3.23303 16.6979 2.86089 15.9252 2.16514 15.5841C1.20541 15.1137 0.923444 13.8783 1.58401 13.038C2.06288 12.4288 2.06288 11.5712 1.58401 10.962C0.923444 10.1217 1.20541 8.88634 2.16514 8.41588C2.86089 8.07482 3.23303 7.30207 3.06589 6.54546C2.83533 5.50179 3.62538 4.51109 4.69419 4.50363C5.46902 4.49822 6.13959 3.96346 6.31728 3.20926C6.56238 2.16891 7.70404 1.61911 8.67025 2.07613C9.37069 2.40745 10.2069 2.21659 10.6942 1.61418Z" fill="#009EFB"/>
<path fill-rule="evenodd" clip-rule="evenodd" d="M16.6455 9.72935C16.8471 9.96054 16.8418 10.3066 16.6333 10.5315L11.0781 16.5252C10.8407 16.7814 10.4355 16.7814 10.198 16.5252L7.36667 13.4704C7.15816 13.2454 7.15291 12.8994 7.35449 12.6682L7.55182 12.4419C7.78614 12.1731 8.20174 12.1668 8.44411 12.4283L10.198 14.3207C10.4355 14.5769 10.8407 14.5769 11.0781 14.3207L15.5559 9.48949C15.7983 9.22798 16.2139 9.23429 16.4482 9.50304L16.6455 9.72935Z" fill="white" stroke="white" stroke-width="0.8"/>
</svg>
