<svg width="30" height="30" viewBox="0 0 30 30" fill="none" xmlns="http://www.w3.org/2000/svg">
<path d="M30 15C30 18.9782 28.4196 22.7936 25.6066 25.6066C22.7936 28.4196 18.9782 30 15 30C11.0218 30 7.20644 28.4196 4.3934 25.6066C1.58035 22.7936 0 18.9782 0 15C0 11.0218 1.58035 7.20644 4.3934 4.3934C7.20644 1.58035 11.0218 0 15 0C18.9782 0 22.7936 1.58035 25.6066 4.3934C28.4196 7.20644 30 11.0218 30 15ZM12.7312 9.54937C12.5911 9.44957 12.4261 9.39027 12.2545 9.37797C12.0828 9.36568 11.9111 9.40087 11.7581 9.47968C11.6052 9.55849 11.4768 9.67788 11.3872 9.82478C11.2976 9.97168 11.2501 10.1404 11.25 10.3125V19.6875C11.2501 19.8596 11.2976 20.0283 11.3872 20.1752C11.4768 20.3221 11.6052 20.4415 11.7581 20.5203C11.9111 20.5991 12.0828 20.6343 12.2545 20.622C12.4261 20.6097 12.5911 20.5504 12.7312 20.4506L19.2938 15.7631C19.4153 15.6764 19.5143 15.5619 19.5827 15.4292C19.651 15.2964 19.6867 15.1493 19.6867 15C19.6867 14.8507 19.651 14.7036 19.5827 14.5708C19.5143 14.4381 19.4153 14.3236 19.2938 14.2369L12.7312 9.54937Z" fill="white"/>
</svg>
