<svg width="21" height="21" viewBox="0 0 21 21" fill="none" xmlns="http://www.w3.org/2000/svg">
<path d="M11.6686 3.27245L11.6687 3.27245C11.6708 3.0764 11.6191 2.88374 11.5195 2.71539L10.5 1.34212L9.48052 2.71539C9.38086 2.88374 9.32916 3.0764 9.33131 3.27245L9.33139 3.27891L9.33136 3.27891C9.33227 3.58917 9.45595 3.88652 9.67539 4.10598L11.6686 3.27245ZM11.6686 3.27245V3.28126M11.6686 3.27245V3.28126M11.6686 3.28126C11.6686 3.59127 11.5455 3.88854 11.3264 4.10772M11.6686 3.28126L11.3264 4.10772M11.3264 4.10772C11.1075 4.3266 10.8107 4.4497 10.5011 4.45M11.3264 4.10772L10.5011 4.45M10.5011 4.45C10.1913 4.44875 9.89453 4.32512 9.6754 4.10598L10.5011 4.45Z" stroke="#3A4771" stroke-width="1.6"/>
<rect x="0.8" y="8.01875" width="19.4" height="12.1812" rx="4.53333" stroke="#3A4771" stroke-width="1.6"/>
<mask id="path-3-inside-1_1323_6900" fill="white">
<rect x="9.1875" y="5.90625" width="2.625" height="2.625" rx="1"/>
</mask>
<rect x="9.1875" y="5.90625" width="2.625" height="2.625" rx="1" stroke="#3A4771" stroke-width="2.625" mask="url(#path-3-inside-1_1323_6900)"/>
<path d="M20.3438 14.1019C19.8006 14.3164 19.1999 14.4356 18.568 14.4356C16.7639 14.4356 15.2134 13.4643 14.534 12.0742C13.8546 13.4643 12.3041 14.4356 10.5 14.4356C8.69591 14.4356 7.14537 13.4643 6.46599 12.0742C5.78662 13.4643 4.23608 14.4356 2.43199 14.4356C1.80013 14.4356 1.19937 14.3164 0.65625 14.1019" stroke="#3A4771" stroke-width="1.6" stroke-linejoin="round"/>
</svg>
