<svg width="17" height="19" viewBox="0 0 17 19" fill="none" xmlns="http://www.w3.org/2000/svg">
<path d="M0.0716695 13.8864C0.0241779 14.0016 -0.000178924 14.1252 0 14.25V15.2C0 15.452 0.0995046 15.6936 0.276622 15.8718C0.45374 16.0499 0.693963 16.15 0.944445 16.15H16.0556C16.306 16.15 16.5463 16.0499 16.7234 15.8718C16.9005 15.6936 17 15.452 17 15.2V14.25C17.0002 14.1252 16.9758 14.0016 16.9283 13.8864C16.8808 13.7711 16.8112 13.6664 16.7233 13.5783L15.1111 11.9567V7.6C15.1111 4.54385 13.0475 1.96935 10.2519 1.1951C9.97522 0.494 9.299 0 8.5 0C7.701 0 7.02478 0.494 6.74806 1.1951C3.9525 1.9703 1.88889 4.54385 1.88889 7.6V11.9567L0.276723 13.5783C0.18885 13.6664 0.119161 13.7711 0.0716695 13.8864ZM14.5111 11.9567V12.2042L14.6856 12.3797L16.2978 14.0014L16.2985 14.0021C16.3305 14.0342 16.3561 14.0725 16.3736 14.1149C16.3911 14.1574 16.4001 14.203 16.4 14.2491V14.25V15.2C16.4 15.294 16.3629 15.3834 16.2979 15.4487C16.233 15.514 16.1458 15.55 16.0556 15.55H0.944445C0.854231 15.55 0.766998 15.514 0.702129 15.4487C0.637141 15.3834 0.600001 15.294 0.600001 15.2L0.600002 14.25L0.6 14.2491C0.599934 14.203 0.608946 14.1574 0.62643 14.1149C0.643912 14.0725 0.669471 14.0342 0.701462 14.0021L0.702229 14.0014L2.3144 12.3797L2.48889 12.2042V11.9567V7.6C2.48889 4.82016 4.36615 2.47824 6.90838 1.77328L7.19642 1.69341L7.30616 1.41538C7.49614 0.934036 7.95728 0.6 8.5 0.6C9.04272 0.6 9.50386 0.934036 9.69384 1.41538L9.80362 1.69352L10.0918 1.77333C12.6337 2.47734 14.5111 4.82003 14.5111 7.6V11.9567ZM8.50076 18.4L8.49924 18.4C8.03987 18.4006 7.5914 18.2572 7.21616 17.9893C7.09621 17.9037 6.98563 17.8067 6.88573 17.7H10.1143C10.0144 17.8067 9.9038 17.9037 9.78384 17.9893C9.4086 18.2572 8.96013 18.4006 8.50076 18.4Z" stroke="#A0A9B8" stroke-width="1.2"/>
</svg>
