<svg width="9" height="15" viewBox="0 0 9 15" fill="none" xmlns="http://www.w3.org/2000/svg">
<path d="M8.75853 6.9131L1.94213 0.239544C1.78474 0.0861317 1.57168 0 1.34957 0C1.12745 0 0.914383 0.0861317 0.756995 0.239544L0.254911 0.731017C0.0981862 0.885077 0.0101891 1.09364 0.0101891 1.31106C0.0101891 1.52847 0.0981862 1.73703 0.254911 1.89109L5.97921 7.49563L0.244713 13.1089C0.0879874 13.263 0 13.4715 0 13.6889C0 13.9064 0.0879874 14.1149 0.244713 14.269L0.746796 14.7605C0.904184 14.9139 1.11725 15 1.33937 15C1.56148 15 1.77454 14.9139 1.93193 14.7605L8.75599 8.08066C8.91233 7.92565 9 7.71658 9 7.49875C9 7.28092 8.91233 7.07186 8.75599 6.91684L8.75853 6.9131Z" fill="#3A4771"/>
</svg>
