<svg width="25" height="18" viewBox="0 0 25 18" fill="none" xmlns="http://www.w3.org/2000/svg">
<path d="M2.55061 11.0521V13.859C2.54674 13.9362 2.55863 14.0135 2.58557 14.086C2.6125 14.1586 2.65391 14.2249 2.70727 14.2809C2.76064 14.337 2.82485 14.3815 2.89599 14.412C2.96713 14.4424 3.04372 14.4581 3.1211 14.458H5.72826C5.94009 14.458 6.14324 14.5421 6.29302 14.6919C6.44281 14.8417 6.52696 15.0448 6.52696 15.2567V16.3577C6.52696 16.509 6.58706 16.6541 6.69405 16.7611C6.80104 16.8681 6.94615 16.9282 7.09745 16.9282H10.9312C11.0758 16.9286 11.2152 16.874 11.3211 16.7755C11.427 16.677 11.4915 16.5419 11.5017 16.3977C11.5644 15.3708 11.8668 13.0831 13.4128 11.7595C15.4438 10.0138 15.1243 6.70495 15.1243 6.70495C15.1243 6.70495 14.7763 1 9.25392 1C3.73153 1 2.51638 4.8052 2.80733 8.07413L1.19854 9.84837C1.10547 9.9284 1.0407 10.0363 1.01383 10.1561C0.986968 10.2758 0.999447 10.4011 1.04942 10.5132C1.09939 10.6253 1.18418 10.7183 1.29121 10.7784C1.39824 10.8385 1.52179 10.8625 1.64352 10.8467H2.5335L2.55061 11.0521Z" stroke="white" stroke-linecap="round" stroke-linejoin="round"/>
<path d="M22.476 11.0521V13.859C22.4798 13.9362 22.4679 14.0135 22.441 14.086C22.4141 14.1586 22.3727 14.2249 22.3193 14.2809C22.2659 14.337 22.2017 14.3815 22.1306 14.412C22.0594 14.4424 21.9829 14.4581 21.9055 14.458H19.2698C19.058 14.458 18.8548 14.5421 18.705 14.6919C18.5552 14.8417 18.4711 15.0448 18.4711 15.2567V16.3577C18.4711 16.509 18.411 16.6541 18.304 16.7611C18.197 16.8681 18.0519 16.9282 17.9006 16.9282H14.0954C13.9508 16.9286 13.8114 16.874 13.7055 16.7755C13.5996 16.677 13.535 16.5419 13.5249 16.3977C13.4679 15.3708 13.1598 13.0831 11.6195 11.7595C9.58279 10.0138 9.87374 6.70495 9.87374 6.70495C9.87374 6.70495 10.2217 1 15.7441 1C21.2665 1 22.4817 4.8052 22.1907 8.07413L23.7995 9.84837C23.8926 9.9284 23.9574 10.0363 23.9842 10.1561C24.0111 10.2758 23.9986 10.4011 23.9486 10.5132C23.8987 10.6253 23.8139 10.7183 23.7068 10.7784C23.5998 10.8385 23.4763 10.8625 23.3545 10.8467H22.476V11.0521Z" stroke="white" stroke-linecap="round" stroke-linejoin="round"/>
</svg>
