<svg width="15" height="15" viewBox="0 0 15 15" fill="none" xmlns="http://www.w3.org/2000/svg">
<path d="M11.875 2.5H11.25V1.875C11.25 1.5 11 1.25 10.625 1.25C10.25 1.25 10 1.5 10 1.875V2.5H5V1.875C5 1.5 4.75 1.25 4.375 1.25C4 1.25 3.75 1.5 3.75 1.875V2.5H3.125C2.0625 2.5 1.25 3.3125 1.25 4.375V5H13.75V4.375C13.75 3.3125 12.9375 2.5 11.875 2.5ZM1.25 11.875C1.25 12.9375 2.0625 13.75 3.125 13.75H11.875C12.9375 13.75 13.75 12.9375 13.75 11.875V6.25H1.25V11.875ZM10.625 7.5C11 7.5 11.25 7.75 11.25 8.125C11.25 8.5 11 8.75 10.625 8.75C10.25 8.75 10 8.5 10 8.125C10 7.75 10.25 7.5 10.625 7.5ZM10.625 10C11 10 11.25 10.25 11.25 10.625C11.25 11 11 11.25 10.625 11.25C10.25 11.25 10 11 10 10.625C10 10.25 10.25 10 10.625 10ZM7.5 7.5C7.875 7.5 8.125 7.75 8.125 8.125C8.125 8.5 7.875 8.75 7.5 8.75C7.125 8.75 6.875 8.5 6.875 8.125C6.875 7.75 7.125 7.5 7.5 7.5ZM7.5 10C7.875 10 8.125 10.25 8.125 10.625C8.125 11 7.875 11.25 7.5 11.25C7.125 11.25 6.875 11 6.875 10.625C6.875 10.25 7.125 10 7.5 10ZM4.375 7.5C4.75 7.5 5 7.75 5 8.125C5 8.5 4.75 8.75 4.375 8.75C4 8.75 3.75 8.5 3.75 8.125C3.75 7.75 4 7.5 4.375 7.5ZM4.375 10C4.75 10 5 10.25 5 10.625C5 11 4.75 11.25 4.375 11.25C4 11.25 3.75 11 3.75 10.625C3.75 10.25 4 10 4.375 10Z" fill="#2FC6BD"/>
</svg>
