<svg width="58" height="58" viewBox="0 0 58 58" fill="none" xmlns="http://www.w3.org/2000/svg">
<mask id="mask0_1403_3776" style="mask-type:alpha" maskUnits="userSpaceOnUse" x="0" y="0" width="58" height="58">
<path d="M28.9996 57.636C44.8151 57.636 57.636 44.8151 57.636 28.9996C57.636 13.1842 44.8151 0.363281 28.9996 0.363281C13.1842 0.363281 0.363281 13.1842 0.363281 28.9996C0.363281 44.8151 13.1842 57.636 28.9996 57.636Z" fill="white"/>
</mask>
<g mask="url(#mask0_1403_3776)">
<path d="M29.9466 42.2841C29.9466 42.2841 41.4399 41.02 43.6853 44.4673C45.6525 47.4873 50.4334 58.929 49.7366 65.1008C49.0594 71.0976 42.1073 73.932 35.6398 72.8305L24.1527 70.8741L29.9466 42.2841Z" fill="#F1A34F"/>
<path d="M21.8422 44.0369C21.8422 44.0369 38.5371 39.6368 40.6886 44.735C41.8313 47.4419 44.4607 57.9128 43.7362 64.0798C43.0323 70.0721 36.5852 72.9926 30.6376 71.9796L20.0744 70.1805L21.8422 44.0369Z" fill="#D16E24"/>
<path d="M-5.02365 17.1777C-5.02365 17.1777 14.3397 19.9384 21.6945 21.2081C25.4782 21.8611 24.8967 24.7102 26.1493 28.3399C28.6593 35.6087 32.7592 48.0755 31.9738 49.7801C30.8557 52.2074 4.75405 49.5746 3.02714 48.676C1.30068 47.7781 -5.02365 17.1777 -5.02365 17.1777Z" fill="#E78B37"/>
<path opacity="0.4" d="M9.19284 24.9017C9.19284 24.9017 10.0979 21.1632 9.12942 21.3338C8.16096 21.5044 1.45584 25.7989 0.246834 38.4131L2.53253 41.1518L23.5263 41.2369L9.19284 24.9017Z" fill="#C44F00"/>
<path d="M32.5329 44.6548L25.0783 46.8807C25.0783 46.8807 22.8754 24.2121 22.7655 22.4929C22.7165 21.7269 22.2248 21.3691 21.6951 21.2082C22.6627 21.2836 23.3574 21.3957 23.3574 21.3957C25.2331 21.7151 26.6971 23.1938 26.9963 25.0729C27.6498 29.1703 28.8507 36.726 30.0608 44.4189C30.745 44.2717 31.5574 44.1075 32.4505 43.948L32.5329 44.6548Z" fill="#F1A34F"/>
<path d="M18.5689 43.4848C18.5689 43.4848 41.1259 45.302 43.419 48.3923C44.4837 49.8269 44.2584 55.4649 43.7115 61.0942C43.0295 68.1156 36.3971 73.0936 29.4987 71.8167L5.40639 67.7248L18.5689 43.4848Z" fill="#DF812F"/>
<path d="M14.4375 15.8175C13.7582 15.5189 13.0145 15.5089 12.5055 15.5539C12.6126 15.4243 12.8636 15.3702 12.8636 15.3702C12.5356 15.3377 11.8825 15.651 11.8825 15.651C7.12072 14.2366 7.64939 20.2355 8.02797 21.6207C8.40533 23.0055 8.74495 24.6032 6.78351 25.9232C2.92485 28.5196 7.48312 32.6729 7.48312 32.6729C7.52146 32.6906 10.1512 35.7156 10.1512 35.7156C9.8085 34.5974 14.2573 28.4869 16.8486 26.6146C17.369 25.6226 17.2739 23.9043 17.2655 23.7692C17.4194 25.1289 17.322 25.8982 17.1828 26.3336C19.2532 24.1445 16.2392 16.6085 14.4375 15.8175Z" fill="#006AB6"/>
<path d="M29.8302 28.2853C29.909 28.2131 30.6775 26.8288 31.2814 26.9973C31.8848 27.1656 32.8185 27.4697 33.062 27.4654C33.3055 27.4611 34.1642 27.1259 34.284 27.2803C34.582 27.6639 33.7011 28.4371 33.1422 28.4593C32.5833 28.4815 31.7346 28.0619 31.5093 28.1901C31.2846 28.319 31.2372 28.9531 31.2372 28.9531L29.8302 28.2853Z" fill="#FFB27D"/>
<path d="M21.4519 40.6066C21.4519 40.6066 36.0452 43.0153 38.5784 45.1546C41.1116 47.2939 43.2544 65.8555 43.2544 65.8555C43.2544 65.8555 42.9605 65.9824 42.3509 65.8994C41.7843 65.8221 40.5866 65.2471 40.5866 65.2471C40.5866 65.2471 35.3033 55.9374 35.1123 53.8567C34.9212 51.776 35.2531 50.0366 34.2517 49.7552C33.2503 49.4739 20.5185 47.941 18.9913 44.5685C17.4641 41.196 19.4027 38.6593 19.4027 38.6593L21.4519 40.6066Z" fill="#006AB6"/>
<path d="M31.0134 31.5012C29.7721 33.3891 26.987 36.2928 26.3656 36.285C25.8418 36.2783 23.4138 35.2207 21.4662 34.165C20.3261 33.5469 19.3518 32.9297 19.0208 32.5239C18.1234 31.4256 15.4588 25.5669 15.4588 25.5669C15.4588 25.5669 18.6249 25.9391 20.0086 27.0291C21.3923 28.1195 24.5109 32.4058 25.0647 32.4128C25.6185 32.4198 28.6783 29.1257 29.7328 29.0092C29.7328 29.0092 31.3187 29.0731 31.6028 30.0912C31.6744 30.3472 31.4313 30.8668 31.0134 31.5012Z" fill="#699DEE"/>
<path d="M30.8794 31.4785C29.6344 33.3825 26.8409 36.311 26.2176 36.3033C25.6922 36.2965 23.2568 35.23 21.3033 34.1653C20.5423 33.3528 20.0954 32.6984 20.0252 32.5701C20.0894 32.6073 24.6233 35.244 25.6063 35.1114C26.4979 34.9915 29.3625 31.992 30.8794 31.4785Z" fill="#4A75CB"/>
<path d="M16.4255 26.4047C16.4411 26.4099 15.1913 27.1173 14.0968 26.8914C13.0672 26.6795 12.1886 25.5355 12.2016 25.5323C12.6009 25.4425 12.6137 24.9153 12.145 22.6662L12.3394 22.6935L15.6099 23.1592C15.6099 23.1592 15.7245 24.0726 15.8981 24.9313C16.0424 25.6521 16.23 26.3339 16.4255 26.4047Z" fill="#FFB27D"/>
<path d="M15.6532 23.1111C15.6532 23.1111 15.7653 23.9822 15.9353 24.8011C14.1993 24.8147 12.9906 23.4356 12.4526 22.6672L15.6532 23.1111Z" fill="#EF9A60"/>
<path d="M18.576 41.2226C18.576 41.2226 31.3997 44.7585 33.8596 46.9831C36.3189 49.208 37.6647 67.804 37.6647 67.804C37.6647 67.804 37.363 67.9198 36.7526 67.8156C36.1845 67.7186 35.0034 67.102 35.0034 67.102C35.0034 67.102 30.0865 57.625 29.9851 55.542C29.8836 53.4595 30.2944 51.7354 29.2976 51.4188C28.3007 51.1022 15.5365 49.1196 14.1452 45.7004C12.7533 42.2811 18.576 41.2226 18.576 41.2226Z" fill="#006AB6"/>
<path d="M12.3002 22.0932C12.3002 22.0932 11.0971 20.7776 10.639 19.6331C10.3122 18.8158 10.1445 15.7513 13.5686 16.0768C13.5686 16.0768 14.5551 16.1318 15.5803 16.6654C16.3961 17.09 17.639 18.0245 17.0145 20.7251L16.8946 21.6344L12.3002 22.0932Z" fill="#006AB6"/>
<path d="M20.0599 41.5494C19.9472 41.5238 19.789 41.4802 19.6049 41.4248C18.8597 41.1998 17.6796 40.7806 17.2745 40.5733C13.854 38.8251 10.5997 36.8925 9.66165 32.5426C9.54795 32.0167 9.46862 31.4554 9.42657 30.8546L10.2124 29.1401L11.7822 25.5001C11.7822 25.5001 13.0274 26.4276 14.2881 26.4746C14.9335 26.4979 15.3744 25.9381 15.3744 25.9381C15.3744 25.9381 21.7433 29.7693 23.3991 35.0268C25.0549 40.2843 25.9209 39.7454 26.4754 40.9228C27.0297 42.1007 23.8692 42.4143 20.0599 41.5494Z" fill="#699DEE"/>
<path d="M16.6496 23.6862C16.6496 23.6862 12.4589 23.8932 11.9646 21.4854C11.4703 19.0772 10.5961 17.4821 13.2507 17.2481C15.9054 17.0141 16.6156 17.9149 16.9931 18.711C17.3706 19.5066 17.7269 23.5701 16.6496 23.6862Z" fill="#FFB27D"/>
<path d="M15.3309 17.1571C15.3309 17.1571 14.7536 20.0395 13.064 20.5202C11.3743 21.0015 10.5148 20.5897 10.5148 20.5897C10.5148 20.5897 11.6734 19.5472 11.6018 17.7991C11.6012 17.799 14.1824 15.834 15.3309 17.1571Z" fill="#006AB6"/>
<path d="M14.9411 17.0907C14.9411 17.0907 15.9356 17.6962 16.2722 18.3065C16.6088 18.9167 16.9631 20.1846 17.3566 20.1278C17.3566 20.1278 17.8344 18.1643 16.6313 17.1041C15.3549 15.9797 14.9411 17.0907 14.9411 17.0907Z" fill="#006AB6"/>
<path d="M19.5313 41.8922C18.7899 41.6692 17.6159 41.2538 17.2129 41.0485C13.8098 39.3161 10.5721 37.4011 9.63875 33.0907C9.63728 33.0602 9.63465 33.0296 9.63202 32.9989L10.1633 32.7763C11.2496 32.3218 12.6162 32.4768 13.7323 33.1787C16.382 34.8471 19.9644 37.5889 19.5313 41.8922Z" fill="#4A75CB"/>
<path d="M12.4674 25.894C12.4674 25.894 7.99786 25.4538 6.96368 27.6755C5.92944 29.8978 4.27892 37.5548 4.85345 38.322C5.42798 39.0892 7.47428 38.8244 7.9501 38.6165C8.42591 38.4086 11.7005 30.9887 11.7005 30.9887C11.7005 30.9887 13.2647 27.6544 12.4674 25.894Z" fill="#699DEE"/>
<path d="M16.4877 37.7661C16.4877 37.7661 18.8688 37.9086 19.119 38.0637C19.3698 38.2189 20.6894 39.6693 20.51 39.8594C20.3306 40.0495 19.708 40.0733 19.0564 39.729C18.4048 39.3842 16.9513 38.9575 16.7256 38.6102C16.5 38.2625 16.4877 37.7661 16.4877 37.7661Z" fill="#FFB27D"/>
<path d="M17.2395 38.2129C17.2395 38.2129 8.24098 36.1252 5.92294 36.8155C5.92294 36.8155 4.51104 37.6092 4.80475 38.2712C5.09847 38.9331 6.26553 39.0933 6.79148 39.1766C7.31743 39.2599 16.6762 39.5382 16.6762 39.5382C16.6762 39.5382 17.8065 39.123 17.2395 38.2129Z" fill="#699DEE"/>
<path d="M9.28873 38.7679C9.28873 38.7679 19.9007 37.3537 21.9251 40.7634C23.6985 43.7504 27.9535 55.1025 27.2291 61.2696C26.5252 67.2618 20.078 70.1823 14.1305 69.1693L3.56676 67.3702L9.28873 38.7679Z" fill="#F1A34F"/>
<path d="M21.2285 60.2473C21.953 54.0803 19.3236 43.6094 18.181 40.9025C16.5139 36.9533 6.12097 38.7038 1.52089 39.6932C0.311577 31.9993 -0.890011 24.444 -1.54345 20.3467C-1.84321 18.4675 -3.3067 16.9889 -5.18237 16.6694C-5.18237 16.6694 -12.0095 14.4419 -14.682 23.5876C-23.2377 52.8626 -22.0905 62.9682 -9.65929 65.1618C-8.10023 65.437 -5.04504 65.9288 -2.43303 66.3435L-2.43323 66.348L8.13047 68.1472C14.078 69.1602 20.5247 66.2396 21.2285 60.2473Z" fill="#F1A34F"/>
<path d="M21.2319 60.2278C21.9588 54.043 19.3348 43.544 18.1928 40.8298C16.7753 37.4591 9.03257 38.2328 3.92273 39.1513C3.02955 39.3114 2.21695 39.4766 1.53256 39.625C0.326186 31.9105 -0.87182 24.3342 -1.52273 20.2253C-1.82108 18.3412 -3.28455 16.8592 -5.16023 16.5397C-5.16023 16.5397 -5.8545 16.4283 -6.82265 16.3529C-6.8232 16.3528 -6.8232 16.3528 -6.82375 16.3527C-8.38281 16.2313 -10.6496 16.2047 -11.8554 16.8926C-12.6732 17.3589 -13.6065 19.8586 -14.664 23.4823C-17.1633 32.0422 -18.8364 38.9689 -19.6451 44.54C-20.06 47.3975 -20.2471 49.8978 -20.2013 52.0807C-20.1695 53.6095 -20.0244 54.982 -19.7619 56.2105C-18.6258 61.5409 -15.3088 64.1749 -9.66211 65.172C-9.00617 65.2877 -8.08447 65.4418 -7.04262 65.613C-5.60935 65.8474 -3.94842 66.1132 -2.43631 66.3531L-2.43652 66.3576L8.12718 68.1568C14.0753 69.1698 20.5251 66.2373 21.2319 60.2278Z" fill="#D16E24"/>
<path d="M1.48782 39.1957C-0.207991 39.5494 -2.08739 39.9409 -3.6083 40.2578C-4.12854 34.8933 -5.65908 19.0609 -5.75013 17.6355C-5.79856 16.8695 -6.29078 16.5117 -6.82062 16.3514C-5.85303 16.4267 -5.15821 16.5382 -5.15821 16.5382C-3.28253 16.8577 -1.81914 18.3369 -1.51929 20.2155C-0.876418 24.2478 0.297166 31.6297 1.48782 39.1957Z" fill="#F1A34F"/>
<path d="M40.8042 50.3628V58.5626C40.8042 60.0031 40.397 61.169 39.8938 61.169H23.8361C23.3329 61.169 22.9258 60.0037 22.9258 58.5626V50.3628C22.9258 48.9223 24.3449 47.5879 28.5075 47.634L39.8938 47.7564C40.397 47.757 40.8042 48.9223 40.8042 50.3628Z" fill="#F1A34F"/>
<path d="M42.9331 50.3639V58.5638C42.9331 60.0042 42.5259 61.1701 42.0228 61.1701H25.965C25.4618 61.1701 25.0547 60.0048 25.0547 58.5638V50.3639C25.0547 48.9234 26.5665 47.5424 28.8786 47.589L42.0222 47.7581C42.5265 47.7581 42.9331 48.9234 42.9331 50.3639Z" fill="#E78B37"/>
<path d="M38.9727 40.5281C39.1911 40.0446 38.8631 19.8603 43.785 20.1018C48.7062 20.3432 57.8934 20.5853 57.8934 20.5853C57.8934 20.5853 62.0492 20.9481 59.5338 30.8591C57.0184 40.7702 57.5654 56.4825 57.5654 56.4825H39.4107L38.9727 40.5281Z" fill="#F1A34F"/>
<path d="M56.0332 30.8609C55.73 32.0447 55.4784 33.31 55.256 34.6202C54.3681 39.9262 54.094 45.9717 54.0278 50.3601C53.9761 53.9863 54.0648 56.4798 54.0648 56.4798H35.9129L35.4766 40.5254C35.6911 40.0447 35.3654 19.8575 40.2866 20.1018C42.8026 20.2276 46.4361 20.3461 49.3811 20.4421C49.7512 20.4494 50.1134 20.4646 50.4616 20.4719C52.7406 20.5387 54.3984 20.5831 54.3984 20.5831C54.3984 20.5831 58.5492 20.9448 56.0332 30.8609Z" fill="#E78B37"/>
<path opacity="0.4" d="M55.2413 34.3013C54.7971 27.4936 51.2382 21.6699 50.461 20.4709L42.6615 19.6992C42.6615 19.6992 36.6491 23.6764 38.1289 38.985C38.8921 46.8788 42.1471 41.7087 45.1213 34.8488L44.5114 49.7149C44.5114 49.7149 51.7706 50.2108 54.0277 50.3584C54.0945 45.9701 54.368 39.9245 55.2559 34.6186C55.2559 34.5164 55.2486 34.4052 55.2413 34.3013Z" fill="#C44F00"/>
<path d="M57.8225 57.3947L57.4119 59.7512C57.4119 60.2544 57.4153 61.1687 56.9121 61.1687H28.6447C28.1415 61.1687 27.7344 60.7615 27.7344 60.2583V57.3947C27.7344 56.8915 28.1415 56.4844 28.6447 56.4844H56.9121C57.4153 56.4844 57.8225 56.8915 57.8225 57.3947Z" fill="#F1A34F"/>
<path d="M48.3122 47.0627L39.9422 46.7207C39.9422 46.7207 27.2119 47.5429 26.1326 49.3928L21.332 71.8465C21.332 71.8465 21.5982 72.2048 22.4996 72.3593C22.9764 72.4407 24.0142 72.2048 24.0142 72.2048C24.0142 72.2048 30.2311 64.2554 31.0302 59.264C31.698 55.093 31.9625 54.6572 34.2487 54.7437C36.5356 54.8302 43.5521 55.3828 46.8863 54.7369C50.22 54.0922 48.3122 47.0627 48.3122 47.0627Z" fill="#233862"/>
<path d="M43.2349 26.2949L42.5834 28.8805L39.1627 42.397C39.0324 42.6009 37.9429 43.0316 36.7377 43.436C35.3029 43.9156 33.7006 44.3677 33.3974 44.3413C32.8425 44.2963 32.5359 43.1372 32.6937 42.8103C32.7959 42.5947 34.625 41.6243 36.0554 40.7543C36.854 40.2691 37.5268 39.8159 37.7132 39.5463C38.0491 39.046 38.8853 34.4437 39.5665 31.0758C39.9141 29.3478 40.2241 27.9438 40.4038 27.5759C40.8593 26.615 42.6334 26.3556 43.1135 26.3062C43.1899 26.2949 43.2349 26.2949 43.2349 26.2949Z" fill="#466AA5"/>
<path d="M50.5265 47.0705L42.1564 46.7285C42.1564 46.7285 29.4262 47.5507 28.3462 49.4012L23.9102 72.2986C23.9102 72.2986 24.6846 72.5631 25.1704 72.599C25.9448 72.6569 26.4767 72.4025 26.4767 72.4025C26.4767 72.4025 32.4447 64.2638 33.2439 59.2729C33.9116 55.1019 34.1761 54.6661 36.4624 54.7526C38.7492 54.8391 45.7658 55.3917 49.1 54.7459C52.4348 54.1 50.5265 47.0705 50.5265 47.0705Z" fill="#2B478B"/>
<path d="M47.4205 22.6603C51.4348 22.3553 52.2199 14.1167 47.4441 15.1197C47.4441 15.1197 46.7747 14.6822 46.4439 14.6777C46.4439 14.6777 46.6995 14.771 46.8112 14.931C46.2951 14.8159 45.4948 14.6289 44.8647 14.9861C38.4064 18.6505 45.8644 22.7788 47.4205 22.6603Z" fill="#006AB6"/>
<path d="M42.8908 27.0472C42.8745 27.0517 44.2111 28.0457 45.3573 27.9233C46.4356 27.8093 47.3268 26.5799 47.3133 26.5743C46.8905 26.4165 46.8618 25.7954 47.2892 23.2148L47.0853 23.2216L43.6551 23.3406C43.6551 23.3406 43.5613 24.3987 43.4035 25.3843C43.2715 26.2132 43.0946 26.9893 42.8908 27.0472Z" fill="#FFB27D"/>
<path d="M42.5827 28.8792L39.162 42.3957C39.0317 42.5996 37.9422 43.0303 36.737 43.4347C36.6348 43.1859 36.5388 42.9 36.4472 42.5856C36.2642 41.956 36.1316 41.3422 36.0547 40.7525C36.8533 40.2673 37.5261 39.8141 37.7125 39.5445C38.0484 39.0441 38.8846 34.4418 39.5658 31.0739C41.0995 29.5683 42.5462 28.8281 42.5462 28.8281L42.5827 28.8792Z" fill="#2B478B"/>
<path d="M43.6578 23.3423C43.6578 23.3423 43.5641 24.4003 43.4062 25.3859C45.2747 25.6353 46.5327 24.0976 47.0881 23.2227L43.6578 23.3423Z" fill="#EF9A60"/>
<path d="M47.4906 22.9157C47.4906 22.9157 48.7148 21.5336 49.1624 20.2548C49.482 19.3417 49.5679 15.7794 45.9849 15.7137C45.9849 15.7137 44.9516 15.6492 43.8907 16.14C43.0472 16.5303 41.7702 17.4609 42.5042 20.7007L42.6563 21.7795L47.4906 22.9157Z" fill="#006AB6"/>
<path d="M42.8853 24.1731C42.8853 24.1731 47.2736 24.9587 47.7212 22.2187C48.1688 19.4781 49.0365 17.7344 46.2532 17.1166C43.4705 16.4989 42.7539 17.4558 42.3821 18.3342C42.0098 19.2119 41.7554 23.8979 42.8853 24.1731Z" fill="#FFB27D"/>
<path d="M44.2734 16.7876C44.2734 16.7876 45.1417 21.1406 47.3926 22.1296C49.6435 23.1186 50.7643 22.6528 50.7643 22.6528C50.7643 22.6528 49.1948 20.922 49.2262 18.3514C49.2254 18.3514 45.7431 15.0224 44.2734 16.7876Z" fill="#006AB6"/>
<path d="M44.5132 17.0347C44.5132 17.0347 43.4973 17.607 43.1648 18.2691C42.8323 18.9313 42.5004 20.3521 42.0899 20.2358C42.0899 20.2358 41.5367 17.903 42.7571 16.832C44.051 15.6965 44.5132 17.0347 44.5132 17.0347Z" fill="#006AB6"/>
<path d="M50.8737 51.2292C50.5249 51.8549 49.7673 51.9048 48.8143 51.6302C48.3549 51.5033 47.8568 51.2949 47.3334 51.0529C47.2857 51.0226 47.2295 50.9984 47.1812 50.976C45.6391 50.2234 43.9183 49.0901 42.5739 48.2275C39.7558 46.4214 39.5693 47.4328 38.7337 46.4354C38.7337 46.4354 39.5923 45.5324 38.4905 34.9862C38.1777 31.967 43.2354 26.2949 43.2354 26.2949C43.2354 26.2949 43.2691 28.1673 47.3132 26.5735C47.4564 26.5218 48.5622 28.9047 49.527 31.7828C49.6848 32.2433 49.8342 32.7095 49.9746 33.1823C50.6474 35.413 51.1466 37.7431 51.0118 39.3627C50.9793 39.7474 50.9152 40.0967 50.8085 40.3865C50.7968 40.4146 50.7844 40.4427 50.7726 40.4707C49.386 43.8066 51.8705 49.4271 50.8737 51.2292Z" fill="#466AA5"/>
<path d="M36.9574 38.0505L29.5039 37.5176L32.6955 46.2077L39.675 46.9316L36.9574 38.0505Z" fill="#B64C41"/>
<path d="M36.891 38.1462L29.4375 37.6133L32.629 46.3034L39.6086 47.0273L36.891 38.1462Z" fill="#D6716B"/>
<path d="M36.2191 37.999C36.2191 37.999 36.3982 36.873 35.7636 36.85C35.129 36.8269 34.7578 37.9271 34.7578 37.9271L36.2191 37.999Z" fill="#B2CBFD"/>
<path d="M35.0258 39.018C35.2032 39.8194 36.2281 41.1301 36.1664 41.7928L31.4029 41.731C31.4029 41.731 31.4338 41.4227 30.4162 39.2336C29.9978 38.3334 30.4931 36.707 30.9222 36.6699L35.7615 36.8474C35.762 36.8479 34.6804 37.4567 35.0258 39.018Z" fill="#D2E9FF"/>
<path d="M29.5038 37.5176L29.4375 37.6119L29.602 37.6226L29.5874 37.5642L29.5038 37.5176Z" fill="#B64C41"/>
<path d="M39.6103 47.0255L39.6766 46.9311L39.5508 46.834L39.6103 47.0255Z" fill="#B64C41"/>
<path d="M50.8724 51.2289C50.5237 51.8545 49.7661 51.9045 48.8131 51.6298C48.3537 51.5029 47.8555 51.2946 47.3321 51.0525C45.48 49.8529 43.497 47.9345 42.3839 44.8604C39.8826 37.9555 49.5016 32.9551 49.5016 32.9551L49.9744 33.182C50.6472 35.4126 51.1465 37.7427 51.0117 39.3623C50.9791 39.747 50.9151 40.0963 50.8084 40.3861C50.7966 40.4142 50.7843 40.4423 50.7725 40.4704C49.3848 43.8062 51.8693 49.4267 50.8724 51.2289Z" fill="#2B478B"/>
<path d="M42.7002 40.0268L42.3984 39.8125L39.5065 43.8853L39.8082 44.0996L42.7002 40.0268Z" fill="#D16E24"/>
<path d="M39.5041 43.8809L39.4805 44.2431L39.8056 44.0948L39.5041 43.8809Z" fill="#F1A34F"/>
<path d="M43.3582 42.1237C43.3582 42.1237 42.0536 41.5818 41.392 41.734C40.7299 41.8862 39.3843 42.3287 39.4433 42.6926C39.5023 43.056 40.9444 43.4789 41.6212 43.2346C42.2979 42.9903 42.6871 43.5019 43.4868 43.3716C44.2865 43.2419 43.3582 42.1237 43.3582 42.1237Z" fill="#FFB27D"/>
<path d="M47.3155 26.5742C47.3155 26.5742 51.423 27.2717 51.9352 28.3545C52.4468 29.4367 52.1064 40.7826 51.7875 41.9805C51.4685 43.1784 44.8332 43.7422 42.8457 43.6698C42.8457 43.6698 42.5329 42.3231 42.9047 41.5711C43.2765 40.8191 48.1871 40.0065 48.5903 39.4471C48.9935 38.8878 47.7844 31.9919 47.9405 30.643C48.0967 29.2935 47.3155 26.5742 47.3155 26.5742Z" fill="#466AA5"/>
<path d="M31.2177 42.5585C31.2177 42.5585 32.5745 42.427 32.3903 42.983C32.2067 43.539 31.6945 43.8075 31.6945 43.8075C31.6945 43.8075 30.6454 43.0515 31.2177 42.5585Z" fill="#FFB27D"/>
<path d="M55.6948 50.364V58.5639C55.6948 60.0044 55.2877 61.1703 54.7845 61.1703H38.7268C38.2236 61.1703 37.8164 60.005 37.8164 58.5639V50.364C37.8164 48.9236 39.0968 47.4965 43.4908 47.7577H54.7845C55.2877 47.7582 55.6948 48.9236 55.6948 50.364Z" fill="#F1A34F"/>
<path d="M57.8237 50.3624V58.5623C57.8237 60.0028 57.4166 61.1687 56.9134 61.1687H40.8557C40.3525 61.1687 39.9453 60.0034 39.9453 58.5623V50.3624C39.9453 48.9219 41.3184 47.6336 44.5555 47.7561L56.0255 47.6797C57.8293 47.6802 57.8237 48.9219 57.8237 50.3624Z" fill="#DF812F"/>
</g>
</svg>
