<svg width="46" height="38" viewBox="0 0 46 38" fill="none" xmlns="http://www.w3.org/2000/svg">
<path d="M16.4446 14.054L16.4446 14.0539C18.1824 12.3161 20.5394 11.3398 22.9971 11.3398C25.4549 11.3398 27.8119 12.3161 29.5497 14.0539L29.5497 14.054C31.2875 15.7917 32.2638 18.1488 32.2638 20.6064C32.2638 23.0641 31.2875 25.4211 29.5497 27.1591C27.8118 28.8968 25.4548 29.8732 22.9971 29.8732C20.5395 29.8732 18.1824 28.8968 16.4446 27.1591C14.7068 25.4211 13.7305 23.0641 13.7305 20.6064C13.7305 18.1488 14.7068 15.7917 16.4446 14.054Z" stroke="#36477E" stroke-width="2"/>
<rect x="6.87109" y="13.2734" width="4.4" height="4.4" rx="2" fill="#36477E"/>
<path d="M1 34.743V9.40964C1 8.30507 1.89543 7.40964 3 7.40964H10.4382C10.9687 7.40964 11.4774 7.19892 11.8525 6.82385L16.5475 2.12876C16.9226 1.75368 17.4313 1.54297 17.9618 1.54297H28.0382C28.5687 1.54297 29.0774 1.75368 29.4525 2.12876L34.1475 6.82385C34.5226 7.19892 35.0313 7.40964 35.5618 7.40964H43C44.1046 7.40964 45 8.30507 45 9.40964V34.743C45 35.8475 44.1046 36.743 43 36.743H3C1.89543 36.743 1 35.8475 1 34.743Z" stroke="#36477E" stroke-width="2" stroke-linejoin="round"/>
</svg>
