<svg width="146" height="91" viewBox="0 0 146 91" fill="none" xmlns="http://www.w3.org/2000/svg">
<path d="M146 31.9062L17.5576 50.3976L0.322601 67.7904L146 31.9062Z" fill="#81C2FF"/>
<path opacity="0.6" d="M146 31.9062L17.5576 50.3976L0.322601 67.7904L146 31.9062Z" fill="white"/>
<path d="M146 31.9062L17.5576 50.3976L23.5185 75.5486L146 31.9062Z" fill="#81C2FF"/>
<path opacity="0.2" d="M146 31.9062L17.5576 50.3976L23.5185 75.5486L146 31.9062Z" fill="#006AB6"/>
<path d="M26.1555 2.78791L18.7014 37.7198C18.5075 38.632 18.6834 39.5838 19.1904 40.3665C19.6974 41.1492 20.4941 41.6988 21.4058 41.8948L87.9343 56.0929C88.8463 56.2853 89.7974 56.1088 90.5797 55.602C91.362 55.0953 91.9119 54.2995 92.1092 53.3885L99.5688 18.4566C99.761 17.5437 99.5838 16.592 99.0759 15.8095C98.568 15.0271 97.7708 14.4777 96.8588 14.2816L30.3304 0.0835043C29.4176 -0.108699 28.4658 0.068545 27.6833 0.576448C26.9009 1.08435 26.3515 1.88154 26.1555 2.79354V2.78791Z" fill="#81C2FF"/>
<path opacity="0.4" d="M26.1555 2.78791L18.7014 37.7198C18.5075 38.632 18.6834 39.5838 19.1904 40.3665C19.6974 41.1492 20.4941 41.6988 21.4058 41.8948L87.9343 56.0929C88.8463 56.2853 89.7974 56.1088 90.5797 55.602C91.362 55.0953 91.9119 54.2995 92.1092 53.3885L99.5688 18.4566C99.761 17.5437 99.5838 16.592 99.0759 15.8095C98.568 15.0271 97.7708 14.4777 96.8588 14.2816L30.3304 0.0835043C29.4176 -0.108699 28.4658 0.068545 27.6833 0.576448C26.9009 1.08435 26.3515 1.88154 26.1555 2.79354V2.78791Z" fill="#006AB6"/>
<path d="M27.7935 0.499472L50.0203 27.7858C52.0817 30.3156 54.9449 32.066 58.1363 32.7473C61.3277 33.4286 64.6561 33.0001 67.5708 31.5325L99.0039 15.7005C98.4954 14.97 97.7279 14.4603 96.8573 14.275L30.3289 0.0769083C29.4607 -0.107866 28.5548 0.0431212 27.7935 0.499472Z" fill="#81C2FF"/>
<path d="M146 31.9062L40.0605 57.0854L23.5185 75.5486L146 31.9062Z" fill="#81C2FF"/>
<path opacity="0.6" d="M146 31.9062L40.0605 57.0854L23.5185 75.5486L146 31.9062Z" fill="white"/>
<path d="M146 31.9062L40.0605 57.0854L60.6534 81.904L146 31.9062Z" fill="#81C2FF"/>
<path d="M4.30121 90.8921C4.44392 90.8924 4.5854 90.8656 4.71813 90.8132L21.97 83.9846C22.246 83.8734 22.4668 83.6575 22.5843 83.3841C22.7017 83.1107 22.7063 82.802 22.5969 82.5252C22.4876 82.2485 22.2732 82.0262 22.0006 81.907C21.7279 81.7877 21.4192 81.7811 21.1418 81.8886L3.88427 88.7173C3.64013 88.8138 3.43734 88.9925 3.31091 89.2225C3.18447 89.4526 3.14233 89.7196 3.19175 89.9774C3.24118 90.2352 3.37908 90.4677 3.58163 90.6347C3.78418 90.8017 4.03869 90.8927 4.30121 90.8921Z" fill="#81C2FF"/>
<path opacity="0.3" d="M4.30121 90.8921C4.44392 90.8924 4.5854 90.8656 4.71813 90.8132L21.97 83.9846C22.246 83.8734 22.4668 83.6575 22.5843 83.3841C22.7017 83.1107 22.7063 82.802 22.5969 82.5252C22.4876 82.2485 22.2732 82.0262 22.0006 81.907C21.7279 81.7877 21.4192 81.7811 21.1418 81.8886L3.88427 88.7173C3.64013 88.8138 3.43734 88.9925 3.31091 89.2225C3.18447 89.4526 3.14233 89.7196 3.19175 89.9774C3.24118 90.2352 3.37908 90.4677 3.58163 90.6347C3.78418 90.8017 4.03869 90.8927 4.30121 90.8921Z" fill="#006AB6"/>
<path d="M5.32348 80.9993C5.4648 80.9984 5.60455 80.9697 5.73477 80.9148L15.003 77.2244C15.1416 77.1707 15.2681 77.0901 15.3754 76.9873C15.4827 76.8845 15.5686 76.7615 15.6282 76.6253C15.6878 76.4892 15.7198 76.3426 15.7225 76.194C15.7252 76.0454 15.6984 75.8978 15.6438 75.7596C15.5892 75.6214 15.5078 75.4953 15.4042 75.3887C15.3007 75.2821 15.1771 75.197 15.0406 75.1384C14.9041 75.0797 14.7573 75.0486 14.6087 75.0469C14.4601 75.0453 14.3126 75.073 14.1748 75.1285L4.90654 78.802C4.62879 78.9113 4.40576 79.1263 4.2864 79.3999C4.16704 79.6735 4.16109 79.9833 4.26988 80.2612C4.34921 80.4771 4.49267 80.6635 4.681 80.7954C4.86934 80.9273 5.09354 80.9985 5.32348 80.9993Z" fill="#81C2FF"/>
<path opacity="0.5" d="M5.32348 80.9993C5.4648 80.9984 5.60455 80.9697 5.73477 80.9148L15.003 77.2244C15.1416 77.1707 15.2681 77.0901 15.3754 76.9873C15.4827 76.8845 15.5686 76.7615 15.6282 76.6253C15.6878 76.4892 15.7198 76.3426 15.7225 76.194C15.7252 76.0454 15.6984 75.8978 15.6438 75.7596C15.5892 75.6214 15.5078 75.4953 15.4042 75.3887C15.3007 75.2821 15.1771 75.197 15.0406 75.1384C14.9041 75.0797 14.7573 75.0486 14.6087 75.0469C14.4601 75.0453 14.3126 75.073 14.1748 75.1285L4.90654 78.802C4.62879 78.9113 4.40576 79.1263 4.2864 79.3999C4.16704 79.6735 4.16109 79.9833 4.26988 80.2612C4.34921 80.4771 4.49267 80.6635 4.681 80.7954C4.86934 80.9273 5.09354 80.9985 5.32348 80.9993Z" fill="white"/>
<path d="M24.696 90.7511C24.8367 90.7494 24.976 90.7227 25.1073 90.6722L41.9366 83.99C42.0752 83.9363 42.2017 83.8558 42.309 83.7529C42.4163 83.6501 42.5022 83.5271 42.5618 83.391C42.6213 83.2548 42.6534 83.1082 42.6561 82.9596C42.6587 82.8111 42.632 82.6634 42.5774 82.5252C42.5228 82.387 42.4414 82.261 42.3378 82.1544C42.2343 82.0477 42.1107 81.9627 41.9742 81.904C41.8377 81.8453 41.6909 81.8143 41.5423 81.8126C41.3937 81.8109 41.2462 81.8386 41.1084 81.8941L24.2791 88.5537C24.0349 88.6502 23.8321 88.8289 23.7057 89.059C23.5793 89.289 23.5371 89.556 23.5866 89.8138C23.636 90.0717 23.7739 90.3041 23.9764 90.4711C24.179 90.6381 24.4335 90.7292 24.696 90.7285V90.7511Z" fill="#81C2FF"/>
<path opacity="0.3" d="M24.696 90.7511C24.8367 90.7494 24.976 90.7227 25.1073 90.6722L41.9366 83.99C42.0752 83.9363 42.2017 83.8558 42.309 83.7529C42.4163 83.6501 42.5022 83.5271 42.5618 83.391C42.6213 83.2548 42.6534 83.1082 42.6561 82.9596C42.6587 82.8111 42.632 82.6634 42.5774 82.5252C42.5228 82.387 42.4414 82.261 42.3378 82.1544C42.2343 82.0477 42.1107 81.9627 41.9742 81.904C41.8377 81.8453 41.6909 81.8143 41.5423 81.8126C41.3937 81.8109 41.2462 81.8386 41.1084 81.8941L24.2791 88.5537C24.0349 88.6502 23.8321 88.8289 23.7057 89.059C23.5793 89.289 23.5371 89.556 23.5866 89.8138C23.636 90.0717 23.7739 90.3041 23.9764 90.4711C24.179 90.6381 24.4335 90.7292 24.696 90.7285V90.7511Z" fill="#006AB6"/>
</svg>
