<svg width="240" height="35" viewBox="0 0 240 35" fill="none" xmlns="http://www.w3.org/2000/svg">
<g clip-path="url(#clip0_1096_2394)">
<path d="M29.5555 0.214888C26.4506 -0.335953 22.3628 0.70634 19.0323 4.68644C15.691 0.641536 11.5708 -0.422433 8.44441 0.139208C3.40032 1.04108 0 5.86363 0 12.1551C0 25.2241 11.0283 34.1563 11.4957 34.5397C11.8072 34.7882 12.1939 34.9233 12.5914 34.9233V34.8638C13.5744 34.8584 14.3641 34.0591 14.3587 33.0708C14.3587 32.5308 14.1116 32.0233 13.698 31.6884C13.5906 31.6128 3.53467 23.4258 3.53467 12.0958C3.53467 7.51623 5.70488 4.17337 9.06224 3.57392C11.3291 3.2229 14.4125 4.2436 16.9372 7.79167C16.3463 8.89335 15.836 10.0327 15.4116 11.21C13.6174 16.2162 13.4671 19.7319 15.1377 21.8974C16.0993 23.1179 17.5872 23.7984 19.1343 23.712V23.6526C20.5901 23.6526 21.9652 22.9776 22.8569 21.8219C24.5114 19.7157 24.4362 16.2001 22.5829 11.1345C22.1639 9.968 21.6536 8.82849 21.0681 7.73761C23.5821 4.21655 26.6763 3.23903 28.9324 3.63866C32.2898 4.2327 34.46 7.57557 34.46 12.1605C34.46 23.4905 24.4039 31.6722 24.2965 31.7532C23.5337 32.3742 23.4102 33.4975 24.0279 34.2643C24.361 34.6855 24.8713 34.9287 25.4031 34.9287V35.0042C25.8006 35.0042 26.1874 34.8692 26.499 34.6208C26.9717 34.2374 37.9945 25.3052 37.9945 12.2362C37.9999 5.94472 34.5996 1.11675 29.5555 0.214888ZM19.274 12.3442C21.1863 17.5664 20.3806 19.2783 20.0959 19.6726C19.8327 19.9912 19.4405 20.1639 19.0323 20.1477L19.0215 20.3422L19.0161 20.2503V20.1585C18.5972 20.1747 18.1996 20.0019 17.9203 19.6832C17.6302 19.289 16.8244 17.5772 18.7261 12.355C18.8174 12.1066 18.9087 11.8689 19 11.6313C19.0967 11.8635 19.188 12.1012 19.274 12.3442Z" fill="#006AB6"/>
<path d="M67.1067 11.7971C68.8901 11.7971 70.3244 12.4127 71.4095 13.6386C72.4946 14.8699 73.0317 16.49 73.0317 18.5098V29.9965H69.5992V18.9688C69.5992 17.6565 69.2339 16.5981 68.5033 15.7934C67.7728 14.9887 66.8005 14.5891 65.5811 14.5891C64.3348 14.5513 63.1369 15.1075 62.358 16.085C61.5362 17.0841 61.1279 18.3964 61.1279 20.0219V29.9965H57.6953V18.9688C57.6953 17.6565 57.3301 16.5981 56.5995 15.7934C55.8636 14.9887 54.8161 14.5513 53.7256 14.5891C52.4793 14.5513 51.2814 15.1075 50.5025 16.085C49.6807 17.0841 49.2724 18.3964 49.2724 20.0219V29.9965H45.8398V12.1373H49.2724V15.3506H49.3369C49.7988 14.2651 50.5992 13.3632 51.6145 12.7854C52.705 12.1265 53.9566 11.7863 55.2297 11.8025C57.7383 11.7161 59.9945 13.3416 60.7196 15.761H60.7841C61.3267 14.5729 62.213 13.5738 63.3196 12.8934C64.4584 12.1643 65.7691 11.7863 67.1067 11.7971Z" fill="#0F6BB5"/>
<path d="M78.7855 8.1803C78.2322 8.2019 77.695 8.00209 77.2975 7.62406C76.9161 7.24603 76.7066 6.71679 76.7281 6.17675C76.7066 5.64211 76.9107 5.11827 77.2975 4.74564C77.7058 4.37842 78.2376 4.184 78.7855 4.2056C79.3442 4.1786 79.8921 4.37302 80.3111 4.74564C80.6979 5.11827 80.902 5.64211 80.8805 6.17675C80.902 6.71679 80.6925 7.24603 80.3111 7.62406C79.8921 8.00749 79.3442 8.2073 78.7855 8.1803ZM77.1095 29.9979V12.1334H80.5421V29.9979H77.1095Z" fill="#0F6BB5"/>
<path d="M102.221 11.7982C104.531 11.7982 106.401 12.6461 107.83 14.3472C109.258 16.0484 109.973 18.2841 109.973 21.0653C109.973 23.8411 109.264 26.0823 107.846 27.7834C106.428 29.4846 104.564 30.3324 102.254 30.3324C100.862 30.3486 99.4872 30.0084 98.2625 29.3387C97.1344 28.7501 96.2427 27.7888 95.7431 26.6115H95.6787V29.9976H92.2461V3.44922H95.6787V15.5515H95.7431C96.2642 14.385 97.1559 13.4238 98.2786 12.8189C99.4819 12.1385 100.841 11.7874 102.221 11.7982ZM97.1505 25.7799C98.1336 26.9626 99.4335 27.5566 101.061 27.5566C102.683 27.5566 103.989 26.9626 104.972 25.7799C105.955 24.5972 106.444 23.0257 106.444 21.0653C106.444 19.105 105.955 17.5389 104.972 16.3616C103.989 15.1843 102.683 14.5956 101.061 14.5956C99.4389 14.5956 98.1336 15.1843 97.1505 16.3616C96.1675 17.5389 95.6787 19.1104 95.6787 21.0653C95.6733 23.0257 96.1675 24.5972 97.1505 25.7799Z" fill="#0F6BB5"/>
<path d="M114.786 8.1803C114.238 8.2019 113.701 8.00209 113.298 7.62406C112.917 7.24603 112.707 6.71679 112.729 6.17675C112.702 5.64211 112.912 5.11827 113.298 4.74564C113.707 4.37842 114.238 4.184 114.786 4.2056C115.345 4.1786 115.893 4.37302 116.312 4.74564C116.699 5.11827 116.903 5.64211 116.881 6.17675C116.903 6.71679 116.693 7.24603 116.312 7.62406C115.898 8.00749 115.35 8.2073 114.786 8.1803ZM113.116 29.9979V12.1334H116.548V29.9979H113.116Z" fill="#0F6BB5"/>
<path d="M137.216 21.2122V21.7198H123.088C123.201 23.5614 123.727 25.0357 124.678 26.1374C125.629 27.2444 126.891 27.7953 128.46 27.7953C129.69 27.8115 130.888 27.4118 131.86 26.6612C132.832 25.9213 133.531 24.8737 133.853 23.691L137.135 24.1446C136.743 25.9753 135.674 27.5793 134.138 28.6377C132.553 29.7718 130.662 30.3389 128.46 30.3389C125.822 30.3389 123.706 29.491 122.099 27.7899C120.493 26.0887 119.688 23.853 119.688 21.0718C119.688 18.296 120.488 16.0548 122.089 14.3537C123.689 12.6526 125.817 11.8047 128.46 11.8047C131.092 11.8047 133.214 12.6688 134.814 14.3915C136.415 16.1142 137.216 18.3824 137.216 21.2122ZM132.053 15.7578C130.06 13.7812 126.853 13.7812 124.861 15.7578C123.899 16.7461 123.319 18.08 123.12 19.7649H133.788C133.584 18.08 133.009 16.7461 132.053 15.7578Z" fill="#0F6BB5"/>
<path d="M150.013 11.7974C151.888 11.7974 153.398 12.4293 154.542 13.693C155.686 14.9567 156.261 16.6308 156.261 18.7208V29.9968H152.828V19.1042C152.828 17.7487 152.436 16.6578 151.646 15.8315C150.862 15.0053 149.825 14.5948 148.542 14.5948C147.08 14.5948 145.909 15.1079 145.034 16.1286C144.158 17.1492 143.718 18.4831 143.718 20.1357V29.9968H140.285V12.1377H143.718V15.3509H143.782C144.303 14.2492 145.163 13.3474 146.226 12.7641C147.387 12.1161 148.692 11.7812 150.013 11.7974Z" fill="#0F6BB5"/>
<path d="M176.593 21.2122V21.7198H162.465C162.578 23.5614 163.105 25.0357 164.055 26.1374C165.006 27.2444 166.268 27.7953 167.842 27.7953C169.073 27.8115 170.27 27.4118 171.243 26.6612C172.215 25.9213 172.913 24.8737 173.236 23.691L176.518 24.1446C176.126 25.9753 175.057 27.5793 173.52 28.6377C171.936 29.7718 170.045 30.3389 167.842 30.3389C165.205 30.3389 163.088 29.491 161.482 27.7899C159.876 26.0887 159.07 23.853 159.07 21.0718C159.07 18.296 159.871 16.0548 161.471 14.3537C163.072 12.6526 165.199 11.8047 167.842 11.8047C170.475 11.8047 172.596 12.6688 174.197 14.3915C175.793 16.1088 176.593 18.3824 176.593 21.2122ZM171.431 15.7578C169.438 13.7812 166.231 13.7812 164.238 15.7578C163.276 16.7461 162.696 18.08 162.498 19.7649H173.166C172.962 18.08 172.382 16.7461 171.431 15.7578Z" fill="#0F6BB5"/>
<path d="M186.048 30.3311C183.759 30.3311 181.901 29.7964 180.472 28.7325C179.097 27.7659 178.259 26.1943 178.227 24.5094L181.444 24.2394C181.455 25.3141 181.949 26.324 182.782 26.9936C183.631 27.6849 184.716 28.0305 186.048 28.0305C187.375 28.0305 188.444 27.7659 189.255 27.2366C190.066 26.7074 190.469 26.0053 190.469 25.1305C190.48 24.6498 190.351 24.18 190.093 23.775C189.792 23.3591 189.373 23.0459 188.895 22.8677C188.401 22.6571 187.89 22.4789 187.369 22.3439C186.902 22.2251 186.252 22.1008 185.425 21.9658C184.64 21.8308 184.001 21.712 183.496 21.604C182.9 21.469 182.314 21.2908 181.745 21.064C181.176 20.8642 180.644 20.5671 180.171 20.1891C179.758 19.8219 179.424 19.3736 179.183 18.8768C178.898 18.2936 178.758 17.6509 178.774 16.9975C178.774 15.4367 179.441 14.1785 180.778 13.228C182.11 12.2721 183.867 11.7969 186.042 11.7969C188.143 11.7969 189.862 12.3207 191.199 13.363C192.499 14.3351 193.284 15.858 193.31 17.4889L190.044 17.7265C190.034 16.7274 189.604 15.777 188.863 15.1073C188.084 14.4269 187.074 14.0704 186.042 14.1082C184.861 14.1082 183.905 14.3513 183.179 14.8319C182.497 15.2369 182.083 15.9714 182.089 16.7652C182.078 17.1649 182.196 17.5591 182.433 17.8831C182.728 18.2396 183.109 18.5042 183.545 18.6554C184.007 18.8444 184.485 19.001 184.968 19.1198C185.403 19.2224 186.01 19.3412 186.795 19.4762C187.622 19.6329 188.283 19.7733 188.787 19.8867C189.411 20.0433 190.023 20.2377 190.619 20.4753C191.226 20.6859 191.796 21.0046 192.295 21.4096C192.73 21.8092 193.085 22.2899 193.343 22.8245C193.654 23.4563 193.81 24.1584 193.794 24.8604C193.794 26.486 193.085 27.8091 191.667 28.8135C190.254 29.8234 188.379 30.3311 186.048 30.3311Z" fill="#0F6BB5"/>
<path d="M206.72 14.6589H200.86V24.8279C200.827 25.6109 201.155 26.367 201.746 26.88C202.337 27.3985 203.127 27.6523 204.11 27.6523C205.012 27.6631 205.904 27.4741 206.72 27.096V29.6018C205.549 30.1041 204.292 30.3525 203.019 30.3255C201.343 30.3255 199.995 29.8395 198.969 28.862C197.943 27.8845 197.427 26.6046 197.427 25.0223V14.6589H194.516V12.488H194.886C196.068 12.488 196.917 12.0937 197.422 11.3107C197.932 10.5276 198.303 9.07491 198.534 6.96875H200.86V12.1369H206.72V14.6589Z" fill="#0F6BB5"/>
<path d="M224.44 27.6588C224.757 27.6642 225.074 27.621 225.38 27.5238V29.8621C224.789 30.1862 223.994 30.3428 223 30.332C222.264 30.359 221.545 30.0836 221.007 29.5759C220.47 29.0413 220.153 28.3176 220.121 27.5562L220.057 26.9675C219.369 28.0476 218.391 28.9063 217.236 29.4409C215.979 30.0458 214.604 30.3482 213.208 30.332C211.51 30.332 210.156 29.8945 209.141 29.0251C208.131 28.1718 207.573 26.9027 207.616 25.585C207.616 23.5653 208.448 22.1612 210.119 21.3781C211.789 20.595 215.077 19.7148 219.992 18.7535V17.3386C220.024 16.4205 219.6 15.5403 218.864 15.0002C218.112 14.4278 217.113 14.1416 215.877 14.1416C214.615 14.1416 213.605 14.4818 212.837 15.1622C212.069 15.8481 211.628 16.831 211.623 17.8624L208.405 17.6626C208.411 15.9885 209.206 14.4116 210.549 13.4233C211.934 12.3486 213.734 11.8086 215.947 11.8086C218.166 11.8086 219.949 12.3324 221.297 13.3747C222.603 14.3306 223.36 15.8751 223.323 17.5006V26.3789C223.307 26.7191 223.414 27.0485 223.623 27.3131C223.828 27.5454 224.128 27.6696 224.44 27.6588ZM214.158 27.9234C215.899 27.9234 217.306 27.4428 218.375 26.4761C219.444 25.5094 219.981 24.3699 219.981 23.0576V20.7841C216.533 21.4915 214.438 21.983 213.702 22.2638C211.983 22.8578 211.054 23.7327 210.919 24.8884C210.898 25.0234 210.887 25.1584 210.887 25.2934C210.866 26.0333 211.199 26.7407 211.784 27.1943C212.386 27.6858 213.175 27.9234 214.158 27.9234Z" fill="#0F6BB5"/>
<path d="M237.157 11.7978C238.135 11.7816 239.107 11.976 240.004 12.3703L239.182 15.6213C238.349 15.1407 237.399 14.903 236.437 14.93C234.965 14.8814 233.558 15.5349 232.634 16.6906C231.672 17.8625 231.194 19.4016 231.194 21.3133V29.9972H227.762V12.138H231.194V15.8913H231.259C231.721 14.687 232.543 13.6555 233.601 12.9265C234.648 12.1866 235.884 11.7924 237.157 11.7978Z" fill="#0F6BB5"/>
</g>
<defs>
<clipPath id="clip0_1096_2394">
<rect width="240" height="35" fill="white"/>
</clipPath>
</defs>
</svg>
