<svg width="63" height="64" viewBox="0 0 63 64" fill="none" xmlns="http://www.w3.org/2000/svg">
<path d="M16.6473 54.4678L17.6818 54.9836C21.9928 57.562 26.8208 58.7653 31.6489 58.7653C46.8229 58.7653 59.2379 46.3886 59.2379 31.2615C59.2379 24.0419 56.3065 16.994 51.1337 11.837C45.9607 6.67997 39.0633 3.75781 31.6489 3.75781C16.475 3.75781 4.0597 16.1345 4.23225 31.4336C4.23225 36.5903 5.78412 41.5756 8.37051 45.8728L9.06018 46.9044L6.3015 57.0464L16.6473 54.4678Z" fill="#21B16B"/>
<path d="M53.9018 9.26319C48.0653 3.25938 39.9972 0 31.7574 0C14.2481 0 0.171771 14.2378 0.343295 31.5634C0.343295 37.0528 1.88825 42.3707 4.46333 47.1737L0 63.4702L16.6512 59.1816C21.286 61.7549 26.4357 62.9557 31.5859 62.9557C48.9237 62.9557 63 48.7176 63 31.3923C63 22.9866 59.7383 15.0956 53.9021 9.26319H53.9018ZM31.7574 57.638C27.1226 57.638 22.4877 56.4374 18.5394 54.0358L17.5095 53.5211L7.55324 56.0941L10.1281 46.3165L9.44149 45.2871C1.88825 33.1078 5.49322 16.9825 17.8528 9.4346C30.2125 1.88692 46.177 5.48936 53.7303 17.8403C61.2833 30.1912 57.6783 46.1446 45.3189 53.6925C41.3704 56.2655 36.564 57.6377 31.7574 57.6377V57.638ZM46.8636 38.5971L44.9754 37.7394C44.9754 37.7394 42.229 36.5386 40.5123 35.6808C40.3405 35.6808 40.169 35.5092 39.9972 35.5092C39.4822 35.5092 39.1389 35.6808 38.7956 35.8525C38.7956 35.8525 38.6241 36.0239 36.2207 38.7685C36.049 39.1116 35.7057 39.2832 35.3624 39.2832H35.1906C35.0191 39.2832 34.6758 39.1116 34.504 38.9402L33.6457 38.5971C31.7574 37.7394 30.0409 36.71 28.6675 35.3378C28.3242 34.9947 27.8091 34.6516 27.4658 34.3086C26.2642 33.1078 25.0625 31.7353 24.2044 30.1915L24.0326 29.8484C23.8611 29.6768 23.8611 29.5053 23.6894 29.1623C23.6894 28.8192 23.6894 28.4762 23.8611 28.3045C23.8611 28.3045 24.5477 27.4468 25.0625 26.9323C25.4061 26.589 25.5776 26.0746 25.9209 25.7315C26.2642 25.2168 26.436 24.5307 26.2642 24.016C26.0927 23.1582 24.0326 18.5266 23.5178 17.4975C23.1743 16.9828 22.8312 16.8114 22.3162 16.6397H20.4279C20.0844 16.6397 19.7413 16.8114 19.3978 16.8114L19.226 16.9828C18.8827 17.1544 18.5394 17.4975 18.1961 17.6689C17.8528 18.0122 17.6811 18.355 17.3378 18.6983C16.1361 20.2422 15.4495 22.1291 15.4495 24.016C15.4495 25.3882 15.7928 26.7607 16.3079 27.9615L16.4797 28.4762C18.0246 31.7353 20.0844 34.6516 22.8312 37.2247L23.5178 37.9108C24.0326 38.4255 24.5477 38.7685 24.891 39.283C28.496 42.371 32.6158 44.6009 37.2506 45.8018C37.7657 45.9732 38.4523 45.9732 38.9674 46.1448H40.6838C41.5422 46.1448 42.5721 45.8018 43.2589 45.4587C43.7737 45.1157 44.117 45.1157 44.4603 44.7726L44.8039 44.4293C45.1472 44.0862 45.4905 43.9148 45.8338 43.5718C46.177 43.2287 46.5203 42.8857 46.6921 42.5424C47.0354 41.8563 47.2069 40.9985 47.3787 40.141V38.9402C47.3787 38.9402 47.2069 38.7685 46.8636 38.5971V38.5971Z" fill="white"/>
</svg>
